<?xml version="1.0" encoding="UTF-8" standalone="no"?>
<!-- Created with Inkscape (http://www.inkscape.org/) -->

<svg
   width="130.71211mm"
   height="89.507118mm"
   viewBox="0 0 130.71211 89.507118"
   version="1.1"
   id="svg1"
   inkscape:version="1.4 (e7c3feb100, 2024-10-09)"
   sodipodi:docname="new-alchemicats-logo.svg"
   xmlns:inkscape="http://www.inkscape.org/namespaces/inkscape"
   xmlns:sodipodi="http://sodipodi.sourceforge.net/DTD/sodipodi-0.dtd"
   xmlns:xlink="http://www.w3.org/1999/xlink"
   xmlns="http://www.w3.org/2000/svg"
   xmlns:svg="http://www.w3.org/2000/svg">
  <sodipodi:namedview
     id="namedview1"
     pagecolor="#ffffff"
     bordercolor="#000000"
     borderopacity="0.25"
     inkscape:showpageshadow="2"
     inkscape:pageopacity="0.0"
     inkscape:pagecheckerboard="0"
     inkscape:deskcolor="#d1d1d1"
     inkscape:document-units="mm"
     inkscape:zoom="0.50394254"
     inkscape:cx="1115.2065"
     inkscape:cy="37.702711"
     inkscape:window-width="1920"
     inkscape:window-height="1011"
     inkscape:window-x="0"
     inkscape:window-y="0"
     inkscape:window-maximized="1"
     inkscape:current-layer="layer1">
    <inkscape:page
       x="0"
       y="0"
       width="130.71211"
       height="89.507118"
       id="page2"
       margin="0"
       bleed="0" />
  </sodipodi:namedview>
  <defs
     id="defs1">
    <linearGradient
       id="linearGradient95"
       inkscape:collect="always">
      <stop
         style="stop-color:#583b57;stop-opacity:1;"
         offset="0"
         id="stop96" />
      <stop
         style="stop-color:#583b57;stop-opacity:0;"
         offset="1"
         id="stop97" />
    </linearGradient>
    <linearGradient
       id="linearGradient93"
       inkscape:collect="always">
      <stop
         style="stop-color:#875887;stop-opacity:1;"
         offset="0"
         id="stop94" />
      <stop
         style="stop-color:#875887;stop-opacity:0;"
         offset="1"
         id="stop95" />
    </linearGradient>
    <linearGradient
       id="linearGradient86"
       inkscape:collect="always">
      <stop
         style="stop-color:#583b57;stop-opacity:0;"
         offset="0"
         id="stop88" />
      <stop
         style="stop-color:#583b57;stop-opacity:1;"
         offset="1"
         id="stop87" />
    </linearGradient>
    <linearGradient
       id="linearGradient84"
       inkscape:collect="always">
      <stop
         style="stop-color:#875887;stop-opacity:0;"
         offset="0"
         id="stop86" />
      <stop
         style="stop-color:#875887;stop-opacity:1;"
         offset="1"
         id="stop85" />
    </linearGradient>
    <linearGradient
       id="linearGradient82"
       inkscape:collect="always">
      <stop
         style="stop-color:#875887;stop-opacity:0;"
         offset="0"
         id="stop84" />
      <stop
         style="stop-color:#875887;stop-opacity:1;"
         offset="1"
         id="stop83" />
    </linearGradient>
    <linearGradient
       id="linearGradient80"
       inkscape:collect="always">
      <stop
         style="stop-color:#644263;stop-opacity:0;"
         offset="0"
         id="stop82" />
      <stop
         style="stop-color:#644263;stop-opacity:1;"
         offset="1"
         id="stop81" />
    </linearGradient>
    <linearGradient
       id="linearGradient79"
       inkscape:collect="always">
      <stop
         style="stop-color:#875887;stop-opacity:1;"
         offset="0"
         id="stop79" />
      <stop
         style="stop-color:#875887;stop-opacity:0;"
         offset="1"
         id="stop80" />
    </linearGradient>
    <linearGradient
       id="linearGradient75"
       inkscape:collect="always">
      <stop
         style="stop-color:#583b57;stop-opacity:0;"
         offset="0"
         id="stop76" />
      <stop
         style="stop-color:#583b57;stop-opacity:1;"
         offset="1"
         id="stop75" />
    </linearGradient>
    <radialGradient
       inkscape:collect="always"
       xlink:href="#linearGradient75"
       id="radialGradient76"
       cx="98.340073"
       cy="111.04874"
       fx="98.340073"
       fy="111.04874"
       r="16.185606"
       gradientTransform="matrix(1.917482,0.02293705,-0.02279167,1.9053288,-87.694259,-102.79125)"
       gradientUnits="userSpaceOnUse"
       spreadMethod="pad" />
    <radialGradient
       inkscape:collect="always"
       xlink:href="#linearGradient79"
       id="radialGradient80"
       cx="127.94273"
       cy="111.05163"
       fx="127.94273"
       fy="111.05163"
       r="16.004959"
       gradientTransform="matrix(1,0,0,1.9271523,0,-102.96177)"
       gradientUnits="userSpaceOnUse" />
    <radialGradient
       inkscape:collect="always"
       xlink:href="#linearGradient80"
       id="radialGradient82"
       cx="163.12354"
       cy="97.827637"
       fx="163.12354"
       fy="97.827637"
       r="15.539478"
       gradientTransform="matrix(-1.6195569,-1.5161147,1.5124973,-1.6156927,283.45641,511.52378)"
       gradientUnits="userSpaceOnUse" />
    <radialGradient
       inkscape:collect="always"
       xlink:href="#linearGradient82"
       id="radialGradient84"
       cx="72.887505"
       cy="118.64827"
       fx="72.887505"
       fy="118.64827"
       r="19.420012"
       gradientTransform="matrix(-0.74069244,-0.835982,1.5103531,-1.3381953,-43.963023,330.12609)"
       gradientUnits="userSpaceOnUse" />
    <radialGradient
       inkscape:collect="always"
       xlink:href="#linearGradient84"
       id="radialGradient86"
       cx="96.929398"
       cy="81.461769"
       fx="96.929398"
       fy="81.461769"
       r="6.7751198"
       gradientTransform="matrix(3.5017177,-1.3501636,1.1524543,2.9889482,-336.00271,-30.374398)"
       gradientUnits="userSpaceOnUse" />
    <radialGradient
       inkscape:collect="always"
       xlink:href="#linearGradient86"
       id="radialGradient88"
       cx="133.72134"
       cy="74.41568"
       fx="133.72134"
       fy="74.41568"
       r="6.7860298"
       gradientTransform="matrix(-1.7485016,0.63962621,-0.63776244,-1.7434067,412.40394,122.74435)"
       gradientUnits="userSpaceOnUse" />
    <radialGradient
       inkscape:collect="always"
       xlink:href="#linearGradient93"
       id="radialGradient95"
       cx="100.33031"
       cy="104.41406"
       fx="100.33031"
       fy="104.41406"
       r="3.2484374"
       gradientTransform="matrix(1.3514613,0,0,1.5831404,-35.301829,-60.888056)"
       gradientUnits="userSpaceOnUse" />
    <radialGradient
       inkscape:collect="always"
       xlink:href="#linearGradient95"
       id="radialGradient97"
       cx="125.20406"
       cy="104.41406"
       fx="125.20406"
       fy="104.41406"
       r="3.2484374"
       gradientTransform="matrix(1.3514613,0,0,1.5831404,-42.783461,-60.888056)"
       gradientUnits="userSpaceOnUse" />
    <radialGradient
       inkscape:collect="always"
       xlink:href="#linearGradient80"
       id="radialGradient424"
       gradientUnits="userSpaceOnUse"
       gradientTransform="matrix(-1.6195569,-1.5161147,1.5124973,-1.6156927,283.45641,511.52378)"
       cx="163.12354"
       cy="97.827637"
       fx="163.12354"
       fy="97.827637"
       r="15.539478" />
    <radialGradient
       inkscape:collect="always"
       xlink:href="#linearGradient84"
       id="radialGradient425"
       gradientUnits="userSpaceOnUse"
       gradientTransform="matrix(3.5017177,-1.3501636,1.1524543,2.9889482,-336.00271,-30.374398)"
       cx="96.929398"
       cy="81.461769"
       fx="96.929398"
       fy="81.461769"
       r="6.7751198" />
    <radialGradient
       inkscape:collect="always"
       xlink:href="#linearGradient82"
       id="radialGradient426"
       gradientUnits="userSpaceOnUse"
       gradientTransform="matrix(-0.74069244,-0.835982,1.5103531,-1.3381953,-43.963023,330.12609)"
       cx="72.887505"
       cy="118.64827"
       fx="72.887505"
       fy="118.64827"
       r="19.420012" />
    <radialGradient
       inkscape:collect="always"
       xlink:href="#linearGradient75"
       id="radialGradient427"
       gradientUnits="userSpaceOnUse"
       gradientTransform="matrix(1.917482,0.02293705,-0.02279167,1.9053288,-87.694259,-102.79125)"
       cx="98.340073"
       cy="111.04874"
       fx="98.340073"
       fy="111.04874"
       r="16.185606"
       spreadMethod="pad" />
    <radialGradient
       inkscape:collect="always"
       xlink:href="#linearGradient86"
       id="radialGradient428"
       gradientUnits="userSpaceOnUse"
       gradientTransform="matrix(-1.7485016,0.63962621,-0.63776244,-1.7434067,412.40394,122.74435)"
       cx="133.72134"
       cy="74.41568"
       fx="133.72134"
       fy="74.41568"
       r="6.7860298" />
    <radialGradient
       inkscape:collect="always"
       xlink:href="#linearGradient79"
       id="radialGradient429"
       gradientUnits="userSpaceOnUse"
       gradientTransform="matrix(1,0,0,1.9271523,0,-102.96177)"
       cx="127.94273"
       cy="111.05163"
       fx="127.94273"
       fy="111.05163"
       r="16.004959" />
    <radialGradient
       inkscape:collect="always"
       xlink:href="#linearGradient93"
       id="radialGradient430"
       gradientUnits="userSpaceOnUse"
       gradientTransform="matrix(1.3514613,0,0,1.5831404,-35.301829,-60.888056)"
       cx="100.33031"
       cy="104.41406"
       fx="100.33031"
       fy="104.41406"
       r="3.2484374" />
    <radialGradient
       inkscape:collect="always"
       xlink:href="#linearGradient95"
       id="radialGradient431"
       gradientUnits="userSpaceOnUse"
       gradientTransform="matrix(1.3514613,0,0,1.5831404,-42.783461,-60.888056)"
       cx="125.20406"
       cy="104.41406"
       fx="125.20406"
       fy="104.41406"
       r="3.2484374" />
    <filter
       inkscape:collect="always"
       style="color-interpolation-filters:sRGB"
       id="filter431"
       x="-0.093308367"
       y="-1.3199719"
       width="1.1866167"
       height="3.6399438">
      <feGaussianBlur
         inkscape:collect="always"
         stdDeviation="5.9195511"
         id="feGaussianBlur431" />
    </filter>
  </defs>
  <g
     inkscape:label="Layer 1"
     inkscape:groupmode="layer"
     id="layer1"
     transform="translate(-39.643937,-67.425345)">
    <g
       id="g432">
      <ellipse
         style="opacity:0.425818;mix-blend-mode:normal;fill:#3b263a;fill-opacity:1;fill-rule:nonzero;stroke:none;stroke-width:0.264583;filter:url(#filter431)"
         id="path431"
         cx="134.40686"
         cy="140.0509"
         rx="76.128876"
         ry="5.3815246"
         transform="matrix(0.5219674,0,0,0.82160729,34.844003,25.771601)"
         inkscape:export-filename="alchemicats-full.svg"
         inkscape:export-xdpi="379.45383"
         inkscape:export-ydpi="379.45383" />
      <g
         id="g130"
         inkscape:export-filename="alchemicats-full.svg"
         inkscape:export-xdpi="379.45383"
         inkscape:export-ydpi="379.45383"
         style="opacity:0.781037"
         transform="translate(-5.4594024,-5.2502679)">
        <path
           id="path172"
           style="opacity:1;fill:url(#radialGradient424);fill-opacity:1;stroke:none;stroke-width:0.255016;stroke-dasharray:none;stroke-opacity:1"
           d="m 147.80294,79.410751 -0.0844,0.196343 c 7.9845,6.647112 5.03076,21.582166 -2.98203,24.314846 0.74597,4.54328 0.45039,9.25937 0.16045,13.94303 2.5574,-1.7107 5.73422,-1.9233 8.31343,-0.18185 1.90404,1.28517 2.79948,3.22022 4.18951,5.19319 1.56062,-6.15814 8.57972,-8.54601 12.76473,-5.97144 2.85676,1.75714 4.14433,4.59745 5.5131,8.10979 0.42225,-3.83816 -0.19845,-8.03184 -0.88671,-11.75373 -2.15899,-11.65229 -8.03677,-22.352367 -16.07419,-28.402481 -3.48028,-2.619928 -7.14508,-3.816625 -10.90995,-5.447755 z"
           sodipodi:nodetypes="cccccccccssc"
           inkscape:export-filename="alchemicats-full.svg"
           inkscape:export-xdpi="379.45383"
           inkscape:export-ydpi="379.45383"
           inkscape:label="wing-right" />
        <path
           id="path173"
           style="opacity:1;fill:url(#radialGradient425);fill-opacity:1;stroke:none;stroke-width:0.255016;stroke-linecap:round;stroke-dasharray:none;stroke-opacity:1"
           d="m 92.59121,72.792 c -1.75767,4.562547 -1.83339,9.566636 -1.90559,14.568528 3.91589,-3.462685 8.67191,-5.939598 13.55024,-7.142432 C 100.88704,76.909727 97.16637,74.18131 92.59121,72.792 Z"
           inkscape:label="hear-left" />
        <path
           id="path175"
           style="opacity:1;fill:url(#radialGradient426);fill-opacity:1;stroke:none;stroke-width:0.255016;stroke-linecap:square;stroke-linejoin:bevel;stroke-dasharray:none;stroke-opacity:1;paint-order:fill markers stroke"
           d="m 71.29475,93.150132 c -0.76004,-2.25e-4 -1.080946,0.215345 -2.371043,1.585584 -7.361831,7.815784 -17.654178,24.393214 -22.569243,36.366814 -1.793413,4.36901 -1.814244,4.3331 0.959902,1.49104 5.792348,-5.93381 10.670537,-8.9826 14.38671,-8.9826 2.90856,0 5.514089,2.0009 7.193355,5.52048 l 0.91627,1.92017 0.567215,-1.24379 c 0.751595,-1.65243 3.265497,-6.80567 7.011504,-8.72803 1.26111,-0.64702 2.63453,-1.20917 4.01485,-1.36019 -0.44336,-7.62067 -1.25829,-15.40493 2.08025,-22.4456 0.14497,-0.300779 0.30261,-0.60015 0.45884,-0.894595 -4.53828,-1.71358 -10.273204,-3.228734 -12.64847,-3.229367 z"
           inkscape:label="wing-left" />
        <path
           id="path176"
           style="opacity:1;fill:url(#radialGradient427);fill-opacity:1;fill-rule:nonzero;stroke:none;stroke-width:0.255016;stroke-linecap:round;stroke-linejoin:round;stroke-dasharray:none;stroke-opacity:1;paint-order:fill markers stroke"
           d="m 112.24387,80.211931 c -10.68827,-0.198595 -22.52083,6.501958 -27.5917,17.060179 -4.08761,8.62147 -1.94078,18.36462 -1.8842,27.54735 0.35891,4.6918 0.14638,10.58496 4.47101,13.42809 2.65451,2.00562 4.98938,0.7119 7.86669,1.02253 4.43666,0.47911 5.77124,2.9296 10.5502,2.58707 2.30996,-0.16552 4.45243,-1.32627 6.74521,-1.55098 7.05571,-20.28234 -6.25681,-38.69774 0,-60.088215 -0.0563,-0.0012 -0.0985,-0.0051 -0.15763,-0.0065 z M 99.23311,94.818546 c 5.39065,0.02674 8.57663,6.709474 6.98998,11.729164 -1.22592,6.17462 -8.53187,9.21499 -13.59937,5.98438 -4.92351,-2.53829 -4.06959,-9.49995 -1.21606,-13.359909 1.6818,-2.442275 4.36051,-4.253943 7.29666,-4.335408 0.17875,-0.0133 0.35469,-0.01971 0.52781,-0.0183 z"
           sodipodi:nodetypes="scccsscccsccccssc"
           inkscape:label="body-left" />
        <path
           id="path178"
           style="opacity:1;fill:url(#radialGradient428);fill-opacity:1;stroke:none;stroke-width:0.255016;stroke-linecap:round;stroke-dasharray:none;stroke-opacity:1"
           d="m 133.61295,72.675615 c -4.58445,1.39214 -8.31244,4.130479 -11.66647,7.447926 4.89339,1.22085 9.658,3.723281 13.57206,7.215171 -0.0704,-5.03342 -0.14075,-10.071752 -1.90559,-14.663097 z"
           inkscape:label="hear-right" />
        <path
           id="path179"
           style="opacity:1;fill:url(#radialGradient429);fill-opacity:1;stroke:none;stroke-width:0.255016;stroke-linecap:round;stroke-linejoin:bevel;stroke-dasharray:none;stroke-opacity:1;paint-order:fill markers stroke"
           d="m 113.85825,80.211931 c 10.68827,-0.198595 22.52082,6.501958 27.5917,17.060179 4.0876,8.62147 1.94091,18.36462 1.88419,27.54735 -0.3589,4.6918 -0.14497,10.58496 -4.471,13.42809 -2.65451,2.00562 -4.99093,0.43294 -7.86684,1.02253 -4.37135,0.89629 -5.64301,2.92962 -10.42197,2.58707 -2.30996,-0.16552 -4.58051,-1.32627 -6.87344,-1.55096 6.25429,-20.17615 -6.14675,-41.291956 0,-60.088235 0.0563,-0.0012 0.0985,-0.0051 0.15764,-0.0065 z m 13.01061,14.606615 c -5.39065,0.02674 -8.57648,6.709474 -6.98997,11.729164 1.22451,6.17462 8.53187,9.21499 13.59951,5.98438 4.92337,-2.53829 4.06959,-9.49995 1.21606,-13.359909 -1.6818,-2.442275 -4.36066,-4.253943 -7.29666,-4.335408 -0.17875,-0.0133 -0.35469,-0.01971 -0.52922,-0.0183 z"
           sodipodi:nodetypes="ccccssccccsccccss"
           inkscape:label="body-right" />
        <path
           id="path3"
           style="opacity:1;fill:none;fill-opacity:1;stroke:none;stroke-width:0.255016;stroke-linecap:round;stroke-linejoin:round;stroke-dasharray:none;stroke-opacity:1;paint-order:fill markers stroke"
           d="m 112.24387,80.211931 c -10.68827,-0.198595 -22.52083,6.501958 -27.5917,17.060179 -4.08761,8.62147 -1.94078,18.36462 -1.8842,27.54735 0.35891,4.6918 0.14638,10.58496 4.47101,13.42809 2.65451,2.00562 4.98938,0.7119 7.86669,1.02253 4.43666,0.47911 5.77124,2.9296 10.5502,2.58707 2.30996,-0.16552 4.45243,-1.32627 6.74521,-1.55098 7.05571,-20.28234 -6.25681,-38.69774 0,-60.088215 -0.0563,-0.0012 -0.0985,-0.0051 -0.15763,-0.0065 z M 99.23311,94.818546 c 5.39065,0.02674 8.57663,6.709474 6.98998,11.729164 -1.22592,6.17462 -8.53187,9.21499 -13.59937,5.98438 -4.92351,-2.53829 -4.06959,-9.49995 -1.21606,-13.359909 1.6818,-2.442275 4.36051,-4.253943 7.29666,-4.335408 0.17875,-0.0133 0.35469,-0.01971 0.52781,-0.0183 z"
           sodipodi:nodetypes="scccsscccsccccssc"
           inkscape:label="body-left" />
        <path
           style="display:inline;opacity:1;fill:#583b57;fill-opacity:1;stroke-width:0.183899;stroke-linecap:round"
           d="m 114.46037,117.648 3.17795,2.67052 2.65845,-3.44236 c 0.39269,-0.50853 0.31668,-1.24774 -0.17171,-1.6576 l -1.41762,-1.19143 c -0.48698,-0.40986 -1.19636,-0.33047 -1.5889,0.17875 z"
           id="path193"
           inkscape:label="upper-right-bandage" />
        <path
           style="display:inline;opacity:1;fill:#875887;fill-opacity:1;stroke-width:0.183899;stroke-linecap:round"
           d="m 111.9003,120.96326 2.55993,-3.31521 -3.29984,-2.77318 c -0.48699,-0.40986 -1.19636,-0.33047 -1.58905,0.17875 l -1.14146,1.47911 c -0.39269,0.50852 -0.31669,1.24773 0.17171,1.65761 z"
           id="path194"
           inkscape:label="upper-left-bandage" />
        <path
           style="display:inline;opacity:1;fill:#875887;fill-opacity:1;stroke-width:0.183899;stroke-linecap:round"
           d="m 115.07839,123.63387 -3.17809,-2.67053 -2.65831,3.44236 c -0.39269,0.50852 -0.31668,1.24816 0.17171,1.65802 l 1.4179,1.19143 c 0.48699,0.40986 1.19636,0.33047 1.58933,-0.17889 z"
           id="path195"
           inkscape:label="bottom-left-bandage" />
        <path
           style="display:inline;opacity:1;fill:#583b57;fill-opacity:1;stroke-width:0.183899;stroke-linecap:round"
           d="m 121.10959,124.74951 c 0.39269,-0.50853 0.31669,-1.24816 -0.17171,-1.65802 l -3.29984,-2.77316 -2.56007,3.31521 3.29984,2.77319 c 0.48699,0.40986 1.19636,0.33048 1.58905,-0.17889 z"
           id="path196"
           inkscape:label="bottom-right-bandage" />
        <rect
           style="display:inline;opacity:1;fill:#774c76;fill-opacity:1;stroke-width:0.252629;stroke-linecap:round"
           id="rect196"
           width="4.2688928"
           height="4.2306585"
           x="16.405813"
           y="-166.82812"
           ry="0"
           transform="matrix(-0.61118677,0.7914864,-0.7655791,-0.64334177,0,0)"
           inkscape:label="center-bandage" />
        <ellipse
           style="opacity:1;fill:url(#radialGradient430);stroke-width:0.357574"
           id="path19"
           cx="100.2907"
           cy="104.41406"
           rx="4.3901372"
           ry="5.1427326" />
        <ellipse
           style="opacity:1;fill:url(#radialGradient431);stroke-width:0.357574"
           id="ellipse19"
           cx="126.42499"
           cy="104.41406"
           rx="4.3901372"
           ry="5.1427326" />
        <path
           id="path216"
           style="opacity:1;fill:url(#radialGradient82);fill-opacity:1;stroke:none;stroke-width:0.255016;stroke-dasharray:none;stroke-opacity:1"
           d="m 147.80294,79.410751 -0.0844,0.196343 c 7.9845,6.647112 5.03076,21.582166 -2.98203,24.314846 0.74597,4.54328 0.45039,9.25937 0.16045,13.94303 2.5574,-1.7107 5.73422,-1.9233 8.31343,-0.18185 1.90404,1.28517 2.79948,3.22022 4.18951,5.19319 1.56062,-6.15814 8.57972,-8.54601 12.76473,-5.97144 2.85676,1.75714 4.14433,4.59745 5.5131,8.10979 0.42225,-3.83816 -0.19845,-8.03184 -0.88671,-11.75373 -2.15899,-11.65229 -8.03677,-22.352367 -16.07419,-28.402481 -3.48028,-2.619928 -7.14508,-3.816625 -10.90995,-5.447755 z"
           sodipodi:nodetypes="cccccccccssc"
           inkscape:export-filename="alchemicats-full.svg"
           inkscape:export-xdpi="379.45383"
           inkscape:export-ydpi="379.45383"
           inkscape:label="wing-right" />
        <path
           id="path217"
           style="opacity:1;fill:url(#radialGradient86);fill-opacity:1;stroke:none;stroke-width:0.255016;stroke-linecap:round;stroke-dasharray:none;stroke-opacity:1"
           d="m 92.59121,72.792 c -1.75767,4.562547 -1.83339,9.566636 -1.90559,14.568528 3.91589,-3.462685 8.67191,-5.939598 13.55024,-7.142432 C 100.88704,76.909727 97.16637,74.18131 92.59121,72.792 Z"
           inkscape:label="hear-left" />
        <path
           id="path218"
           style="opacity:1;fill:url(#radialGradient84);fill-opacity:1;stroke:none;stroke-width:0.255016;stroke-linecap:square;stroke-linejoin:bevel;stroke-dasharray:none;stroke-opacity:1;paint-order:fill markers stroke"
           d="m 71.29475,93.150132 c -0.76004,-2.25e-4 -1.080946,0.215345 -2.371043,1.585584 -7.361831,7.815784 -17.654178,24.393214 -22.569243,36.366814 -1.793413,4.36901 -1.814244,4.3331 0.959902,1.49104 5.792348,-5.93381 10.670537,-8.9826 14.38671,-8.9826 2.90856,0 5.514089,2.0009 7.193355,5.52048 l 0.91627,1.92017 0.567215,-1.24379 c 0.751595,-1.65243 3.265497,-6.80567 7.011504,-8.72803 1.26111,-0.64702 2.63453,-1.20917 4.01485,-1.36019 -0.44336,-7.62067 -1.25829,-15.40493 2.08025,-22.4456 0.14497,-0.300779 0.30261,-0.60015 0.45884,-0.894595 -4.53828,-1.71358 -10.273204,-3.228734 -12.64847,-3.229367 z"
           inkscape:label="wing-left" />
        <path
           id="path219"
           style="opacity:1;fill:url(#radialGradient76);fill-opacity:1;fill-rule:nonzero;stroke:none;stroke-width:0.255016;stroke-linecap:round;stroke-linejoin:round;stroke-dasharray:none;stroke-opacity:1;paint-order:fill markers stroke"
           d="m 112.24387,80.211931 c -10.68827,-0.198595 -22.52083,6.501958 -27.5917,17.060179 -4.08761,8.62147 -1.94078,18.36462 -1.8842,27.54735 0.35891,4.6918 0.14638,10.58496 4.47101,13.42809 2.65451,2.00562 4.98938,0.7119 7.86669,1.02253 4.43666,0.47911 5.77124,2.9296 10.5502,2.58707 2.30996,-0.16552 4.45243,-1.32627 6.74521,-1.55098 7.05571,-20.28234 -6.25681,-38.69774 0,-60.088215 -0.0563,-0.0012 -0.0985,-0.0051 -0.15763,-0.0065 z M 99.23311,94.818546 c 5.39065,0.02674 8.57663,6.709474 6.98998,11.729164 -1.22592,6.17462 -8.53187,9.21499 -13.59937,5.98438 -4.92351,-2.53829 -4.06959,-9.49995 -1.21606,-13.359909 1.6818,-2.442275 4.36051,-4.253943 7.29666,-4.335408 0.17875,-0.0133 0.35469,-0.01971 0.52781,-0.0183 z"
           sodipodi:nodetypes="scccsscccsccccssc"
           inkscape:label="body-left" />
        <path
           id="path220"
           style="opacity:1;fill:url(#radialGradient88);fill-opacity:1;stroke:none;stroke-width:0.255016;stroke-linecap:round;stroke-dasharray:none;stroke-opacity:1"
           d="m 133.61295,72.675615 c -4.58445,1.39214 -8.31244,4.130479 -11.66647,7.447926 4.89339,1.22085 9.658,3.723281 13.57206,7.215171 -0.0704,-5.03342 -0.14075,-10.071752 -1.90559,-14.663097 z"
           inkscape:label="hear-right" />
        <path
           id="path221"
           style="opacity:1;fill:url(#radialGradient80);fill-opacity:1;stroke:none;stroke-width:0.255016;stroke-linecap:round;stroke-linejoin:bevel;stroke-dasharray:none;stroke-opacity:1;paint-order:fill markers stroke"
           d="m 113.85825,80.211931 c 10.68827,-0.198595 22.52082,6.501958 27.5917,17.060179 4.0876,8.62147 1.94091,18.36462 1.88419,27.54735 -0.3589,4.6918 -0.14497,10.58496 -4.471,13.42809 -2.65451,2.00562 -4.99093,0.43294 -7.86684,1.02253 -4.37135,0.89629 -5.64301,2.92962 -10.42197,2.58707 -2.30996,-0.16552 -4.58051,-1.32627 -6.87344,-1.55096 6.25429,-20.17615 -6.14675,-41.291956 0,-60.088235 0.0563,-0.0012 0.0985,-0.0051 0.15764,-0.0065 z m 13.01061,14.606615 c -5.39065,0.02674 -8.57648,6.709474 -6.98997,11.729164 1.22451,6.17462 8.53187,9.21499 13.59951,5.98438 4.92337,-2.53829 4.06959,-9.49995 1.21606,-13.359909 -1.6818,-2.442275 -4.36066,-4.253943 -7.29666,-4.335408 -0.17875,-0.0133 -0.35469,-0.01971 -0.52922,-0.0183 z"
           sodipodi:nodetypes="ccccssccccsccccss"
           inkscape:label="body-right" />
        <path
           id="path222"
           style="opacity:1;fill:none;fill-opacity:1;stroke:none;stroke-width:0.255016;stroke-linecap:round;stroke-linejoin:round;stroke-dasharray:none;stroke-opacity:1;paint-order:fill markers stroke"
           d="m 112.24387,80.211931 c -10.68827,-0.198595 -22.52083,6.501958 -27.5917,17.060179 -4.08761,8.62147 -1.94078,18.36462 -1.8842,27.54735 0.35891,4.6918 0.14638,10.58496 4.47101,13.42809 2.65451,2.00562 4.98938,0.7119 7.86669,1.02253 4.43666,0.47911 5.77124,2.9296 10.5502,2.58707 2.30996,-0.16552 4.45243,-1.32627 6.74521,-1.55098 7.05571,-20.28234 -6.25681,-38.69774 0,-60.088215 -0.0563,-0.0012 -0.0985,-0.0051 -0.15763,-0.0065 z M 99.23311,94.818546 c 5.39065,0.02674 8.57663,6.709474 6.98998,11.729164 -1.22592,6.17462 -8.53187,9.21499 -13.59937,5.98438 -4.92351,-2.53829 -4.06959,-9.49995 -1.21606,-13.359909 1.6818,-2.442275 4.36051,-4.253943 7.29666,-4.335408 0.17875,-0.0133 0.35469,-0.01971 0.52781,-0.0183 z"
           sodipodi:nodetypes="scccsscccsccccssc"
           inkscape:label="body-left" />
        <path
           style="display:inline;opacity:1;fill:#583b57;fill-opacity:1;stroke-width:0.183899;stroke-linecap:round"
           d="m 114.46037,117.648 3.17795,2.67052 2.65845,-3.44236 c 0.39269,-0.50853 0.31668,-1.24774 -0.17171,-1.6576 l -1.41762,-1.19143 c -0.48698,-0.40986 -1.19636,-0.33047 -1.5889,0.17875 z"
           id="path223"
           inkscape:label="upper-right-bandage" />
        <path
           style="display:inline;opacity:1;fill:#875887;fill-opacity:1;stroke-width:0.183899;stroke-linecap:round"
           d="m 111.9003,120.96326 2.55993,-3.31521 -3.29984,-2.77318 c -0.48699,-0.40986 -1.19636,-0.33047 -1.58905,0.17875 l -1.14146,1.47911 c -0.39269,0.50852 -0.31669,1.24773 0.17171,1.65761 z"
           id="path224"
           inkscape:label="upper-left-bandage" />
        <path
           style="display:inline;opacity:1;fill:#875887;fill-opacity:1;stroke-width:0.183899;stroke-linecap:round"
           d="m 115.07839,123.63387 -3.17809,-2.67053 -2.65831,3.44236 c -0.39269,0.50852 -0.31668,1.24816 0.17171,1.65802 l 1.4179,1.19143 c 0.48699,0.40986 1.19636,0.33047 1.58933,-0.17889 z"
           id="path225"
           inkscape:label="bottom-left-bandage" />
        <path
           style="display:inline;opacity:1;fill:#583b57;fill-opacity:1;stroke-width:0.183899;stroke-linecap:round"
           d="m 121.10959,124.74951 c 0.39269,-0.50853 0.31669,-1.24816 -0.17171,-1.65802 l -3.29984,-2.77316 -2.56007,3.31521 3.29984,2.77319 c 0.48699,0.40986 1.19636,0.33048 1.58905,-0.17889 z"
           id="path226"
           inkscape:label="bottom-right-bandage" />
        <rect
           style="display:inline;opacity:1;fill:#774c76;fill-opacity:1;stroke-width:0.252629;stroke-linecap:round"
           id="rect226"
           width="4.2688928"
           height="4.2306585"
           x="16.405813"
           y="-166.82812"
           ry="0"
           transform="matrix(-0.61118677,0.7914864,-0.7655791,-0.64334177,0,0)"
           inkscape:label="center-bandage" />
        <ellipse
           style="opacity:1;fill:url(#radialGradient95);stroke-width:0.357574"
           id="ellipse226"
           cx="100.2907"
           cy="104.41406"
           rx="4.3901372"
           ry="5.1427326" />
        <ellipse
           style="opacity:1;fill:url(#radialGradient97);stroke-width:0.357574"
           id="ellipse227"
           cx="126.42499"
           cy="104.41406"
           rx="4.3901372"
           ry="5.1427326" />
      </g>
    </g>
  </g>
</svg>
