<?xml version="1.0" encoding="UTF-8" standalone="no"?>
<!-- Created with Inkscape (http://www.inkscape.org/) -->

<svg
   width="200.97217mm"
   height="109.6495mm"
   viewBox="0 0 200.97217 109.6495"
   version="1.1"
   id="svg1"
   inkscape:version="1.3 (0e150ed6c4, 2023-07-21)"
   sodipodi:docname="alchemicats-logo-final.svg"
   xmlns:inkscape="http://www.inkscape.org/namespaces/inkscape"
   xmlns:sodipodi="http://sodipodi.sourceforge.net/DTD/sodipodi-0.dtd"
   xmlns="http://www.w3.org/2000/svg"
   xmlns:svg="http://www.w3.org/2000/svg">
  <sodipodi:namedview
     id="namedview1"
     pagecolor="#ffffff"
     bordercolor="#000000"
     borderopacity="0.25"
     inkscape:showpageshadow="2"
     inkscape:pageopacity="0.0"
     inkscape:pagecheckerboard="0"
     inkscape:deskcolor="#d1d1d1"
     inkscape:document-units="mm"
     inkscape:zoom="8.0000002"
     inkscape:cx="470.93749"
     inkscape:cy="612.49998"
     inkscape:window-width="1920"
     inkscape:window-height="956"
     inkscape:window-x="0"
     inkscape:window-y="32"
     inkscape:window-maximized="1"
     inkscape:current-layer="layer1"
     showguides="true">
    <sodipodi:guide
       position="344.29874,128.28984"
       orientation="0,-1"
       id="guide58"
       inkscape:locked="false" />
    <sodipodi:guide
       position="379.14178,116.33787"
       orientation="0,-1"
       id="guide59"
       inkscape:locked="false" />
  </sodipodi:namedview>
  <defs
     id="defs1" />
  <g
     inkscape:label="Layer 1"
     inkscape:groupmode="layer"
     id="layer1"
     transform="translate(-4.9512402,-34.489837)">
    <g
       id="g211"
       transform="matrix(22.408705,0,0,23.376385,-668.45945,-611.74827)"
       inkscape:export-filename="../../../../../home/dekram/RepositoryDisk/Development/repository/alchemicats.pet/assets/images/alchemicats.svg"
       inkscape:export-xdpi="129.41891"
       inkscape:export-ydpi="129.41891">
      <path
         id="path195"
         style="fill:#ccff00;fill-opacity:1;stroke-width:0.0133165;stroke-linecap:round"
         d="m 33.397203,27.644912 c 0.336491,0.09795 0.607863,0.293587 0.852084,0.529946 l -0.986916,0.46872 c 0.0052,-0.342814 0.0092,-0.68596 0.134832,-0.998666 z"
         sodipodi:nodetypes="cccc" />
      <path
         style="fill:#b4e100;fill-opacity:1;stroke:none;stroke-width:0.0139765"
         d="m 37.036528,28.038772 -0.0065,0.0133 c 0.644995,0.514737 0.282098,1.761272 -0.470895,1.675418 -0.09942,-0.01134 -0.197228,-0.04666 -0.283284,-0.110751 -0.134052,-0.09983 -0.21938,-0.245789 -0.297831,-0.40983 -0.104628,0.36176 -0.251644,0.630402 -0.461769,0.909841 0.357493,-0.01565 0.673209,0.0048 0.905635,0.398012 0.07411,0.125345 0.101144,0.277129 0.169081,0.402924 0.166567,-0.33276 0.548007,-0.462755 0.82833,-0.281315 0.134821,0.08724 0.198224,0.218564 0.296643,0.352486 0.11051,-0.418006 0.607501,-0.579853 0.903838,-0.405095 0.202292,0.119273 0.29337,0.311938 0.390295,0.550351 0.02988,-0.260529 -0.01428,-0.545244 -0.0631,-0.797882 C 38.794096,29.54529 38.378323,28.819252 37.8092,28.408578 37.562756,28.230741 37.303124,28.14949 37.036531,28.038772"
         id="path196" />
      <ellipse
         style="fill:#f4d4ed;fill-opacity:1;stroke-width:0.0204498;stroke-linecap:round"
         id="ellipse196"
         cx="35.79158"
         cy="29.731676"
         rx="0.84943354"
         ry="0.8494333" />
      <ellipse
         style="fill:#b4e100;fill-opacity:1;stroke-width:0.0204498;stroke-linecap:round"
         id="ellipse197"
         cx="33.723946"
         cy="29.731676"
         rx="0.84943354"
         ry="0.8494333" />
      <path
         id="path197"
         style="fill:#d056b0;fill-opacity:1;stroke:none;stroke-width:0.012956;stroke-linecap:square;stroke-linejoin:bevel;paint-order:fill markers stroke"
         d="m 33.021682,29.247814 c -0.004,0.0083 -0.0078,0.01665 -0.01161,0.02498 -2.66e-4,-1.77e-4 -6.21e-4,-8.8e-5 -9.13e-4,-1.77e-4 -0.325011,-0.145299 -0.895983,-0.3013 -1.103335,-0.301353 -0.05386,-1.5e-5 -0.07679,0.01471 -0.168188,0.107727 -0.521285,0.530526 -1.249648,1.655856 -1.597686,2.468608 -0.126993,0.296563 -0.128607,0.293889 0.06784,0.100974 0.410161,-0.402779 0.755707,-0.609456 1.018849,-0.609456 0.205956,0 0.390199,0.135471 0.509111,0.374375 l 0.06486,0.130655 0.04004,-0.08449 c 0.05319,-0.112164 0.231605,-0.462167 0.496862,-0.592655 0.175721,-0.08644 0.381951,-0.149365 0.563132,-0.02464 9.13e-4,0.03207 0.123374,0.06409 0.123374,0.09595 z"
         sodipodi:nodetypes="cccsssssccssccc" />
      <path
         id="path198"
         style="fill:#e97ab0;fill-opacity:1;stroke:none;stroke-width:0.0103758;stroke-linecap:round;stroke-linejoin:round;stroke-dasharray:none;stroke-opacity:1;paint-order:fill markers stroke"
         d="m 34.722987,28.093045 c -0.756835,-0.01348 -1.594696,0.441344 -1.953768,1.158022 -0.289439,0.585214 -0.137428,1.246566 -0.133419,1.869877 0.02542,0.318473 0.01031,0.718494 0.316594,0.911481 0.187962,0.13614 0.349218,-0.171517 0.557042,0.06941 0.201355,0.233439 0.398424,0.249083 0.736827,0.225831 0.163568,-0.01124 0.3255,-0.14025 0.487859,-0.155502 0.499608,-1.376738 -0.443052,-2.626751 0,-4.078709 -0.0037,-8.4e-5 -0.0074,-3.55e-4 -0.01113,-4.44e-4 z m -0.921285,0.991477 c 0.381712,0.0018 0.607307,0.455431 0.49496,0.79616 -0.08676,0.419125 -0.604142,0.625502 -0.962979,0.406212 -0.348627,-0.172296 -0.288169,-0.644844 -0.08609,-0.906853 0.119093,-0.165778 0.308776,-0.288752 0.516677,-0.294282 0.01263,-9.04e-4 0.02512,-0.0013 0.03743,-0.0012 z"
         sodipodi:nodetypes="scccsscccsccccssc" />
      <path
         id="path200"
         style="opacity:0.274059;fill:#f6ffd5;fill-opacity:1;stroke:none;stroke-width:0.00359827;stroke-linecap:round;paint-order:fill markers stroke"
         d="m 33.760261,29.085749 c -0.347381,-1e-6 -0.64156,0.360624 -0.676738,0.7186 -0.03649,0.371333 0.250279,0.576831 0.597617,0.57082 0.146025,-0.0025 0.247489,-0.05654 0.251657,-0.05865 -0.316432,0.01778 -0.660092,-0.18495 -0.627939,-0.512168 0.03164,-0.322043 0.272932,-0.646164 0.573973,-0.708002 -0.03737,-0.007 -0.0769,-0.0106 -0.11857,-0.0106 z"
         sodipodi:nodetypes="ssscscs" />
      <ellipse
         style="fill:#8fb300;fill-opacity:1;stroke:none;stroke-width:0.358258;stroke-linecap:round;stroke-linejoin:round;stroke-opacity:0.924933;paint-order:fill markers stroke"
         id="ellipse200"
         cx="33.830788"
         cy="29.731676"
         rx="0.2164661"
         ry="0.30760974" />
      <path
         id="path201"
         style="fill:#e97ab0;fill-opacity:1;stroke-width:0.0133165;stroke-linecap:round"
         d="m 36.054723,27.644912 c -0.33649,0.09795 -0.607862,0.293587 -0.852083,0.529946 l 0.986916,0.46872 c -0.0052,-0.342814 -0.0092,-0.68596 -0.134833,-0.998666 z"
         sodipodi:nodetypes="cccc" />
      <path
         id="path202"
         style="fill:#ccff00;fill-opacity:1;stroke:none;stroke-width:0.0103758;stroke-linecap:round;stroke-linejoin:round;stroke-dasharray:none;stroke-opacity:1;paint-order:fill markers stroke"
         d="m 34.721934,28.093045 c 0.756836,-0.01348 1.594697,0.441344 1.953769,1.158022 0.289439,0.585214 0.137428,1.246566 0.133419,1.869877 -0.02542,0.318473 -0.01031,0.718494 -0.316595,0.911481 -0.187961,0.13614 -0.349217,-0.171517 -0.557041,0.06941 -0.201356,0.233439 -0.398424,0.249083 -0.736828,0.225831 -0.163568,-0.01124 -0.325499,-0.14025 -0.487858,-0.155502 0.442864,-1.369529 -0.435256,-2.802843 0,-4.078709 0.0037,-8.4e-5 0.0074,-3.55e-4 0.01113,-4.44e-4 z m 0.921286,0.991477 c -0.381712,0.0018 -0.607308,0.455431 -0.49496,0.79616 0.08676,0.419125 0.604142,0.625502 0.962979,0.406212 0.348626,-0.172296 0.288168,-0.644844 0.08609,-0.906853 -0.119094,-0.165778 -0.308777,-0.288752 -0.516677,-0.294282 -0.01263,-9.04e-4 -0.02512,-0.0013 -0.03743,-0.0012 z"
         sodipodi:nodetypes="ccccssccccsccccss" />
      <path
         id="path206"
         style="opacity:0.274059;fill:#c97ab0;fill-opacity:1;stroke:none;stroke-width:0.00359827;stroke-linecap:round;paint-order:fill markers stroke"
         d="m 35.681948,29.081654 c 0.34738,-1e-6 0.641559,0.360625 0.676737,0.718601 0.0365,0.371333 -0.250278,0.576831 -0.597617,0.57082 -0.146024,-0.0025 -0.247488,-0.05654 -0.251656,-0.05865 0.316432,0.01778 0.660092,-0.184951 0.627938,-0.512168 -0.03164,-0.322044 -0.272931,-0.646165 -0.573972,-0.708002 0.03737,-0.007 0.0769,-0.0106 0.11857,-0.0106 z"
         sodipodi:nodetypes="ssscscs" />
      <ellipse
         style="fill:#c97ab0;fill-opacity:1;stroke:none;stroke-width:0.358258;stroke-linecap:round;stroke-linejoin:round;stroke-opacity:0.924933;paint-order:fill markers stroke"
         id="ellipse206"
         cx="-35.63599"
         cy="29.731676"
         rx="0.2164661"
         ry="0.30760974"
         transform="scale(-1,1)" />
      <g
         id="g210"
         transform="matrix(2.6393665,0,0,2.6393665,-57.068287,-50.553682)">
        <path
           style="fill:#e97ab0;fill-opacity:1;stroke-width:0.00483048;stroke-linecap:round"
           d="m 34.80289,30.760351 0.08526,0.06868 0.07132,-0.08853 c 0.01053,-0.01308 0.0085,-0.03209 -0.0046,-0.04263 l -0.03803,-0.03064 c -0.01308,-0.01054 -0.03209,-0.0085 -0.04263,0.0046 z"
           id="path207" />
        <path
           style="fill:#ccff00;fill-opacity:1;stroke-width:0.00483048;stroke-linecap:round"
           d="m 34.734208,30.845612 0.06868,-0.08526 -0.08853,-0.07132 c -0.01308,-0.01054 -0.03209,-0.0085 -0.04263,0.0046 l -0.03064,0.03804 c -0.01054,0.01308 -0.0085,0.03209 0.0046,0.04263 z"
           id="path208" />
        <path
           style="fill:#ccff00;fill-opacity:1;stroke-width:0.00483048;stroke-linecap:round"
           d="m 34.819469,30.914294 -0.08526,-0.06868 -0.07132,0.08853 c -0.01054,0.01308 -0.0085,0.0321 0.0046,0.04264 l 0.03804,0.03064 c 0.01308,0.01054 0.0321,0.0085 0.04264,-0.0046 z"
           id="path209" />
        <path
           style="fill:#e97ab0;fill-opacity:1;stroke-width:0.00483048;stroke-linecap:round"
           d="m 34.981277,30.942986 c 0.01054,-0.01308 0.0085,-0.0321 -0.0046,-0.04264 l -0.08853,-0.07132 -0.06868,0.08526 0.08853,0.07132 c 0.01308,0.01054 0.0321,0.0085 0.04263,-0.0046 z"
           id="path210" />
        <rect
           style="fill:#e8bbdc;fill-opacity:1;stroke-width:0.00663304;stroke-linecap:round"
           id="rect210"
           width="0.11158103"
           height="0.11158103"
           x="2.1210487"
           y="-46.510281"
           ry="0"
           transform="rotate(128.85309)" />
      </g>
    </g>
  </g>
</svg>
