<?xml version="1.0" standalone="no"?>
<!DOCTYPE svg PUBLIC "-//W3C//DTD SVG 1.1//EN" "http://www.w3.org/Graphics/SVG/1.1/DTD/svg11.dtd">
<svg width="101.15437316894531" height="61.974430084228516" viewBox="0 0 101.15437 61.974429" version="1.1" id="svg5" xml:space="preserve" sodipodi:docname="social-logo.svg" inkscape:version="1.2.2 (732a01da63, 2022-12-09)" inkscape:export-filename="social-logo.jpg" inkscape:export-xdpi="96" inkscape:export-ydpi="96" xmlns:inkscape="http://www.inkscape.org/namespaces/inkscape" xmlns:sodipodi="http://sodipodi.sourceforge.net/DTD/sodipodi-0.dtd" xmlns="http://www.w3.org/2000/svg" xmlns:svg="http://www.w3.org/2000/svg"><sodipodi:namedview id="namedview223" pagecolor="#ffffff" bordercolor="#666666" borderopacity="1.0" inkscape:showpageshadow="2" inkscape:pageopacity="0.0" inkscape:pagecheckerboard="0" inkscape:deskcolor="#d1d1d1" inkscape:document-units="mm" showgrid="false" inkscape:zoom="0.70326203" inkscape:cx="1167.4169" inkscape:cy="-2048.3119" inkscape:window-width="1920" inkscape:window-height="1001" inkscape:window-x="-9" inkscape:window-y="-9" inkscape:window-maximized="1" inkscape:current-layer="svg5" showguides="true"><sodipodi:guide position="-140.68149,-607.80176" orientation="0,-1" id="guide469" inkscape:locked="false"/><sodipodi:guide position="-151.97804,-631.16507" orientation="0,-1" id="guide471" inkscape:locked="false"/><sodipodi:guide position="-167.38242,-659.40643" orientation="0,-1" id="guide473" inkscape:locked="false"/><sodipodi:guide position="-163.40295,-674.93918" orientation="0,-1" id="guide475" inkscape:locked="false"/><sodipodi:guide position="-51.81635,-678.43753" orientation="0,-1" id="guide15194" inkscape:locked="false"/><sodipodi:guide position="21.65928,-240.51344" orientation="0,-1" id="guide868" inkscape:locked="false"/><sodipodi:guide position="53.9819,-93.132921" orientation="0,-1" id="guide8933" inkscape:locked="false"/><sodipodi:guide position="68.44779,-122.96448" orientation="0,-1" id="guide8935" inkscape:locked="false"/><sodipodi:guide position="58.77044,-111.08994" orientation="0,-1" id="guide8937" inkscape:locked="false"/></sodipodi:namedview><defs id="defs2"><filter x="-0.046148643" width="1.0922973" y="-0.18507805" height="1.370156" style="color-interpolation-filters:sRGB" inkscape:label="Felt Feather" id="filter25488"><feGaussianBlur stdDeviation="1.169069" result="blur" id="feGaussianBlur25472"/><feComposite in="SourceGraphic" in2="blur" operator="atop" result="composite1" id="feComposite25474"/><feComposite in2="composite1" operator="in" result="composite2" id="feComposite25476"/><feComposite in2="composite2" operator="in" result="composite3" id="feComposite25478"/><feTurbulence type="fractalNoise" numOctaves="2" seed="16" baseFrequency="0.05 0.05" result="turbulence" id="feTurbulence25480"/><feDisplacementMap in="composite3" in2="turbulence" xChannelSelector="R" scale="6.03175" yChannelSelector="G" result="map" id="feDisplacementMap25482"/><feColorMatrix values="1 0 0 0 0 0 1 0 0 0 0 0 1 0 0 0 0 0 0.977199 -0 " result="colormatrix" id="feColorMatrix25484"/><feComposite in="composite3" in2="colormatrix" operator="atop" result="composite4" id="feComposite25486"/></filter></defs><ellipse style="opacity:0.246867;fill:#000000;fill-opacity:1;stroke:none;stroke-width:0.10239;stroke-linecap:round;stroke-linejoin:round;stroke-dasharray:none;stroke-opacity:1;paint-order:fill markers stroke;filter:url(#filter25488)" id="ellipse12190" cx="50.321182" cy="51.588711" rx="30.399223" ry="7.5799522" inkscape:export-filename="alchemicats.svg" inkscape:export-xdpi="96" inkscape:export-ydpi="96"/><g id="g1896" transform="translate(-235.21063,633.96102)"><path id="path12180" style="fill:#ccff00;fill-opacity:1;stroke-width:0.150196;stroke-linecap:round" d="m 272.94877,-633.96105 c 3.79525,1.10482 6.85603,3.31134 9.61057,5.97722 l -11.13133,5.28665 c 0.0591,-3.86657 0.10331,-7.73688 1.52076,-11.26387 z" sodipodi:nodetypes="cccc"/><path style="fill:#b4e100;fill-opacity:1;stroke:none;stroke-width:0.15764" d="m 313.99639,-629.51873 -0.0737,0.15006 c 7.27484,5.80567 3.18176,19.86523 -5.31118,18.89689 -1.1214,-0.12795 -2.22452,-0.52626 -3.19514,-1.24915 -1.51196,-1.126 -2.47436,-2.77223 -3.35921,-4.62244 -1.18009,4.08026 -2.83827,7.11025 -5.20825,10.26202 4.03213,-0.1765 7.59306,0.0543 10.21458,4.48914 0.83587,1.41376 1.14079,3.12571 1.90705,4.54454 1.87869,-3.75317 6.18092,-5.21937 9.34266,-3.17292 1.52063,0.984 2.23575,2.46516 3.34581,3.97566 1.24643,-4.71466 6.85195,-6.54011 10.1943,-4.56904 2.28164,1.34527 3.3089,3.51832 4.40211,6.20736 0.33705,-2.93848 -0.1611,-6.14975 -0.7117,-8.99923 -1.72388,-8.92101 -6.41335,-17.10993 -12.83244,-21.74189 -2.77962,-2.0058 -5.70798,-2.92223 -8.71486,-4.171" id="path12182"/><ellipse style="fill:#f4d4ed;fill-opacity:1;stroke-width:0.230651;stroke-linecap:round" id="ellipse12184" cx="299.95471" cy="-610.42462" rx="9.5806847" ry="9.5806818"/><ellipse style="fill:#b4e100;fill-opacity:1;stroke-width:0.230651;stroke-linecap:round" id="ellipse12186" cx="276.63406" cy="-610.42462" rx="9.5806847" ry="9.5806818"/><path id="path12188" style="fill:#d056b0;fill-opacity:1;stroke:none;stroke-width:0.146129;stroke-linecap:square;stroke-linejoin:bevel;paint-order:fill markers stroke" d="m 268.7133,-615.88206 c -0.0456,0.0939 -0.0877,0.18783 -0.13093,0.28174 -0.003,-0.002 -0.007,-10e-4 -0.0103,-0.002 -3.66576,-1.63881 -10.10571,-3.39834 -12.44441,-3.39893 -0.60749,-1.7e-4 -0.86609,0.16589 -1.89698,1.21504 -5.87952,5.98376 -14.09467,18.67625 -18.02016,27.84321 -1.43234,3.34491 -1.45054,3.31474 0.76519,1.13888 4.62617,-4.54291 8.52355,-6.87401 11.4915,-6.87401 2.32297,0 4.40102,1.52797 5.74222,4.22255 l 0.73153,1.47364 0.45164,-0.95291 c 0.59994,-1.26508 2.61225,-5.21274 5.60406,-6.6845 1.98194,-0.97498 4.30799,-1.68467 6.35152,-0.27797 0.0103,0.36167 1.39152,0.72282 1.39152,1.08219 z" sodipodi:nodetypes="cccsssssccssccc"/><path id="path12192" style="fill:#e97ab0;fill-opacity:1;stroke:none;stroke-width:0.117028;stroke-linecap:round;stroke-linejoin:round;stroke-dasharray:none;stroke-opacity:1;paint-order:fill markers stroke" d="m 287.90217,-628.90659 c -8.53628,-0.15206 -17.98644,4.97787 -22.03638,13.06122 -3.26456,6.60058 -1.55004,14.05991 -1.50482,21.09018 0.28674,3.59202 0.1163,8.10382 3.57084,10.28051 2.12,1.53551 3.93879,-1.93453 6.28282,0.7829 2.27107,2.63294 4.49379,2.80939 8.31061,2.54713 1.84487,-0.12677 3.67128,-1.58187 5.50251,-1.7539 5.63504,-15.5281 -4.99714,-29.62688 0,-46.00339 -0.0419,-9.4e-4 -0.0837,-0.004 -0.12558,-0.005 z m -10.3911,11.18278 c 4.3053,0.0205 6.84977,5.13676 5.58261,8.97981 -0.97857,4.72728 -6.81406,7.05498 -10.86135,4.58163 -3.93213,-1.94331 -3.25023,-7.27314 -0.971,-10.22831 1.34324,-1.8698 3.48266,-3.25681 5.82755,-3.31918 0.14247,-0.0102 0.28331,-0.0146 0.42219,-0.0139 z" sodipodi:nodetypes="scccsscccsccccssc"/><path id="path12194" style="opacity:0.274059;fill:#f6ffd5;fill-opacity:1;stroke:none;stroke-width:0.0405846;stroke-linecap:round;paint-order:fill markers stroke" d="m 277.04366,-617.70998 c -3.91807,-10e-6 -7.23609,4.06745 -7.63286,8.10503 -0.41162,4.18823 2.82287,6.50603 6.74047,6.43823 1.647,-0.0285 2.7914,-0.63776 2.83841,-0.66153 -3.56901,0.2005 -7.44512,-2.08604 -7.08246,-5.7767 0.35691,-3.6323 3.07837,-7.28803 6.47378,-7.98549 -0.42148,-0.0785 -0.86737,-0.11954 -1.33734,-0.11954 z" sodipodi:nodetypes="ssscscs"/><ellipse style="fill:#8fb300;fill-opacity:1;stroke:none;stroke-width:4.04076;stroke-linecap:round;stroke-linejoin:round;stroke-opacity:0.924933;paint-order:fill markers stroke" id="ellipse12196" cx="277.83914" cy="-610.42462" rx="2.4415016" ry="3.4695024"/><path id="path12198" style="fill:#e97ab0;fill-opacity:1;stroke-width:0.150196;stroke-linecap:round" d="m 302.9227,-633.96105 c -3.79525,1.10482 -6.85603,3.31134 -9.61057,5.97722 l 11.13133,5.28665 c -0.0591,-3.86657 -0.10331,-7.73688 -1.52076,-11.26387 z" sodipodi:nodetypes="cccc"/><path id="path12200" style="fill:#ccff00;fill-opacity:1;stroke:none;stroke-width:0.117028;stroke-linecap:round;stroke-linejoin:round;stroke-dasharray:none;stroke-opacity:1;paint-order:fill markers stroke" d="m 287.89029,-628.90659 c 8.53628,-0.15206 17.98644,4.97787 22.03638,13.06122 3.26456,6.60058 1.55004,14.05991 1.50482,21.09018 -0.28674,3.59202 -0.1163,8.10382 -3.57084,10.28051 -2.12,1.53551 -3.93879,-1.93453 -6.28282,0.7829 -2.27107,2.63294 -4.49379,2.80939 -8.31061,2.54713 -1.84487,-0.12677 -3.67128,-1.58187 -5.50251,-1.7539 4.99502,-15.44679 -4.90922,-31.61301 0,-46.00339 0.0419,-9.4e-4 0.0837,-0.004 0.12558,-0.005 z m 10.3911,11.18278 c -4.3053,0.0205 -6.84977,5.13676 -5.58261,8.97981 0.97857,4.72728 6.81406,7.05498 10.86135,4.58163 3.93213,-1.94331 3.25023,-7.27314 0.971,-10.22831 -1.34324,-1.8698 -3.48266,-3.25681 -5.82755,-3.31918 -0.14247,-0.0102 -0.28331,-0.0146 -0.42219,-0.0139 z" sodipodi:nodetypes="ccccssccccsccccss"/><path id="path12202" style="opacity:0.274059;fill:#c97ab0;fill-opacity:1;stroke:none;stroke-width:0.0405846;stroke-linecap:round;paint-order:fill markers stroke" d="m 298.7182,-617.75616 c 3.91807,-10e-6 7.23609,4.06745 7.63286,8.10503 0.41162,4.18823 -2.82287,6.50603 -6.74047,6.43823 -1.647,-0.0285 -2.7914,-0.63776 -2.83841,-0.66153 3.56901,0.2005 7.44512,-2.08604 7.08246,-5.7767 -0.35691,-3.6323 -3.07837,-7.28803 -6.47378,-7.98549 0.42148,-0.0785 0.86737,-0.11954 1.33734,-0.11954 z" sodipodi:nodetypes="ssscscs"/><ellipse style="fill:#c97ab0;fill-opacity:1;stroke:none;stroke-width:4.04076;stroke-linecap:round;stroke-linejoin:round;stroke-opacity:0.924933;paint-order:fill markers stroke" id="ellipse12204" cx="-298.19983" cy="-610.42462" rx="2.4415016" ry="3.4695024" transform="scale(-1,1)"/><path style="fill:#e97ab0;fill-opacity:1;stroke-width:0.0544825;stroke-linecap:round" d="m 288.80338,-598.82229 0.96166,0.77466 0.80439,-0.99856 c 0.11883,-0.14752 0.0956,-0.36193 -0.0519,-0.48077 l -0.42898,-0.34556 c -0.14753,-0.11884 -0.36196,-0.0959 -0.48079,0.0517 z" id="path12270"/><path style="fill:#ccff00;fill-opacity:1;stroke-width:0.0544825;stroke-linecap:round" d="m 288.02872,-597.86064 0.77466,-0.96165 -0.99855,-0.80439 c -0.14752,-0.11883 -0.36193,-0.0956 -0.48077,0.0519 l -0.34557,0.42899 c -0.11883,0.14752 -0.0958,0.36195 0.0517,0.48079 z" id="path12272"/><path style="fill:#ccff00;fill-opacity:1;stroke-width:0.0544825;stroke-linecap:round" d="m 288.99038,-597.08598 -0.96166,-0.77466 -0.80438,0.99856 c -0.11884,0.14752 -0.0957,0.36204 0.0518,0.48088 l 0.42899,0.34557 c 0.14752,0.11884 0.36204,0.0957 0.48088,-0.0518 z" id="path12274"/><path style="fill:#e97ab0;fill-opacity:1;stroke-width:0.0544825;stroke-linecap:round" d="m 290.81539,-596.76237 c 0.11883,-0.14752 0.0957,-0.36204 -0.0518,-0.48088 l -0.99856,-0.80438 -0.77466,0.96165 0.99856,0.80439 c 0.14752,0.11884 0.36204,0.0957 0.48088,-0.0518 z" id="path12276"/><rect style="fill:#e8bbdc;fill-opacity:1;stroke-width:0.0748135;stroke-linecap:round" id="rect12278" width="1.2585124" height="1.2585124" x="-647.52264" y="149.50224" ry="0" transform="rotate(128.85309)"/></g></svg>