<?xml version="1.0" encoding="UTF-8" standalone="no"?>
<!-- Created with Inkscape (http://www.inkscape.org/) -->

<svg
   width="8.998785mm"
   height="5.0655117mm"
   viewBox="0 0 8.9987848 5.0655116"
   version="1.1"
   id="svg5"
   xml:space="preserve"
   sodipodi:docname="alchemicats-full.svg"
   inkscape:version="1.4 (e7c3feb100, 2024-10-09)"
   inkscape:export-filename="alchemicats-full.svg"
   inkscape:export-xdpi="379.45383"
   inkscape:export-ydpi="379.45383"
   xmlns:inkscape="http://www.inkscape.org/namespaces/inkscape"
   xmlns:sodipodi="http://sodipodi.sourceforge.net/DTD/sodipodi-0.dtd"
   xmlns:xlink="http://www.w3.org/1999/xlink"
   xmlns="http://www.w3.org/2000/svg"
   xmlns:svg="http://www.w3.org/2000/svg"><sodipodi:namedview
     id="namedview223"
     pagecolor="#ffffff"
     bordercolor="#666666"
     borderopacity="1.0"
     inkscape:showpageshadow="2"
     inkscape:pageopacity="0.0"
     inkscape:pagecheckerboard="0"
     inkscape:deskcolor="#d1d1d1"
     inkscape:document-units="mm"
     showgrid="false"
     inkscape:zoom="11.313709"
     inkscape:cx="-138.50454"
     inkscape:cy="-9.8994949"
     inkscape:window-width="1862"
     inkscape:window-height="991"
     inkscape:window-x="26"
     inkscape:window-y="23"
     inkscape:window-maximized="0"
     inkscape:current-layer="svg5"
     showguides="true"
     inkscape:export-bgcolor="#00000000"><sodipodi:guide
       position="-15.448819,-582.34379"
       orientation="0,-1"
       id="guide469"
       inkscape:locked="false" /><sodipodi:guide
       position="-26.745369,-605.7071"
       orientation="0,-1"
       id="guide471"
       inkscape:locked="false" /><sodipodi:guide
       position="-42.149748,-633.94846"
       orientation="0,-1"
       id="guide473"
       inkscape:locked="false" /><sodipodi:guide
       position="-38.170279,-649.48121"
       orientation="0,-1"
       id="guide475"
       inkscape:locked="false" /><sodipodi:guide
       position="73.416314,-652.97956"
       orientation="0,-1"
       id="guide15194"
       inkscape:locked="false" /><sodipodi:guide
       position="146.89195,-215.05548"
       orientation="0,-1"
       id="guide868"
       inkscape:locked="false" /><sodipodi:guide
       position="179.21457,-67.674975"
       orientation="0,-1"
       id="guide8933"
       inkscape:locked="false" /><sodipodi:guide
       position="193.68046,-97.506533"
       orientation="0,-1"
       id="guide8935"
       inkscape:locked="false" /><sodipodi:guide
       position="184.00311,-85.631993"
       orientation="0,-1"
       id="guide8937"
       inkscape:locked="false" /><inkscape:grid
       id="grid284"
       units="mm"
       originx="48.563627"
       originy="-116.60728"
       spacingx="0.99999999"
       spacingy="0.99999997"
       empcolor="#0099e5"
       empopacity="0.30196078"
       color="#0099e5"
       opacity="0.14901961"
       empspacing="5"
       dotted="false"
       gridanglex="30"
       gridanglez="30"
       visible="false" /><sodipodi:guide
       position="190.11736,45.474033"
       orientation="1,0"
       id="guide339"
       inkscape:locked="false" /><sodipodi:guide
       position="199.71734,46.927676"
       orientation="1,0"
       id="guide340"
       inkscape:locked="false" /><sodipodi:guide
       position="27.596174,-10.165993"
       orientation="0,-1"
       id="guide276"
       inkscape:locked="false" /><sodipodi:guide
       position="23.346653,15.299483"
       orientation="0,-1"
       id="guide5"
       inkscape:locked="false" /><sodipodi:guide
       position="15.409839,8.3308741"
       orientation="0,-1"
       id="guide6"
       inkscape:locked="false" /><inkscape:page
       x="1.6424897e-13"
       y="0"
       width="8.9987841"
       height="5.0655117"
       id="page2"
       margin="0"
       bleed="0" /></sodipodi:namedview><defs
     id="defs2"><linearGradient
       id="linearGradient12"
       inkscape:collect="always"><stop
         style="stop-color:#9cbd15;stop-opacity:1;"
         offset="0"
         id="stop11" /><stop
         style="stop-color:#ccff00;stop-opacity:1;"
         offset="1"
         id="stop12" /></linearGradient><linearGradient
       id="linearGradient120"
       inkscape:collect="always"><stop
         style="stop-color:#ccff00;stop-opacity:1;"
         offset="0"
         id="stop119" /><stop
         style="stop-color:#9bbe15;stop-opacity:1;"
         offset="1"
         id="stop120" /></linearGradient><linearGradient
       id="linearGradient118"
       inkscape:collect="always"><stop
         style="stop-color:#ccff00;stop-opacity:1;"
         offset="0"
         id="stop117" /><stop
         style="stop-color:#b3e100;stop-opacity:1;"
         offset="1"
         id="stop118" /></linearGradient><linearGradient
       id="linearGradient9"
       inkscape:collect="always"><stop
         style="stop-color:#c9f125;stop-opacity:1;"
         offset="0"
         id="stop9" /><stop
         style="stop-color:#b4dc18;stop-opacity:0.76078433;"
         offset="1"
         id="stop10" /></linearGradient><linearGradient
       id="linearGradient16"
       inkscape:collect="always"><stop
         style="stop-color:#f4d4ed;stop-opacity:1;"
         offset="0"
         id="stop16" /><stop
         style="stop-color:#f0b1d5;stop-opacity:1;"
         offset="1"
         id="stop17" /></linearGradient><linearGradient
       id="linearGradient14"
       inkscape:collect="always"><stop
         style="stop-color:#c8eb34;stop-opacity:1;"
         offset="0"
         id="stop14" /><stop
         style="stop-color:#f4d4ed;stop-opacity:1;"
         offset="1"
         id="stop15" /></linearGradient><linearGradient
       id="linearGradient7"
       inkscape:collect="always"><stop
         style="stop-color:#b4e100;stop-opacity:0.89411765;"
         offset="0"
         id="stop7" /><stop
         style="stop-color:#ccff00;stop-opacity:1;"
         offset="1"
         id="stop8" /></linearGradient><linearGradient
       id="linearGradient5"
       inkscape:collect="always"><stop
         style="stop-color:#f4d4ed;stop-opacity:1;"
         offset="0"
         id="stop5" /><stop
         style="stop-color:#e97ab0;stop-opacity:1;"
         offset="1"
         id="stop6" /></linearGradient><linearGradient
       id="linearGradient3"
       inkscape:collect="always"><stop
         style="stop-color:#b4e100;stop-opacity:0.90980393;"
         offset="0"
         id="stop3" /><stop
         style="stop-color:#ccff00;stop-opacity:1;"
         offset="1"
         id="stop4" /></linearGradient><linearGradient
       id="linearGradient1"
       inkscape:collect="always"><stop
         style="stop-color:#f4d4ed;stop-opacity:1;"
         offset="0"
         id="stop1" /><stop
         style="stop-color:#e97ab0;stop-opacity:1;"
         offset="1"
         id="stop2" /></linearGradient><linearGradient
       id="linearGradient59"
       inkscape:collect="always"><stop
         style="stop-color:#8fb300;stop-opacity:1;"
         offset="0.69999999"
         id="stop59" /><stop
         style="stop-color:#919191;stop-opacity:0.77507013;"
         offset="1"
         id="stop60" /></linearGradient><linearGradient
       id="linearGradient34"
       inkscape:collect="always"><stop
         style="stop-color:#e8bbdc;stop-opacity:1;"
         offset="0"
         id="stop33" /><stop
         style="stop-color:#c97ab0;stop-opacity:1;"
         offset="1"
         id="stop34" /></linearGradient><linearGradient
       id="linearGradient28"
       inkscape:collect="always"><stop
         style="stop-color:#d056b0;stop-opacity:1;"
         offset="0"
         id="stop28" /><stop
         style="stop-color:#e8bbdc;stop-opacity:1;"
         offset="1"
         id="stop29" /></linearGradient><linearGradient
       inkscape:collect="always"
       xlink:href="#linearGradient120"
       id="linearGradient48"
       gradientUnits="userSpaceOnUse"
       gradientTransform="matrix(2.2648139,0,0,2.2648139,-12.056186,-6.5777994)"
       x1="9.1154537"
       y1="4.4598613"
       x2="8.7380848"
       y2="3.5489609" /><linearGradient
       inkscape:collect="always"
       xlink:href="#linearGradient118"
       id="linearGradient49"
       gradientUnits="userSpaceOnUse"
       gradientTransform="matrix(2.2648139,0,0,2.2648139,-12.056186,-6.5777994)"
       x1="6.794539"
       y1="2.879329"
       x2="6.9617739"
       y2="3.2183995" /><linearGradient
       inkscape:collect="always"
       xlink:href="#linearGradient16"
       id="linearGradient50"
       gradientUnits="userSpaceOnUse"
       gradientTransform="matrix(2.2648139,0,0,2.2648139,-12.056186,-6.5777994)"
       x1="7.4900393"
       y1="3.8687615"
       x2="8.2426844"
       y2="3.8687615" /><linearGradient
       inkscape:collect="always"
       xlink:href="#linearGradient9"
       id="linearGradient51"
       gradientUnits="userSpaceOnUse"
       gradientTransform="matrix(2.2648139,0,0,2.2648139,-12.056186,-6.5777994)"
       x1="6.5740199"
       y1="3.8687615"
       x2="7.3266654"
       y2="3.8687615" /><linearGradient
       inkscape:collect="always"
       xlink:href="#linearGradient28"
       id="linearGradient52"
       gradientUnits="userSpaceOnUse"
       gradientTransform="matrix(2.2648139,0,0,2.2648139,-12.056186,-6.5777994)"
       x1="6.5912418"
       y1="4.4091711"
       x2="5.5933452"
       y2="3.675252" /><linearGradient
       inkscape:collect="always"
       xlink:href="#linearGradient28"
       id="linearGradient53"
       gradientUnits="userSpaceOnUse"
       gradientTransform="matrix(2.2648139,0,0,2.2648139,-12.056186,-6.5777994)"
       x1="6.6923032"
       y1="5.0379386"
       x2="7.1446872"
       y2="3.372262" /><linearGradient
       inkscape:collect="always"
       xlink:href="#linearGradient59"
       id="linearGradient54"
       gradientUnits="userSpaceOnUse"
       gradientTransform="matrix(2.2648139,0,0,2.2648139,-12.056186,-6.5777994)"
       x1="6.6652274"
       y1="3.868228"
       x2="7.0428696"
       y2="3.868228" /><linearGradient
       inkscape:collect="always"
       xlink:href="#linearGradient34"
       id="linearGradient55"
       gradientUnits="userSpaceOnUse"
       gradientTransform="matrix(2.2648139,0,0,2.2648139,-12.056186,-6.5777994)"
       x1="8.0625877"
       y1="2.7573044"
       x2="7.8211312"
       y2="3.2110641" /><linearGradient
       inkscape:collect="always"
       xlink:href="#linearGradient12"
       id="linearGradient56"
       gradientUnits="userSpaceOnUse"
       gradientTransform="matrix(2.2648139,0,0,2.2648139,-12.056186,-6.5777994)"
       x1="8.1564159"
       y1="4.9476972"
       x2="7.4616113"
       y2="3.1372783" /><linearGradient
       inkscape:collect="always"
       xlink:href="#linearGradient5"
       id="linearGradient60"
       gradientUnits="userSpaceOnUse"
       gradientTransform="matrix(2.2648139,0,0,2.2648139,-12.056186,-6.5777994)"
       x1="7.4223204"
       y1="4.2668338"
       x2="7.613287"
       y2="4.2668338" /><linearGradient
       inkscape:collect="always"
       xlink:href="#linearGradient3"
       id="linearGradient61"
       gradientUnits="userSpaceOnUse"
       gradientTransform="matrix(2.2648139,0,0,2.2648139,-12.056186,-6.5777994)"
       x1="7.2252421"
       y1="4.2902436"
       x2="7.422318"
       y2="4.2902436" /><linearGradient
       inkscape:collect="always"
       xlink:href="#linearGradient7"
       id="linearGradient62"
       gradientUnits="userSpaceOnUse"
       gradientTransform="matrix(2.2648139,0,0,2.2648139,-12.056186,-6.5777994)"
       x1="7.2507348"
       y1="4.4926543"
       x2="7.4417062"
       y2="4.4926543" /><linearGradient
       inkscape:collect="always"
       xlink:href="#linearGradient1"
       id="linearGradient63"
       gradientUnits="userSpaceOnUse"
       gradientTransform="matrix(2.2648139,0,0,2.2648139,-12.056186,-6.5777994)"
       x1="7.4417038"
       y1="4.4692302"
       x2="7.6387911"
       y2="4.4692302" /><linearGradient
       inkscape:collect="always"
       xlink:href="#linearGradient14"
       id="linearGradient64"
       gradientUnits="userSpaceOnUse"
       gradientTransform="matrix(2.2648139,0,0,2.2648139,2.7227443,13.574144)"
       x1="-1.4873432"
       y1="-8.6524916"
       x2="-1.3598969"
       y2="-8.4964838" /></defs><path
     style="opacity:1;fill:url(#linearGradient48);fill-opacity:1;stroke:none;stroke-width:0.0181186;stroke-dasharray:none;stroke-opacity:1"
     d="m 7.0088098,0.4122552 -0.0065,0.013928 c 0.647175,0.5387701 0.283053,1.8435235 -0.472482,1.7536599 -0.09976,-0.011869 -0.197894,-0.048839 -0.28424,-0.1159237 -0.134505,-0.1044922 -0.220121,-0.2572682 -0.298837,-0.4289705 -0.104981,0.3786556 -0.252493,0.6598444 -0.463327,0.9523343 0.3587,-0.016376 0.675481,0.00503 0.908692,0.416601 0.07436,0.1311982 0.101486,0.290072 0.169652,0.4217423 0.16713,-0.3483013 0.549857,-0.4843678 0.831126,-0.2944538 0.135278,0.091315 0.198893,0.2287721 0.297644,0.3689488 0.110883,-0.4375289 0.609552,-0.6069349 0.906889,-0.4240149 0.202976,0.1248436 0.29436,0.326507 0.391613,0.5760549 C 9.0190198,3.3794647 8.9747098,3.0814524 8.9257298,2.817015 8.7723378,1.9891335 8.3551618,1.2291866 7.7841178,0.7993323 7.5368418,0.6131897 7.2763338,0.5281437 7.0088418,0.4122546"
     id="path388" /><path
     id="path389"
     style="opacity:1;fill:url(#linearGradient49);fill-opacity:1;stroke:none;stroke-width:0.0181186;stroke-linecap:round;stroke-dasharray:none;stroke-opacity:1"
     d="M 3.3572008,2.0600915e-7 C 3.6948278,0.1025259 3.9671158,0.3072992 4.2121608,0.554697 L 3.2219138,1.0453081 C 3.2271138,0.6864833 3.2311138,0.327311 3.3572008,2.0600915e-7 Z"
     sodipodi:nodetypes="cccc"
     inkscape:export-filename="alchemicat-logo-full-gradiant.svg"
     inkscape:export-xdpi="379.45383"
     inkscape:export-ydpi="379.45383" /><ellipse
     style="opacity:1;fill:url(#linearGradient50);fill-opacity:1;stroke-width:0.0209572;stroke-linecap:round"
     id="ellipse390"
     cx="5.7596583"
     cy="2.1842256"
     rx="0.8523007"
     ry="0.8891055" /><ellipse
     style="opacity:1;fill:url(#linearGradient51);fill-opacity:1;stroke-width:0.0209572;stroke-linecap:round"
     id="ellipse391"
     cx="3.6850464"
     cy="2.1842256"
     rx="0.8523007"
     ry="0.8891055" /><path
     id="path391"
     style="opacity:1;fill:url(#linearGradient52);fill-opacity:1;stroke:none;stroke-width:0.0181186;stroke-linecap:square;stroke-linejoin:bevel;stroke-dasharray:none;stroke-opacity:1;paint-order:fill markers stroke"
     d="m 2.9804128,1.6777648 c -0.004,0.0087 -0.0078,0.017417 -0.01164,0.026147 -2.66e-4,-1.853e-4 -6.29e-4,-9.2e-5 -9.2e-4,-1.853e-4 -0.326108,-0.1520846 -0.899007,-0.315372 -1.107059,-0.3154275 -0.05404,-1.57e-5 -0.07705,0.0154 -0.168756,0.1127583 -0.523052,0.555303 -1.25387406,1.7331909 -1.60308606,2.5839021 -0.127422,0.3104137 -0.129041,0.3076146 0.06807,0.1056898 0.411545,-0.4215907 0.758257,-0.6379202 1.02228806,-0.6379202 0.20665,0 0.391516,0.1417979 0.510829,0.3918599 l 0.06508,0.1367563 0.04018,-0.088437 c 0.05337,-0.1174034 0.232388,-0.4837522 0.49854,-0.6203346 0.176313,-0.090477 0.38324,-0.1563401 0.565033,-0.025791 9.2e-4,0.033567 0.12379,0.067083 0.12379,0.1004307 z"
     sodipodi:nodetypes="cccsssssccssccc" /><path
     id="path392"
     style="opacity:1;fill:url(#linearGradient53);fill-opacity:1;stroke:none;stroke-width:0.0181186;stroke-linecap:round;stroke-linejoin:round;stroke-dasharray:none;stroke-opacity:1;paint-order:fill markers stroke"
     d="m 4.6874598,0.4690631 c -0.759389,-0.014109 -1.600078,0.4619565 -1.960362,1.2121067 -0.290416,0.6125459 -0.137891,1.3047859 -0.133869,1.9572083 0.02551,0.3333472 0.01035,0.8595377 0.317663,1.0615383 0.188595,0.1424975 0.354494,0.050575 0.558922,0.07265 0.315217,0.034038 0.410036,0.3073643 0.749582,0.2830267 0.164119,-0.011755 0.316331,-0.1934527 0.479238,-0.2094135 0.501294,-1.4410377 -0.444548,-2.8569187 0,-4.3766894 -0.0037,-8.79e-5 -0.0074,-3.633e-4 -0.01116,-4.601e-4 z m -0.924394,1.0377833 c 0.383,0.00189 0.609356,0.4767017 0.49663,0.833344 -0.08705,0.4387 -0.606181,0.6547156 -0.966229,0.4251839 -0.349804,-0.180343 -0.289141,-0.6749609 -0.08638,-0.9492069 0.119495,-0.1735206 0.309818,-0.302238 0.518421,-0.3080263 0.01268,-9.445e-4 0.0252,-0.00136 0.03755,-0.00126 z"
     sodipodi:nodetypes="scccsscccsccccssc" /><path
     id="path393"
     style="opacity:1;fill:url(#linearGradient54);fill-opacity:1;stroke:none;stroke-width:0.00368755;stroke-linecap:round;paint-order:fill markers stroke"
     d="m 3.7214848,1.5081307 c -0.348554,-10e-7 -0.643726,0.3774666 -0.679022,0.7521615 -0.03661,0.388676 0.251123,0.6037718 0.599634,0.59748 0.146517,-0.00263 0.248324,-0.059179 0.252506,-0.06139 -0.3175,0.018616 -0.66232,-0.1935871 -0.630058,-0.5360885 0.03175,-0.3370836 0.273853,-0.6763422 0.57591,-0.7410686 -0.0375,-0.00733 -0.07716,-0.011097 -0.11897,-0.011097 z"
     sodipodi:nodetypes="ssscscs" /><ellipse
     style="opacity:1;fill:#8fb300;fill-opacity:1;stroke:none;stroke-width:0.367145;stroke-linecap:round;stroke-linejoin:round;stroke-opacity:0.924933;paint-order:fill markers stroke"
     id="ellipse393"
     cx="3.7922471"
     cy="2.1842256"
     rx="0.21719673"
     ry="0.32197639" /><path
     id="path394"
     style="opacity:1;fill:url(#linearGradient55);fill-opacity:1;stroke:none;stroke-width:0.0181186;stroke-linecap:round;stroke-dasharray:none;stroke-opacity:1"
     d="M 6.0236918,2.0600915e-7 C 5.6860658,0.102525 5.4137778,0.3072992 5.1687318,0.554697 l 0.990247,0.4906111 C 6.1537788,0.6864833 6.1497788,0.327311 6.0236918,2.0600915e-7 Z"
     sodipodi:nodetypes="cccc" /><path
     id="path395"
     style="opacity:1;fill:url(#linearGradient56);fill-opacity:1;stroke:none;stroke-width:0.0181186;stroke-linecap:round;stroke-linejoin:bevel;stroke-dasharray:none;stroke-opacity:1;paint-order:fill markers stroke"
     d="m 4.6864038,0.4690631 c 0.75939,-0.014109 1.600079,0.4619565 1.960363,1.2121067 0.290416,0.6125459 0.137894,1.3047859 0.133869,1.9572083 -0.02551,0.3333472 -0.01035,0.8595377 -0.317664,1.0615383 -0.188595,0.1424975 -0.354593,0.030763 -0.558921,0.072651 -0.31059,0.063682 -0.400933,0.3156323 -0.740479,0.2912947 -0.16412,-0.011755 -0.325433,-0.201721 -0.488341,-0.2176815 0.444359,-1.4334922 -0.436725,-3.041235 0,-4.3766897 0.0037,-8.76e-5 0.0074,-3.632e-4 0.01117,-4.601e-4 z m 0.924396,1.0377833 c -0.383001,0.00189 -0.609358,0.4767017 -0.496631,0.833344 0.08705,0.4387 0.606181,0.6547156 0.966229,0.4251839 0.349803,-0.180343 0.289141,-0.6749609 0.08638,-0.9492069 -0.119496,-0.1735206 -0.309819,-0.302238 -0.518421,-0.3080263 -0.01268,-9.445e-4 -0.0252,-0.00136 -0.03756,-0.00126 z"
     sodipodi:nodetypes="ccccssccccsccccss" /><path
     id="path396"
     style="opacity:1;fill:#c97ab0;fill-opacity:1;stroke:none;stroke-width:0.00368755;stroke-linecap:round;paint-order:fill markers stroke"
     d="m 5.6496578,1.5038444 c 0.348553,-10e-7 0.643725,0.3774678 0.679021,0.7521627 0.03662,0.388676 -0.251123,0.6037716 -0.599634,0.5974798 -0.146517,-0.00262 -0.248323,-0.059181 -0.252505,-0.061389 0.3175,0.018609 0.66232,-0.1935891 0.630057,-0.5360885 -0.03175,-0.3370849 -0.273852,-0.6763437 -0.575909,-0.7410689 0.0375,-0.00734 0.07716,-0.011096 0.11897,-0.011096 z"
     sodipodi:nodetypes="ssscscs" /><ellipse
     style="opacity:1;fill:#c97ab0;fill-opacity:1;stroke:none;stroke-width:0.367145;stroke-linecap:round;stroke-linejoin:round;stroke-opacity:0.924933;paint-order:fill markers stroke"
     id="ellipse396"
     cx="-5.6035457"
     cy="2.1842256"
     rx="0.21719673"
     ry="0.32197639"
     transform="scale(-1,1)" /><path
     style="opacity:1;fill:url(#linearGradient60);fill-opacity:1;stroke-width:0.0130658;stroke-linecap:round"
     d="m 4.7539888,3.1288547 0.225793,0.189737 0.188874,-0.2445762 c 0.02789,-0.036135 0.02251,-0.088654 -0.01218,-0.1177703 l -0.100715,-0.084647 c -0.03464,-0.029118 -0.08498,-0.023481 -0.112896,0.012705 z"
     id="path397" /><path
     style="opacity:1;fill:url(#linearGradient61);fill-opacity:1;stroke-width:0.0130658;stroke-linecap:round"
     d="M 4.5720998,3.3643997 4.7539838,3.1288574 4.5195318,2.9318262 c -0.03464,-0.029118 -0.08498,-0.023481 -0.112897,0.012705 L 4.3254948,3.04962 c -0.02791,0.036135 -0.02251,0.088653 0.01218,0.1177704 z"
     id="path398" /><path
     style="opacity:1;fill:url(#linearGradient62);fill-opacity:1;stroke-width:0.0130658;stroke-linecap:round"
     d="M 4.7978948,3.5541432 4.5721028,3.3644053 4.3832278,3.6089815 c -0.02791,0.036135 -0.02251,0.088681 0.01218,0.1177999 l 0.10074,0.084647 c 0.03464,0.029118 0.08501,0.023481 0.112924,-0.012707 z"
     id="path399" /><path
     style="opacity:1;fill:url(#linearGradient63);fill-opacity:1;stroke-width:0.0130658;stroke-linecap:round"
     d="m 5.2264068,3.6334087 c 0.02791,-0.036135 0.02251,-0.088681 -0.01218,-0.1177999 l -0.23445,-0.1970302 -0.181884,0.2355424 0.234452,0.1970311 c 0.03464,0.029118 0.08501,0.023481 0.112897,-0.012707 z"
     id="path400" /><rect
     style="opacity:1;fill:url(#linearGradient64);fill-opacity:1;stroke-width:0.017949;stroke-linecap:round"
     id="rect400"
     width="0.30330017"
     height="0.30058366"
     x="-0.66645759"
     y="-5.9776201"
     ry="0"
     transform="matrix(-0.61118677,0.7914864,-0.7655791,-0.64334177,0,0)" /></svg>
