<?xml version="1.0" encoding="UTF-8" standalone="no"?>
<!-- Created with Inkscape (http://www.inkscape.org/) -->

<svg
   width="8.998764mm"
   height="6.1911831mm"
   viewBox="0 0 8.9987638 6.1911829"
   version="1.1"
   id="svg5"
   xml:space="preserve"
   sodipodi:docname="alchemicats-full.svg"
   inkscape:version="1.4 (e7c3feb100, 2024-10-09)"
   inkscape:export-filename="alchemicats-full.svg"
   inkscape:export-xdpi="379.45383"
   inkscape:export-ydpi="379.45383"
   xmlns:inkscape="http://www.inkscape.org/namespaces/inkscape"
   xmlns:sodipodi="http://sodipodi.sourceforge.net/DTD/sodipodi-0.dtd"
   xmlns:xlink="http://www.w3.org/1999/xlink"
   xmlns="http://www.w3.org/2000/svg"
   xmlns:svg="http://www.w3.org/2000/svg"><sodipodi:namedview
     id="namedview223"
     pagecolor="#ffffff"
     bordercolor="#666666"
     borderopacity="1.0"
     inkscape:showpageshadow="2"
     inkscape:pageopacity="0.0"
     inkscape:pagecheckerboard="0"
     inkscape:deskcolor="#d1d1d1"
     inkscape:document-units="mm"
     showgrid="false"
     inkscape:zoom="16"
     inkscape:cx="-135.8125"
     inkscape:cy="13.125"
     inkscape:window-width="1862"
     inkscape:window-height="991"
     inkscape:window-x="26"
     inkscape:window-y="23"
     inkscape:window-maximized="0"
     inkscape:current-layer="svg5"
     showguides="true"
     inkscape:export-bgcolor="#00000000"><sodipodi:guide
       position="-38.601274,-572.82515"
       orientation="0,-1"
       id="guide469"
       inkscape:locked="false" /><sodipodi:guide
       position="-49.897824,-596.18846"
       orientation="0,-1"
       id="guide471"
       inkscape:locked="false" /><sodipodi:guide
       position="-65.302203,-624.42982"
       orientation="0,-1"
       id="guide473"
       inkscape:locked="false" /><sodipodi:guide
       position="-61.322733,-639.96257"
       orientation="0,-1"
       id="guide475"
       inkscape:locked="false" /><sodipodi:guide
       position="50.263857,-643.46092"
       orientation="0,-1"
       id="guide15194"
       inkscape:locked="false" /><sodipodi:guide
       position="123.73948,-205.53685"
       orientation="0,-1"
       id="guide868"
       inkscape:locked="false" /><sodipodi:guide
       position="156.0621,-58.156335"
       orientation="0,-1"
       id="guide8933"
       inkscape:locked="false" /><sodipodi:guide
       position="170.52799,-87.987892"
       orientation="0,-1"
       id="guide8935"
       inkscape:locked="false" /><sodipodi:guide
       position="160.85064,-76.113353"
       orientation="0,-1"
       id="guide8937"
       inkscape:locked="false" /><inkscape:grid
       id="grid284"
       units="mm"
       originx="25.411171"
       originy="-125.00025"
       spacingx="0.99999999"
       spacingy="0.99999997"
       empcolor="#0099e5"
       empopacity="0.30196078"
       color="#0099e5"
       opacity="0.14901961"
       empspacing="5"
       dotted="false"
       gridanglex="30"
       gridanglez="30"
       visible="false" /><sodipodi:guide
       position="166.96489,54.992671"
       orientation="1,0"
       id="guide339"
       inkscape:locked="false" /><sodipodi:guide
       position="176.56487,56.446314"
       orientation="1,0"
       id="guide340"
       inkscape:locked="false" /><sodipodi:guide
       position="4.4437177,-0.64735432"
       orientation="0,-1"
       id="guide276"
       inkscape:locked="false" /><sodipodi:guide
       position="0.19419681,24.818122"
       orientation="0,-1"
       id="guide5"
       inkscape:locked="false" /><sodipodi:guide
       position="-7.7426168,17.849513"
       orientation="0,-1"
       id="guide6"
       inkscape:locked="false" /><inkscape:page
       x="-2.6544152e-16"
       y="3.0064495e-16"
       width="8.9987631"
       height="6.1911826"
       id="page2"
       margin="0"
       bleed="0" /></sodipodi:namedview><defs
     id="defs2"><linearGradient
       id="linearGradient12"
       inkscape:collect="always"><stop
         style="stop-color:#9cbd15;stop-opacity:1;"
         offset="0"
         id="stop11" /><stop
         style="stop-color:#ccff00;stop-opacity:1;"
         offset="1"
         id="stop12" /></linearGradient><linearGradient
       id="linearGradient120"
       inkscape:collect="always"><stop
         style="stop-color:#ccff00;stop-opacity:1;"
         offset="0"
         id="stop119" /><stop
         style="stop-color:#9bbe15;stop-opacity:1;"
         offset="1"
         id="stop120" /></linearGradient><linearGradient
       id="linearGradient118"
       inkscape:collect="always"><stop
         style="stop-color:#ccff00;stop-opacity:1;"
         offset="0"
         id="stop117" /><stop
         style="stop-color:#b3e100;stop-opacity:1;"
         offset="1"
         id="stop118" /></linearGradient><linearGradient
       id="linearGradient9"
       inkscape:collect="always"><stop
         style="stop-color:#c9f125;stop-opacity:1;"
         offset="0"
         id="stop9" /><stop
         style="stop-color:#b4dc18;stop-opacity:0.76078433;"
         offset="1"
         id="stop10" /></linearGradient><linearGradient
       id="linearGradient16"
       inkscape:collect="always"><stop
         style="stop-color:#f4d4ed;stop-opacity:1;"
         offset="0"
         id="stop16" /><stop
         style="stop-color:#f0b1d5;stop-opacity:1;"
         offset="1"
         id="stop17" /></linearGradient><linearGradient
       id="linearGradient14"
       inkscape:collect="always"><stop
         style="stop-color:#c8eb34;stop-opacity:1;"
         offset="0"
         id="stop14" /><stop
         style="stop-color:#f4d4ed;stop-opacity:1;"
         offset="1"
         id="stop15" /></linearGradient><linearGradient
       id="linearGradient7"
       inkscape:collect="always"><stop
         style="stop-color:#b4e100;stop-opacity:0.89411765;"
         offset="0"
         id="stop7" /><stop
         style="stop-color:#ccff00;stop-opacity:1;"
         offset="1"
         id="stop8" /></linearGradient><linearGradient
       id="linearGradient5"
       inkscape:collect="always"><stop
         style="stop-color:#f4d4ed;stop-opacity:1;"
         offset="0"
         id="stop5" /><stop
         style="stop-color:#e97ab0;stop-opacity:1;"
         offset="1"
         id="stop6" /></linearGradient><linearGradient
       id="linearGradient3"
       inkscape:collect="always"><stop
         style="stop-color:#b4e100;stop-opacity:0.90980393;"
         offset="0"
         id="stop3" /><stop
         style="stop-color:#ccff00;stop-opacity:1;"
         offset="1"
         id="stop4" /></linearGradient><linearGradient
       id="linearGradient1"
       inkscape:collect="always"><stop
         style="stop-color:#f4d4ed;stop-opacity:1;"
         offset="0"
         id="stop1" /><stop
         style="stop-color:#e97ab0;stop-opacity:1;"
         offset="1"
         id="stop2" /></linearGradient><linearGradient
       id="linearGradient59"
       inkscape:collect="always"><stop
         style="stop-color:#8fb300;stop-opacity:1;"
         offset="0.69999999"
         id="stop59" /><stop
         style="stop-color:#919191;stop-opacity:0.77507013;"
         offset="1"
         id="stop60" /></linearGradient><linearGradient
       id="linearGradient57"
       inkscape:collect="always"><stop
         style="stop-color:#e97ab0;stop-opacity:1;"
         offset="0.69999999"
         id="stop57" /><stop
         style="stop-color:#f4d4ed;stop-opacity:1;"
         offset="1"
         id="stop58" /></linearGradient><linearGradient
       id="linearGradient34"
       inkscape:collect="always"><stop
         style="stop-color:#e8bbdc;stop-opacity:1;"
         offset="0"
         id="stop33" /><stop
         style="stop-color:#c97ab0;stop-opacity:1;"
         offset="1"
         id="stop34" /></linearGradient><linearGradient
       id="linearGradient28"
       inkscape:collect="always"><stop
         style="stop-color:#d056b0;stop-opacity:1;"
         offset="0"
         id="stop28" /><stop
         style="stop-color:#e8bbdc;stop-opacity:1;"
         offset="1"
         id="stop29" /></linearGradient><linearGradient
       id="linearGradient21"
       inkscape:collect="always"><stop
         style="stop-color:#832569;stop-opacity:1;"
         offset="0"
         id="stop22" /><stop
         style="stop-color:#b4e100;stop-opacity:1;"
         offset="1"
         id="stop23" /></linearGradient><filter
       inkscape:collect="always"
       style="color-interpolation-filters:sRGB"
       id="filter201"
       x="-0.071600945"
       y="-0.43266936"
       width="1.1432019"
       height="1.8653387"><feGaussianBlur
         inkscape:collect="always"
         stdDeviation="0.060679623"
         id="feGaussianBlur201" /></filter><filter
       inkscape:collect="always"
       style="color-interpolation-filters:sRGB"
       id="filter54"
       x="-0.068945764"
       y="-0.2470432"
       width="1.1378915"
       height="1.5723405"><feGaussianBlur
         inkscape:collect="always"
         stdDeviation="0.055614846"
         id="feGaussianBlur54" /></filter><linearGradient
       inkscape:collect="always"
       xlink:href="#linearGradient120"
       id="linearGradient141"
       gradientUnits="userSpaceOnUse"
       gradientTransform="matrix(9.3519049,0,0,9.3519049,-86.995438,-6.2343133)"
       x1="9.0789461"
       y1="3.590987"
       x2="8.7015772"
       y2="4.2572026" /><linearGradient
       inkscape:collect="always"
       xlink:href="#linearGradient21"
       id="linearGradient142"
       gradientUnits="userSpaceOnUse"
       x1="6.360786"
       y1="5.089088"
       x2="8.5183001"
       y2="5.089088" /><linearGradient
       inkscape:collect="always"
       xlink:href="#linearGradient21"
       id="linearGradient143"
       gradientUnits="userSpaceOnUse"
       x1="6.360786"
       y1="5.089088"
       x2="8.5183001"
       y2="5.089088" /><linearGradient
       inkscape:collect="always"
       xlink:href="#linearGradient21"
       id="linearGradient144"
       gradientUnits="userSpaceOnUse"
       x1="6.360786"
       y1="5.089088"
       x2="8.5183001"
       y2="5.089088" /><linearGradient
       inkscape:collect="always"
       xlink:href="#linearGradient118"
       id="linearGradient145"
       gradientUnits="userSpaceOnUse"
       gradientTransform="matrix(9.3519049,0,0,9.3519049,-86.995438,-6.2343133)"
       x1="6.9843769"
       y1="3.2590051"
       x2="6.7427301"
       y2="2.9263408" /><linearGradient
       inkscape:collect="always"
       xlink:href="#linearGradient16"
       id="linearGradient146"
       gradientUnits="userSpaceOnUse"
       gradientTransform="matrix(9.3519049,0,0,9.3519049,-86.995438,-6.2343133)"
       x1="7.4900393"
       y1="3.8687615"
       x2="8.2426844"
       y2="3.8687615" /><linearGradient
       inkscape:collect="always"
       xlink:href="#linearGradient9"
       id="linearGradient147"
       gradientUnits="userSpaceOnUse"
       gradientTransform="matrix(9.3519049,0,0,9.3519049,-86.995438,-6.2343133)"
       x1="6.5740199"
       y1="3.8687615"
       x2="7.3266654"
       y2="3.8687615" /><linearGradient
       inkscape:collect="always"
       xlink:href="#linearGradient28"
       id="linearGradient148"
       gradientUnits="userSpaceOnUse"
       gradientTransform="matrix(9.3519049,0,0,9.3519049,-86.995438,-6.2343133)"
       x1="6.3794994"
       y1="4.20473"
       x2="5.8050876"
       y2="3.7336636" /><linearGradient
       inkscape:collect="always"
       xlink:href="#linearGradient28"
       id="linearGradient149"
       gradientUnits="userSpaceOnUse"
       gradientTransform="matrix(9.3519049,0,0,9.3519049,-86.995438,-6.2343133)"
       x1="6.8164282"
       y1="4.5268359"
       x2="7.0935769"
       y2="3.8687615" /><linearGradient
       inkscape:collect="always"
       xlink:href="#linearGradient59"
       id="linearGradient150"
       gradientUnits="userSpaceOnUse"
       gradientTransform="matrix(9.3519049,0,0,9.3519049,-86.995438,-6.2343133)"
       x1="6.6652274"
       y1="3.868228"
       x2="7.0428696"
       y2="3.868228" /><linearGradient
       inkscape:collect="always"
       xlink:href="#linearGradient34"
       id="linearGradient151"
       gradientUnits="userSpaceOnUse"
       gradientTransform="matrix(9.3519049,0,0,9.3519049,-86.995438,-6.2343133)"
       x1="7.8800507"
       y1="3.2976129"
       x2="7.8065286"
       y2="2.9190054" /><linearGradient
       inkscape:collect="always"
       xlink:href="#linearGradient12"
       id="linearGradient152"
       gradientUnits="userSpaceOnUse"
       gradientTransform="matrix(9.3519049,0,0,9.3519049,-86.995438,-6.2343133)"
       x1="8.1929235"
       y1="4.5169106"
       x2="7.9143019"
       y2="3.6483808" /><linearGradient
       inkscape:collect="always"
       xlink:href="#linearGradient57"
       id="linearGradient153"
       gradientUnits="userSpaceOnUse"
       gradientTransform="matrix(9.3519049,0,0,9.3519049,-86.995438,-6.2343133)"
       x1="7.7413535"
       y1="3.8663363"
       x2="8.1189957"
       y2="3.8663363" /><linearGradient
       inkscape:collect="always"
       xlink:href="#linearGradient5"
       id="linearGradient154"
       gradientUnits="userSpaceOnUse"
       gradientTransform="matrix(9.3519049,0,0,9.3519049,-86.995438,-6.2343133)"
       x1="7.4223204"
       y1="4.2668338"
       x2="7.613287"
       y2="4.2668338" /><linearGradient
       inkscape:collect="always"
       xlink:href="#linearGradient3"
       id="linearGradient155"
       gradientUnits="userSpaceOnUse"
       gradientTransform="matrix(9.3519049,0,0,9.3519049,-86.995438,-6.2343133)"
       x1="7.2252421"
       y1="4.2902436"
       x2="7.422318"
       y2="4.2902436" /><linearGradient
       inkscape:collect="always"
       xlink:href="#linearGradient7"
       id="linearGradient156"
       gradientUnits="userSpaceOnUse"
       gradientTransform="matrix(9.3519049,0,0,9.3519049,-86.995438,-6.2343133)"
       x1="7.2507348"
       y1="4.4926543"
       x2="7.4417062"
       y2="4.4926543" /><linearGradient
       inkscape:collect="always"
       xlink:href="#linearGradient1"
       id="linearGradient157"
       gradientUnits="userSpaceOnUse"
       gradientTransform="matrix(9.3519049,0,0,9.3519049,-86.995438,-6.2343133)"
       x1="7.4417038"
       y1="4.4692302"
       x2="7.6387911"
       y2="4.4692302" /><linearGradient
       inkscape:collect="always"
       xlink:href="#linearGradient14"
       id="linearGradient158"
       gradientUnits="userSpaceOnUse"
       gradientTransform="matrix(9.3519044,2.5622202e-8,0,9.3519047,51.238625,72.728041)"
       x1="-1.4873432"
       y1="-8.6524916"
       x2="-1.3598969"
       y2="-8.4964838" /></defs><g
     id="g141"
     transform="matrix(0.24217675,0,0,0.24217675,9.0120877,-5.0679941)"
     inkscape:export-filename="alchemicats-full.svg"
     inkscape:export-xdpi="546.85645"
     inkscape:export-ydpi="546.85645"
     style="opacity:0.59453"><path
       style="fill:url(#linearGradient141);fill-opacity:1;stroke:none;stroke-width:0.0748156;stroke-dasharray:none;stroke-opacity:1"
       d="m -8.2719606,22.629129 -0.02694,0.05751 c 2.672324,2.224698 1.168784,7.612306 -1.9509804,7.24124 -0.411914,-0.04901 -0.817147,-0.201668 -1.17369,-0.478674 -0.555398,-0.431471 -0.908924,-1.062316 -1.23396,-1.771312 -0.43349,1.563551 -1.042599,2.72464 -1.913179,3.932394 1.481149,-0.06762 2.789209,0.02078 3.752185,1.720235 0.307049,0.541746 0.419057,1.19777 0.700532,1.741465 0.6901144,-1.438211 2.2704774,-2.000059 3.4318964,-1.215863 0.558591,0.37706 0.821274,0.944649 1.229038,1.523469 0.457859,-1.806651 2.51697,-2.506165 3.74474,-1.750849 0.83812897,0.515506 1.21547597,1.348218 1.617054,2.378655 0.123792,-1.126024 -0.059172,-2.356581 -0.261438,-3.4485 -0.63338703,-3.418501 -2.355996,-6.556486 -4.71396,-8.331447 -1.021056,-0.768623 -2.096751,-1.119796 -3.201285,-1.598327"
       id="path129" /><g
       id="g130"
       transform="matrix(9.3417813,0,0,10.683265,-87.081194,-12.41436)"
       style="fill:url(#linearGradient144);fill-opacity:1;fill-rule:nonzero;stroke:none;filter:url(#filter54)"
       inkscape:export-filename="../Socials/alchemicats.png"
       inkscape:export-xdpi="914.52753"
       inkscape:export-ydpi="914.52753"><ellipse
         style="opacity:0.280124;fill:url(#linearGradient142);fill-opacity:1;fill-rule:nonzero;stroke:none;stroke-width:0.539575"
         id="ellipse129"
         cx="7.4395428"
         cy="5.0679479"
         rx="1.0653322"
         ry="0.27014664" /><ellipse
         style="opacity:0.280124;fill:url(#linearGradient143);fill-opacity:1;fill-rule:nonzero;stroke:none;stroke-width:0.427711;filter:url(#filter201)"
         id="ellipse130"
         cx="7.4417076"
         cy="5.089088"
         rx="1.0169635"
         ry="0.16829374"
         transform="matrix(0.92788732,0,0,0.92788732,0.53447658,0.36698777)" /></g><path
       id="path130"
       style="fill:url(#linearGradient145);fill-opacity:1;stroke:none;stroke-width:0.0748156;stroke-linecap:round;stroke-dasharray:none;stroke-opacity:1"
       d="m -23.350242,20.926839 c 1.394135,0.423351 2.51847,1.268904 3.530315,2.290463 l -4.088944,2.025839 c 0.02153,-1.481665 0.03816,-2.964765 0.558629,-4.316302 z"
       sodipodi:nodetypes="cccc"
       inkscape:export-filename="alchemicat-logo-full-gradiant.svg"
       inkscape:export-xdpi="379.45383"
       inkscape:export-ydpi="379.45383" /><ellipse
       style="fill:url(#linearGradient146);fill-opacity:1;stroke-width:0.0865368;stroke-linecap:round"
       id="ellipse131"
       cx="-13.429971"
       cy="29.945976"
       rx="3.5193334"
       ry="3.6713083" /><ellipse
       style="fill:url(#linearGradient147);fill-opacity:1;stroke-width:0.0865368;stroke-linecap:round"
       id="ellipse132"
       cx="-21.996496"
       cy="29.945976"
       rx="3.5193334"
       ry="3.6713083" /><path
       id="path132"
       style="fill:url(#linearGradient148);fill-opacity:1;stroke:none;stroke-width:0.0748156;stroke-linecap:square;stroke-linejoin:bevel;stroke-dasharray:none;stroke-opacity:1;paint-order:fill markers stroke"
       d="m -24.906083,27.854691 c -0.01655,0.03592 -0.03235,0.07192 -0.04807,0.107968 -0.0011,-7.65e-4 -0.0026,-3.8e-4 -0.0038,-7.65e-4 -1.34657,-0.62799 -3.712194,-1.302239 -4.571285,-1.302468 -0.223146,-6.5e-5 -0.318152,0.06359 -0.696829,0.465603 -2.159796,2.292966 -5.177516,7.156719 -6.619491,10.669489 -0.526151,1.281765 -0.532838,1.270207 0.281072,0.436416 1.69936,-1.740839 3.13101,-2.63411 4.221248,-2.63411 0.853305,0 1.616654,0.585514 2.109325,1.618074 l 0.268727,0.564696 0.165891,-0.365175 c 0.220382,-0.484784 0.95958,-1.997517 2.05858,-2.561495 0.728037,-0.3736 1.582482,-0.645562 2.333142,-0.106498 0.0038,0.138605 0.511157,0.277002 0.511157,0.4147 z"
       sodipodi:nodetypes="cccsssssccssccc" /><path
       id="path133"
       style="fill:url(#linearGradient149);fill-opacity:1;stroke:none;stroke-width:0.0748156;stroke-linecap:round;stroke-linejoin:round;stroke-dasharray:none;stroke-opacity:1;paint-order:fill markers stroke"
       d="m -17.857315,22.863701 c -3.135684,-0.05826 -6.607069,1.907518 -8.09476,5.00505 -1.19919,2.529334 -0.569381,5.387742 -0.552773,8.081735 0.105323,1.376462 0.04274,3.105379 1.311697,3.939483 0.778752,0.588403 1.463785,0.208835 2.307911,0.299988 1.3016,0.14055 1.693128,0.859478 3.095184,0.758983 0.677686,-0.04854 1.3062,-0.389113 1.978877,-0.455018 2.069952,-5.950355 -1.835632,-11.352996 0,-17.628457 -0.01532,-3.63e-4 -0.03068,-0.0015 -0.0461,-0.0019 z m -3.817025,4.285231 c 1.581491,0.0078 2.516165,1.968404 2.050695,3.441057 -0.35946,1.811487 -2.503052,2.703462 -3.98977,1.755676 -1.444414,-0.744675 -1.193927,-2.787059 -0.356683,-3.91948 0.493421,-0.716504 1.279306,-1.248006 2.140672,-1.271907 0.05237,-0.0039 0.104076,-0.0056 0.155071,-0.0052 z"
       sodipodi:nodetypes="scccsscccsccccssc" /><path
       id="path134"
       style="opacity:0.274059;fill:url(#linearGradient150);fill-opacity:1;stroke:none;stroke-width:0.0152267;stroke-linecap:round;paint-order:fill markers stroke"
       d="m -21.846036,27.154235 c -1.439253,-4e-6 -2.658082,1.558641 -2.80383,3.105837 -0.151183,1.604927 1.036944,2.493104 2.476019,2.467124 0.605003,-0.01085 1.025385,-0.244365 1.042653,-0.253493 -1.311026,0.07687 -2.734861,-0.799363 -2.601647,-2.213625 0.131086,-1.391891 1.1308,-2.792763 2.378058,-3.060032 -0.154829,-0.03028 -0.318608,-0.04582 -0.491255,-0.04582 z"
       sodipodi:nodetypes="ssscscs" /><ellipse
       style="fill:#8fb300;fill-opacity:1;stroke:none;stroke-width:1.51602;stroke-linecap:round;stroke-linejoin:round;stroke-opacity:0.924933;paint-order:fill markers stroke"
       id="ellipse134"
       cx="-21.553837"
       cy="29.945976"
       rx="0.89685214"
       ry="1.32951" /><path
       id="path135"
       style="fill:url(#linearGradient151);fill-opacity:1;stroke:none;stroke-width:0.0748156;stroke-linecap:round;stroke-dasharray:none;stroke-opacity:1"
       d="m -12.339729,20.926839 c -1.39413,0.423347 -2.518465,1.268904 -3.530311,2.290463 l 4.088944,2.025839 c -0.02151,-1.481665 -0.03815,-2.964765 -0.558633,-4.316302 z"
       sodipodi:nodetypes="cccc" /><path
       id="path136"
       style="fill:url(#linearGradient152);fill-opacity:1;stroke:none;stroke-width:0.0748156;stroke-linecap:round;stroke-linejoin:bevel;stroke-dasharray:none;stroke-opacity:1;paint-order:fill markers stroke"
       d="m -17.861678,22.863701 c 3.135687,-0.05826 6.607073,1.907518 8.0947632,5.00505 1.1991902,2.529334 0.5693912,5.387742 0.5527722,8.081735 -0.105318,1.376462 -0.04274,3.105379 -1.3117014,3.939483 -0.778752,0.588403 -1.464194,0.127027 -2.307906,0.29999 -1.282492,0.262957 -1.655538,0.859477 -3.057598,0.758982 -0.677686,-0.04854 -1.343785,-0.389114 -2.016464,-0.455017 1.834854,-5.919198 -1.803332,-12.114078 0,-17.628458 0.01532,-3.62e-4 0.03068,-0.0015 0.0461,-0.0019 z m 3.817029,4.285231 c -1.581492,0.0078 -2.51617,1.968404 -2.050696,3.441057 0.35946,1.811487 2.503053,2.703462 3.98977,1.755676 1.44441,-0.744675 1.193924,-2.787059 0.356684,-3.91948 -0.493425,-0.716504 -1.27931,-1.248006 -2.140671,-1.271907 -0.05236,-0.0039 -0.104077,-0.0056 -0.155086,-0.0052 z"
       sodipodi:nodetypes="ccccssccccsccccss" /><path
       id="path137"
       style="opacity:0.274059;fill:url(#linearGradient153);fill-opacity:1;stroke:none;stroke-width:0.0152267;stroke-linecap:round;paint-order:fill markers stroke"
       d="m -13.884194,27.136536 c 1.439249,-4e-6 2.658078,1.558646 2.803826,3.105842 0.151225,1.604927 -1.036941,2.493103 -2.476019,2.467123 -0.605,-0.0108 -1.025381,-0.24437 -1.042649,-0.253489 1.311026,0.07684 2.734862,-0.799371 2.601643,-2.213625 -0.13109,-1.391896 -1.130795,-2.792769 -2.378054,-3.060033 0.154829,-0.03029 0.318608,-0.04582 0.491253,-0.04582 z"
       sodipodi:nodetypes="ssscscs" /><ellipse
       style="fill:#c97ab0;fill-opacity:1;stroke:none;stroke-width:1.51602;stroke-linecap:round;stroke-linejoin:round;stroke-opacity:0.924933;paint-order:fill markers stroke"
       id="ellipse137"
       cx="14.074603"
       cy="29.945976"
       rx="0.89685214"
       ry="1.32951"
       transform="scale(-1,1)" /><path
       style="fill:url(#linearGradient154);fill-opacity:1;stroke-width:0.0539514;stroke-linecap:round"
       d="m -17.582605,33.846554 0.932347,0.783465 0.779902,-1.009908 c 0.115152,-0.149209 0.09296,-0.366073 -0.05031,-0.486299 l -0.415872,-0.349527 c -0.143038,-0.120236 -0.350914,-0.09696 -0.466174,0.05246 z"
       id="path138" /><path
       style="fill:url(#linearGradient155);fill-opacity:1;stroke-width:0.0539514;stroke-linecap:round"
       d="m -18.333663,34.81917 0.751036,-0.972605 -0.968102,-0.813584 c -0.143038,-0.120236 -0.350914,-0.09696 -0.466174,0.05246 l -0.335058,0.433936 c -0.115262,0.149208 -0.09296,0.366069 0.05031,0.486299 z"
       id="path139" /><path
       style="fill:url(#linearGradient156);fill-opacity:1;stroke-width:0.0539514;stroke-linecap:round"
       d="m -17.401309,35.602662 -0.932343,-0.783469 -0.779906,1.009908 c -0.115262,0.149209 -0.09296,0.366183 0.05031,0.486421 l 0.415981,0.349527 c 0.143037,0.120235 0.351024,0.09696 0.466286,-0.05247 z"
       id="path140" /><path
       style="fill:url(#linearGradient157);fill-opacity:1;stroke-width:0.0539514;stroke-linecap:round"
       d="m -15.63189,35.929966 c 0.115262,-0.149208 0.09296,-0.366183 -0.05031,-0.486421 l -0.968094,-0.81358 -0.751036,0.972605 0.968102,0.813584 c 0.143037,0.120236 0.351023,0.09696 0.466173,-0.05247 z"
       id="path141" /><rect
       style="fill:url(#linearGradient158);fill-opacity:1;stroke-width:0.0741153;stroke-linecap:round"
       id="rect141"
       width="1.2523917"
       height="1.2411747"
       x="37.243881"
       y="-8.0054064"
       ry="0"
       transform="matrix(-0.61118677,0.79148641,-0.7655791,-0.64334178,0,0)" /></g></svg>
