<?xml version="1.0" encoding="UTF-8" standalone="no"?>
<!-- Created with Inkscape (http://www.inkscape.org/) -->

<svg
   width="10.051003mm"
   height="3.8642952mm"
   viewBox="0 0 10.051003 3.8642952"
   version="1.1"
   id="svg5"
   xml:space="preserve"
   sodipodi:docname="alchemicats.svg"
   inkscape:version="1.3 (0e150ed6c4, 2023-07-21)"
   inkscape:export-filename="../../../../../home/dekram/RepositoryDisk/Development/repository/alchemicats.pet/assets/images/campfire.svg"
   inkscape:export-xdpi="379.45383"
   inkscape:export-ydpi="379.45383"
   xmlns:inkscape="http://www.inkscape.org/namespaces/inkscape"
   xmlns:sodipodi="http://sodipodi.sourceforge.net/DTD/sodipodi-0.dtd"
   xmlns="http://www.w3.org/2000/svg"
   xmlns:svg="http://www.w3.org/2000/svg"><sodipodi:namedview
     id="namedview223"
     pagecolor="#ffffff"
     bordercolor="#666666"
     borderopacity="1.0"
     inkscape:showpageshadow="2"
     inkscape:pageopacity="0.0"
     inkscape:pagecheckerboard="0"
     inkscape:deskcolor="#d1d1d1"
     inkscape:document-units="mm"
     showgrid="false"
     inkscape:zoom="5.6568543"
     inkscape:cx="132.40574"
     inkscape:cy="138.68132"
     inkscape:window-width="1920"
     inkscape:window-height="961"
     inkscape:window-x="0"
     inkscape:window-y="27"
     inkscape:window-maximized="1"
     inkscape:current-layer="g480"
     showguides="true"
     inkscape:export-bgcolor="#00000000"><sodipodi:guide
       position="-170.89154,-572.72291"
       orientation="0,-1"
       id="guide469"
       inkscape:locked="false" /><sodipodi:guide
       position="-182.18809,-596.08622"
       orientation="0,-1"
       id="guide471"
       inkscape:locked="false" /><sodipodi:guide
       position="-197.59247,-624.32758"
       orientation="0,-1"
       id="guide473"
       inkscape:locked="false" /><sodipodi:guide
       position="-193.613,-639.86033"
       orientation="0,-1"
       id="guide475"
       inkscape:locked="false" /><sodipodi:guide
       position="-82.026402,-643.35868"
       orientation="0,-1"
       id="guide15194"
       inkscape:locked="false" /><sodipodi:guide
       position="-8.5507722,-205.43459"
       orientation="0,-1"
       id="guide868"
       inkscape:locked="false" /><sodipodi:guide
       position="23.771848,-58.054071"
       orientation="0,-1"
       id="guide8933"
       inkscape:locked="false" /><sodipodi:guide
       position="38.237738,-87.88563"
       orientation="0,-1"
       id="guide8935"
       inkscape:locked="false" /><sodipodi:guide
       position="28.560388,-76.01109"
       orientation="0,-1"
       id="guide8937"
       inkscape:locked="false" /></sodipodi:namedview><defs
     id="defs2" /><g
     id="g480"
     transform="matrix(1.1477593,0,0,1.1784856,-35.714491,-41.695448)"
     inkscape:export-filename="../../../../../home/dekram/RepositoryDisk/Development/repository/alchemicats.pet/assets/images/alchemicats-watermark.svg"
     inkscape:export-xdpi="379.45383"
     inkscape:export-ydpi="379.45383"><path
       style="font-size:3.175px;font-family:Roboto;-inkscape-font-specification:Roboto;fill:#c7e93a;fill-opacity:1;stroke-width:0.136381"
       d="m 39.724881,37.46712 q 0,-0.04682 -0.03541,-0.0841 -0.03461,-0.03808 -0.160973,-0.06347 -0.145682,-0.02935 -0.231804,-0.08489 -0.08612,-0.05633 -0.08612,-0.163437 0,-0.101553 0.08773,-0.176131 0.08854,-0.07458 0.235022,-0.07458 0.156145,0 0.243875,0.07855 0.08773,0.07855 0.08773,0.189617 h -0.148902 q 0,-0.05315 -0.04749,-0.09997 -0.04749,-0.0476 -0.135218,-0.0476 -0.09256,0 -0.132804,0.03967 -0.04024,0.03967 -0.04024,0.08648 0,0.04681 0.03702,0.07616 0.03783,0.02857 0.159364,0.05554 0.160169,0.0357 0.238242,0.09362 0.07887,0.05792 0.07887,0.163438 0,0.113453 -0.09256,0.184064 -0.09175,0.07061 -0.243875,0.07061 -0.173048,0 -0.264803,-0.08727 -0.09175,-0.08727 -0.09175,-0.193586 h 0.149706 q 0.0048,0.09124 0.07082,0.126149 0.06681,0.03411 0.136023,0.03411 0.09095,0 0.139243,-0.03491 0.04829,-0.03491 0.04829,-0.08807 z"
       id="path412" /><path
       style="font-size:3.175px;font-family:Roboto;-inkscape-font-specification:Roboto;fill:#b4e100;fill-opacity:1;stroke-width:0.136381"
       d="m 39.00692,37.694821 q -0.05071,0.01587 -0.115096,0.01587 -0.0829,0 -0.141657,-0.04998 -0.05876,-0.04998 -0.05876,-0.179305 v -0.53236 h -0.159364 v -0.11266 h 0.159364 v -0.20866 h 0.148901 v 0.20866 h 0.162584 v 0.11266 h -0.162584 v 0.533153 q 0,0.06585 0.02898,0.0841 0.02898,0.01825 0.06681,0.01825 0.02817,0 0.07002,-0.0095 z"
       id="path411" /><path
       style="font-size:3.175px;font-family:Roboto;-inkscape-font-specification:Roboto;fill:#e8bbdc;fill-opacity:1;stroke-width:0.136381"
       d="m 38.202845,37.694821 q -0.01449,-0.03094 -0.02093,-0.09045 -0.04185,0.04364 -0.104633,0.07537 -0.06278,0.03094 -0.143267,0.03094 -0.133608,0 -0.214096,-0.07378 -0.08049,-0.07378 -0.08049,-0.180891 0,-0.138049 0.106243,-0.209453 0.106242,-0.0722 0.285729,-0.0722 h 0.147291 v -0.06823 q 0,-0.07617 -0.04668,-0.121388 -0.04588,-0.04602 -0.136828,-0.04602 -0.08451,0 -0.136827,0.04125 -0.05151,0.04046 -0.05151,0.09441 h -0.148901 q 0,-0.09203 0.09417,-0.172957 0.09417,-0.08093 0.251926,-0.08093 0.141656,0 0.232606,0.0714 0.09095,0.0714 0.09095,0.215801 v 0.385583 q 0,0.119008 0.03058,0.188826 v 0.01269 z M 37.955749,37.58216 q 0.08049,0 0.139243,-0.03967 0.05956,-0.03967 0.08371,-0.08807 v -0.176921 h -0.138441 q -0.251119,0.0047 -0.251119,0.158676 0,0.06109 0.04185,0.103933 0.04185,0.04205 0.124755,0.04205 z"
       id="path410" /><path
       style="font-size:3.175px;font-family:Roboto;-inkscape-font-specification:Roboto;fill:#e97ab0;fill-opacity:1;stroke-width:0.136381"
       d="m 37.118675,37.590095 q 0.07968,0 0.139243,-0.04681 0.06037,-0.04681 0.066,-0.1198 h 0.141658 q -0.0057,0.11504 -0.107048,0.201518 -0.101413,0.08568 -0.239851,0.08568 -0.196389,0 -0.292169,-0.127735 -0.09497,-0.127735 -0.09497,-0.300692 v -0.03332 q 0,-0.172957 0.09497,-0.300692 0.09578,-0.127734 0.292169,-0.127734 0.152925,0 0.247095,0.08965 0.09417,0.08886 0.0998,0.221354 h -0.141658 q -0.0057,-0.07934 -0.06117,-0.134874 -0.05473,-0.05554 -0.144072,-0.05554 -0.09175,0 -0.144072,0.04602 -0.05151,0.04602 -0.07325,0.116628 -0.02093,0.07061 -0.02093,0.145189 v 0.03332 q 0,0.07537 0.02093,0.145983 0.02093,0.07061 0.07244,0.116627 0.05232,0.04523 0.144876,0.04523 z"
       id="path409" /><path
       style="font-size:3.175px;font-family:Roboto;-inkscape-font-specification:Roboto;fill:#d056b0;fill-opacity:1;stroke-width:0.136381"
       d="m 36.557671,36.83638 v 0.858441 H 36.407965 V 36.83638 Z"
       id="path408" /><path
       style="font-size:3.175px;font-family:Roboto;-inkscape-font-specification:Roboto;fill:#8fb300;fill-opacity:1;stroke-width:0.136381"
       d="m 35.883986,36.944281 q 0.146486,0 0.200412,0.121387 v 0.629153 h 0.149707 V 36.83638 h -0.141658 l -0.004,0.09362 q -0.09417,-0.109487 -0.257558,-0.109487 -0.08371,0 -0.148902,0.03332 -0.066,0.03252 -0.100609,0.104728 -0.04347,-0.06189 -0.112682,-0.09997 -0.07002,-0.03808 -0.164193,-0.03808 -0.140048,0 -0.215705,0.07378 -0.07646,0.07378 -0.07646,0.236428 v 0.564095 h 0.149664 v -0.565681 q 0,-0.107901 0.05071,-0.145983 0.04991,-0.03887 0.135219,-0.03887 0.09014,0 0.141657,0.05315 0.05151,0.05236 0.05956,0.127735 v 0.569648 h 0.148901 v -0.564888 q 0,-0.10076 0.05071,-0.142809 0.05071,-0.04284 0.135219,-0.04284 z"
       id="path406" /><g
       id="g226"
       transform="matrix(0.35753147,0.64498694,-0.58241269,0.39594458,59.371421,15.713904)"><path
         id="path211"
         style="fill:#e8bbdc;fill-opacity:1;stroke-width:0.030536"
         d="m 5.5388456,42.875242 0.1380181,0.29037 C 4.6430572,42.307533 4.7990473,42.920672 4.5795254,43.529552 4.7404916,42.100483 4.5618714,42.604731 5.5388492,42.87524 Z"
         sodipodi:nodetypes="cccc" /><path
         id="path212"
         style="fill:#ccff00;fill-opacity:1;stroke-width:0.0158734"
         d="M 5.9371229,42.846918 6.146105,43.076742 5.8166712,43.180214 5.6076891,42.95039 Z" /><path
         id="path213"
         style="fill:#c7e93a;fill-opacity:1;stroke-width:0.0140957"
         d="m 5.279455,41.815242 -0.097796,-0.257926 0.3058533,0.02181 0.097796,0.257925 z" /><path
         id="path214"
         style="fill:#e8bbdc;fill-opacity:1;stroke-width:0.0140957"
         d="M 6.4748247,41.953206 6.2269373,42.074208 6.2206473,41.767642 6.4685347,41.64664 Z" /><path
         id="path215"
         style="fill:#8fb300;fill-opacity:1;stroke-width:0.0155499"
         d="M 5.3975003,42.907065 5.1918158,42.682803 5.5140987,42.58006 5.7197834,42.804321 Z" /><path
         id="path216"
         style="fill:#c97ab0;fill-opacity:1;stroke-width:0.0155499"
         d="M 4.9081587,43.124134 4.6988718,42.903231 5.0194497,42.795285 5.2287368,43.016188 Z" /><path
         id="path217"
         style="fill:#8fb300;fill-opacity:1;stroke-width:0.0128014"
         d="m 4.7821305,42.315735 -0.1397742,-0.207897 0.2749928,-0.0439 0.1397743,0.207897 z" /><path
         id="path218"
         style="fill:#e97ab0;fill-opacity:1;stroke-width:0.030536"
         d="M 5.8870023,42.507753 C 5.3476846,41.801498 5.6008029,41.50459 5.8725926,41.217326 l 0.2851096,0.534709 c -0.97517,-0.09924 0.0096,0.86028 0.01441,1.290428 z"
         sodipodi:nodetypes="ccccc" /><path
         id="path219"
         style="fill:#c97ab0;fill-opacity:1;stroke-width:0.0155499"
         d="M 6.1158847,42.919821 5.8440462,42.783062 6.1089587,42.57272 6.3807974,42.709479 Z" /><path
         id="path220"
         style="fill:#ccff00;fill-opacity:1;stroke-width:0.030536"
         d="M 5.2310603,43.534042 5.0492232,43.315686 c 1.2424289,-0.511298 0.092105,-1.26442 -0.1176826,-1.606781 0.8599465,0.901535 0.9962321,1.088759 0.2995197,1.825137 z"
         sodipodi:nodetypes="cccc" /><path
         id="path221"
         style="fill:#b4e100;fill-opacity:1;stroke-width:0.0155499"
         d="M 5.6346587,43.587109 5.3628202,43.45035 5.6277327,43.240007 5.8995714,43.376766 Z" /><path
         id="path222"
         style="fill:#e97ab0;fill-opacity:1;stroke-width:0.0171228"
         d="m 5.4529659,42.540708 -0.123076,-0.31166 0.3718647,0.02141 0.1230763,0.311661 z" /><path
         id="path223"
         style="fill:#e8bbdc;fill-opacity:1;stroke-width:0.00608134"
         d="m 6.0488602,43.307298 -0.081072,-0.08712 0.1257425,-0.0411 0.081072,0.08712 z" /><path
         id="path224"
         style="fill:#b4e100;fill-opacity:1;stroke-width:0.00608134"
         d="m 6.3601281,42.50988 0.068145,-0.09756 0.066604,0.1143 -0.068145,0.09756 z" /><path
         id="path225"
         style="fill:#e97ab0;fill-opacity:1;stroke-width:0.012678"
         d="m 5.4901163,43.905305 -0.216452,0.121251 -0.021221,-0.274972 0.2164521,-0.121252 z" /><path
         id="path226"
         style="fill:#ccff00;fill-opacity:1;stroke-width:0.012678"
         d="m 5.9053348,43.957438 -0.216452,0.121251 -0.021221,-0.274972 0.2164521,-0.121252 z" /></g><path
       style="font-size:3.175px;font-family:Roboto;-inkscape-font-specification:Roboto;fill:#b4e100;fill-opacity:1;stroke-width:0.136381"
       d="m 34.110864,37.544873 q 0.04266,0.06347 0.120731,0.11504 0.07807,0.05078 0.206851,0.05078 0.181901,0 0.291363,-0.116627 0.108658,-0.116629 0.108658,-0.298313 v -0.03332 q 0,-0.140429 -0.05392,-0.238808 -0.05473,-0.09917 -0.141657,-0.150743 -0.08693,-0.05236 -0.185121,-0.05236 -0.186729,0 -0.272046,0.120594 -0.08612,0.119801 -0.08612,0.299898 v 0.06585 h 0.589165 q -0.0032,0.118214 -0.07082,0.201519 -0.06841,0.08251 -0.187535,0.08251 -0.07888,0 -0.133608,-0.03173 -0.05473,-0.03173 -0.09578,-0.0849 z m 0.346899,-0.603765 q 0.08854,0 0.149707,0.06347 0.06117,0.06347 0.07646,0.182477 h -0.435435 v -0.0111 q 0.0057,-0.08568 0.05071,-0.160263 0.04427,-0.07458 0.158559,-0.07458 z"
       id="path405" /><path
       style="font-size:3.175px;font-family:Roboto;-inkscape-font-specification:Roboto;fill:#e8bbdc;fill-opacity:1;stroke-width:0.136381"
       d="m 32.720034,37.590096 q 0.07969,0 0.139243,-0.04682 0.06037,-0.04681 0.066,-0.119801 h 0.141657 q -0.0057,0.115041 -0.107048,0.201519 -0.101414,0.08568 -0.239851,0.08568 -0.196389,0 -0.292168,-0.127736 -0.09497,-0.127734 -0.09497,-0.300692 v -0.03332 q 0,-0.172957 0.09497,-0.300692 0.09578,-0.127734 0.292168,-0.127734 0.152925,0 0.247095,0.08965 0.09417,0.08886 0.0998,0.221354 h -0.141657 q -0.0057,-0.07934 -0.06117,-0.134875 -0.05473,-0.05554 -0.144072,-0.05554 -0.09175,0 -0.144072,0.04602 -0.05151,0.04602 -0.07325,0.116627 -0.02093,0.07061 -0.02093,0.14519 v 0.03332 q 0,0.07537 0.02093,0.145983 0.02093,0.07061 0.07244,0.116627 0.05232,0.04523 0.144878,0.04523 z"
       id="path403" /><path
       style="font-size:3.175px;font-family:Roboto;-inkscape-font-specification:Roboto;fill:#e97ab0;fill-opacity:1;stroke-width:0.136381"
       d="m 32.159029,36.476186 v 1.218636 h -0.149706 v -1.218636 z"
       id="path402" /><path
       style="font-size:3.175px;font-family:Roboto;-inkscape-font-specification:Roboto;fill:#d056b0;fill-opacity:1;stroke-width:0.136381"
       d="m 31.680123,37.694821 q -0.01449,-0.03094 -0.02093,-0.09045 -0.04185,0.04364 -0.104634,0.07537 -0.06278,0.03094 -0.143267,0.03094 -0.133608,0 -0.214095,-0.07378 -0.08049,-0.07378 -0.08049,-0.180891 0,-0.138049 0.106244,-0.209453 0.106242,-0.0722 0.285729,-0.0722 h 0.14729 v -0.06823 q 0,-0.07617 -0.04668,-0.121388 -0.04588,-0.04602 -0.136827,-0.04602 -0.08451,0 -0.136829,0.04125 -0.05151,0.04046 -0.05151,0.09441 h -0.148895 q 0,-0.09203 0.09417,-0.172957 0.09417,-0.08093 0.251925,-0.08093 0.141657,0 0.232607,0.0714 0.09095,0.0714 0.09095,0.215801 v 0.385583 q 0,0.119008 0.03058,0.188826 v 0.01269 z M 31.433028,37.58216 q 0.08049,0 0.139243,-0.03967 0.05956,-0.03967 0.08371,-0.08807 v -0.176924 h -0.138438 q -0.251119,0.0047 -0.251119,0.158676 0,0.06109 0.04185,0.103933 0.04186,0.04205 0.124755,0.04205 z"
       id="path426" /><path
       d="m 33.590078,37.746842 0.03847,-0.200253 h -0.210487 c -0.04525,0.169693 0.01491,0.322228 -0.177797,0.322228 l 0.06378,-0.322228 h -0.191355 c -0.02261,-0.156663 0.08158,-0.108462 0.212878,-0.108462 l 0.05422,-0.277429 h -0.206512 c -0.02415,-0.16195 0.09461,-0.109241 0.228027,-0.109241 l 0.06459,-0.326943 c 0.206505,-0.03313 0.0766,0.193427 0.05023,0.326943 h 0.210486 l 0.150531,-0.68016 c 0.205624,-0.033 -0.01031,0.547487 -0.03652,0.68016 0.140429,-0.0034 0.161852,-0.02692 0.161852,0.109241 h -0.183382 l -0.05502,0.277429 c 0.144998,-0.0015 0.178595,-0.03447 0.178595,0.108462 h -0.200122 c -0.04524,0.169693 0.04023,0.200253 -0.152474,0.200253 z m -0.150499,-0.308709 h 0.210486 l 0.05502,-0.27743 h -0.210488 z"
       id="text445"
       style="font-size:3.175px;font-family:Roboto;-inkscape-font-specification:Roboto;fill:#c7e93a;fill-opacity:1;stroke-width:0.135097"
       aria-label="#"
       sodipodi:nodetypes="ccccccccccccccccccccccccccc" /><g
       id="g481"
       transform="matrix(0.97482515,0,0,0.97482515,-0.03130665,0.95241539)"><path
         style="font-size:0.742729px;font-family:Roboto;-inkscape-font-specification:Roboto;fill:#e8bbdc;fill-opacity:1;stroke-width:0.0618939"
         d="m 39.72802,38.179336 q -0.03228,0 -0.05694,0.01741 -0.02466,0.01741 -0.0388,0.04533 v 0.280336 h -0.06709 v -0.392399 h 0.06347 l 0.0022,0.04896 q 0.04461,-0.05621 0.117139,-0.05621 0.05766,0 0.09139,0.03228 0.03409,0.03228 0.03445,0.108436 v 0.258939 h -0.06749 v -0.257864 q 0,-0.04606 -0.02031,-0.06564 -0.01995,-0.01958 -0.05803,-0.01958 z"
         id="path464" /><path
         style="font-size:0.742729px;font-family:Roboto;-inkscape-font-specification:Roboto;fill:#e97ab0;fill-opacity:1;stroke-width:0.0618939"
         d="m 39.457475,38.130016 v 0.392399 h -0.06745 v -0.392399 z"
         id="path463" /><path
         style="font-size:0.742729px;font-family:Roboto;-inkscape-font-specification:Roboto;fill:#c7e93a;fill-opacity:1;stroke-width:0.0618939"
         d="m 38.943226,38.322268 q 0,-0.08523 0.04787,-0.142163 0.04787,-0.0573 0.130196,-0.0573 0.08232,0 0.130195,0.05621 0.04787,0.05585 0.04896,0.139624 v 0.01197 q 0,0.08523 -0.04823,0.142163 -0.04787,0.05694 -0.130195,0.05694 -0.08269,0 -0.130921,-0.05694 -0.04787,-0.05694 -0.04787,-0.142163 z m 0.06709,0.0083 q 0,0.05839 0.02756,0.101182 0.02793,0.04279 0.08414,0.04279 0.05476,0 0.08269,-0.04207 0.02792,-0.04243 0.02829,-0.100819 v -0.0094 q 0,-0.05766 -0.02793,-0.10082 -0.02792,-0.04352 -0.08377,-0.04352 -0.05549,0 -0.08341,0.04352 -0.02756,0.04316 -0.02756,0.10082 z"
         id="path461" /><path
         style="font-size:0.742729px;font-family:Roboto;-inkscape-font-specification:Roboto;fill:#b4e100;fill-opacity:1;stroke-width:0.0618939"
         d="m 38.785106,38.130057 h 0.06746 v 0.439183 q 0,0.111699 -0.102633,0.111699 -0.02248,0 -0.04171,-0.0062 l 3.63e-4,-0.05404 q 0.01342,0.0033 0.03083,0.0033 0.04425,0 0.0457,-0.05041 z"
         id="path460" /><path
         style="font-size:0.742729px;font-family:Roboto;-inkscape-font-specification:Roboto;fill:#e8bbdc;fill-opacity:1;stroke-width:0.0618939"
         d="m 38.444195,38.418373 q 0,-0.0214 -0.01596,-0.03844 -0.01559,-0.01741 -0.07253,-0.02901 -0.06564,-0.01342 -0.104446,-0.0388 -0.0388,-0.02575 -0.0388,-0.07471 0,-0.04642 0.03953,-0.08051 0.03989,-0.03409 0.105897,-0.03409 0.07036,0 0.109886,0.0359 0.03953,0.0359 0.03953,0.08668 h -0.06709 q 0,-0.0243 -0.0214,-0.0457 -0.0214,-0.02176 -0.06093,-0.02176 -0.04171,0 -0.05984,0.01813 -0.01813,0.01813 -0.01813,0.03953 0,0.0214 0.01668,0.03481 0.01705,0.01306 0.07181,0.02539 0.07217,0.01632 0.107348,0.04279 0.03554,0.02647 0.03554,0.07471 0,0.05186 -0.04171,0.08414 -0.04134,0.03228 -0.109886,0.03228 -0.07797,0 -0.119315,-0.03989 -0.04134,-0.03989 -0.04134,-0.08849 h 0.06746 q 0.0022,0.04171 0.03191,0.05766 0.0301,0.01559 0.06129,0.01559 0.04098,0 0.06274,-0.01596 0.02176,-0.01596 0.02176,-0.04026 z"
         id="path458" /><path
         style="font-size:0.742729px;font-family:Roboto;-inkscape-font-specification:Roboto;fill:#e8bbdc;fill-opacity:1;stroke-width:0.0618939"
         d="m 37.809541,38.453913 q 0.01922,0.02901 0.0544,0.05259 0.03518,0.02321 0.0932,0.02321 0.08196,0 0.131283,-0.05331 0.04896,-0.05331 0.04896,-0.13636 v -0.01523 q 0,-0.06419 -0.0243,-0.109161 -0.02466,-0.04533 -0.06383,-0.06891 -0.03917,-0.02394 -0.08341,-0.02394 -0.08414,0 -0.12258,0.05512 -0.0388,0.05476 -0.0388,0.137085 v 0.0301 h 0.265467 q -0.0014,0.05404 -0.03191,0.09212 -0.03083,0.03772 -0.0845,0.03772 -0.03554,0 -0.0602,-0.01451 -0.02466,-0.01451 -0.04316,-0.0388 z m 0.156307,-0.275984 q 0.03989,0 0.06745,0.02901 0.02756,0.02901 0.03445,0.08341 h -0.196199 v -0.0051 q 0.0025,-0.03917 0.02285,-0.07326 0.01995,-0.03409 0.07144,-0.03409 z"
         id="path457" /><path
         style="font-size:0.742729px;font-family:Roboto;-inkscape-font-specification:Roboto;fill:#e97ab0;fill-opacity:1;stroke-width:0.0618939"
         d="m 37.655771,38.522453 -0.0015,-0.0388 q -0.03844,0.04606 -0.1146,0.04606 -0.05766,0 -0.0932,-0.03409 -0.03554,-0.03409 -0.03554,-0.112424 v -0.253138 h 0.06709 v 0.253863 q 0,0.05295 0.02212,0.07108 0.02249,0.01777 0.05005,0.01777 0.0758,0 0.10227,-0.05694 v -0.285777 h 0.06745 v 0.392399 z"
         id="path456" /><path
         style="font-size:0.742729px;font-family:Roboto;-inkscape-font-specification:Roboto;fill:#e97ab0;fill-opacity:1;stroke-width:0.0618939"
         d="m 37.166179,38.179376 q -0.03228,0 -0.05694,0.01741 -0.02466,0.01741 -0.0388,0.04533 v 0.280336 h -0.06709 v -0.557046 h 0.06709 v 0.211431 q 0.04461,-0.05404 0.115689,-0.05404 0.05766,0 0.09139,0.03228 0.03409,0.03228 0.03445,0.108436 v 0.258939 h -0.06746 v -0.257898 q 0,-0.04606 -0.02031,-0.06564 -0.01995,-0.01958 -0.05803,-0.01958 z"
         id="path455" /><path
         style="font-size:0.742729px;font-family:Roboto;-inkscape-font-specification:Roboto;fill:#c7e93a;fill-opacity:1;stroke-width:0.0618939"
         d="m 36.571778,38.179376 q -0.03228,0 -0.05694,0.01741 -0.02466,0.01741 -0.0388,0.04533 v 0.280336 h -0.06709 v -0.392399 h 0.06347 l 0.0022,0.04896 q 0.04461,-0.05621 0.11714,-0.05621 0.05766,0 0.09139,0.03228 0.03409,0.03228 0.03445,0.108436 v 0.258939 h -0.06746 v -0.257904 q 0,-0.04606 -0.02031,-0.06564 -0.01995,-0.01958 -0.05803,-0.01958 z"
         id="path454" /><path
         style="font-size:0.742729px;font-family:Roboto;-inkscape-font-specification:Roboto;fill:#c7e93a;fill-opacity:1;stroke-width:0.0618939"
         d="m 36.002765,38.45386 q 0.01922,0.02901 0.0544,0.05259 0.03518,0.02321 0.0932,0.02321 0.08196,0 0.131283,-0.05331 0.04896,-0.05331 0.04896,-0.13636 v -0.01523 q 0,-0.06419 -0.0243,-0.109161 -0.02466,-0.04533 -0.06383,-0.06891 -0.03917,-0.02394 -0.08341,-0.02394 -0.08414,0 -0.122579,0.05512 -0.0388,0.05476 -0.0388,0.137085 v 0.0301 h 0.265468 q -0.0015,0.05404 -0.03191,0.09212 -0.03083,0.03772 -0.0845,0.03772 -0.03554,0 -0.0602,-0.01451 -0.02466,-0.01451 -0.04316,-0.0388 z m 0.156307,-0.275984 q 0.03989,0 0.06746,0.02901 0.02756,0.02901 0.03445,0.08341 h -0.1962 v -0.0051 q 0.0025,-0.03917 0.02285,-0.07326 0.01995,-0.03409 0.07144,-0.03409 z"
         id="path453" /><path
         style="font-size:0.742729px;font-family:Roboto;-inkscape-font-specification:Roboto;fill:#b4e100;fill-opacity:1;stroke-width:0.0618939"
         d="m 35.768848,38.179326 q -0.03228,0 -0.05694,0.01741 -0.02466,0.01741 -0.0388,0.04533 v 0.280336 h -0.06709 v -0.557046 h 0.06709 v 0.211431 q 0.04461,-0.05404 0.115689,-0.05404 0.05766,0 0.09139,0.03228 0.03409,0.03228 0.03445,0.108436 v 0.258939 h -0.06746 v -0.257848 q 0,-0.04606 -0.02031,-0.06564 -0.01995,-0.01958 -0.05803,-0.01958 z"
         id="path452" /><path
         style="font-size:0.742729px;font-family:Roboto;-inkscape-font-specification:Roboto;fill:#b4e100;fill-opacity:1;stroke-width:0.0618939"
         d="m 35.53747,38.130006 -0.113875,0.392399 h -0.0544 l -0.09538,-0.297019 -0.09284,0.297019 h -0.05476 L 35.01234,38.130006 h 0.06709 l 0.07725,0.29303 0.09139,-0.29303 h 0.05404 l 0.09284,0.299196 0.0758,-0.299196 z"
         id="text452" /><path
         id="path476"
         style="fill:#c7e93a;fill-opacity:1;stroke-width:0.00679738"
         d="m 39.35226,37.922001 0.09797,-0.08998 0.04501,0.140849 -0.09797,0.08998 z" /></g></g></svg>
