<?xml version="1.0" encoding="UTF-8" standalone="no"?>
<!-- Created with Inkscape (http://www.inkscape.org/) -->

<svg
   width="24.537634mm"
   height="6.3903079mm"
   viewBox="0 0 24.537633 6.3903078"
   version="1.1"
   id="svg5"
   xml:space="preserve"
   xmlns:xlink="http://www.w3.org/1999/xlink"
   xmlns="http://www.w3.org/2000/svg"
   xmlns:svg="http://www.w3.org/2000/svg"><defs
     id="defs2"><linearGradient
       id="linearGradient114"><stop
         style="stop-color:#caf617;stop-opacity:1;"
         offset="0"
         id="stop115" /><stop
         style="stop-color:#da7fc2;stop-opacity:1;"
         offset="1"
         id="stop116" /></linearGradient><linearGradient
       id="linearGradient19"><stop
         style="stop-color:#e8bbdc;stop-opacity:1;"
         offset="0"
         id="stop19" /><stop
         style="stop-color:#d056b0;stop-opacity:1;"
         offset="1"
         id="stop20" /></linearGradient><linearGradient
       id="linearGradient13"><stop
         style="stop-color:#c8ed30;stop-opacity:1;"
         offset="0"
         id="stop13" /><stop
         style="stop-color:#ccff00;stop-opacity:1;"
         offset="1"
         id="stop18" /></linearGradient><linearGradient
       xlink:href="#linearGradient13"
       id="linearGradient18"
       x1="14.343162"
       y1="23.994751"
       x2="16.455633"
       y2="12.175813"
       gradientUnits="userSpaceOnUse" /><linearGradient
       xlink:href="#linearGradient19"
       id="linearGradient20"
       x1="0.10084948"
       y1="10.603551"
       x2="7.0579395"
       y2="24.013897"
       gradientUnits="userSpaceOnUse" /><linearGradient
       xlink:href="#linearGradient114"
       id="linearGradient116"
       x1="0.90330404"
       y1="20.959961"
       x2="11.441162"
       y2="20.959961"
       gradientUnits="userSpaceOnUse"
       gradientTransform="translate(6.0967853,-15.477091)" /></defs><g
     id="g111"
     transform="translate(6.0967853,-15.477091)"><path
       id="path282"
       style="-inkscape-font-specification:Roboto;opacity:1;fill:url(#linearGradient20);fill-opacity:1;stroke:none;stroke-width:0.0863036;stroke-linecap:round;stroke-dasharray:none;stroke-opacity:1"
       d="m -3.525883,15.477091 v 4.110861 h 0.4976441 v -4.110861 z m 3.30315758,0 v 4.110861 H 0.2723348 v -2.068608 c 0.0695886,-0.137361 0.16495367,-0.249178 0.28628743,-0.334863 0.1213331,-0.08563 0.26132632,-0.128158 0.4201294,-0.128158 0.18734977,0 0.33026027,0.04785 0.42839767,0.144177 0.09992,0.09632 0.1498616,0.258131 0.1498616,0.484725 v 1.902727 h 0.497644 V 17.676957 C 2.0528665,17.302239 1.968128,17.0358 1.8004069,16.877006 1.6344645,16.718213 1.4097327,16.638778 1.1260295,16.638778 c -0.34972459,0 -0.63422501,0.132572 -0.8536947,0.398425 v -1.560112 z m 8.80618082,0.461471 c -0.081039,0 -0.1424629,0.02324 -0.1844849,0.06976 -0.040527,0.04653 -0.060978,0.103518 -0.060978,0.171049 0,0.06453 0.020452,0.120395 0.060978,0.166915 0.042022,0.04503 0.1034463,0.06718 0.1844849,0.06718 0.079543,0 0.1403959,-0.02215 0.1824178,-0.06718 0.043518,-0.04653 0.065112,-0.102388 0.065112,-0.166915 0,-0.06754 -0.021594,-0.124529 -0.065112,-0.171049 -0.042022,-0.04652 -0.1028747,-0.06976 -0.1824178,-0.06976 z m -13.4679118,0.700216 c -0.3497252,0 -0.6289115,0.09084 -0.8376749,0.272851 -0.208763,0.181999 -0.3131592,0.376442 -0.3131592,0.583427 h 0.4950602 c 0,-0.121347 0.056855,-0.227319 0.171049,-0.318327 0.1159824,-0.09277 0.267919,-0.139526 0.4552694,-0.139526 0.2016289,0 0.3530488,0.05206 0.4547526,0.155546 0.1034924,0.101694 0.155546,0.237965 0.155546,0.409277 v 0.22996 h -0.4898926 c -0.3979018,0 -0.7148028,0.08152 -0.9503295,0.243913 -0.2355276,0.160621 -0.3529501,0.395964 -0.3529501,0.706417 0,0.240883 0.089251,0.444356 0.2676839,0.610299 0.1784324,0.165942 0.4153911,0.24908 0.7115845,0.24908 0.1784323,0 0.3372831,-0.03481 0.4764567,-0.104386 0.1391731,-0.07134 0.2555127,-0.156097 0.3482992,-0.254248 0.014287,0.133813 0.03712,0.235315 0.069246,0.304891 l 0.5167643,-5.17e-4 v -0.04237 c -0.067801,-0.157026 -0.1018026,-0.369019 -0.1018026,-0.636653 v -1.301213 c 0,-0.32476 -0.1006782,-0.567027 -0.3023071,-0.727604 -0.2016263,-0.160578 -0.4595575,-0.240812 -0.7735962,-0.240812 z m 3.3248617,0 c -0.4353733,0 -0.7591867,0.143176 -0.971517,0.430464 -0.2105468,0.287261 -0.315743,0.62542 -0.315743,1.014409 v 0.112654 c 0,0.388961 0.1051962,0.727114 0.315743,1.014409 0.2123316,0.287294 0.5361451,0.430981 0.971517,0.430981 0.3069032,0 0.57254692,-0.09669 0.79736732,-0.289388 0.22480129,-0.194518 0.34354131,-0.420826 0.35605062,-0.679545 h -0.4707723 c -0.0124902,0.164115 -0.0858019,0.298814 -0.21962484,0.40411 -0.1320444,0.105295 -0.2863769,0.15813 -0.4630208,0.15813 v -5.17e-4 c -0.2051961,0 -0.3656466,-0.05075 -0.4816244,-0.152446 -0.1141731,-0.103468 -0.194399,-0.234458 -0.2408121,-0.393257 -0.046413,-0.158799 -0.069763,-0.322987 -0.069763,-0.492477 v -0.112654 c 0,-0.167717 0.02335,-0.330579 0.069763,-0.489376 0.048176,-0.158794 0.1292016,-0.290301 0.2433959,-0.393775 0.1159872,-0.103472 0.275633,-0.155029 0.4790406,-0.155029 0.1980609,0 0.3577067,0.06216 0.4790405,0.187069 0.12309675,0.124852 0.19109584,0.276813 0.20360514,0.455269 h 0.4707723 C -0.4186668,17.389823 -0.52917621,17.14092 -0.73793945,16.941085 -0.94670276,16.739461 -1.2205757,16.638778 -1.5595947,16.638778 Z m 5.0467204,0 c -0.4139544,0 -0.7157141,0.135479 -0.9048544,0.406693 -0.190908,0.269411 -0.2862874,0.606771 -0.2862874,1.011825 v 0.222208 h 1.9590535 c -0.00719,0.265863 -0.085309,0.49222 -0.2351277,0.679545 -0.1516496,0.1856 -0.3596412,0.278536 -0.6237346,0.278536 -0.1748652,0 -0.3230987,-0.03557 -0.4444173,-0.10697 -0.1213523,-0.0714 -0.227339,-0.167279 -0.3183268,-0.286804 l -0.2997233,0.238228 c 0.094559,0.142738 0.228444,0.27211 0.4015259,0.38809 0.1730816,0.114204 0.4023263,0.171566 0.6878133,0.171566 0.4032528,0 0.7257493,-0.13099 0.9684163,-0.393258 0.2408826,-0.262265 0.361735,-0.598024 0.361735,-1.006656 v -0.112138 c 0,-0.315824 -0.059754,-0.584384 -0.1793172,-0.805636 C 4.4525628,17.100945 4.2953176,16.931468 4.102592,16.815511 3.9099004,16.697735 3.7048261,16.638778 3.4871257,16.638778 Z m 2.2505086,0.06511 c -0.3104717,0 -0.549548,0.08212 -0.7172689,0.248047 -0.1240619,0.121441 -0.2013492,0.297568 -0.234611,0.526066 0.090213,0.202985 0.1353922,0.441904 0.1353922,0.716235 v 0.112138 c 0,0.267876 -0.05203,0.504541 -0.155546,0.709518 v 0.636653 h 0.4986776 v -1.90841 c 0,-0.242658 0.056562,-0.406328 0.1689819,-0.49196 0.110637,-0.08741 0.2599489,-0.131258 0.4490682,-0.131258 0.1998358,0 0.3565642,0.06025 0.4707723,0.179834 0.1142084,0.117812 0.1806109,0.260458 0.1984375,0.429948 v 1.921846 h 0.495577 v -1.90531 c 0,-0.226594 0.056046,-0.387542 0.1684651,-0.482141 0.1124195,-0.09634 0.261732,-0.144177 0.4490682,-0.144177 0.3247595,0 0.5470911,0.136276 0.666626,0.409277 v 2.122351 H 8.8294352 V 16.7566 H 8.3586629 l -0.014469,0.315743 C 8.1354265,16.8261 7.8506425,16.70389 7.4884318,16.70389 c -0.1855805,0 -0.3510717,0.03616 -0.495577,0.111104 -0.146322,0.07315 -0.2576469,0.192134 -0.3343465,0.354501 C 6.5621605,17.030315 6.4373207,16.917161 6.2838542,16.831531 6.1286327,16.745911 5.9464117,16.70389 5.7376343,16.70389 Z m -2.2505086,0.341581 c 0.1962636,0 0.3620373,0.0712 0.497644,0.213941 0.1356061,0.142736 0.2203446,0.34783 0.254248,0.615466 H 2.7910441 v -0.03721 c 0.012367,-0.192697 0.068929,-0.372818 0.1689819,-0.540536 0.098132,-0.167714 0.273722,-0.251664 0.5270997,-0.251664 z m -8.251176,1.134815 h 0.460437 v 0.596862 c -0.053532,0.108881 -0.1464962,0.207954 -0.278536,0.29714 -0.1302556,0.08923 -0.2845885,0.133842 -0.4630208,0.133842 -0.1837823,0 -0.3221753,-0.04756 -0.4149617,-0.14211 -0.092786,-0.09633 -0.1390096,-0.212951 -0.1390096,-0.350367 0,-0.34633 0.2783869,-0.524834 0.8350911,-0.535367 z" /><path
       id="path279"
       style="-inkscape-font-specification:Roboto;opacity:1;fill:url(#linearGradient18);fill-opacity:1;stroke:none;stroke-width:0.0512318;stroke-linecap:round;stroke-dasharray:none;stroke-opacity:1"
       d="m 15.178402,15.988171 -0.157097,0.703833 h -0.529683 l -0.08475,0.379822 h 0.529683 l -0.400492,1.795756 c -0.06488,0.290791 -0.04469,0.492692 0.06046,0.605131 0.105159,0.11244 0.249252,0.168465 0.433049,0.168465 0.142715,0 0.27447,-0.01775 0.394808,-0.05323 l 0.08733,-0.403077 c -0.09748,0.02109 -0.177332,0.03152 -0.239779,0.03152 -0.08389,0 -0.153753,-0.02077 -0.208773,-0.06201 -0.05507,-0.04104 -0.0656,-0.135598 -0.03256,-0.283703 l 0.401009,-1.79834 h 0.540536 l 0.08475,-0.380339 h -0.540535 l 0.157096,-0.703833 z m -1.873271,0.650607 c -0.349721,0 -0.649271,0.09083 -0.898653,0.272851 -0.249377,0.182013 -0.397214,0.376451 -0.443384,0.583427 h 0.49506 c 0.02707,-0.121332 0.107858,-0.227347 0.242363,-0.318327 0.136691,-0.09277 0.298938,-0.139526 0.486275,-0.139526 0.201621,0 0.341509,0.05206 0.420129,0.155546 0.08095,0.101696 0.102289,0.237972 0.06408,0.409277 l -0.05168,0.230477 h -0.489376 c -0.397901,0 -0.73285,0.08108 -1.00459,0.243396 -0.271352,0.160596 -0.44181,0.395942 -0.51108,0.706417 -0.05375,0.24086 -0.01014,0.444307 0.131258,0.610299 0.141407,0.165984 0.360622,0.24908 0.656808,0.24908 0.178434,0 0.344969,-0.03463 0.499711,-0.104386 0.1551,-0.07134 0.289953,-0.156078 0.404626,-0.254248 -0.01579,0.133777 -0.0151,0.235131 0.0016,0.304891 l 0.516764,-5.17e-4 0.0093,-0.04237 c -0.03279,-0.157 -0.01942,-0.368967 0.04031,-0.636653 l 0.290422,-1.301213 c 0.07245,-0.32473 0.02576,-0.567014 -0.140043,-0.727604 -0.165791,-0.160607 -0.405811,-0.240812 -0.719853,-0.240812 z m 4.2323,0 c -0.346159,0 -0.63633,0.08793 -0.870231,0.264583 -0.233895,0.176654 -0.378349,0.389954 -0.434082,0.639754 h 0.49506 c 0.02668,-0.119584 0.104299,-0.231694 0.233061,-0.33693 0.12916,-0.107061 0.290761,-0.160714 0.485241,-0.160714 0.205196,0 0.342555,0.04466 0.411861,0.133842 0.06929,0.08923 0.09221,0.186212 0.06873,0.291455 -0.02349,0.105295 -0.08352,0.191332 -0.180351,0.257349 -0.09821,0.06425 -0.288588,0.126416 -0.571541,0.187069 -0.372993,0.08031 -0.660853,0.185467 -0.862996,0.315743 -0.203931,0.130271 -0.332049,0.314102 -0.38499,0.551387 -0.05694,0.255172 -7.96e-4,0.462352 0.168982,0.621151 0.167978,0.158798 0.420853,0.238228 0.758093,0.238228 0.383624,0 0.698997,-0.09831 0.946196,-0.294556 0.247191,-0.196244 0.39727,-0.413564 0.450618,-0.652673 h -0.497644 c -0.05645,0.205211 -0.16688,0.346809 -0.330729,0.425297 -0.165228,0.07672 -0.324579,0.115239 -0.478007,0.115239 -0.201624,0 -0.347125,-0.03928 -0.436666,-0.117823 -0.08954,-0.07854 -0.120719,-0.177613 -0.09405,-0.297139 0.02349,-0.105295 0.08364,-0.19985 0.180868,-0.283704 0.09583,-0.08563 0.29003,-0.157349 0.58291,-0.214457 0.337706,-0.06602 0.616321,-0.161385 0.835091,-0.286287 0.219204,-0.126671 0.355533,-0.310502 0.409277,-0.551388 0.05095,-0.22837 -0.0021,-0.426018 -0.159163,-0.593762 -0.158844,-0.167721 -0.400785,-0.251664 -0.725538,-0.251664 z m -7.064685,0.04858 c -0.435366,0 -0.791199,0.144205 -1.0676353,0.431498 -0.2134508,0.223253 -0.3702734,0.477531 -0.4702556,0.762227 v 1.393197 c 0.150536,0.277507 0.4392373,0.417029 0.8671306,0.417029 0.3069163,0 0.5946813,-0.09669 0.8624793,-0.289388 0.26832,-0.194467 0.437361,-0.42186 0.507463,-0.680579 h -0.470772 c -0.04912,0.164113 -0.152753,0.299846 -0.310059,0.405143 -0.155529,0.105302 -0.320992,0.157613 -0.497644,0.157613 -0.2051854,0 -0.3547218,-0.05179 -0.4480347,-0.153479 -0.091107,-0.103467 -0.1420051,-0.233943 -0.1529622,-0.392741 -0.010972,-0.158796 0.00198,-0.323503 0.039791,-0.492993 l 0.025322,-0.111621 c 0.037414,-0.16772 0.096957,-0.330576 0.1788004,-0.489376 0.083593,-0.158797 0.1944762,-0.290301 0.3317627,-0.393774 0.1390838,-0.103467 0.3097398,-0.155546 0.5131468,-0.155546 0.198083,0 0.344244,0.06269 0.4377,0.187585 0.09538,0.124856 0.129254,0.275779 0.101802,0.454236 h 0.470773 c 0.05398,-0.297988 -0.0012,-0.545857 -0.165365,-0.745691 -0.163771,-0.201618 -0.414427,-0.30334 -0.753443,-0.30334 z m 2.608626,1.492932 h 0.460437 l -0.133325,0.596862 c -0.07782,0.108823 -0.192737,0.20789 -0.344682,0.29714 -0.15015,0.08919 -0.31404,0.133842 -0.492476,0.133842 -0.183792,0 -0.31176,-0.04754 -0.383439,-0.14211 -0.07117,-0.09637 -0.09163,-0.212938 -0.06098,-0.350367 0.07723,-0.346145 0.395336,-0.524477 0.954465,-0.535367 z" /></g><path
     id="path61"
     style="font-size:2.11667px;font-family:Roboto;-inkscape-font-specification:Roboto;fill:url(#linearGradient116);fill-opacity:1;stroke-width:0.024;stroke-linecap:square;stroke-linejoin:round;stroke-dasharray:0.024, 0.024"
     d="m 8.331791,4.5754321 v 1.5875 h 0.1912028 v -0.798918 c 0.026872,-0.05305 0.063734,-0.09612 0.1105876,-0.129191 0.046853,-0.03307 0.1009414,-0.04961 0.162264,-0.04961 0.072347,0 0.1274686,0.0186 0.1653645,0.05581 0.038585,0.03721 0.057878,0.09956 0.057878,0.187069 v 0.734839 h 0.1922364 v -0.73794 c -6.886e-4,-0.14469 -0.033417,-0.247698 -0.098185,-0.309025 -0.064079,-0.06132 -0.1508953,-0.09198 -0.2604493,-0.09198 -0.1350477,0 -0.2449464,0.05133 -0.3296956,0.153996 v -0.602547 z m 3.118673,0.0155 v 1.5875 h 0.191203 v -0.798918 c 0.02687,-0.05305 0.06373,-0.09612 0.110587,-0.129191 0.04685,-0.03307 0.100942,-0.04961 0.162264,-0.04961 0.07235,0 0.127469,0.0186 0.165365,0.05581 0.03858,0.03721 0.05788,0.09956 0.05788,0.187069 v 0.734839 h 0.192236 v -0.73794 c -6.89e-4,-0.144692 -0.03342,-0.247701 -0.09819,-0.309021 -0.06408,-0.06133 -0.150895,-0.09198 -0.260449,-0.09198 -0.135047,0 -0.244946,0.05133 -0.329695,0.153996 v -0.602547 z m 5.125268,0.12299 c -0.03323,0.0013 -0.05891,0.01201 -0.077,0.03204 -0.01929,0.02136 -0.02894,0.04754 -0.02894,0.07855 0,0.02963 0.0097,0.05512 0.02894,0.07648 0.01929,0.02067 0.0472,0.03101 0.08372,0.03101 0.03721,0 0.06546,-0.01033 0.08475,-0.03101 0.01929,-0.02136 0.02894,-0.04685 0.02894,-0.07648 0,-0.03101 -0.0097,-0.05719 -0.02894,-0.07855 -0.01929,-0.02136 -0.04754,-0.03204 -0.08475,-0.03204 -0.0023,0 -0.0045,-8.4e-5 -0.0067,0 z m -1.117761,0.01033 c -0.03323,0.0013 -0.05891,0.01201 -0.077,0.03204 -0.01929,0.02136 -0.02894,0.04754 -0.02894,0.07855 0,0.02963 0.0097,0.05512 0.02894,0.07648 0.01929,0.02067 0.0472,0.03101 0.08372,0.03101 0.03721,0 0.06546,-0.01033 0.08475,-0.03101 0.01929,-0.02136 0.02894,-0.04686 0.02894,-0.07648 0,-0.03101 -0.0096,-0.05719 -0.02894,-0.07855 -0.01929,-0.02136 -0.04754,-0.03204 -0.08475,-0.03204 -0.0023,0 -0.0045,-8.4e-5 -0.0067,0 z m -0.08785,0.294039 v 1.066085 c -0.0028,0.09577 -0.04616,0.14366 -0.130225,0.14366 -0.03307,0 -0.06236,-0.0031 -0.08785,-0.0093 l -0.001,0.153996 c 0.03652,0.01167 0.07614,0.01757 0.118856,0.01757 0.194993,0 0.292489,-0.106109 0.292489,-0.318327 v -1.053676 z m -1.809192,5.17e-4 c -0.159077,0 -0.275198,0.05183 -0.348299,0.155546 v 0.478007 h 0.644922 c -0.0028,0.102664 -0.03307,0.190169 -0.09095,0.262516 -0.05857,0.07166 -0.138838,0.107487 -0.240812,0.107487 -0.06752,0 -0.124713,-0.01378 -0.171566,-0.04134 -0.04685,-0.02756 -0.08785,-0.06442 -0.12299,-0.110588 l -0.0186,0.01499 v 0.183452 c 0.01789,0.01497 0.03704,0.02945 0.05788,0.04341 0.06683,0.0441 0.155374,0.06615 0.265617,0.06615 0.155717,0 0.280431,-0.05064 0.374137,-0.151929 0.09302,-0.101285 0.139527,-0.230822 0.139527,-0.388607 v -0.04341 c 0,-0.121956 -0.02308,-0.225653 -0.06925,-0.311092 -0.04685,-0.08613 -0.107487,-0.151584 -0.181901,-0.196371 -0.07441,-0.04547 -0.153652,-0.06821 -0.237712,-0.06821 z m 0.823722,0 c -0.125401,0 -0.225997,0.03238 -0.30179,0.09715 -0.03939,0.03397 -0.06808,0.07121 -0.08682,0.111621 0.01225,0.01764 0.02384,0.03598 0.03462,0.05581 0.04298,0.07955 0.06577,0.175086 0.06873,0.286287 0.07156,0.04267 0.164379,0.07578 0.279053,0.09922 0.108176,0.02205 0.177078,0.04961 0.206706,0.08268 0.03032,0.03238 0.04547,0.0689 0.04547,0.109554 0,0.04617 -0.02067,0.08441 -0.06201,0.114722 -0.04134,0.03032 -0.100941,0.04548 -0.178801,0.04548 -0.05926,0 -0.117477,-0.01482 -0.174666,-0.04444 -0.0565,-0.03032 -0.08682,-0.08509 -0.09095,-0.164331 h -0.04651 c -0.01831,0.06707 -0.04773,0.127156 -0.08888,0.18035 0.01669,0.02476 0.03693,0.04862 0.06098,0.07183 0.07855,0.07579 0.191892,0.113688 0.340031,0.113688 0.130224,0 0.23461,-0.03066 0.313159,-0.09198 0.07924,-0.06132 0.118856,-0.141249 0.118856,-0.239779 0,-0.09164 -0.03376,-0.162607 -0.101286,-0.212907 -0.06683,-0.0503 -0.16881,-0.09095 -0.305925,-0.121956 -0.104041,-0.02343 -0.172254,-0.04754 -0.204638,-0.07235 -0.03169,-0.02549 -0.04754,-0.05856 -0.04754,-0.09922 0,-0.04065 0.01722,-0.0782 0.05168,-0.112655 0.03445,-0.03445 0.0913,-0.05168 0.170532,-0.05168 0.0751,0 0.132981,0.02067 0.173633,0.06201 0.04065,0.04065 0.06098,0.08406 0.06098,0.130224 h 0.191202 c 0,-0.09646 -0.03755,-0.178801 -0.112654,-0.247013 -0.0751,-0.06821 -0.17949,-0.102319 -0.313159,-0.102319 z m -3.716052,0.0052 c -0.137803,0 -0.24908,0.0534 -0.33383,0.160197 l -0.0062,-0.139526 h -0.181385 v 0.256832 c 0.04177,0.08297 0.06305,0.182161 0.06305,0.298173 v 0.04341 c 0,0.105788 -0.02123,0.199176 -0.06305,0.279569 v 0.240296 h 0.191203 v -0.798918 c 0.02687,-0.05305 0.06425,-0.09612 0.111104,-0.129191 0.04685,-0.03307 0.100942,-0.04961 0.162264,-0.04961 0.07235,0 0.127469,0.0186 0.165365,0.05581 0.03858,0.03721 0.05788,0.09956 0.05788,0.187069 v 0.734839 h 0.192236 v -0.73794 c -6.89e-4,-0.14469 -0.03342,-0.247698 -0.09819,-0.309025 -0.06408,-0.06132 -0.150895,-0.09198 -0.260449,-0.09198 z m 5.352645,0.0016 c -0.156407,0 -0.280086,0.05443 -0.371037,0.163297 -0.01745,0.02076 -0.03344,0.04237 -0.04754,0.06511 v 0.703833 c 0.0141,0.02274 0.03009,0.04435 0.04754,0.06511 0.09164,0.108176 0.216008,0.162264 0.373104,0.162264 0.156407,0 0.280087,-0.05409 0.371037,-0.162264 0.09164,-0.108176 0.137459,-0.243225 0.137459,-0.405144 v -0.03411 c -0.0021,-0.159163 -0.04857,-0.2918 -0.139526,-0.397909 -0.09095,-0.106796 -0.21463,-0.160196 -0.371037,-0.160196 z m -6.3567179,0.0088 c -0.1598522,0 -0.2762968,0.05236 -0.3493327,0.157096 -0.018869,0.02663 -0.03557,0.05469 -0.049609,0.08475 0.011439,0.04585 0.017283,0.0988 0.01757,0.159164 v 0.232544 h 0.6779948 c -0.00275,0.102662 -0.03307,0.190168 -0.09095,0.262516 -0.058567,0.07166 -0.1388375,0.107487 -0.2408122,0.107487 -0.067524,0 -0.1247124,-0.01378 -0.1715657,-0.04134 -0.046853,-0.02756 -0.08785,-0.06442 -0.12299,-0.110588 l -0.051676,0.04082 v 0.127641 c 0.026333,0.02573 0.056619,0.05037 0.09095,0.07338 0.066835,0.0441 0.155374,0.06615 0.2656169,0.06615 0.155718,0 0.280431,-0.05064 0.3741378,-0.151929 0.09302,-0.101289 0.139526,-0.230822 0.139526,-0.388607 v -0.04341 c 0,-0.121957 -0.02308,-0.225653 -0.06925,-0.311092 -0.04685,-0.08613 -0.107487,-0.151584 -0.1819011,-0.196371 -0.074414,-0.04547 -0.1536513,-0.06821 -0.2377116,-0.06821 z m 7.5147869,0.0015 c -0.137804,0 -0.249081,0.0534 -0.33383,0.160197 l -0.0062,-0.139527 h -0.10542 v 1.118278 h 0.115755 v -0.798917 c 0.02687,-0.05305 0.06373,-0.09612 0.110588,-0.129191 0.04686,-0.03307 0.100944,-0.04961 0.162264,-0.04961 0.07235,0 0.127471,0.0186 0.165364,0.05581 0.03859,0.03721 0.05788,0.09956 0.05788,0.187068 v 0.734839 h 0.192236 v -0.737939 c -6.89e-4,-0.144697 -0.03343,-0.247705 -0.09819,-0.309025 -0.06408,-0.06132 -0.150895,-0.09198 -0.260449,-0.09198 z m -4.908228,0.0036 v 0.06304 c 0.0032,0.0028 0.0067,0.0053 0.0098,0.0083 0.06477,0.06132 0.0975,0.164329 0.09818,0.309025 v 0.667659 c 0.06665,0.06062 0.152911,0.09095 0.258899,0.09095 0.144694,0 0.253559,-0.04375 0.326595,-0.131258 l 0.0041,0.110587 h 0.182938 v -1.118325 h -0.192236 v 0.814421 c -0.0503,0.108176 -0.147451,0.162264 -0.291456,0.162264 -0.05236,0 -0.09991,-0.01688 -0.142626,-0.05064 -0.04203,-0.03445 -0.06305,-0.101975 -0.06305,-0.202572 v -0.72347 z m 4.219898,0.0067 v 0.195337 c 0.06331,0.09573 0.09595,0.20961 0.09767,0.342098 v 0.03411 c 0,0.136619 -0.03243,0.254075 -0.09767,0.352434 v 0.194303 h 0.192236 v -1.118278 z m -9.4908937,0.01757 0.3245279,1.118278 h 0.1565796 l 0.2645834,-0.722436 0.2713012,0.722436 h 0.1550293 l 0.133842,-0.460954 V 5.3366301 L 8.0909787,5.9164391 7.8258786,5.1878021 H 7.6723996 L 7.4114336,5.8988691 7.191292,5.0637781 Z m 6.5608397,0.112138 c 0.07579,0 0.139872,0.02756 0.192236,0.08268 0.05236,0.05512 0.0851,0.134358 0.09819,0.237712 h -0.559139 v -0.01447 c 0.0048,-0.07441 0.02652,-0.144004 0.06511,-0.208772 0.0379,-0.06477 0.105764,-0.09715 0.203606,-0.09715 z m 2.460315,0.0067 c 0.106109,0 0.185692,0.04134 0.238745,0.124023 0.05305,0.08199 0.07958,0.177767 0.07958,0.287321 v 0.02687 c -6.86e-4,0.110933 -0.02756,0.206706 -0.08062,0.287321 -0.05305,0.07993 -0.131602,0.119889 -0.235644,0.119889 -0.106798,0 -0.186724,-0.04065 -0.239779,-0.121956 -0.05236,-0.0813 -0.07855,-0.177423 -0.07855,-0.288355 v -0.02377 c 0,-0.109554 0.02618,-0.205328 0.07855,-0.287321 0.05306,-0.08268 0.132292,-0.124023 0.237712,-0.124023 z m -6.3567179,0.0088 c 0.075792,0 0.1398709,0.02756 0.1922363,0.08268 0.052365,0.05512 0.085094,0.134358 0.098185,0.237712 h -0.559139 v -0.01447 c 0.00482,-0.07441 0.026524,-0.144007 0.065112,-0.208772 0.037896,-0.06477 0.105764,-0.09715 0.2036057,-0.09715 z" /></svg>
