<?xml version="1.0" encoding="UTF-8" standalone="no"?>
<!-- Created with Inkscape (http://www.inkscape.org/) -->

<svg
   width="4.2840695mm"
   height="2.3373685mm"
   viewBox="0 0 4.2840694 2.3373684"
   version="1.1"
   id="svg5"
   xml:space="preserve"
   sodipodi:docname="alchemicats.svg"
   inkscape:version="1.2.2 (b0a8486541, 2022-12-01)"
   inkscape:export-filename="../../../../../home/dekram/RepositoryDisk/Development/repository/alchemicats.pet/assets/images/campfire.svg"
   inkscape:export-xdpi="379.45383"
   inkscape:export-ydpi="379.45383"
   xmlns:inkscape="http://www.inkscape.org/namespaces/inkscape"
   xmlns:sodipodi="http://sodipodi.sourceforge.net/DTD/sodipodi-0.dtd"
   xmlns="http://www.w3.org/2000/svg"
   xmlns:svg="http://www.w3.org/2000/svg"><sodipodi:namedview
     id="namedview223"
     pagecolor="#ffffff"
     bordercolor="#666666"
     borderopacity="1.0"
     inkscape:showpageshadow="2"
     inkscape:pageopacity="0.0"
     inkscape:pagecheckerboard="0"
     inkscape:deskcolor="#d1d1d1"
     inkscape:document-units="mm"
     showgrid="false"
     inkscape:zoom="5.6568543"
     inkscape:cx="-32.703689"
     inkscape:cy="-7.5130095"
     inkscape:window-width="1920"
     inkscape:window-height="900"
     inkscape:window-x="0"
     inkscape:window-y="0"
     inkscape:window-maximized="1"
     inkscape:current-layer="svg5"
     showguides="true"
     inkscape:export-bgcolor="#00000000"><sodipodi:guide
       position="-173.29694,-582.14095"
       orientation="0,-1"
       id="guide469"
       inkscape:locked="false" /><sodipodi:guide
       position="-184.59349,-605.50426"
       orientation="0,-1"
       id="guide471"
       inkscape:locked="false" /><sodipodi:guide
       position="-199.99787,-633.74562"
       orientation="0,-1"
       id="guide473"
       inkscape:locked="false" /><sodipodi:guide
       position="-196.0184,-649.27837"
       orientation="0,-1"
       id="guide475"
       inkscape:locked="false" /><sodipodi:guide
       position="-84.431799,-652.77672"
       orientation="0,-1"
       id="guide15194"
       inkscape:locked="false" /><sodipodi:guide
       position="-10.956169,-214.85263"
       orientation="0,-1"
       id="guide868"
       inkscape:locked="false" /><sodipodi:guide
       position="21.366451,-67.472117"
       orientation="0,-1"
       id="guide8933"
       inkscape:locked="false" /><sodipodi:guide
       position="35.83234,-97.303676"
       orientation="0,-1"
       id="guide8935"
       inkscape:locked="false" /><sodipodi:guide
       position="26.15499,-85.429136"
       orientation="0,-1"
       id="guide8937"
       inkscape:locked="false" /></sodipodi:namedview><defs
     id="defs2" /><path
     id="path938"
     style="fill:#ccff00;fill-opacity:1;stroke:#000000;stroke-width:0;stroke-linecap:round;stroke-dasharray:none"
     d="M 1.5982726,3.8875067e-7 C 1.7590077,0.04880939 1.8886368,0.14629709 2.0052962,0.26407669 l -0.4714301,0.2335669 c 0.00248,-0.170827 0.0044,-0.3418193 0.064407,-0.49764320124933 z"
     sodipodi:nodetypes="cccc" /><path
     style="fill:#b4e100;fill-opacity:1;stroke:#000000;stroke-width:0;stroke-dasharray:none"
     d="m 3.3367059,0.19626399 -0.00311,0.00663 C 3.6417022,0.45938899 3.4683536,1.0805473 3.1086638,1.0377655 3.0611729,1.0321147 3.0144519,1.0145144 2.9733447,0.98257739 2.9093107,0.93283129 2.8685512,0.86009879 2.8310767,0.77835589 2.781098,0.95862369 2.7108714,1.0924902 2.6104989,1.2317368 c 0.1707673,-0.0078 0.3215785,0.00239 0.4326038,0.1983326 0.035401,0.06246 0.048315,0.1380955 0.080767,0.2007802 0.079565,-0.1658169 0.2617717,-0.2305945 0.3956764,-0.1401815 0.064401,0.043472 0.094688,0.1089121 0.1417006,0.1756466 C 3.7140335,1.458019 3.9514375,1.3773693 4.0929918,1.4644526 4.189623,1.5238873 4.2331293,1.6198938 4.2794281,1.7386969 4.2937015,1.6088732 4.2726068,1.4669975 4.2492867,1.341106 4.1762613,0.94697379 3.9776548,0.58518329 3.705796,0.38054119 3.5880746,0.29192369 3.4640536,0.25143569 3.3367074,0.19626399"
     id="path5895" /><ellipse
     style="fill:#f4d4ed;fill-opacity:1;stroke:#000000;stroke-width:0;stroke-linecap:round;stroke-dasharray:none"
     id="ellipse942"
     cx="2.7420189"
     cy="1.0398517"
     rx="0.40575755"
     ry="0.42327932" /><ellipse
     style="fill:#b4e100;fill-opacity:1;stroke:#000000;stroke-width:0;stroke-linecap:round;stroke-dasharray:none"
     id="ellipse944"
     cx="1.7543509"
     cy="1.0398517"
     rx="0.40575755"
     ry="0.42327932" /><path
     id="path946"
     style="fill:#d056b0;fill-opacity:1;stroke:#000000;stroke-width:0;stroke-linecap:square;stroke-linejoin:bevel;stroke-dasharray:none;paint-order:fill markers stroke"
     d="m 1.4188937,0.79873919 c -0.00191,0.00414 -0.00373,0.0083 -0.00555,0.012448 -1.269e-4,-8.83e-5 -2.964e-4,-4.39e-5 -4.36e-4,-8.83e-5 -0.1552473,-0.0724038 -0.4279892,-0.1501404 -0.5270372,-0.1501668 -0.025728,-7.5e-6 -0.036681,0.00733 -0.08034,0.053681 C 0.556523,0.97897839 0.2085984,1.5397393 0.0423476,1.94474 c -0.060662,0.1477797 -0.061433,0.1464472 0.032406,0.050316 0.1959258,-0.200708 0.3609862,-0.3036968 0.486684,-0.3036968 0.098381,0 0.1863903,0.067506 0.2431922,0.186554 l 0.030982,0.065107 0.019127,-0.042102 c 0.025408,-0.055892 0.1106331,-0.2303014 0.2373411,-0.2953247 0.083938,-0.043074 0.1824505,-0.07443 0.268997,-0.012278 4.361e-4,0.015981 0.058933,0.031937 0.058933,0.047813 z"
     sodipodi:nodetypes="cccsssssccssccc" /><path
     id="path948"
     style="fill:#e97ab0;fill-opacity:1;stroke:#000000;stroke-width:0;stroke-linecap:round;stroke-linejoin:round;stroke-dasharray:none;stroke-opacity:1;paint-order:fill markers stroke"
     d="M 2.2315734,0.22330869 C 1.8700483,0.21659149 1.4698188,0.44323389 1.2982972,0.80036009 1.1600379,1.0919769 1.2326506,1.4215339 1.2345656,1.7321346 c 0.012143,0.1586977 0.00493,0.3580313 0.1512306,0.4541983 0.09098,0.084629 0.1762361,0.046951 0.2660879,0.034588 0.1495302,-0.020576 0.1903192,0.12412 0.3519677,0.1125333 0.078133,-0.0056 0.1554848,-0.069888 0.2330405,-0.077488 0.2386528,-0.6860395 -0.2116371,-1.30893081 0,-2.03245301 -0.00177,-4.19e-5 -0.00353,-1.769e-4 -0.00531,-2.212e-4 z M 1.7914938,0.71736949 C 1.9738301,0.71826609 2.0815923,0.94431429 2.0279263,1.1141023 1.9864828,1.3229556 1.7393397,1.4257949 1.5679304,1.3165209 1.4013983,1.2306645 1.4302778,0.99519009 1.5268069,0.86462889 c 0.056888,-0.082609 0.1474962,-0.1438874 0.2468064,-0.146643 0.00603,-4.505e-4 0.011999,-6.482e-4 0.017879,-5.996e-4 z"
     sodipodi:nodetypes="scccsscccsccccssc" /><path
     id="path950"
     style="opacity:0.274059;fill:#f6ffd5;fill-opacity:1;stroke:#000000;stroke-width:0;stroke-linecap:round;stroke-dasharray:none;paint-order:fill markers stroke"
     d="m 1.7716983,0.71798089 c -0.165937,-5e-7 -0.3064605,0.1797018 -0.3232643,0.35808401 -0.017431,0.1850382 0.1195532,0.2874395 0.2854697,0.2844442 0.069753,-0.00125 0.1182206,-0.028174 0.1202116,-0.029226 -0.1511533,0.00886 -0.3153128,-0.092162 -0.299954,-0.2552173 0.015114,-0.16047661 0.1303742,-0.32198871 0.2741755,-0.35280311 -0.017851,-0.00349 -0.036734,-0.00528 -0.056639,-0.00528 z"
     sodipodi:nodetypes="ssscscs" /><ellipse
     style="fill:#8fb300;fill-opacity:1;stroke:#000000;stroke-width:0;stroke-linecap:round;stroke-linejoin:round;stroke-dasharray:none;stroke-opacity:0.924933;paint-order:fill markers stroke"
     id="ellipse952"
     cx="1.8053873"
     cy="1.0398517"
     rx="0.10340156"
     ry="0.15328437" /><path
     id="path954"
     style="fill:#e97ab0;fill-opacity:1;stroke:#000000;stroke-width:0;stroke-linecap:round;stroke-dasharray:none"
     d="M 2.8677172,3.8875067e-7 C 2.7069826,0.04880969 2.5773536,0.14629709 2.460694,0.26407669 l 0.4714302,0.2335669 C 2.9296442,0.32681659 2.9277342,0.15582429 2.8677172,3.8875067e-7 Z"
     sodipodi:nodetypes="cccc" /><path
     id="path956"
     style="fill:#ccff00;fill-opacity:1;stroke:#000000;stroke-width:0;stroke-linecap:round;stroke-linejoin:round;stroke-dasharray:none;stroke-opacity:1;paint-order:fill markers stroke"
     d="m 2.2310703,0.22330869 c 0.3615255,-0.00672 0.7617551,0.2199252 0.9332767,0.5770514 C 3.3026063,1.0919769 3.229994,1.4215339 3.228079,1.7321346 3.215936,1.8908323 3.223159,2.0901659 3.0768479,2.1863329 c -0.089785,0.06784 -0.1668141,-0.085468 -0.2660875,0.034587 -0.096184,0.1163245 -0.1903192,0.12412 -0.3519681,0.1125334 -0.078133,-0.0056 -0.1554844,-0.069888 -0.23304,-0.077488 0.2115473,-0.6824471 -0.2079132,-1.39667881 0,-2.03245301 0.00177,-4.18e-5 0.00353,-1.769e-4 0.00531,-2.212e-4 z m 0.4400801,0.4940608 c -0.1823363,8.969e-4 -0.290099,0.2269448 -0.2364326,0.39673281 0.041443,0.2088533 0.2885867,0.3116926 0.459996,0.2024186 0.1665316,-0.085856 0.1376521,-0.32133081 0.041123,-0.45189201 -0.056889,-0.0826085 -0.1474966,-0.1438874 -0.2468063,-0.146643 -0.00603,-4.505e-4 -0.011999,-6.482e-4 -0.017879,-5.996e-4 z"
     sodipodi:nodetypes="ccccssccccsccccss" /><path
     id="path958"
     style="opacity:0.274059;fill:#c97ab0;fill-opacity:1;stroke:#000000;stroke-width:0;stroke-linecap:round;stroke-dasharray:none;paint-order:fill markers stroke"
     d="m 2.6896499,0.71594029 c 0.1659366,-5e-7 0.3064601,0.1797023 0.3232639,0.35808461 C 3.0303488,1.2590631 2.893361,1.3614644 2.727444,1.358469 2.657691,1.357219 2.6092239,1.330295 2.607233,1.329243 2.7583862,1.338103 2.9225458,1.237081 2.9071864,1.0740257 2.8920724,0.91354859 2.7768128,0.75203659 2.6330114,0.72122269 c 0.017851,-0.00349 0.036734,-0.00528 0.056639,-0.00528 z"
     sodipodi:nodetypes="ssscscs" /><ellipse
     style="fill:#c97ab0;fill-opacity:1;stroke:#000000;stroke-width:0;stroke-linecap:round;stroke-linejoin:round;stroke-dasharray:none;stroke-opacity:0.924933;paint-order:fill markers stroke"
     id="ellipse960"
     cx="-2.6676967"
     cy="1.0398517"
     rx="0.10340156"
     ry="0.15328437"
     transform="scale(-1,1)" /><path
     style="fill:#e97ab0;fill-opacity:1;stroke:#000000;stroke-width:0;stroke-linecap:round;stroke-dasharray:none"
     d="M 2.2632475,1.489565 2.370741,1.579894 2.460659,1.4634579 c 0.013276,-0.017203 0.010717,-0.042205 -0.0058,-0.056068 L 2.406912,1.3670909 C 2.390421,1.3532289 2.366454,1.3559119 2.353165,1.3731409 Z"
     id="path962" /><path
     style="fill:#ccff00;fill-opacity:1;stroke:#000000;stroke-width:0;stroke-linecap:round;stroke-dasharray:none"
     d="m 2.1766551,1.6017018 0.08659,-0.1121354 -0.1116162,-0.093801 c -0.016491,-0.013862 -0.040458,-0.01118 -0.053747,0.00605 l -0.03863,0.050031 c -0.013289,0.017203 -0.010717,0.042205 0.0058,0.056068 z"
     id="path964" /><path
     style="fill:#ccff00;fill-opacity:1;stroke:#000000;stroke-width:0;stroke-linecap:round;stroke-dasharray:none"
     d="M 2.2841499,1.6920335 2.1766564,1.6017044 2.0867381,1.7181405 c -0.013289,0.017203 -0.010717,0.042219 0.0058,0.056081 l 0.04796,0.040299 c 0.016491,0.013862 0.040471,0.011179 0.05376,-0.00605 z"
     id="path966" /><path
     style="fill:#e97ab0;fill-opacity:1;stroke:#000000;stroke-width:0;stroke-linecap:round;stroke-dasharray:none"
     d="m 2.488153,1.7297697 c 0.013289,-0.017203 0.010717,-0.042219 -0.0058,-0.056081 l -0.1116163,-0.093801 -0.08659,0.1121354 0.1116163,0.093801 c 0.016491,0.013862 0.040471,0.011179 0.053747,-0.00605 z"
     id="path968" /><rect
     style="fill:#e8bbdc;fill-opacity:1;stroke:#000000;stroke-width:0;stroke-linecap:round;stroke-dasharray:none"
     id="rect970"
     width="0.14439307"
     height="0.14309983"
     x="-0.31728342"
     y="-2.8457861"
     ry="0"
     transform="matrix(-0.61118678,0.7914864,-0.76557912,-0.64334176,0,0)" /><path
     id="path948-3"
     style="fill:#e566a3;fill-opacity:1;stroke:#000000;stroke-width:0;stroke-linecap:round;stroke-linejoin:round;stroke-dasharray:none;stroke-opacity:1;paint-order:fill markers stroke"
     d="m 1.6668003,1.7811823 c 0.014855,0.1510208 0.045877,0.3185381 -0.012002,0.4382174 0.024758,-0.00299 0.046592,-0.00127 0.06643,0.00335 0.01087,-0.127303 -0.054428,-0.4415669 -0.054428,-0.4415674 z" /><path
     id="path948-6"
     style="fill:#e566a3;fill-opacity:1;stroke:#000000;stroke-width:0;stroke-linecap:round;stroke-linejoin:round;stroke-dasharray:none;stroke-opacity:1;paint-order:fill markers stroke"
     d="m 1.9825577,1.9076806 c 0.014343,0.1458205 0.043675,0.3069914 -0.00642,0.425657 0.0088,3.481e-4 0.018025,1.305e-4 0.027633,-5.563e-4 0.011461,-8.21e-4 0.022901,-0.00288 0.034332,-0.00586 0.00284,-0.1382058 -0.055545,-0.4192372 -0.055545,-0.4192372 z" /><path
     id="path4760"
     style="fill:#bceb00;fill-opacity:1;stroke:#000000;stroke-width:0;stroke-linecap:round;stroke-linejoin:round;stroke-dasharray:none;stroke-opacity:1;paint-order:fill markers stroke"
     d="m 2.4878682,1.9099005 c -0.014343,0.1458204 -0.043675,0.3069914 0.00642,0.425657 -0.0088,3.481e-4 -0.018025,1.305e-4 -0.027633,-5.563e-4 -0.01146,-8.21e-4 -0.022901,-0.00288 -0.034332,-0.00586 -0.00284,-0.1382058 0.055545,-0.4192372 0.055545,-0.4192372 z" /><path
     id="path4983"
     style="fill:#bceb00;fill-opacity:1;stroke:#000000;stroke-width:0;stroke-linecap:round;stroke-linejoin:round;stroke-dasharray:none;stroke-opacity:1;paint-order:fill markers stroke"
     d="m 2.9128476,1.7389849 c -0.014855,0.1510208 -0.045877,0.3185381 0.012002,0.4382174 -0.024758,-0.00299 -0.046592,-0.00127 -0.06643,0.00335 -0.01087,-0.127303 0.054428,-0.4415669 0.054428,-0.4415674 z" /></svg>
