<?xml version="1.0" encoding="UTF-8" standalone="no"?>
<!-- Created with Inkscape (http://www.inkscape.org/) -->

<svg
   width="55.323868mm"
   height="28.934935mm"
   viewBox="0 0 55.323866 28.934934"
   version="1.1"
   id="svg5"
   xml:space="preserve"
   sodipodi:docname="alchemicats.svg"
   inkscape:version="1.3 (0e150ed6c4, 2023-07-21)"
   inkscape:export-filename="../Socials/badshots-social-icon.jpg"
   inkscape:export-xdpi="379.45383"
   inkscape:export-ydpi="379.45383"
   xmlns:inkscape="http://www.inkscape.org/namespaces/inkscape"
   xmlns:sodipodi="http://sodipodi.sourceforge.net/DTD/sodipodi-0.dtd"
   xmlns="http://www.w3.org/2000/svg"
   xmlns:svg="http://www.w3.org/2000/svg"><sodipodi:namedview
     id="namedview223"
     pagecolor="#ffffff"
     bordercolor="#666666"
     borderopacity="1.0"
     inkscape:showpageshadow="2"
     inkscape:pageopacity="0.0"
     inkscape:pagecheckerboard="0"
     inkscape:deskcolor="#d1d1d1"
     inkscape:document-units="mm"
     showgrid="false"
     inkscape:zoom="11.313709"
     inkscape:cx="304.8514"
     inkscape:cy="200.50896"
     inkscape:window-width="1920"
     inkscape:window-height="961"
     inkscape:window-x="0"
     inkscape:window-y="27"
     inkscape:window-maximized="1"
     inkscape:current-layer="svg5"
     showguides="true"
     inkscape:export-bgcolor="#00000000"><sodipodi:guide
       position="-248.91719,-612.18559"
       orientation="0,-1"
       id="guide469"
       inkscape:locked="false" /><sodipodi:guide
       position="-260.21374,-635.5489"
       orientation="0,-1"
       id="guide471"
       inkscape:locked="false" /><sodipodi:guide
       position="-275.61812,-663.79026"
       orientation="0,-1"
       id="guide473"
       inkscape:locked="false" /><sodipodi:guide
       position="-271.63865,-679.32301"
       orientation="0,-1"
       id="guide475"
       inkscape:locked="false" /><sodipodi:guide
       position="-160.05205,-682.82136"
       orientation="0,-1"
       id="guide15194"
       inkscape:locked="false" /><sodipodi:guide
       position="-86.576422,-244.89727"
       orientation="0,-1"
       id="guide868"
       inkscape:locked="false" /><sodipodi:guide
       position="-54.253802,-97.516751"
       orientation="0,-1"
       id="guide8933"
       inkscape:locked="false" /><sodipodi:guide
       position="-39.787912,-127.34831"
       orientation="0,-1"
       id="guide8935"
       inkscape:locked="false" /><sodipodi:guide
       position="-49.465262,-115.47377"
       orientation="0,-1"
       id="guide8937"
       inkscape:locked="false" /></sodipodi:namedview><defs
     id="defs2" /><g
     id="g247"
     transform="matrix(6.1686943,0,0,6.1686943,-48.484572,-257.2665)"
     inkscape:export-filename="../Socials/alchemicats.svg"
     inkscape:export-xdpi="2791.4932"
     inkscape:export-ydpi="2791.4932"><path
       id="path236"
       style="fill:#ccff00;fill-opacity:1;stroke-width:0.0133165;stroke-linecap:round"
       d="m 11.205684,41.705179 c 0.33649,0.09795 0.607862,0.293587 0.852083,0.529946 l -0.986916,0.46872 c 0.0052,-0.342814 0.0092,-0.68596 0.134833,-0.998666 z"
       sodipodi:nodetypes="cccc" /><path
       style="fill:#b4e100;fill-opacity:1;stroke:none;stroke-width:0.0139765"
       d="m 14.845009,42.099039 -0.0065,0.01331 c 0.644995,0.514737 0.282098,1.761272 -0.470894,1.675418 -0.09943,-0.01134 -0.197229,-0.04666 -0.283285,-0.110751 -0.134052,-0.09983 -0.219379,-0.245789 -0.297831,-0.40983 -0.104628,0.36176 -0.251644,0.630402 -0.461769,0.909841 0.357493,-0.01565 0.673209,0.0048 0.905635,0.398012 0.07411,0.125345 0.101144,0.277129 0.169081,0.402924 0.166567,-0.33276 0.548007,-0.462755 0.828331,-0.281315 0.13482,0.08724 0.198223,0.218564 0.296643,0.352486 0.110509,-0.418006 0.607501,-0.579853 0.903837,-0.405095 0.202293,0.119273 0.29337,0.311938 0.390296,0.550351 0.02988,-0.260529 -0.01428,-0.545244 -0.0631,-0.797882 -0.152841,-0.790946 -0.568615,-1.516984 -1.137738,-1.927658 -0.246444,-0.177837 -0.506076,-0.259088 -0.772669,-0.369806"
       id="path237" /><ellipse
       style="fill:#f4d4ed;fill-opacity:1;stroke-width:0.0204498;stroke-linecap:round"
       id="ellipse237"
       cx="13.600059"
       cy="43.791943"
       rx="0.84943354"
       ry="0.8494333" /><ellipse
       style="fill:#b4e100;fill-opacity:1;stroke-width:0.0204498;stroke-linecap:round"
       id="ellipse238"
       cx="11.532426"
       cy="43.791943"
       rx="0.84943354"
       ry="0.8494333" /><path
       id="path238"
       style="fill:#d056b0;fill-opacity:1;stroke:none;stroke-width:0.012956;stroke-linecap:square;stroke-linejoin:bevel;paint-order:fill markers stroke"
       d="m 10.830162,43.308081 c -0.004,0.0083 -0.0078,0.01665 -0.01161,0.02498 -2.66e-4,-1.77e-4 -6.21e-4,-8.8e-5 -9.13e-4,-1.77e-4 -0.32501,-0.145299 -0.8959831,-0.3013 -1.1033347,-0.301353 -0.053861,-1.5e-5 -0.076789,0.01471 -0.1681883,0.107727 -0.5212844,0.530526 -1.2496482,1.655856 -1.5976863,2.468608 -0.1269927,0.296563 -0.1286064,0.293889 0.067843,0.100974 0.4101611,-0.402779 0.7557069,-0.609456 1.0188484,-0.609456 0.205957,0 0.3901991,0.135471 0.5091113,0.374375 l 0.064858,0.130655 0.040043,-0.08449 c 0.053191,-0.112164 0.2316048,-0.462167 0.4968616,-0.592655 0.175721,-0.08644 0.381951,-0.149365 0.563132,-0.02464 9.14e-4,0.03207 0.123374,0.06409 0.123374,0.09595 z"
       sodipodi:nodetypes="cccsssssccssccc" /><path
       id="path239"
       style="fill:#e97ab0;fill-opacity:1;stroke:none;stroke-width:0.0103758;stroke-linecap:round;stroke-linejoin:round;stroke-dasharray:none;stroke-opacity:1;paint-order:fill markers stroke"
       d="m 12.531468,42.153312 c -0.756836,-0.01348 -1.594697,0.441344 -1.953769,1.158022 -0.289439,0.585214 -0.137428,1.246566 -0.133419,1.869877 0.02542,0.318473 0.01031,0.718494 0.316595,0.911481 0.187961,0.13614 0.349217,-0.171517 0.557041,0.06941 0.201355,0.233439 0.398424,0.249083 0.736827,0.225831 0.163569,-0.01124 0.3255,-0.14025 0.487859,-0.155502 0.499608,-1.376738 -0.443052,-2.626751 0,-4.078709 -0.0037,-8.4e-5 -0.0074,-3.55e-4 -0.01113,-4.44e-4 z m -0.921286,0.991477 c 0.381712,0.0018 0.607308,0.455431 0.49496,0.79616 -0.08676,0.419125 -0.604142,0.625502 -0.962979,0.406212 -0.348627,-0.172296 -0.288169,-0.644844 -0.08609,-0.906853 0.119093,-0.165778 0.308777,-0.288752 0.516677,-0.294282 0.01263,-9.04e-4 0.02512,-0.0013 0.03743,-0.0012 z"
       sodipodi:nodetypes="scccsscccsccccssc" /><path
       id="path240"
       style="opacity:0.274059;fill:#f6ffd5;fill-opacity:1;stroke:none;stroke-width:0.00359827;stroke-linecap:round;paint-order:fill markers stroke"
       d="m 11.568741,43.146016 c -0.34738,-1e-6 -0.64156,0.360624 -0.676738,0.7186 -0.03649,0.371333 0.250279,0.576831 0.597618,0.57082 0.146024,-0.0025 0.247488,-0.05654 0.251656,-0.05865 -0.316432,0.01778 -0.660092,-0.18495 -0.627938,-0.512168 0.03164,-0.322043 0.272931,-0.646164 0.573972,-0.708002 -0.03737,-0.007 -0.0769,-0.0106 -0.11857,-0.0106 z"
       sodipodi:nodetypes="ssscscs" /><ellipse
       style="fill:#8fb300;fill-opacity:1;stroke:none;stroke-width:0.358258;stroke-linecap:round;stroke-linejoin:round;stroke-opacity:0.924933;paint-order:fill markers stroke"
       id="ellipse240"
       cx="11.639269"
       cy="43.791943"
       rx="0.2164661"
       ry="0.30760974" /><path
       id="path241"
       style="fill:#e97ab0;fill-opacity:1;stroke-width:0.0133165;stroke-linecap:round"
       d="m 13.863204,41.705179 c -0.336491,0.09795 -0.607863,0.293587 -0.852084,0.529946 l 0.986916,0.46872 c -0.0052,-0.342814 -0.0092,-0.68596 -0.134832,-0.998666 z"
       sodipodi:nodetypes="cccc" /><path
       id="path242"
       style="fill:#ccff00;fill-opacity:1;stroke:none;stroke-width:0.0103758;stroke-linecap:round;stroke-linejoin:round;stroke-dasharray:none;stroke-opacity:1;paint-order:fill markers stroke"
       d="m 12.530414,42.153312 c 0.756836,-0.01348 1.594697,0.441344 1.953769,1.158022 0.289439,0.585214 0.137428,1.246566 0.133419,1.869877 -0.02542,0.318473 -0.01031,0.718494 -0.316595,0.911481 -0.187961,0.13614 -0.349217,-0.171517 -0.557041,0.06941 -0.201355,0.233439 -0.398424,0.249083 -0.736827,0.225831 -0.163568,-0.01124 -0.3255,-0.14025 -0.487859,-0.155502 0.442864,-1.369529 -0.435256,-2.802843 0,-4.078709 0.0037,-8.4e-5 0.0074,-3.55e-4 0.01113,-4.44e-4 z m 0.921286,0.991477 c -0.381712,0.0018 -0.607308,0.455431 -0.49496,0.79616 0.08676,0.419125 0.604142,0.625502 0.962979,0.406212 0.348627,-0.172296 0.288169,-0.644844 0.08609,-0.906853 -0.119093,-0.165778 -0.308777,-0.288752 -0.516677,-0.294282 -0.01263,-9.04e-4 -0.02512,-0.0013 -0.03743,-0.0012 z"
       sodipodi:nodetypes="ccccssccccsccccss" /><path
       id="path243"
       style="opacity:0.274059;fill:#c97ab0;fill-opacity:1;stroke:none;stroke-width:0.00359827;stroke-linecap:round;paint-order:fill markers stroke"
       d="m 13.490428,43.141921 c 0.34738,-1e-6 0.64156,0.360625 0.676738,0.718601 0.03649,0.371333 -0.250279,0.576831 -0.597617,0.57082 -0.146025,-0.0025 -0.247489,-0.05654 -0.251657,-0.05865 0.316432,0.01778 0.660092,-0.184951 0.627938,-0.512168 -0.03164,-0.322044 -0.272931,-0.646165 -0.573972,-0.708002 0.03737,-0.007 0.0769,-0.0106 0.11857,-0.0106 z"
       sodipodi:nodetypes="ssscscs" /><ellipse
       style="fill:#c97ab0;fill-opacity:1;stroke:none;stroke-width:0.358258;stroke-linecap:round;stroke-linejoin:round;stroke-opacity:0.924933;paint-order:fill markers stroke"
       id="ellipse243"
       cx="-13.444468"
       cy="43.791943"
       rx="0.2164661"
       ry="0.30760974"
       transform="scale(-1,1)" /><path
       style="fill:#e97ab0;fill-opacity:1;stroke-width:0.0114162;stroke-linecap:round"
       d="m 12.600061,44.715671 0.201501,0.162316 0.168554,-0.209228 c 0.02489,-0.03091 0.02009,-0.07584 -0.01087,-0.10075 l -0.08988,-0.07241 c -0.03091,-0.02491 -0.07584,-0.02009 -0.10075,0.01087 z"
       id="path244" /><path
       style="fill:#ccff00;fill-opacity:1;stroke-width:0.0114162;stroke-linecap:round"
       d="m 12.437741,44.917174 0.162316,-0.2015 -0.209228,-0.168555 c -0.03091,-0.02491 -0.07584,-0.02009 -0.100751,0.01087 l -0.07241,0.0899 c -0.02489,0.03091 -0.02009,0.07584 0.01087,0.10075 z"
       id="path245" /><path
       style="fill:#ccff00;fill-opacity:1;stroke-width:0.0114162;stroke-linecap:round"
       d="m 12.639246,45.079494 -0.2015,-0.162316 -0.168555,0.209229 c -0.02491,0.03091 -0.02009,0.07586 0.01087,0.100773 l 0.0899,0.07241 c 0.03091,0.02491 0.07586,0.02009 0.10075,-0.01087 z"
       id="path246" /><path
       style="fill:#e97ab0;fill-opacity:1;stroke-width:0.0114162;stroke-linecap:round"
       d="m 13.021654,45.147304 c 0.02491,-0.03091 0.02009,-0.07586 -0.01087,-0.100774 l -0.209229,-0.168555 -0.162315,0.2015 0.209228,0.168555 c 0.03091,0.02491 0.07586,0.02009 0.100774,-0.01087 z"
       id="path247" /><rect
       style="fill:#e8bbdc;fill-opacity:1;stroke-width:0.0156763;stroke-linecap:round"
       id="rect247"
       width="0.26370612"
       height="0.26370612"
       x="26.915833"
       y="-38.124889"
       ry="0"
       transform="rotate(128.85309)" /></g></svg>
