<?xml version="1.0" standalone="no"?>
<!DOCTYPE svg PUBLIC "-//W3C//DTD SVG 1.1//EN" "http://www.w3.org/Graphics/SVG/1.1/DTD/svg11.dtd">
<svg width="41.003814697265625" height="41.004150390625" viewBox="0 0 41.003814 41.00415" version="1.1" id="svg5" xml:space="preserve" sodipodi:docname="social-logo.svg" inkscape:version="1.2.2 (732a01da63, 2022-12-09)" inkscape:export-filename="social-logo.jpg" inkscape:export-xdpi="96" inkscape:export-ydpi="96" xmlns:inkscape="http://www.inkscape.org/namespaces/inkscape" xmlns:sodipodi="http://sodipodi.sourceforge.net/DTD/sodipodi-0.dtd" xmlns="http://www.w3.org/2000/svg" xmlns:svg="http://www.w3.org/2000/svg"><sodipodi:namedview id="namedview223" pagecolor="#ffffff" bordercolor="#666666" borderopacity="1.0" inkscape:showpageshadow="2" inkscape:pageopacity="0.0" inkscape:pagecheckerboard="0" inkscape:deskcolor="#d1d1d1" inkscape:document-units="mm" showgrid="false" inkscape:zoom="0.35355339" inkscape:cx="958.8368" inkscape:cy="-2464.9742" inkscape:window-width="1920" inkscape:window-height="1001" inkscape:window-x="-9" inkscape:window-y="-9" inkscape:window-maximized="1" inkscape:current-layer="svg5" showguides="true"><sodipodi:guide position="-372.6992,-722.79602" orientation="0,-1" id="guide469" inkscape:locked="false"/><sodipodi:guide position="-383.99574,-746.15933" orientation="0,-1" id="guide471" inkscape:locked="false"/><sodipodi:guide position="-399.40012,-774.40069" orientation="0,-1" id="guide473" inkscape:locked="false"/><sodipodi:guide position="-395.42066,-789.93344" orientation="0,-1" id="guide475" inkscape:locked="false"/><sodipodi:guide position="-283.83406,-793.43179" orientation="0,-1" id="guide15194" inkscape:locked="false"/><sodipodi:guide position="-210.35843,-355.5077" orientation="0,-1" id="guide868" inkscape:locked="false"/><sodipodi:guide position="-178.03581,-208.12719" orientation="0,-1" id="guide8933" inkscape:locked="false"/><sodipodi:guide position="-163.56992,-237.95875" orientation="0,-1" id="guide8935" inkscape:locked="false"/><sodipodi:guide position="-173.24727,-226.08421" orientation="0,-1" id="guide8937" inkscape:locked="false"/></sodipodi:namedview><defs id="defs2"/><g id="g1164" transform="matrix(10.279669,0,0,10.279669,-5854.6638,6333.9677)" inkscape:export-filename="bandage.svg" inkscape:export-xdpi="96" inkscape:export-ydpi="96"><path style="fill:#e97ab0;fill-opacity:1;stroke-width:0.0544825;stroke-linecap:round" d="m 571.43904,-615.03831 0.96166,0.77466 0.80439,-0.99856 c 0.11883,-0.14752 0.0956,-0.36193 -0.0519,-0.48077 l -0.42898,-0.34556 c -0.14753,-0.11884 -0.36196,-0.0959 -0.48079,0.0517 z" id="path1130"/><path style="fill:#ccff00;fill-opacity:1;stroke-width:0.0544825;stroke-linecap:round" d="m 570.66438,-614.07666 0.77466,-0.96165 -0.99855,-0.80439 c -0.14752,-0.11883 -0.36193,-0.0956 -0.48077,0.0519 l -0.34557,0.42899 c -0.11883,0.14752 -0.0958,0.36195 0.0517,0.48079 z" id="path1132"/><path style="fill:#ccff00;fill-opacity:1;stroke-width:0.0544825;stroke-linecap:round" d="m 571.62604,-613.302 -0.96166,-0.77466 -0.80438,0.99856 c -0.11884,0.14752 -0.0957,0.36204 0.0518,0.48088 l 0.42899,0.34557 c 0.14752,0.11884 0.36204,0.0957 0.48088,-0.0518 z" id="path1134"/><path style="fill:#e97ab0;fill-opacity:1;stroke-width:0.0544825;stroke-linecap:round" d="m 573.45105,-612.97839 c 0.11883,-0.14752 0.0957,-0.36204 -0.0518,-0.48088 l -0.99856,-0.80438 -0.77466,0.96165 0.99856,0.80439 c 0.14752,0.11884 0.36204,0.0957 0.48088,-0.0518 z" id="path1136"/><rect style="fill:#e8bbdc;fill-opacity:1;stroke-width:0.0748135;stroke-linecap:round" id="rect1138" width="1.2585124" height="1.2585124" x="-837.45557" y="-60.429539" ry="0" transform="rotate(128.85309)"/></g></svg>