<?xml version="1.0" encoding="UTF-8" standalone="no"?>
<!-- Created with Inkscape (http://www.inkscape.org/) -->

<svg
   width="3.1120632mm"
   height="3.0897217mm"
   viewBox="0 0 3.1120631 3.0897216"
   version="1.1"
   id="svg5"
   xml:space="preserve"
   sodipodi:docname="alchemicats.svg"
   inkscape:version="1.3 (0e150ed6c4, 2023-07-21)"
   inkscape:export-filename="../Socials/badshots-social-icon.jpg"
   inkscape:export-xdpi="379.45383"
   inkscape:export-ydpi="379.45383"
   xmlns:inkscape="http://www.inkscape.org/namespaces/inkscape"
   xmlns:sodipodi="http://sodipodi.sourceforge.net/DTD/sodipodi-0.dtd"
   xmlns="http://www.w3.org/2000/svg"
   xmlns:svg="http://www.w3.org/2000/svg"><sodipodi:namedview
     id="namedview223"
     pagecolor="#ffffff"
     bordercolor="#666666"
     borderopacity="1.0"
     inkscape:showpageshadow="2"
     inkscape:pageopacity="0.0"
     inkscape:pagecheckerboard="0"
     inkscape:deskcolor="#d1d1d1"
     inkscape:document-units="mm"
     showgrid="false"
     inkscape:zoom="127.30403"
     inkscape:cx="30.211141"
     inkscape:cy="159.18977"
     inkscape:window-width="1920"
     inkscape:window-height="961"
     inkscape:window-x="0"
     inkscape:window-y="27"
     inkscape:window-maximized="1"
     inkscape:current-layer="svg5"
     showguides="false"
     inkscape:export-bgcolor="#00000000"><sodipodi:guide
       position="-146.53012,-568.20681"
       orientation="0,-1"
       id="guide469"
       inkscape:locked="false" /><sodipodi:guide
       position="-157.82667,-591.57012"
       orientation="0,-1"
       id="guide471"
       inkscape:locked="false" /><sodipodi:guide
       position="-173.23105,-619.81148"
       orientation="0,-1"
       id="guide473"
       inkscape:locked="false" /><sodipodi:guide
       position="-169.25158,-635.34423"
       orientation="0,-1"
       id="guide475"
       inkscape:locked="false" /><sodipodi:guide
       position="-57.664975,-638.84258"
       orientation="0,-1"
       id="guide15194"
       inkscape:locked="false" /><sodipodi:guide
       position="15.810655,-200.91849"
       orientation="0,-1"
       id="guide868"
       inkscape:locked="false" /><sodipodi:guide
       position="48.133275,-53.537973"
       orientation="0,-1"
       id="guide8933"
       inkscape:locked="false" /><sodipodi:guide
       position="62.599165,-83.369532"
       orientation="0,-1"
       id="guide8935"
       inkscape:locked="false" /><sodipodi:guide
       position="52.921815,-71.494992"
       orientation="0,-1"
       id="guide8937"
       inkscape:locked="false" /></sodipodi:namedview><defs
     id="defs2" /><path
     style="fill:#d056b0;fill-opacity:1;stroke-width:0.0697826"
     d="m 1.9060481,1.4412259 1.2060151,1.648498 -1.9305142,-0.79486 c 0,0 0.011183,-0.726964 0.7244991,-0.853638 z"
     id="path55"
     sodipodi:nodetypes="cccc"
     inkscape:export-filename="../Socials/birthday.svg"
     inkscape:export-xdpi="8339.1562"
     inkscape:export-ydpi="8339.1562" /><path
     style="fill:#e97ab0;fill-opacity:1;stroke-width:0.0697826"
     d="m 1.9060481,1.4412259 1.2060151,1.648498 -1.9305142,-0.79486 c 0.2792935,0.09901 0.7512039,-0.464634 0.7244991,-0.853638 z"
     id="path60"
     sodipodi:nodetypes="cccc"
     inkscape:export-filename="../Socials/birthday.svg"
     inkscape:export-xdpi="8339.1562"
     inkscape:export-ydpi="8339.1562" /><path
     id="path55-6"
     style="fill:#87396d;fill-opacity:1;stroke-width:0.0665604"
     d="m 1.8893459,1.4612009 c -0.6803775,0.120831 -0.691049,0.814274 -0.691049,0.814274 0.2663967,0.09443 0.7165206,-0.443234 0.691049,-0.814274 z" /><path
     id="path61"
     style="fill:#ccff00;fill-opacity:1;stroke-width:0.0699137"
     d="m 1.9080882,1.4392969 c 0.00822,0.11974 -0.030811,0.255714 -0.096816,0.384159 l 1.2979612,1.257577 z" /><path
     id="path104"
     style="fill:#e8bbdc;fill-opacity:1;stroke-width:0.0665604"
     d="m 1.8893459,1.4612009 c -0.6803775,0.120831 -0.691049,0.814274 -0.691049,0.814274 0.2663967,0.09443 0.7165206,-0.443234 0.691049,-0.814274 z" /><path
     id="path55-6-5"
     style="fill:#c97ab0;fill-opacity:1;stroke-width:0.0665604"
     d="m 1.8773462,1.6001239 c -0.3573047,0.148344 -0.4587628,0.484031 -0.4873088,0.65474 0.2086648,-0.0946 0.4347649,-0.390177 0.4873088,-0.65474 z" /><g
     id="g105"
     transform="translate(-5.1959774,-39.384447)"><path
       id="path94"
       style="fill:#e97ab0;fill-opacity:1;stroke-width:0.030536"
       d="M 6.5034541,40.674874 C 5.9641364,39.968619 6.2172547,39.671711 6.4890444,39.384447 l 0.2851096,0.534709 c -0.97517,-0.09924 0.0096,0.86028 0.01441,1.290428 z"
       sodipodi:nodetypes="ccccc" /><g
       id="g104"><path
         id="path86"
         style="fill:#e8bbdc;fill-opacity:1;stroke-width:0.030536"
         d="m 6.1552974,41.042363 0.1380181,0.29037 C 5.259509,40.474654 5.4154991,41.087793 5.1959772,41.696673 5.3569434,40.267604 5.1783232,40.771852 6.155301,41.042361 Z"
         sodipodi:nodetypes="cccc" /><path
         id="path88"
         style="fill:#ccff00;fill-opacity:1;stroke-width:0.0158734"
         d="M 6.5535747,41.014039 6.7625568,41.243863 6.433123,41.347335 6.2241409,41.117511 Z" /><path
         id="path89"
         style="fill:#c7e93a;fill-opacity:1;stroke-width:0.0140957"
         d="m 5.8959068,39.982363 -0.097796,-0.257926 0.3058533,0.02181 0.097796,0.257925 z" /><path
         id="path90"
         style="fill:#e8bbdc;fill-opacity:1;stroke-width:0.0140957"
         d="m 7.0912765,40.120327 -0.2478874,0.121002 -0.00629,-0.306566 0.2478874,-0.121002 z" /><path
         id="path91"
         style="fill:#8fb300;fill-opacity:1;stroke-width:0.0155499"
         d="M 6.0139521,41.074186 5.8082676,40.849924 6.1305505,40.747181 6.3362352,40.971442 Z" /><path
         id="path92"
         style="fill:#c97ab0;fill-opacity:1;stroke-width:0.0155499"
         d="M 5.5246105,41.291255 5.3153236,41.070352 5.6359015,40.962406 5.8451886,41.183309 Z" /><path
         id="path93"
         style="fill:#8fb300;fill-opacity:1;stroke-width:0.0128014"
         d="m 5.3985823,40.482856 -0.1397742,-0.207897 0.2749928,-0.0439 0.1397743,0.207897 z" /><path
         id="path95"
         style="fill:#c97ab0;fill-opacity:1;stroke-width:0.0155499"
         d="M 6.7323365,41.086942 6.460498,40.950183 6.7254105,40.739841 6.9972492,40.8766 Z" /><path
         id="path96"
         style="fill:#ccff00;fill-opacity:1;stroke-width:0.030536"
         d="M 5.8475121,41.701163 5.665675,41.482807 c 1.2424289,-0.511298 0.092105,-1.26442 -0.1176826,-1.606781 0.8599465,0.901535 0.9962321,1.088759 0.2995197,1.825137 z"
         sodipodi:nodetypes="cccc" /><path
         id="path97"
         style="fill:#b4e100;fill-opacity:1;stroke-width:0.0155499"
         d="M 6.2511105,41.75423 5.979272,41.617471 6.2441845,41.407128 6.5160232,41.543887 Z" /><path
         id="path98"
         style="fill:#e97ab0;fill-opacity:1;stroke-width:0.0171228"
         d="m 6.0694177,40.707829 -0.123076,-0.31166 0.3718647,0.02141 0.1230763,0.311661 z" /><path
         id="path99"
         style="fill:#8fb300;fill-opacity:1;stroke-width:0.00608134"
         d="m 6.665312,41.474419 -0.081072,-0.08712 0.1257425,-0.0411 0.081072,0.08712 z" /><path
         id="path100"
         style="fill:#b4e100;fill-opacity:1;stroke-width:0.00608134"
         d="m 6.9765799,40.677001 0.068145,-0.09756 0.066604,0.1143 -0.068145,0.09756 z" /><path
         id="path101"
         style="fill:#e97ab0;fill-opacity:1;stroke-width:0.012678"
         d="m 6.1065681,42.072426 -0.216452,0.121251 -0.021221,-0.274972 0.2164521,-0.121252 z" /><path
         id="path102"
         style="fill:#ccff00;fill-opacity:1;stroke-width:0.012678"
         d="M 6.5217866,42.124559 6.3053346,42.24581 6.2841136,41.970838 6.5005657,41.849586 Z" /></g></g></svg>
