<?xml version="1.0" encoding="UTF-8" standalone="no"?>
<!-- Created with Inkscape (http://www.inkscape.org/) -->

<svg
   width="12.525891mm"
   height="12.435981mm"
   viewBox="0 0 12.525891 12.435981"
   version="1.1"
   id="svg5"
   xml:space="preserve"
   xmlns="http://www.w3.org/2000/svg"
   xmlns:svg="http://www.w3.org/2000/svg"><defs
     id="defs2" /><g
     id="g121"
     transform="matrix(4.0249479,0,0,4.0249479,-23.540413,-159.36761)"><path
       style="fill:#d056b0;fill-opacity:1;stroke-width:0.0697826"
       d="m 7.7546734,41.036175 1.2060151,1.648498 -1.9305142,-0.79486 c 0,0 0.011183,-0.726964 0.7244991,-0.853638 z"
       id="path55" /><path
       style="fill:#e97ab0;fill-opacity:1;stroke-width:0.0697826"
       d="m 7.7546734,41.036175 1.2060151,1.648498 -1.9305142,-0.79486 c 0.2792935,0.09901 0.7512039,-0.464634 0.7244991,-0.853638 z"
       id="path60" /><path
       id="path55-6"
       style="fill:#87396d;fill-opacity:1;stroke-width:0.0665604"
       d="m 7.7379712,41.05615 c -0.6803775,0.120831 -0.691049,0.814274 -0.691049,0.814274 0.2663967,0.09443 0.7165206,-0.443234 0.691049,-0.814274 z" /><path
       id="path61"
       style="fill:#ccff00;fill-opacity:1;stroke-width:0.0699137"
       d="m 7.7567135,41.034246 c 0.00822,0.11974 -0.030811,0.255714 -0.096816,0.384159 l 1.2979612,1.257577 z" /><path
       id="path104"
       style="fill:#e8bbdc;fill-opacity:1;stroke-width:0.0665604"
       d="m 7.7379712,41.05615 c -0.6803775,0.120831 -0.691049,0.814274 -0.691049,0.814274 0.2663967,0.09443 0.7165206,-0.443234 0.691049,-0.814274 z" /><path
       id="path55-6-5"
       style="fill:#c97ab0;fill-opacity:1;stroke-width:0.0665604"
       d="m 7.7259715,41.195073 c -0.3573047,0.148344 -0.4587628,0.484031 -0.4873088,0.65474 0.2086648,-0.0946 0.4347649,-0.390177 0.4873088,-0.65474 z" /><g
       id="g105"
       transform="translate(0.65264785,0.21050198)"><path
         id="path94"
         style="fill:#e97ab0;fill-opacity:1;stroke-width:0.030536"
         d="M 6.5034541,40.674874 C 5.9641364,39.968619 6.2172547,39.671711 6.4890444,39.384447 l 0.2851096,0.534709 c -0.97517,-0.09924 0.0096,0.86028 0.01441,1.290428 z" /><g
         id="g104"><path
           id="path86"
           style="fill:#e8bbdc;fill-opacity:1;stroke-width:0.030536"
           d="m 6.1552974,41.042363 0.1380181,0.29037 C 5.259509,40.474654 5.4154991,41.087793 5.1959772,41.696673 5.3569434,40.267604 5.1783232,40.771852 6.155301,41.042361 Z" /><path
           id="path88"
           style="fill:#ccff00;fill-opacity:1;stroke-width:0.0158734"
           d="M 6.5535747,41.014039 6.7625568,41.243863 6.433123,41.347335 6.2241409,41.117511 Z" /><path
           id="path89"
           style="fill:#c7e93a;fill-opacity:1;stroke-width:0.0140957"
           d="m 5.8959068,39.982363 -0.097796,-0.257926 0.3058533,0.02181 0.097796,0.257925 z" /><path
           id="path90"
           style="fill:#e8bbdc;fill-opacity:1;stroke-width:0.0140957"
           d="m 7.0912765,40.120327 -0.2478874,0.121002 -0.00629,-0.306566 0.2478874,-0.121002 z" /><path
           id="path91"
           style="fill:#8fb300;fill-opacity:1;stroke-width:0.0155499"
           d="M 6.0139521,41.074186 5.8082676,40.849924 6.1305505,40.747181 6.3362352,40.971442 Z" /><path
           id="path92"
           style="fill:#c97ab0;fill-opacity:1;stroke-width:0.0155499"
           d="M 5.5246105,41.291255 5.3153236,41.070352 5.6359015,40.962406 5.8451886,41.183309 Z" /><path
           id="path93"
           style="fill:#8fb300;fill-opacity:1;stroke-width:0.0128014"
           d="m 5.3985823,40.482856 -0.1397742,-0.207897 0.2749928,-0.0439 0.1397743,0.207897 z" /><path
           id="path95"
           style="fill:#c97ab0;fill-opacity:1;stroke-width:0.0155499"
           d="M 6.7323365,41.086942 6.460498,40.950183 6.7254105,40.739841 6.9972492,40.8766 Z" /><path
           id="path96"
           style="fill:#ccff00;fill-opacity:1;stroke-width:0.030536"
           d="M 5.8475121,41.701163 5.665675,41.482807 c 1.2424289,-0.511298 0.092105,-1.26442 -0.1176826,-1.606781 0.8599465,0.901535 0.9962321,1.088759 0.2995197,1.825137 z" /><path
           id="path97"
           style="fill:#b4e100;fill-opacity:1;stroke-width:0.0155499"
           d="M 6.2511105,41.75423 5.979272,41.617471 6.2441845,41.407128 6.5160232,41.543887 Z" /><path
           id="path98"
           style="fill:#e97ab0;fill-opacity:1;stroke-width:0.0171228"
           d="m 6.0694177,40.707829 -0.123076,-0.31166 0.3718647,0.02141 0.1230763,0.311661 z" /><path
           id="path99"
           style="fill:#8fb300;fill-opacity:1;stroke-width:0.00608134"
           d="m 6.665312,41.474419 -0.081072,-0.08712 0.1257425,-0.0411 0.081072,0.08712 z" /><path
           id="path100"
           style="fill:#b4e100;fill-opacity:1;stroke-width:0.00608134"
           d="m 6.9765799,40.677001 0.068145,-0.09756 0.066604,0.1143 -0.068145,0.09756 z" /><path
           id="path101"
           style="fill:#e97ab0;fill-opacity:1;stroke-width:0.012678"
           d="m 6.1065681,42.072426 -0.216452,0.121251 -0.021221,-0.274972 0.2164521,-0.121252 z" /><path
           id="path102"
           style="fill:#ccff00;fill-opacity:1;stroke-width:0.012678"
           d="M 6.5217866,42.124559 6.3053346,42.24581 6.2841136,41.970838 6.5005657,41.849586 Z" /></g></g></g></svg>
