<?xml version="1.0" encoding="UTF-8" standalone="no"?>
<!-- Created with Inkscape (http://www.inkscape.org/) -->

<svg
   width="32.3974mm"
   height="40.083572mm"
   viewBox="0 0 32.397399 40.083572"
   version="1.1"
   id="svg5"
   xml:space="preserve"
   sodipodi:docname="alchemicats.svg"
   inkscape:version="1.3 (0e150ed6c4, 2023-07-21)"
   inkscape:export-filename="../Socials/badshots-social-icon.jpg"
   inkscape:export-xdpi="379.45383"
   inkscape:export-ydpi="379.45383"
   xmlns:inkscape="http://www.inkscape.org/namespaces/inkscape"
   xmlns:sodipodi="http://sodipodi.sourceforge.net/DTD/sodipodi-0.dtd"
   xmlns="http://www.w3.org/2000/svg"
   xmlns:svg="http://www.w3.org/2000/svg"><sodipodi:namedview
     id="namedview223"
     pagecolor="#ffffff"
     bordercolor="#666666"
     borderopacity="1.0"
     inkscape:showpageshadow="2"
     inkscape:pageopacity="0.0"
     inkscape:pagecheckerboard="0"
     inkscape:deskcolor="#d1d1d1"
     inkscape:document-units="mm"
     showgrid="false"
     inkscape:zoom="11.313709"
     inkscape:cx="304.8514"
     inkscape:cy="200.50896"
     inkscape:window-width="1920"
     inkscape:window-height="961"
     inkscape:window-x="0"
     inkscape:window-y="27"
     inkscape:window-maximized="1"
     inkscape:current-layer="svg5"
     showguides="true"
     inkscape:export-bgcolor="#00000000"><sodipodi:guide
       position="-261.08655,-606.73025"
       orientation="0,-1"
       id="guide469"
       inkscape:locked="false" /><sodipodi:guide
       position="-272.3831,-630.09356"
       orientation="0,-1"
       id="guide471"
       inkscape:locked="false" /><sodipodi:guide
       position="-287.78748,-658.33492"
       orientation="0,-1"
       id="guide473"
       inkscape:locked="false" /><sodipodi:guide
       position="-283.80801,-673.86767"
       orientation="0,-1"
       id="guide475"
       inkscape:locked="false" /><sodipodi:guide
       position="-172.22141,-677.36602"
       orientation="0,-1"
       id="guide15194"
       inkscape:locked="false" /><sodipodi:guide
       position="-98.745779,-239.44193"
       orientation="0,-1"
       id="guide868"
       inkscape:locked="false" /><sodipodi:guide
       position="-66.423159,-92.061409"
       orientation="0,-1"
       id="guide8933"
       inkscape:locked="false" /><sodipodi:guide
       position="-51.957269,-121.89297"
       orientation="0,-1"
       id="guide8935"
       inkscape:locked="false" /><sodipodi:guide
       position="-61.634619,-110.01843"
       orientation="0,-1"
       id="guide8937"
       inkscape:locked="false" /></sodipodi:namedview><defs
     id="defs2"><inkscape:path-effect
       effect="spiro"
       id="path-effect257"
       is_visible="true"
       lpeversion="1" /><inkscape:path-effect
       effect="spiro"
       id="path-effect255"
       is_visible="true"
       lpeversion="1" /><inkscape:path-effect
       effect="spiro"
       id="path-effect200"
       is_visible="true"
       lpeversion="1" /><inkscape:path-effect
       effect="spiro"
       id="path-effect194"
       is_visible="true"
       lpeversion="1" /><inkscape:path-effect
       effect="spiro"
       id="path-effect186-3"
       is_visible="true"
       lpeversion="1" /><inkscape:path-effect
       effect="spiro"
       id="path-effect188-6"
       is_visible="true"
       lpeversion="1" /><inkscape:path-effect
       effect="spiro"
       id="path-effect190-7"
       is_visible="true"
       lpeversion="1" /><inkscape:path-effect
       effect="spiro"
       id="path-effect192-5"
       is_visible="true"
       lpeversion="1" /></defs><g
     id="g258"
     transform="matrix(3.2835416,0,0,3.2835416,-237.26593,-156.23862)"><path
       style="fill:#e97ab0;fill-opacity:1;stroke-width:0.264583"
       d="m 64.448118,48.493158 c 0.403572,0.365873 0.711082,0.836792 0.883783,1.353424 0.172702,0.516631 0.210205,1.077809 0.107786,1.612827 -0.05647,0.294975 -0.154175,0.580279 -0.254338,0.863416 -0.259504,0.733554 -0.540814,1.475713 -0.572902,2.253154 -0.01604,0.388721 0.0323,0.783231 0.173106,1.145908 0.140806,0.362678 0.377245,0.692491 0.695215,0.91667 0.294106,0.207354 0.652358,0.319477 1.012107,0.328082 0.35975,0.0086 0.719947,-0.08491 1.03571,-0.2575 0.631524,-0.345184 1.065143,-0.998513 1.222513,-1.700802 0.15737,-0.702289 0.05604,-1.446564 -0.201204,-2.118724 -0.257246,-0.672161 -0.664184,-1.278101 -1.120801,-1.834407 -0.835462,-1.017861 -1.849109,-1.889058 -2.980975,-2.56205 z"
       id="path255"
       transform="matrix(0.15778955,0.42950545,-0.41575156,0.12351748,90.025653,20.121948)"
       sodipodi:nodetypes="sssssss"
       inkscape:original-d="m 64.448118,48.493158 c -0.246658,-0.01847 0.308309,2.299876 0.991569,2.966251 0.683262,0.666377 -4.332304,1.187574 -0.254338,0.863416 1.136787,-0.09036 0.07443,4.893191 0.295419,4.315732 0.06931,-0.181118 1.346073,-3.720478 1.948325,-5.583351 0.236192,-0.730584 -0.247926,-2.357505 -2.980975,-2.56205 z"
       inkscape:path-effect="#path-effect257"
       inkscape:export-filename="../Socials/campfire.svg"
       inkscape:export-xdpi="2540.5229"
       inkscape:export-ydpi="2540.5229" /><path
       id="path110"
       style="fill:#e9afaf;fill-opacity:1;stroke-width:0.0155499"
       d="m 78.710391,50.545639 -0.209287,-0.220903 0.320578,-0.107945 0.209287,0.220903 z" /><path
       id="path111"
       style="fill:#8fb300;fill-opacity:1;stroke-width:0.0128014"
       d="m 78.822786,48.106277 -0.244925,-0.05263 0.167475,-0.222486 0.244926,0.05263 z" /><path
       id="path113"
       style="fill:#c97ab0;fill-opacity:1;stroke-width:0.0155499"
       d="m 74.723908,51.253118 -0.223561,0.206445 -0.103838,-0.321932 0.223562,-0.206445 z"
       inkscape:export-filename="../Socials/campfire.svg"
       inkscape:export-xdpi="2540.5229"
       inkscape:export-ydpi="2540.5229" /><path
       id="path120"
       style="fill:#ccff00;fill-opacity:1;stroke-width:0.012678"
       d="m 75.54945,50.278723 -0.216452,0.121251 -0.02122,-0.274972 0.216452,-0.121252 z" /><path
       id="path183"
       style="fill:#cd84b5;fill-opacity:1;stroke-width:0.263848"
       d="m 72.535518,55.974064 -0.0069,2.158154 4.068663,0.01295 0.069,2.23e-4 6.5e-5,-0.0063 c 0.373235,-0.05133 0.659846,-0.514776 0.662153,-1.070706 0.0017,-0.55633 -0.282152,-1.022206 -0.655321,-1.075945 l -2.4e-5,-0.0053 -0.06901,-2.15e-4 c -1.602521,0.213484 -2.787647,0.05795 -4.068593,-0.01287 z"
       sodipodi:nodetypes="cccccccccc" /><path
       id="ellipse184"
       style="fill:#e8bbdc;fill-opacity:1;stroke-width:0.167034"
       d="m 72.614431,55.380388 a 1.0791767,0.28326654 90 0 0 -0.282892,1.07925 1.0791767,0.28326654 90 0 0 0.282983,1.079276 1.0791767,0.28326654 90 0 0 0.283409,-1.079254 1.0791767,0.28326654 90 0 0 -0.06337,-0.680061 l -0.07236,-0.0051 -0.164867,-0.01157 0.09337,-0.137189 0.06654,-0.09718 a 1.0791767,0.28326654 90 0 0 -0.142815,-0.148178 z"
       transform="matrix(0.9999666,0.00817329,-0.00123925,0.99999923,0,0)" /><path
       style="fill:#e97ab0;fill-opacity:1;stroke-width:0.264583"
       d="m 64.448118,48.493158 c 0.403572,0.365873 0.711082,0.836792 0.883783,1.353424 0.172702,0.516631 0.210205,1.077809 0.107786,1.612827 -0.05647,0.294975 -0.154175,0.580279 -0.254338,0.863416 -0.259504,0.733554 -0.540814,1.475713 -0.572902,2.253154 -0.01604,0.388721 0.0323,0.783231 0.173106,1.145908 0.140806,0.362678 0.377245,0.692491 0.695215,0.91667 0.294106,0.207354 0.652358,0.319477 1.012107,0.328082 0.35975,0.0086 0.719947,-0.08491 1.03571,-0.2575 0.631524,-0.345184 1.065143,-0.998513 1.222513,-1.700802 0.15737,-0.702289 0.05604,-1.446564 -0.201204,-2.118724 -0.257246,-0.672161 -0.664184,-1.278101 -1.120801,-1.834407 -0.835462,-1.017861 -1.849109,-1.889058 -2.980975,-2.56205 z"
       id="path253"
       transform="matrix(-0.26392179,0.37378839,0.36940721,0.22725369,73.918364,16.814765)"
       sodipodi:nodetypes="sssssss"
       inkscape:original-d="m 64.448118,48.493158 c -0.246658,-0.01847 0.308309,2.299876 0.991569,2.966251 0.683262,0.666377 -4.332304,1.187574 -0.254338,0.863416 1.136787,-0.09036 0.07443,4.893191 0.295419,4.315732 0.06931,-0.181118 1.346073,-3.720478 1.948325,-5.583351 0.236192,-0.730584 -0.247926,-2.357505 -2.980975,-2.56205 z"
       inkscape:path-effect="#path-effect255" /><path
       style="fill:#d056b0;fill-opacity:1;stroke-width:0.264583"
       d="m 76.355235,54.993891 c 0.09144,-0.173135 0.305097,-0.290664 0.501656,-0.415972 0,0 0.352771,0.303937 0.313909,0.333853 -0.03886,0.02992 -0.534582,0.33527 -0.534582,0.33527 z"
       id="path252"
       sodipodi:nodetypes="ccscc" /><path
       id="path177"
       style="fill:#8fb300;fill-opacity:1;stroke-width:0.311595"
       d="m 73.092955,57.429602 1.183649,2.257194 c 1.432304,-0.758141 2.863706,-1.51535 4.255377,-2.231476 l 0.07216,-0.03784 -0.0033,-0.0066 c 0.361384,-0.259538 0.404927,-0.901585 0.100588,-1.483323 -0.305305,-0.581764 -0.858635,-0.911636 -1.277927,-0.761841 l -0.003,-0.0055 -0.07216,0.03785 c -1.24858,0.828307 -2.407226,1.701337 -4.255356,2.231501 z"
       sodipodi:nodetypes="cccccccccc" /><path
       id="ellipse178"
       style="fill:#b4e100;stroke-width:0.316119"
       transform="rotate(-27.672054)"
       d="m 38.920546,86.08033 c 0.06339,0.701012 -0.384634,1.274474 -0.859103,1.274474 -0.474469,0 -0.859103,-0.570601 -0.859103,-1.274474 0,-0.703873 0.415868,-1.443779 0.859103,-1.274474 0.359859,0.137458 0.801683,0.639468 0.859103,1.274474 z"
       sodipodi:nodetypes="sssss" /><path
       id="ellipse179"
       style="fill:#c7e93a;stroke-width:0.232915"
       d="m 38.19918,85.180817 c -0.04441,-0.02237 -0.09053,-0.03604 -0.137923,-0.03965 -0.348577,-0.02652 -0.632537,0.420571 -0.632537,0.939179 0,0.518607 0.282948,0.939123 0.632533,0.939123 0.349585,0 0.716494,-0.427517 0.633234,-0.939397 -0.0333,-0.204743 -0.09832,-0.400942 -0.185401,-0.56111 l -0.13123,0.05664 0.01843,-0.164221 0.0064,-0.05558 c -0.06168,-0.0776 -0.130367,-0.138142 -0.203495,-0.174981 z"
       transform="rotate(-27.672054)" /><path
       id="path184"
       style="fill:#8fb300;fill-opacity:1;stroke-width:0.263848"
       d="m 81.849483,55.331844 0.0069,2.158154 -4.068662,0.01295 -0.069,2.22e-4 -6.5e-5,-0.0063 c -0.373234,-0.05133 -0.659846,-0.514776 -0.662153,-1.070706 -0.0017,-0.556331 0.282153,-1.022207 0.655322,-1.075946 l 2.4e-5,-0.0053 0.06901,-2.15e-4 c 1.356197,0.205867 2.712396,0.103158 4.068593,-0.01287 z"
       sodipodi:nodetypes="cccccccccc" /><path
       style="fill:#b4e100;fill-opacity:1;stroke-width:0.264583"
       d="m 64.448118,48.493158 c 0.696753,-0.0457 1.407673,0.261658 1.851677,0.800558 0.444005,0.538901 0.609683,1.29549 0.431529,1.970631 -0.152268,0.577042 -0.530983,1.068346 -0.950257,1.493049 -0.419274,0.424703 -0.887836,0.800654 -1.282619,1.248213 -0.394783,0.44756 -0.719558,0.987026 -0.772944,1.581428 -0.02669,0.297201 0.01715,0.60309 0.145184,0.872623 0.128035,0.269533 0.342639,0.500642 0.611329,0.630437 0.129768,0.06269 0.273218,0.101862 0.417179,0.0952 0.143961,-0.0067 0.288305,-0.06216 0.387549,-0.166656 0.09873,-0.103953 0.145574,-0.245152 0.194023,-0.38008 0.338111,-0.94163 0.883258,-1.79285 1.318642,-2.693643 0.435384,-0.900793 0.76662,-1.89863 0.629683,-2.889708 -0.08168,-0.591171 -0.333328,-1.15998 -0.727325,-1.608223 -0.393997,-0.448243 -0.93034,-0.772481 -1.513682,-0.898447 -0.242542,-0.05237 -0.492332,-0.07107 -0.739968,-0.05538 z"
       id="path187-6"
       transform="matrix(-1,0,0,0.92248142,143.13619,3.4329147)"
       sodipodi:nodetypes="sssssssss"
       inkscape:original-d="m 64.448118,48.493158 c -0.246658,-0.01847 1.599946,2.104814 2.283206,2.771189 0.683262,0.666377 -2.46195,4.010825 -2.249307,5.82575 0.115387,0.984836 1.047577,-0.517816 0.804728,-0.07146 -0.305387,0.561306 0.12471,-0.198962 0.194023,-0.38008 0.06931,-0.181118 1.346073,-3.720478 1.948325,-5.583351 0.60225,-1.86287 -1.494004,-1.671113 -2.241007,-2.50667 -0.747001,-0.835557 -0.493313,-0.03692 -0.739968,-0.05538 z"
       inkscape:path-effect="#path-effect188-6" /><path
       id="ellipse185"
       style="fill:#c7e93a;fill-opacity:1;stroke-width:0.167034"
       d="m -81.774849,56.000436 a 0.28326654,1.0791767 0 0 1 0.275966,0.837487 l -10e-4,0.0021 -0.0016,-0.0021 -0.07682,0.147389 -0.0763,0.147385 0.162776,-0.008 a 0.28326654,1.0791767 0 0 1 -0.282948,1.033775 0.28326654,1.0791767 0 0 1 -0.282984,-1.079276 0.28326654,1.0791767 0 0 1 0.282893,-1.078733 z"
       transform="matrix(-0.9999666,0.00817329,0.00123925,0.99999923,0,0)" /><path
       id="path181"
       style="fill:#cd84b5;fill-opacity:1;stroke-width:0.311595"
       d="m 81.296435,57.700752 -1.722042,1.878968 c -1.249019,-1.13465 -2.545736,-2.305988 -3.542325,-3.246483 l -0.06007,-0.05505 0.0049,-0.0055 c -0.282901,-0.343403 -0.160631,-0.975202 0.28249,-1.459646 0.0953,-0.103914 0.398676,0.246011 0.50589,0.171582 0.197723,-0.13726 -0.482613,-0.387379 -0.335631,-0.523435 0.144707,-0.133947 1.117129,-0.155697 1.260114,-0.05746 l 0.0043,-0.0045 0.06007,0.05506 c 0.623107,1.076125 1.443326,2.154387 3.542297,3.246501 z"
       sodipodi:nodetypes="ccccccsscccc" /><path
       id="ellipse182"
       style="fill:#e97ab0;stroke-width:0.316119"
       d="m 79.802234,58.060002 c -0.398158,0.483849 -0.428549,1.131972 -0.227751,1.520024 0.218052,0.421395 1.018876,0.159794 1.494449,-0.359116 0.475573,-0.51891 0.57754,-1.199447 0.227751,-1.520023 -0.349789,-0.320576 -1.047197,-0.184394 -1.494449,0.359115 z"
       sodipodi:nodetypes="sssss" /><path
       id="ellipse183"
       style="fill:#e8bbdc;stroke-width:0.231229"
       d="m 80.694299,57.829028 c -0.240042,0.0074 -0.515542,0.14017 -0.721919,0.387057 -0.320092,0.38293 -0.2861,0.893633 -0.166915,1.11156 0.166529,0.304493 0.745611,0.117045 1.093473,-0.262516 0.02764,-0.03016 0.05335,-0.06103 0.07752,-0.0925 l -0.0031,-0.0021 -0.131775,-0.100769 0.152962,-0.06305 0.115756,-0.04806 c 0.15288,-0.309406 0.145785,-0.630821 -0.04496,-0.805635 -0.09595,-0.08793 -0.227011,-0.128461 -0.371037,-0.124024 z" /><path
       id="path260"
       style="fill:#86a800;fill-opacity:1;stroke-width:0.0295671"
       d="m 80.6419,55.707481 c -0.133457,0.04737 -0.191531,-0.0024 -0.228443,-0.07939 0.0519,-0.151477 0.1052,-0.308489 0.149673,-0.430674 l 0.0025,-0.0073 6.64e-4,2.18e-4 c 0.01928,-0.03756 0.07892,-0.05066 0.13779,-0.03026 0.01264,0.0044 -0.0064,0.04398 0.0041,0.05053 0.01939,0.01207 0.01561,-0.05661 0.03299,-0.04892 0.01711,0.0076 0.05556,0.09148 0.05238,0.107626 l 5.5e-4,2.09e-4 -0.0025,0.0073 c -0.07033,0.09474 -0.133437,0.206742 -0.149676,0.430671 z"
       sodipodi:nodetypes="ccccccssccccc" /><path
       style="fill:#89ac00;fill-opacity:1;stroke-width:0.264583"
       d="m 76.618789,56.881471 1.105713,1.00067 -3.379465,1.76841 c 0.401753,-0.351939 0.413351,-1.052492 0.06672,-1.543589 0.919066,-0.228768 1.737479,-0.591998 2.207028,-1.225491 z"
       id="path261"
       sodipodi:nodetypes="cccccc" /><path
       style="fill:#c97ab0;fill-opacity:1;stroke-width:0.264583"
       d="m 76.760215,55.016751 c 0.894381,1.510108 2.02148,2.175783 3.113563,2.972803 -0.322446,0.345516 -0.533909,0.665604 -0.343072,1.533834 l -3.707259,-3.389386 c -0.03166,-0.54383 0.102167,-1.184649 0.480858,-1.31194 0.131501,-0.0442 0.244157,0.157429 0.45591,0.194689 z"
       id="path262"
       sodipodi:nodetypes="ccccsc" /><path
       style="fill:#c97ab0;fill-opacity:1;stroke-width:0.264583"
       d="m 72.774383,56.379504 c 1.359799,0.111265 2.439802,0.06609 3.090333,-0.219226 -0.721002,0.558619 -1.703532,0.941836 -2.778101,1.263324 l -0.286506,0.04108 z"
       id="path263"
       sodipodi:nodetypes="ccccc" /><path
       style="fill:#89ac00;fill-opacity:1;stroke-width:0.264583"
       d="m 78.748561,55.846836 c 0.997498,0.32932 2.022128,0.710932 2.794606,0.606574 l 0.257633,1.011335 -0.874806,0.0266 c -1.066548,-0.576663 -1.712393,-1.118146 -2.177433,-1.644509 z"
       id="path264"
       sodipodi:nodetypes="ccccc" /><path
       id="path64"
       style="fill:#c97ab0;fill-opacity:1;stroke-width:0.0155499"
       d="m 76.325973,50.707662 -0.223561,0.206445 -0.103838,-0.321932 0.223562,-0.206445 z" /><path
       id="path72"
       style="fill:#ccff00;fill-opacity:1;stroke-width:0.012678"
       d="m 81.714017,49.747613 -0.216452,0.121251 -0.02122,-0.274972 0.216452,-0.121252 z" /><path
       id="path85"
       style="fill:#ccff00;fill-opacity:1;stroke-width:0.028198"
       d="m 80.036486,53.576602 -0.481425,0.269682 -0.0472,-0.611583 0.481425,-0.269685 z" /><path
       id="path87"
       style="fill:#e8bbdc;fill-opacity:1;stroke-width:0.028198"
       d="m 74.609271,52.813306 -0.06897,0.547486 -0.52006,-0.325266 0.06897,-0.547488 z" /><path
       id="path143"
       style="fill:#e8bbdc;fill-opacity:1;stroke-width:0.028198"
       d="m 74.078382,55.256692 -0.457793,0.308096 -0.09698,-0.605685 0.457795,-0.308097 z" /><path
       id="path144"
       style="fill:#ccff00;fill-opacity:1;stroke-width:0.028198"
       d="m 78.983598,56.049419 0.23822,0.497745 -0.613352,0.0078 -0.238223,-0.497745 z" /><path
       id="path145"
       style="fill:#ccff00;fill-opacity:1;stroke-width:0.012678"
       d="m 79.231315,49.986399 -0.216452,0.121251 -0.02122,-0.274972 0.216452,-0.121252 z" /><path
       id="path108"
       style="fill:#e97ab0;fill-opacity:1;stroke-width:0.0140957"
       d="m 77.452484,52.121275 -0.266168,0.07242 0.05125,-0.302317 0.266167,-0.07242 z" /><path
       style="fill:#c7e93a;fill-opacity:1;stroke-width:0.264583"
       d="m 64.448118,48.493158 c 0.696753,-0.0457 1.407673,0.261658 1.851677,0.800558 0.444005,0.538901 0.609683,1.29549 0.431529,1.970631 -0.152268,0.577042 -0.530983,1.068346 -0.950257,1.493049 -0.419274,0.424703 -0.887836,0.800654 -1.282619,1.248213 -0.394783,0.44756 -0.719558,0.987026 -0.772944,1.581428 -0.02669,0.297201 0.01715,0.60309 0.145184,0.872623 0.128035,0.269533 0.342639,0.500642 0.611329,0.630437 0.129768,0.06269 0.273218,0.101862 0.417179,0.0952 0.143961,-0.0067 0.288305,-0.06216 0.387549,-0.166656 0.09873,-0.103953 0.145574,-0.245152 0.194023,-0.38008 0.338111,-0.94163 0.883258,-1.79285 1.318642,-2.693643 0.435384,-0.900793 0.76662,-1.89863 0.629683,-2.889708 -0.08168,-0.591171 -0.333328,-1.15998 -0.727325,-1.608223 -0.393997,-0.448243 -0.93034,-0.772481 -1.513682,-0.898447 -0.242542,-0.05237 -0.492332,-0.07107 -0.739968,-0.05538 z"
       id="path188-2"
       transform="matrix(-0.43975628,0.21899287,0.17895635,0.53813956,94.094165,11.252703)"
       sodipodi:nodetypes="sssssssss"
       inkscape:original-d="m 64.448118,48.493158 c -0.246658,-0.01847 1.599946,2.104814 2.283206,2.771189 0.683262,0.666377 -2.46195,4.010825 -2.249307,5.82575 0.115387,0.984836 1.047577,-0.517816 0.804728,-0.07146 -0.305387,0.561306 0.12471,-0.198962 0.194023,-0.38008 0.06931,-0.181118 1.346073,-3.720478 1.948325,-5.583351 0.60225,-1.86287 -1.494004,-1.671113 -2.241007,-2.50667 -0.747001,-0.835557 -0.493313,-0.03692 -0.739968,-0.05538 z"
       inkscape:path-effect="#path-effect190-7" /><path
       style="fill:#e8bbdc;fill-opacity:1;stroke-width:0.264583"
       d="m 64.448118,48.493158 c 0.696753,-0.0457 1.407673,0.261658 1.851677,0.800558 0.444005,0.538901 0.609683,1.29549 0.431529,1.970631 -0.152268,0.577042 -0.530983,1.068346 -0.950257,1.493049 -0.419274,0.424703 -0.887836,0.800654 -1.282619,1.248213 -0.394783,0.44756 -0.719558,0.987026 -0.772944,1.581428 -0.02669,0.297201 0.01715,0.60309 0.145184,0.872623 0.128035,0.269533 0.342639,0.500642 0.611329,0.630437 0.129768,0.06269 0.273218,0.101862 0.417179,0.0952 0.143961,-0.0067 0.288305,-0.06216 0.387549,-0.166656 0.09873,-0.103953 0.145574,-0.245152 0.194023,-0.38008 0.338111,-0.94163 0.883258,-1.79285 1.318642,-2.693643 0.435384,-0.900793 0.76662,-1.89863 0.629683,-2.889708 -0.08168,-0.591171 -0.333328,-1.15998 -0.727325,-1.608223 -0.393997,-0.448243 -0.93034,-0.772481 -1.513682,-0.898447 -0.242542,-0.05237 -0.492332,-0.07107 -0.739968,-0.05538 z"
       id="path186-5"
       transform="matrix(1,0,0,0.96099091,10.90512,1.26999)"
       sodipodi:nodetypes="sssssssss"
       inkscape:original-d="m 64.448118,48.493158 c -0.246658,-0.01847 1.599946,2.104814 2.283206,2.771189 0.683262,0.666377 -2.46195,4.010825 -2.249307,5.82575 0.115387,0.984836 1.047577,-0.517816 0.804728,-0.07146 -0.305387,0.561306 0.12471,-0.198962 0.194023,-0.38008 0.06931,-0.181118 1.346073,-3.720478 1.948325,-5.583351 0.60225,-1.86287 -1.494004,-1.671113 -2.241007,-2.50667 -0.747001,-0.835557 -0.493313,-0.03692 -0.739968,-0.05538 z"
       inkscape:path-effect="#path-effect186-3" /><path
       style="fill:#e9afaf;fill-opacity:1;stroke-width:0.264583"
       d="m 64.448118,48.493158 c 0.696753,-0.0457 1.407673,0.261658 1.851677,0.800558 0.444005,0.538901 0.609683,1.29549 0.431529,1.970631 -0.152268,0.577042 -0.530983,1.068346 -0.950257,1.493049 -0.419274,0.424703 -0.887836,0.800654 -1.282619,1.248213 -0.394783,0.44756 -0.719558,0.987026 -0.772944,1.581428 -0.02669,0.297201 0.01715,0.60309 0.145184,0.872623 0.128035,0.269533 0.342639,0.500642 0.611329,0.630437 0.129768,0.06269 0.273218,0.101862 0.417179,0.0952 0.143961,-0.0067 0.288305,-0.06216 0.387549,-0.166656 0.09873,-0.103953 0.145574,-0.245152 0.194023,-0.38008 0.338111,-0.94163 0.883258,-1.79285 1.318642,-2.693643 0.435384,-0.900793 0.76662,-1.89863 0.629683,-2.889708 -0.08168,-0.591171 -0.333328,-1.15998 -0.727325,-1.608223 -0.393997,-0.448243 -0.93034,-0.772481 -1.513682,-0.898447 -0.242542,-0.05237 -0.492332,-0.07107 -0.739968,-0.05538 z"
       id="path190-9"
       transform="matrix(0.80758844,0,0,0.63555316,25.05471,19.703145)"
       sodipodi:nodetypes="sssssssss"
       inkscape:original-d="m 64.448118,48.493158 c -0.246658,-0.01847 1.599946,2.104814 2.283206,2.771189 0.683262,0.666377 -2.46195,4.010825 -2.249307,5.82575 0.115387,0.984836 1.047577,-0.517816 0.804728,-0.07146 -0.305387,0.561306 0.12471,-0.198962 0.194023,-0.38008 0.06931,-0.181118 1.346073,-3.720478 1.948325,-5.583351 0.60225,-1.86287 -1.494004,-1.671113 -2.241007,-2.50667 -0.747001,-0.835557 -0.493313,-0.03692 -0.739968,-0.05538 z"
       inkscape:path-effect="#path-effect192-5" /><path
       style="fill:#e97ab0;fill-opacity:1;stroke-width:0.264583"
       d="m 64.448118,48.493158 c 0.520841,0.25538 0.932225,0.725597 1.116133,1.275753 0.183908,0.550157 0.137996,1.173239 -0.124564,1.690498 -0.198943,0.391928 -0.511044,0.715481 -0.846962,0.998933 -0.335918,0.283452 -0.69951,0.532747 -1.035403,0.816228 -0.335893,0.283482 -0.647942,0.607097 -0.84678,0.999078 -0.09942,0.195991 -0.169377,0.407905 -0.1955,0.626112 -0.02612,0.218206 -0.0077,0.442796 0.06375,0.650616 0.0718,0.208803 0.196296,0.398042 0.352541,0.554061 0.156245,0.156018 0.34374,0.279289 0.544857,0.370429 0.402233,0.182279 0.85211,0.235102 1.29371,0.232571 0.238496,-0.0014 0.477792,-0.01832 0.710872,-0.06888 0.546034,-0.118439 1.045173,-0.422581 1.425277,-0.832095 0.380104,-0.409515 0.643437,-0.920964 0.788268,-1.460599 0.289662,-1.079268 0.107975,-2.237352 -0.26522,-3.290657 -0.195147,-0.550782 -0.445406,-1.089185 -0.812895,-1.543492 -0.367489,-0.454307 -0.861182,-0.821637 -1.428112,-0.963178 -0.241139,-0.0602 -0.492554,-0.07902 -0.739968,-0.05538 z"
       id="path193"
       transform="matrix(-0.51661473,0,0,0.47656749,110.17013,29.362292)"
       sodipodi:nodetypes="sssssssss"
       inkscape:original-d="m 64.448118,48.493158 c -0.246658,-0.01847 0.308309,2.299876 0.991569,2.966251 0.683262,0.666377 -6.938865,4.415125 -2.860899,4.090967 0.913339,-0.0726 2.650744,1.299446 2.191108,1.157061 -0.663131,-0.205422 0.641559,0.112238 0.710872,-0.06888 0.06931,-0.181118 1.346073,-3.720478 1.948325,-5.583351 0.60225,-1.86287 -1.494004,-1.671113 -2.241007,-2.50667 -0.747001,-0.835557 -0.493313,-0.03692 -0.739968,-0.05538 z"
       inkscape:path-effect="#path-effect194" /><path
       style="fill:#ccff00;fill-opacity:1;stroke-width:0.264583"
       d="m 64.448118,48.493158 c 0.520841,0.25538 0.932225,0.725597 1.116133,1.275753 0.183908,0.550157 0.137996,1.173239 -0.124564,1.690498 -0.198943,0.391928 -0.511044,0.715481 -0.846962,0.998933 -0.335918,0.283452 -0.69951,0.532747 -1.035403,0.816228 -0.335893,0.283482 -0.647942,0.607097 -0.84678,0.999078 -0.09942,0.195991 -0.169377,0.407905 -0.1955,0.626112 -0.02612,0.218206 -0.0077,0.442796 0.06375,0.650616 0.0718,0.208803 0.196296,0.398042 0.352541,0.554061 0.156245,0.156018 0.34374,0.279289 0.544857,0.370429 0.402233,0.182279 0.85211,0.235102 1.29371,0.232571 0.238496,-0.0014 0.477792,-0.01832 0.710872,-0.06888 0.546034,-0.118439 1.045173,-0.422581 1.425277,-0.832095 0.380104,-0.409515 0.643437,-0.920964 0.788268,-1.460599 0.289662,-1.079268 0.107975,-2.237352 -0.26522,-3.290657 -0.195147,-0.550782 -0.445406,-1.089185 -0.812895,-1.543492 -0.367489,-0.454307 -0.861182,-0.821637 -1.428112,-0.963178 -0.241139,-0.0602 -0.492554,-0.07902 -0.739968,-0.05538 z"
       id="path199"
       transform="matrix(0.33660458,0,0,0.37227072,55.216532,35.241119)"
       sodipodi:nodetypes="sssssssss"
       inkscape:original-d="m 64.448118,48.493158 c -0.246658,-0.01847 0.308309,2.299876 0.991569,2.966251 0.683262,0.666377 -6.938865,4.415125 -2.860899,4.090967 0.913339,-0.0726 2.650744,1.299446 2.191108,1.157061 -0.663131,-0.205422 0.641559,0.112238 0.710872,-0.06888 0.06931,-0.181118 1.346073,-3.720478 1.948325,-5.583351 0.60225,-1.86287 -1.494004,-1.671113 -2.241007,-2.50667 -0.747001,-0.835557 -0.493313,-0.03692 -0.739968,-0.05538 z"
       inkscape:path-effect="#path-effect200" /><path
       id="path227"
       style="fill:#e8bbdc;fill-opacity:1;stroke-width:0.0155499"
       d="m 75.018064,47.911197 -0.209287,-0.220903 0.320578,-0.107945 0.209287,0.220903 z" /><path
       id="path257"
       style="fill:#ccff00;fill-opacity:1;stroke-width:0.0182055"
       d="m 75.741553,56.998034 -0.348296,-0.07494 0.238285,-0.316325 0.348298,0.07494 z" /><path
       id="path258"
       style="fill:#e97ab0;fill-opacity:1;stroke-width:0.0182055"
       d="m 77.605747,56.948478 0.02084,-0.355658 0.349023,0.187147 -0.02083,0.35566 z" /></g></svg>
