<?xml version="1.0" encoding="UTF-8" standalone="no"?>
<!-- Created with Inkscape (http://www.inkscape.org/) -->

<svg width="13.246357mm" height="11.684768mm" viewBox="0 0 13.246357 11.684768" version="1.1" id="svg5"
  xml:space="preserve" xmlns:xlink="http://www.w3.org/1999/xlink" xmlns="http://www.w3.org/2000/svg"
  xmlns:svg="http://www.w3.org/2000/svg">
  <defs id="defs2">
    <linearGradient id="linearGradient2046">
      <stop style="stop-color:#eaff24;stop-opacity:1;" offset="0" id="stop2045" />
      <stop style="stop-color:#ff64ad;stop-opacity:1;" offset="1" id="stop2046" />
    </linearGradient>
    <radialGradient xlink:href="#linearGradient2046" id="radialGradient2045" gradientUnits="userSpaceOnUse"
      cx="11.140412" cy="27.065235" fx="11.140412" fy="27.065235" r="6.5998154"
      gradientTransform="translate(74.457894,21.716455)" />
    <filter style="color-interpolation-filters:sRGB" id="filter2045" x="-0.21109348" y="-0.21109348" width="1.422187"
      height="1.422187">
      <feGaussianBlur stdDeviation="1.1609816" id="feGaussianBlur2045" />
    </filter>
  </defs>
  <g id="g374" transform="translate(-75.923851,-40.986443)">
    <path style="fill:#e97ab0;fill-opacity:1;stroke-width:0.264583"
      d="m 64.448118,48.493158 c 0.403572,0.365873 0.711082,0.836792 0.883783,1.353424 0.172702,0.516631 0.210205,1.077809 0.107786,1.612827 -0.05647,0.294975 -0.154175,0.580279 -0.254338,0.863416 -0.259504,0.733554 -0.540814,1.475713 -0.572902,2.253154 -0.01604,0.388721 0.0323,0.783231 0.173106,1.145908 0.140806,0.362678 0.377245,0.692491 0.695215,0.91667 0.294106,0.207354 0.652358,0.319477 1.012107,0.328082 0.35975,0.0086 0.719947,-0.08491 1.03571,-0.2575 0.631524,-0.345184 1.065143,-0.998513 1.222513,-1.700802 0.15737,-0.702289 0.05604,-1.446564 -0.201204,-2.118724 -0.257246,-0.672161 -0.664184,-1.278101 -1.120801,-1.834407 -0.835462,-1.017861 -1.849109,-1.889058 -2.980975,-2.56205 z"
      id="path255" transform="matrix(0.11853788,0.32266185,-0.31232937,0.09279132,92.216465,22.348029)" />
    <path id="path110" style="fill:#e9afaf;fill-opacity:1;stroke-width:0.0116817"
      d="m 83.715983,45.203534 -0.157225,-0.165951 0.240831,-0.08109 0.157225,0.165952 z" />
    <path id="path111" style="fill:#8fb300;fill-opacity:1;stroke-width:0.00961693"
      d="m 86.509963,46.200104 -0.183998,-0.03954 0.125814,-0.16714 0.183999,0.03954 z" />
    <path id="path113" style="fill:#c97ab0;fill-opacity:1;stroke-width:0.0116817"
      d="m 80.721176,45.735021 -0.167948,0.15509 -0.07801,-0.241848 0.167949,-0.15509 z" />
    <path id="path120" style="fill:#ccff00;fill-opacity:1;stroke-width:0.00952423"
      d="m 81.341357,45.003016 -0.162608,0.09109 -0.01594,-0.20657 0.162607,-0.09109 z" />
    <path id="path183" style="fill:#cd84b5;fill-opacity:1;stroke-width:0.198213"
      d="m 79.077169,49.281587 -0.0052,1.621292 3.056544,0.0097 0.05183,1.67e-4 4.9e-5,-0.0047 c 0.280389,-0.03856 0.495703,-0.38672 0.497436,-0.804357 0.0013,-0.417938 -0.211964,-0.767923 -0.492304,-0.808294 l -1.8e-5,-0.004 -0.05184,-1.62e-4 c -1.203878,0.160378 -2.094193,0.04353 -3.056491,-0.0097 z" />
    <path id="ellipse184" style="fill:#e8bbdc;fill-opacity:1;stroke-width:0.125481"
      d="m 79.083072,49.281421 a 0.21279578,0.81072256 0.04160664 0 0 -0.213518,0.809039 0.21279578,0.81072256 0.04160664 0 0 0.211576,0.812532 0.21279578,0.81072256 0.04160664 0 0 0.213906,-0.809038 0.21279578,0.81072256 0.04160664 0 0 -0.04697,-0.511278 l -0.05435,-0.0043 -0.12384,-0.0097 0.07027,-0.102489 0.05008,-0.0726 a 0.21279578,0.81072256 0.04160664 0 0 -0.107147,-0.112194 z" />
    <path style="fill:#e97ab0;fill-opacity:1;stroke-width:0.264583"
      d="m 64.448118,48.493158 c 0.403572,0.365873 0.711082,0.836792 0.883783,1.353424 0.172702,0.516631 0.210205,1.077809 0.107786,1.612827 -0.05647,0.294975 -0.154175,0.580279 -0.254338,0.863416 -0.259504,0.733554 -0.540814,1.475713 -0.572902,2.253154 -0.01604,0.388721 0.0323,0.783231 0.173106,1.145908 0.140806,0.362678 0.377245,0.692491 0.695215,0.91667 0.294106,0.207354 0.652358,0.319477 1.012107,0.328082 0.35975,0.0086 0.719947,-0.08491 1.03571,-0.2575 0.631524,-0.345184 1.065143,-0.998513 1.222513,-1.700802 0.15737,-0.702289 0.05604,-1.446564 -0.201204,-2.118724 -0.257246,-0.672161 -0.664184,-1.278101 -1.120801,-1.834407 -0.835462,-1.017861 -1.849109,-1.889058 -2.980975,-2.56205 z"
      id="path253" transform="matrix(-0.19826871,0.28080494,0.27751362,0.17072215,80.116019,19.863539)" />
    <path style="fill:#d056b0;fill-opacity:1;stroke-width:0.198765"
      d="m 81.946695,48.545241 c 0.06869,-0.130066 0.229201,-0.218359 0.376864,-0.312495 0,0 0.265016,0.22833 0.235821,0.250804 -0.02919,0.02248 -0.401599,0.251868 -0.401599,0.251868 z"
      id="path252" />
    <path id="path177" style="fill:#8fb300;fill-opacity:1;stroke-width:0.234083"
      d="m 79.495938,50.375045 0.889205,1.695696 c 1.076005,-0.569546 2.151332,-1.138392 3.196811,-1.676375 l 0.05421,-0.02843 -0.0025,-0.005 c 0.271486,-0.194976 0.304197,-0.677307 0.07557,-1.114332 -0.229358,-0.437045 -0.645042,-0.684858 -0.960031,-0.572326 l -0.0023,-0.0041 -0.05421,0.02843 c -0.937984,0.622258 -1.808405,1.278114 -3.196795,1.676394 z" />
    <path id="ellipse178" style="fill:#b4e100;stroke-width:0.237481"
      d="m 80.51195,50.923289 c 0.286747,0.444277 0.188741,0.982118 -0.126929,1.147652 -0.315671,0.165535 -0.770647,-0.0799 -1.016217,-0.548198 -0.24557,-0.468296 -0.227027,-1.105655 0.126931,-1.147652 0.287375,-0.0341 0.75647,0.145753 1.016215,0.548198 z" />
    <path id="ellipse179" style="fill:#c7e93a;stroke-width:0.174975"
      d="m 79.718191,50.576504 c -0.03735,6.11e-4 -0.0728,0.0076 -0.105596,0.02174 -0.241165,0.103969 -0.274105,0.500493 -0.09317,0.84553 0.180934,0.345037 0.515894,0.526096 0.748478,0.404131 0.232583,-0.121964 0.327539,-0.534406 0.09356,-0.845918 -0.09359,-0.124601 -0.205296,-0.23245 -0.319111,-0.308631 l -0.06755,0.08347 -0.04503,-0.115688 -0.01513,-0.03921 c -0.06811,-0.03011 -0.134931,-0.04643 -0.196436,-0.04542 z" />
    <path id="path184" style="fill:#8fb300;fill-opacity:1;stroke-width:0.198213"
      d="m 86.074196,48.799125 0.0052,1.621292 -3.056543,0.0097 -0.05183,1.67e-4 -4.9e-5,-0.0047 c -0.280389,-0.03856 -0.495703,-0.386721 -0.497436,-0.804358 -0.0013,-0.417938 0.211964,-0.767923 0.492304,-0.808294 l 1.8e-5,-0.004 0.05184,-1.62e-4 c 1.01883,0.154656 2.037662,0.0775 3.056492,-0.0097 z" />
    <path style="fill:#b4e100;fill-opacity:1;stroke-width:0.264583"
      d="m 64.448118,48.493158 c 0.696753,-0.0457 1.407673,0.261658 1.851677,0.800558 0.444005,0.538901 0.609683,1.29549 0.431529,1.970631 -0.152268,0.577042 -0.530983,1.068346 -0.950257,1.493049 -0.419274,0.424703 -0.887836,0.800654 -1.282619,1.248213 -0.394783,0.44756 -0.719558,0.987026 -0.772944,1.581428 -0.02669,0.297201 0.01715,0.60309 0.145184,0.872623 0.128035,0.269533 0.342639,0.500642 0.611329,0.630437 0.129768,0.06269 0.273218,0.101862 0.417179,0.0952 0.143961,-0.0067 0.288305,-0.06216 0.387549,-0.166656 0.09873,-0.103953 0.145574,-0.245152 0.194023,-0.38008 0.338111,-0.94163 0.883258,-1.79285 1.318642,-2.693643 0.435384,-0.900793 0.76662,-1.89863 0.629683,-2.889708 -0.08168,-0.591171 -0.333328,-1.15998 -0.727325,-1.608223 -0.393997,-0.448243 -0.93034,-0.772481 -1.513682,-0.898447 -0.242542,-0.05237 -0.492332,-0.07107 -0.739968,-0.05538 z"
      id="path187-6" transform="matrix(-0.7512404,0,0,0.69300531,132.11525,9.8105527)" />
    <path id="ellipse185" style="fill:#c7e93a;fill-opacity:1;stroke-width:0.125481"
      d="m 86.068211,48.799259 a 0.81072256,0.21279578 89.958393 0 0 -0.20653,0.630848 l 7.51e-4,0.0016 0.0012,-0.0016 0.05785,0.110253 0.05745,0.110253 -0.122288,-0.005 a 0.81072256,0.21279578 89.958393 0 0 0.213518,0.774875 0.81072256,0.21279578 89.958393 0 0 0.211577,-0.812533 0.81072256,0.21279578 89.958393 0 0 -0.213517,-0.80865 z" />
    <path id="path181" style="fill:#cd84b5;fill-opacity:1;stroke-width:0.234083"
      d="m 85.658724,50.578744 -1.293668,1.411557 C 83.426743,51.137906 82.452597,50.25795 81.703919,49.551412 l -0.04513,-0.04136 0.0037,-0.0041 c -0.212527,-0.257978 -0.120673,-0.732611 0.212218,-1.096545 0.07159,-0.07806 0.299501,0.184814 0.380045,0.128899 0.148537,-0.103115 -0.362559,-0.291014 -0.25214,-0.393225 0.10871,-0.100626 0.839233,-0.116966 0.946649,-0.04317 l 0.0032,-0.0034 0.04513,0.04136 c 0.468103,0.808429 1.084285,1.618463 2.661117,2.438903 z" />
    <path id="ellipse182" style="fill:#e97ab0;stroke-width:0.237481"
      d="m 84.53622,50.848627 c -0.299113,0.363487 -0.321944,0.850384 -0.171096,1.141904 0.163809,0.316569 0.765421,0.120044 1.12269,-0.269783 0.35727,-0.389826 0.433872,-0.901073 0.171096,-1.141902 -0.262775,-0.24083 -0.786696,-0.138525 -1.12269,0.269781 z" />
    <path id="ellipse183" style="fill:#e8bbdc;stroke-width:0.173709"
      d="m 85.206375,50.67511 c -0.180329,0.0056 -0.387296,0.105302 -0.542335,0.290773 -0.240466,0.287673 -0.21493,0.671333 -0.125393,0.835049 0.125103,0.228747 0.560133,0.08793 0.821461,-0.197213 0.02076,-0.02266 0.04008,-0.04585 0.05824,-0.06949 l -0.0023,-0.0016 -0.09899,-0.0757 0.114911,-0.04736 0.08696,-0.0361 c 0.114849,-0.232438 0.109519,-0.473898 -0.03378,-0.605226 -0.07208,-0.06606 -0.17054,-0.09651 -0.278738,-0.09317 z" />
    <path id="path260" style="fill:#86a800;fill-opacity:1;stroke-width:0.022212"
      d="m 85.167011,49.081319 c -0.100259,0.03559 -0.143886,-0.0018 -0.171616,-0.05964 0.03899,-0.113796 0.07903,-0.23175 0.112441,-0.32354 l 0.0019,-0.0055 4.98e-4,1.64e-4 c 0.01448,-0.02822 0.05929,-0.03806 0.103514,-0.02273 0.0095,0.0033 -0.0048,0.03304 0.0031,0.03796 0.01457,0.0091 0.01173,-0.04253 0.02478,-0.03675 0.01285,0.0057 0.04174,0.06872 0.03935,0.08085 l 4.14e-4,1.57e-4 -0.0019,0.0055 c -0.05283,0.07117 -0.100243,0.155313 -0.112442,0.323537 z" />
    <path style="fill:#7e9e00;fill-opacity:1;stroke-width:0.198765"
      d="m 82.144687,49.963267 0.830657,0.751744 -2.538791,1.328501 c 0.301813,-0.264391 0.310526,-0.790674 0.05012,-1.159606 0.690439,-0.17186 1.305264,-0.444733 1.658008,-0.920639 z"
      id="path261" />
    <path style="fill:#c46fa9;fill-opacity:1;stroke-width:0.198765"
      d="m 82.250932,48.562414 c 0.671895,1.134454 1.518618,1.634536 2.339035,2.23329 -0.242235,0.259566 -0.401095,0.500029 -0.25773,1.152278 l -2.785043,-2.546244 c -0.02378,-0.408547 0.07675,-0.889956 0.36124,-0.985582 0.09879,-0.03321 0.183421,0.118267 0.342498,0.146258 z"
      id="path262" />
    <path style="fill:#c46fa9;fill-opacity:1;stroke-width:0.198765"
      d="m 79.256614,49.586169 c 1.021536,0.08359 1.832878,0.04965 2.321583,-0.164691 -0.541646,0.419657 -1.279762,0.707545 -2.087022,0.94906 l -0.215234,0.03086 z"
      id="path263" />
    <path style="fill:#7e9e00;fill-opacity:1;stroke-width:0.198765"
      d="m 83.744658,49.186008 c 0.749361,0.247398 1.519104,0.534081 2.099421,0.455683 l 0.193544,0.759755 -0.657189,0.01998 C 84.5792,49.988217 84.094015,49.581433 83.744658,49.186008 Z"
      id="path264" />
    <path id="path64" style="fill:#c97ab0;fill-opacity:1;stroke-width:0.0116817"
      d="m 81.924712,45.325253 -0.167948,0.155089 -0.07801,-0.241848 0.167949,-0.15509 z" />
    <path id="path72" style="fill:#ccff00;fill-opacity:1;stroke-width:0.00952423"
      d="m 86.113251,44.810125 -0.162607,0.09109 -0.01594,-0.20657 0.162607,-0.09109 z" />
    <path id="path85" style="fill:#ccff00;fill-opacity:1;stroke-width:0.0211835"
      d="m 84.913129,47.383492 -0.361666,0.202596 -0.03546,-0.459446 0.361666,-0.202598 z" />
    <path id="path87" style="fill:#e8bbdc;fill-opacity:1;stroke-width:0.0211835"
      d="m 80.635056,46.907097 -0.05181,0.411294 -0.39069,-0.244353 0.05181,-0.411295 z" />
    <path id="path143" style="fill:#e8bbdc;fill-opacity:1;stroke-width:0.0211835"
      d="m 80.236231,48.742668 -0.343913,0.231454 -0.07286,-0.455015 0.343914,-0.231455 z" />
    <path id="path144" style="fill:#ccff00;fill-opacity:1;stroke-width:0.0211835"
      d="m 83.921227,49.338196 0.178961,0.373926 -0.460775,0.0059 -0.178963,-0.373926 z" />
    <path id="path145" style="fill:#ccff00;fill-opacity:1;stroke-width:0.00952423"
      d="m 84.807197,45.901552 -0.162607,0.09109 -0.01594,-0.20657 0.162607,-0.09109 z" />
    <path id="path108" style="fill:#e97ab0;fill-opacity:1;stroke-width:0.0105893"
      d="m 82.770993,46.387216 -0.199957,0.0544 0.0385,-0.227113 0.199955,-0.05441 z" />
    <path style="fill:#c7e93a;fill-opacity:1;stroke-width:0.264583"
      d="m 64.448118,48.493158 c 0.696753,-0.0457 1.407673,0.261658 1.851677,0.800558 0.444005,0.538901 0.609683,1.29549 0.431529,1.970631 -0.152268,0.577042 -0.530983,1.068346 -0.950257,1.493049 -0.419274,0.424703 -0.887836,0.800654 -1.282619,1.248213 -0.394783,0.44756 -0.719558,0.987026 -0.772944,1.581428 -0.02669,0.297201 0.01715,0.60309 0.145184,0.872623 0.128035,0.269533 0.342639,0.500642 0.611329,0.630437 0.129768,0.06269 0.273218,0.101862 0.417179,0.0952 0.143961,-0.0067 0.288305,-0.06216 0.387549,-0.166656 0.09873,-0.103953 0.145574,-0.245152 0.194023,-0.38008 0.338111,-0.94163 0.883258,-1.79285 1.318642,-2.693643 0.435384,-0.900793 0.76662,-1.89863 0.629683,-2.889708 -0.08168,-0.591171 -0.333328,-1.15998 -0.727325,-1.608223 -0.393997,-0.448243 -0.93034,-0.772481 -1.513682,-0.898447 -0.242542,-0.05237 -0.492332,-0.07107 -0.739968,-0.05538 z"
      id="path188-2" transform="matrix(-0.33036268,0.16451629,0.13443924,0.40427218,95.272895,15.685093)" />
    <path style="fill:#e8bbdc;fill-opacity:1;stroke-width:0.264583"
      d="m 64.448118,48.493158 c 0.696753,-0.0457 1.407673,0.261658 1.851677,0.800558 0.444005,0.538901 0.609683,1.29549 0.431529,1.970631 -0.152268,0.577042 -0.530983,1.068346 -0.950257,1.493049 -0.419274,0.424703 -0.887836,0.800654 -1.282619,1.248213 -0.394783,0.44756 -0.719558,0.987026 -0.772944,1.581428 -0.02669,0.297201 0.01715,0.60309 0.145184,0.872623 0.128035,0.269533 0.342639,0.500642 0.611329,0.630437 0.129768,0.06269 0.273218,0.101862 0.417179,0.0952 0.143961,-0.0067 0.288305,-0.06216 0.387549,-0.166656 0.09873,-0.103953 0.145574,-0.245152 0.194023,-0.38008 0.338111,-0.94163 0.883258,-1.79285 1.318642,-2.693643 0.435384,-0.900793 0.76662,-1.89863 0.629683,-2.889708 -0.08168,-0.591171 -0.333328,-1.15998 -0.727325,-1.608223 -0.393997,-0.448243 -0.93034,-0.772481 -1.513682,-0.898447 -0.242542,-0.05237 -0.492332,-0.07107 -0.739968,-0.05538 z"
      id="path186-5" transform="matrix(0.7512404,0,0,0.7219352,32.777924,8.1856761)" />
    <path style="fill:#e9afaf;fill-opacity:1;stroke-width:0.264583"
      d="m 64.448118,48.493158 c 0.696753,-0.0457 1.407673,0.261658 1.851677,0.800558 0.444005,0.538901 0.609683,1.29549 0.431529,1.970631 -0.152268,0.577042 -0.530983,1.068346 -0.950257,1.493049 -0.419274,0.424703 -0.887836,0.800654 -1.282619,1.248213 -0.394783,0.44756 -0.719558,0.987026 -0.772944,1.581428 -0.02669,0.297201 0.01715,0.60309 0.145184,0.872623 0.128035,0.269533 0.342639,0.500642 0.611329,0.630437 0.129768,0.06269 0.273218,0.101862 0.417179,0.0952 0.143961,-0.0067 0.288305,-0.06216 0.387549,-0.166656 0.09873,-0.103953 0.145574,-0.245152 0.194023,-0.38008 0.338111,-0.94163 0.883258,-1.79285 1.318642,-2.693643 0.435384,-0.900793 0.76662,-1.89863 0.629683,-2.889708 -0.08168,-0.591171 -0.333328,-1.15998 -0.727325,-1.608223 -0.393997,-0.448243 -0.93034,-0.772481 -1.513682,-0.898447 -0.242542,-0.05237 -0.492332,-0.07107 -0.739968,-0.05538 z"
      id="path190-9" transform="matrix(0.60669306,0,0,0.47745321,43.407668,22.033407)" />
    <path style="fill:#e97ab0;fill-opacity:1;stroke-width:0.264583"
      d="m 64.448118,48.493158 c 0.520841,0.25538 0.932225,0.725597 1.116133,1.275753 0.183908,0.550157 0.137996,1.173239 -0.124564,1.690498 -0.198943,0.391928 -0.511044,0.715481 -0.846962,0.998933 -0.335918,0.283452 -0.69951,0.532747 -1.035403,0.816228 -0.335893,0.283482 -0.647942,0.607097 -0.84678,0.999078 -0.09942,0.195991 -0.169377,0.407905 -0.1955,0.626112 -0.02612,0.218206 -0.0077,0.442796 0.06375,0.650616 0.0718,0.208803 0.196296,0.398042 0.352541,0.554061 0.156245,0.156018 0.34374,0.279289 0.544857,0.370429 0.402233,0.182279 0.85211,0.235102 1.29371,0.232571 0.238496,-0.0014 0.477792,-0.01832 0.710872,-0.06888 0.546034,-0.118439 1.045173,-0.422581 1.425277,-0.832095 0.380104,-0.409515 0.643437,-0.920964 0.788268,-1.460599 0.289662,-1.079268 0.107975,-2.237352 -0.26522,-3.290657 -0.195147,-0.550782 -0.445406,-1.089185 -0.812895,-1.543492 -0.367489,-0.454307 -0.861182,-0.821637 -1.428112,-0.963178 -0.241139,-0.0602 -0.492554,-0.07902 -0.739968,-0.05538 z"
      id="path193" transform="matrix(-0.38810186,0,0,0.35801675,107.34981,29.289748)" />
    <path style="fill:#ccff00;fill-opacity:1;stroke-width:0.264583"
      d="m 64.448118,48.493158 c 0.520841,0.25538 0.932225,0.725597 1.116133,1.275753 0.183908,0.550157 0.137996,1.173239 -0.124564,1.690498 -0.198943,0.391928 -0.511044,0.715481 -0.846962,0.998933 -0.335918,0.283452 -0.69951,0.532747 -1.035403,0.816228 -0.335893,0.283482 -0.647942,0.607097 -0.84678,0.999078 -0.09942,0.195991 -0.169377,0.407905 -0.1955,0.626112 -0.02612,0.218206 -0.0077,0.442796 0.06375,0.650616 0.0718,0.208803 0.196296,0.398042 0.352541,0.554061 0.156245,0.156018 0.34374,0.279289 0.544857,0.370429 0.402233,0.182279 0.85211,0.235102 1.29371,0.232571 0.238496,-0.0014 0.477792,-0.01832 0.710872,-0.06888 0.546034,-0.118439 1.045173,-0.422581 1.425277,-0.832095 0.380104,-0.409515 0.643437,-0.920964 0.788268,-1.460599 0.289662,-1.079268 0.107975,-2.237352 -0.26522,-3.290657 -0.195147,-0.550782 -0.445406,-1.089185 -0.812895,-1.543492 -0.367489,-0.454307 -0.861182,-0.821637 -1.428112,-0.963178 -0.241139,-0.0602 -0.492554,-0.07902 -0.739968,-0.05538 z"
      id="path199" transform="matrix(0.25287096,0,0,0.2796648,66.066447,33.706161)" />
    <path id="path227" style="fill:#e8bbdc;fill-opacity:1;stroke-width:0.0116817"
      d="m 80.70524,43.235102 -0.157225,-0.165951 0.240831,-0.08109 0.157225,0.165951 z" />
    <path id="path257" style="fill:#ccff00;fill-opacity:1;stroke-width:0.0136767"
      d="m 81.485672,50.050834 -0.261654,-0.0563 0.179009,-0.237636 0.261656,0.0563 z" />
    <path id="path258" style="fill:#e97ab0;fill-opacity:1;stroke-width:0.0136767"
      d="m 82.88613,50.013606 0.01566,-0.267185 0.2622,0.140592 -0.01565,0.267187 z" />
  </g>
  <circle
    style="opacity:0.459207;fill:url(#radialGradient2045);fill-opacity:1;stroke:none;stroke-width:0.0358427;filter:url(#filter2045)"
    id="circle2044" cx="85.598305" cy="48.781689" r="6.5998154"
    transform="matrix(0.70563167,0,0,0.6224459,-53.777695,-24.521576)" >
  <animate attributeName="opacity"
             values="0;0.3;0" dur="10s"
             repeatCount="indefinite"/>
  </circle>
</svg>