<?xml version="1.0" encoding="UTF-8" standalone="no"?>
<!-- Created with Inkscape (http://www.inkscape.org/) -->

<svg
   width="6.6359mm"
   height="1.228268mm"
   viewBox="0 0 6.6358998 1.228268"
   version="1.1"
   id="svg5"
   xml:space="preserve"
   sodipodi:docname="alchemicats.svg"
   inkscape:version="1.3 (0e150ed6c4, 2023-07-21)"
   inkscape:export-filename="../../../../../home/dekram/RepositoryDisk/Development/repository/alchemicats.pet/assets/images/campfire.svg"
   inkscape:export-xdpi="379.45383"
   inkscape:export-ydpi="379.45383"
   xmlns:inkscape="http://www.inkscape.org/namespaces/inkscape"
   xmlns:sodipodi="http://sodipodi.sourceforge.net/DTD/sodipodi-0.dtd"
   xmlns="http://www.w3.org/2000/svg"
   xmlns:svg="http://www.w3.org/2000/svg"><sodipodi:namedview
     id="namedview223"
     pagecolor="#ffffff"
     bordercolor="#666666"
     borderopacity="1.0"
     inkscape:showpageshadow="2"
     inkscape:pageopacity="0.0"
     inkscape:pagecheckerboard="0"
     inkscape:deskcolor="#d1d1d1"
     inkscape:document-units="mm"
     showgrid="false"
     inkscape:zoom="5.6568543"
     inkscape:cx="132.40574"
     inkscape:cy="138.68132"
     inkscape:window-width="1920"
     inkscape:window-height="961"
     inkscape:window-x="0"
     inkscape:window-y="27"
     inkscape:window-maximized="1"
     inkscape:current-layer="g480"
     showguides="true"
     inkscape:export-bgcolor="#00000000"><sodipodi:guide
       position="-172.74259,-584.37258"
       orientation="0,-1"
       id="guide469"
       inkscape:locked="false" /><sodipodi:guide
       position="-184.03914,-607.73589"
       orientation="0,-1"
       id="guide471"
       inkscape:locked="false" /><sodipodi:guide
       position="-199.44352,-635.97725"
       orientation="0,-1"
       id="guide473"
       inkscape:locked="false" /><sodipodi:guide
       position="-195.46405,-651.51"
       orientation="0,-1"
       id="guide475"
       inkscape:locked="false" /><sodipodi:guide
       position="-83.87745,-655.00835"
       orientation="0,-1"
       id="guide15194"
       inkscape:locked="false" /><sodipodi:guide
       position="-10.40182,-217.08426"
       orientation="0,-1"
       id="guide868"
       inkscape:locked="false" /><sodipodi:guide
       position="21.9208,-69.703744"
       orientation="0,-1"
       id="guide8933"
       inkscape:locked="false" /><sodipodi:guide
       position="36.38669,-99.535303"
       orientation="0,-1"
       id="guide8935"
       inkscape:locked="false" /><sodipodi:guide
       position="26.70934,-87.660763"
       orientation="0,-1"
       id="guide8937"
       inkscape:locked="false" /></sodipodi:namedview><defs
     id="defs2" /><g
     id="g339"
     transform="matrix(0.00323964,0,0,0.00323964,3.0060955,0.15077892)"
     inkscape:export-filename="../../../../../home/dekram/RepositoryDisk/Development/repository/alchemicats.pet/assets/images/ciri-and-zelda-watermark.svg"
     inkscape:export-xdpi="3919.5288"
     inkscape:export-ydpi="3919.5288"
     style="opacity:0.6;fill:#f9f9f9;fill-opacity:1;stroke:#000000"><path
       d="m -649.50151,212.63324 q -6.69485,57.27953 -42.40132,88.52242 -35.4584,30.99579 -94.47304,30.99579 -63.97432,0 -102.65633,-45.87393 -38.43394,-45.87249 -38.43394,-122.74038 V 128.8225 q 0,-50.336549 17.85323,-88.522419 18.10088,-38.1862637 51.07989,-58.518923 32.97857,-20.58067 76.37217,-20.58067 57.52666,0 92.24129,32.2351934 34.71505,31.9866586 40.41805,88.7704266 h -47.85669 q -6.19914,-43.145948 -27.0275,-62.486697 -20.58112,-19.34127335 -57.77515,-19.34127335 -45.62494,0 -71.66101,33.72325635 -25.78801,33.722731 -25.78801,95.961026 v 34.96265 q 0,58.76654 24.54809,93.48118 24.54852,34.71465 68.68591,34.71465 39.67342,0 60.74983,-17.85322 21.32491,-18.10135 28.26784,-62.73444 z"
       id="path868"
       inkscape:export-filename="ciri-and-zelda-watermark.png"
       inkscape:export-xdpi="2577.74"
       inkscape:export-ydpi="2577.74"
       style="font-size:10.5833px;font-family:Roboto;-inkscape-font-specification:Roboto;letter-spacing:0px;word-spacing:0px;fill:#f9f9f9;fill-opacity:1;stroke:#000000;stroke-width:0.888747" /><path
       d="m -223.78451,146.92372 q 0,-11.15837 6.69529,-18.84499 6.94249,-7.68636 20.33263,-7.68636 13.38972,0 20.33264,7.68636 6.94292,7.68662 6.94292,18.84499 0,11.1585 -6.94292,18.59711 -6.94292,7.439 -20.33264,7.439 -13.39014,0 -20.33263,-7.439 -6.69529,-7.43861 -6.69529,-18.59711 z"
       id="path993"
       style="font-size:10.5833px;font-family:Roboto;-inkscape-font-specification:Roboto;letter-spacing:0px;word-spacing:0px;fill:#f9f9f9;fill-opacity:1;stroke:#000000;stroke-width:0.888747" /><path
       d="m -552.5567,280.823 h -45.873 V 12.528813 h 45.873 z"
       id="path870"
       style="font-size:10.5833px;font-family:Roboto;-inkscape-font-specification:Roboto;letter-spacing:0px;word-spacing:0px;fill:#f9f9f9;fill-opacity:1;stroke:#000000;stroke-width:0.888747" /><path
       d="m -501.48449,56.171307 q 10.41418,-1.736073 22.5644,-1.736073 45.12923,0 61.24684,38.434405 V 283.30415 h 45.87258 V 15.009442 h -44.63351 l -0.74469,30.994879 q -22.56398,-35.954038 -63.97388,-35.954038 -13.38972,0 -20.33263,3.472015 z"
       id="path872"
       style="font-size:10.5833px;font-family:Roboto;-inkscape-font-specification:Roboto;letter-spacing:0px;word-spacing:0px;fill:#f9f9f9;fill-opacity:1;stroke:#000000;stroke-width:0.888747" /><path
       d="m 103.10313,146.92372 q 0,-11.15837 6.69487,-18.84499 6.94334,-7.68636 20.33263,-7.68636 13.39014,0 20.33259,7.68636 6.94338,7.68662 6.94338,18.84499 0,11.1585 -6.94338,18.59711 -6.94245,7.439 -20.33259,7.439 -13.38929,0 -20.33263,-7.439 -6.69487,-7.43861 -6.69487,-18.59711 z"
       id="path989"
       style="font-size:10.5833px;font-family:Roboto;-inkscape-font-specification:Roboto;letter-spacing:0px;word-spacing:0px;fill:#f9f9f9;fill-opacity:1;stroke:#000000;stroke-width:0.888747" /><path
       d="m -274.8563,280.823 h -45.873 V 12.528813 h 45.873 z"
       id="path874"
       style="font-size:10.5833px;font-family:Roboto;-inkscape-font-specification:Roboto;letter-spacing:0px;word-spacing:0px;fill:#f9f9f9;fill-opacity:1;stroke:#000000;stroke-width:0.888747" /><g
       id="g915"
       transform="matrix(47.983653,0,0,47.983653,-6068.6699,-7389.8722)"
       style="font-size:10.5833px;font-family:Roboto;-inkscape-font-specification:Roboto;letter-spacing:0px;word-spacing:0px;fill:#f9f9f9;fill-opacity:1;stroke:#000000;stroke-width:0.0185219"><g
         id="g981"
         transform="matrix(1.2218715,0,0,1.2218715,-27.517354,-33.381001)"
         style="fill:#f9f9f9;fill-opacity:1;stroke:#000000"><path
           d="m 126.68046,154.47375 0.23584,0.82088 -0.28211,0.0988 -0.36492,-1.0482 0.32585,-0.1141 z"
           id="path876"
           style="fill:#f9f9f9;fill-opacity:1;stroke:#000000;stroke-width:0.00830506" /><path
           d="m 124.41473,154.98997 0.0139,0.31513 q 0.28732,-0.36147 0.75075,-0.36147 0.79476,0 0.80172,0.89672 v 1.65674 h -0.42867 v -1.65905 q -0.002,-0.27111 -0.12513,-0.40087 -0.12048,-0.12975 -0.37768,-0.12975 -0.20855,0 -0.36611,0.11122 -0.15756,0.11122 -0.24561,0.29195 v 1.7865 h -0.42867 v -2.50712 z"
           id="path878"
           style="fill:#f9f9f9;fill-opacity:1;stroke:#000000;stroke-width:0.00830506" /></g></g><path
       d="m 264.76561,276.00509 h 206.55217 v 38.92964 H 208.47839 V 279.22831 L 406.35151,-6.9196123 H 211.702 V -46.097393 h 251.68142 v 34.962784 z"
       id="path880"
       style="font-size:10.5833px;font-family:Roboto;-inkscape-font-specification:Roboto;letter-spacing:0px;word-spacing:0px;fill:#f9f9f9;fill-opacity:1;stroke:#000000;stroke-width:0.888747" /><g
       id="g1011"
       transform="matrix(34.512104,0,0,34.512104,-4435.839,-5317.0586)"
       style="font-size:10.5833px;font-family:Roboto;-inkscape-font-specification:Roboto;letter-spacing:0px;word-spacing:0px;fill:#f9f9f9;fill-opacity:1;stroke:#000000;stroke-width:0.0185219"><path
         d="m 144.32523,161.97883 q 1.13688,0 1.85001,-0.74414 0.71314,-0.74931 0.71314,-1.99987 v -0.1757 q 0,-0.83199 -0.31523,-1.48311 -0.32039,-0.65629 -0.88883,-1.02319 -0.57361,-0.37207 -1.24023,-0.37207 -1.09037,0 -1.69498,0.7183 -0.60462,0.7183 -0.60462,2.05671 v 0.39791 h 3.78788 q -0.0207,0.82682 -0.48059,1.33842 -0.46509,0.50642 -1.17822,0.50642 -0.50643,0 -0.85783,-0.2067 -0.3514,-0.20671 -0.61495,-0.54777 l -0.58394,0.45475 q 0.7028,1.08004 2.10839,1.08004 z m 0.11886,-5.0126 q 0.57877,0 0.97151,0.42374 0.39274,0.41858 0.48576,1.17822 h -2.80085 v -0.0723 q 0.0413,-0.72864 0.39274,-1.12655 0.35139,-0.40307 0.95084,-0.40307 z"
         id="path882"
         style="fill:#f9f9f9;fill-opacity:1;stroke:#000000" /><path
         d="m 149.03294,161.87547 h -0.95601 V 153.938 h 0.95601 z"
         id="path884"
         style="fill:#f9f9f9;fill-opacity:1;stroke:#000000" /><path
         d="m 150.33002,159.03328 q 0,-1.28674 0.60978,-2.06705 0.60978,-0.78548 1.59679,-0.78548 0.98185,0 1.55546,0.67179 V 153.938 h 0.95601 v 7.93747 h -0.8785 l -0.0465,-0.59944 q -0.5736,0.7028 -1.59679,0.7028 -0.97152,0 -1.58646,-0.79582 -0.60978,-0.79581 -0.60978,-2.07738 z m 0.95601,0.10852 q 0,0.95084 0.39274,1.48827 0.39274,0.53744 1.0852,0.53744 0.9095,0 1.32808,-0.81649 v -2.56831 q -0.42892,-0.79064 -1.31775,-0.79064 -0.70279,0 -1.09553,0.5426 -0.39274,0.5426 -0.39274,1.60713 z"
         id="path886"
         style="fill:#f9f9f9;fill-opacity:1;stroke:#000000" /><path
         d="m 159.98314,161.87547 q -0.0827,-0.16536 -0.13436,-0.58911 -0.66662,0.69247 -1.59163,0.69247 -0.82682,0 -1.35908,-0.46509 -0.5271,-0.47025 -0.5271,-1.18856 0,-0.87332 0.66146,-1.35391 0.66662,-0.48576 1.87068,-0.48576 h 0.93017 v -0.43925 q 0,-0.50126 -0.29972,-0.79581 -0.29972,-0.29973 -0.88367,-0.29973 -0.51159,0 -0.85782,0.25839 -0.34623,0.25838 -0.34623,0.62528 h -0.96118 q 0,-0.41858 0.29455,-0.80615 0.29973,-0.39274 0.80615,-0.62012 0.5116,-0.22737 1.12138,-0.22737 0.96634,0 1.51411,0.48576 0.54777,0.48058 0.56844,1.32808 v 2.57347 q 0,0.76998 0.19637,1.22473 v 0.0827 z m -1.58646,-0.72863 q 0.44958,0 0.85266,-0.23255 0.40307,-0.23254 0.58394,-0.60461 v -1.14721 h -0.74931 q -1.75699,0 -1.75699,1.02836 0,0.44958 0.29972,0.70279 0.29973,0.25322 0.76998,0.25322 z"
         id="path888"
         style="fill:#f9f9f9;fill-opacity:1;stroke:#000000" /></g></g></svg>
