<?xml version="1.0" encoding="UTF-8" standalone="no"?>
<!-- Created with Inkscape (http://www.inkscape.org/) -->

<svg
   width="1801.6055mm"
   height="1994.9419mm"
   viewBox="0 0 1801.6055 1994.9419"
   version="1.1"
   id="svg5"
   xml:space="preserve"
   inkscape:version="1.2.2 (732a01da63, 2022-12-09)"
   sodipodi:docname="cats.svg"
   inkscape:export-filename="mindfullness.jpg"
   inkscape:export-xdpi="96"
   inkscape:export-ydpi="96"
   xmlns:inkscape="http://www.inkscape.org/namespaces/inkscape"
   xmlns:sodipodi="http://sodipodi.sourceforge.net/DTD/sodipodi-0.dtd"
   xmlns:xlink="http://www.w3.org/1999/xlink"
   xmlns="http://www.w3.org/2000/svg"
   xmlns:svg="http://www.w3.org/2000/svg"><sodipodi:namedview
     id="namedview7"
     pagecolor="#ffffff"
     bordercolor="#666666"
     borderopacity="1.0"
     inkscape:showpageshadow="2"
     inkscape:pageopacity="0.0"
     inkscape:pagecheckerboard="0"
     inkscape:deskcolor="#d1d1d1"
     inkscape:document-units="mm"
     showgrid="false"
     showguides="true"
     inkscape:zoom="0.04"
     inkscape:cx="-60462.501"
     inkscape:cy="-15287.5"
     inkscape:window-width="1902"
     inkscape:window-height="1001"
     inkscape:window-x="0"
     inkscape:window-y="0"
     inkscape:window-maximized="0"
     inkscape:current-layer="layer1"><sodipodi:guide
       position="21644.542,-922.721"
       orientation="1,0"
       id="guide3291"
       inkscape:locked="false" /><sodipodi:guide
       position="21593.097,-702.16018"
       orientation="1,0"
       id="guide2072"
       inkscape:locked="false" /><inkscape:grid
       type="xygrid"
       id="grid594" /><sodipodi:guide
       position="15172.147,-126.32741"
       orientation="0,-1"
       id="guide37642"
       inkscape:locked="false" /><sodipodi:guide
       position="15120.697,-1043.0619"
       orientation="0,-1"
       id="guide43106"
       inkscape:locked="false" /><sodipodi:guide
       position="15195.533,-549.61555"
       orientation="0,-1"
       id="guide44602"
       inkscape:locked="false" /><sodipodi:guide
       position="7241.9256,2174.8633"
       orientation="0,-1"
       id="guide21877"
       inkscape:locked="false" /><sodipodi:guide
       position="7288.6976,2004.1449"
       orientation="0,-1"
       id="guide21879"
       inkscape:locked="false" /><sodipodi:guide
       position="7262.9736,2041.5626"
       orientation="1,0"
       id="guide21881"
       inkscape:locked="false" /><sodipodi:guide
       position="7433.6916,1976.0816"
       orientation="1,0"
       id="guide21883"
       inkscape:locked="false" /><sodipodi:guide
       position="7169.4286,1936.3253"
       orientation="0,-1"
       id="guide21885"
       inkscape:locked="false" /><sodipodi:guide
       position="6905.1666,2025.1924"
       orientation="1,0"
       id="guide21887"
       inkscape:locked="false" /><sodipodi:guide
       position="7749.4036,1814.7176"
       orientation="1,0"
       id="guide21889"
       inkscape:locked="false" /><sodipodi:guide
       position="2103.4705,1525.7641"
       orientation="0,-1"
       id="guide6359"
       inkscape:locked="false" /><sodipodi:guide
       position="2004.9355,1532.4069"
       orientation="1,0"
       id="guide6361"
       inkscape:locked="false" /></sodipodi:namedview><defs
     id="defs2"><linearGradient
       inkscape:collect="always"
       id="linearGradient4189"><stop
         style="stop-color:#8dccaa;stop-opacity:1;"
         offset="0"
         id="stop4185" /><stop
         style="stop-color:#deaa87;stop-opacity:1;"
         offset="1"
         id="stop4187" /></linearGradient><linearGradient
       id="linearGradient48877"
       inkscape:swatch="solid"><stop
         style="stop-color:#88491f;stop-opacity:1;"
         offset="0"
         id="stop48875" /></linearGradient><linearGradient
       id="linearGradient3332"
       inkscape:swatch="gradient"><stop
         style="stop-color:#59411a;stop-opacity:1;"
         offset="0"
         id="stop3328" /><stop
         style="stop-color:#ff5555;stop-opacity:0;"
         offset="1"
         id="stop3330" /></linearGradient><linearGradient
       id="linearGradient3310"
       inkscape:swatch="solid"><stop
         style="stop-color:#462424;stop-opacity:0.6901961;"
         offset="0"
         id="stop3308" /></linearGradient><filter
       inkscape:collect="always"
       style="color-interpolation-filters:sRGB"
       id="filter7555"
       x="-0.025996773"
       y="-0.053067893"
       width="1.0519935"
       height="1.1061358"><feGaussianBlur
         inkscape:collect="always"
         stdDeviation="0.02562361"
         id="feGaussianBlur7557" /></filter><linearGradient
       inkscape:collect="always"
       xlink:href="#linearGradient4189"
       id="linearGradient1792"
       gradientUnits="userSpaceOnUse"
       gradientTransform="matrix(68.148198,0,0,50.546063,-27102.366,-9539.6564)"
       x1="114.56872"
       y1="151.67354"
       x2="124.26977"
       y2="151.67354" /></defs><g
     inkscape:label="Livello 1"
     inkscape:groupmode="layer"
     id="layer1"
     transform="translate(21500.42,2762.048)"><g
       id="g5689"
       transform="matrix(2.1817403,0,0,2.1817403,20755.465,2283.7777)"
       inkscape:export-filename="..\..\..\Users\mkythethinker\Downloads\dek.png"
       inkscape:export-xdpi="96"
       inkscape:export-ydpi="96"><path
         id="path4205"
         style="fill:#294141;fill-opacity:1;stroke:none;stroke-width:78.2038;stroke-linecap:round;stroke-linejoin:round;stroke-opacity:0.924933;paint-order:fill markers stroke"
         d="m -18905.248,-1582.1974 h -205.508 v 176.2759 h 205.508 z" /><path
         id="rect1771"
         style="fill:#414141;fill-opacity:1;stroke:none;stroke-width:78.2038;stroke-linecap:round;stroke-linejoin:round;stroke-opacity:0.924933;paint-order:fill markers stroke"
         d="m -18759.727,-1582.1974 h -205.508 v 176.2759 h 205.508 z" /><path
         id="path1774"
         style="fill:url(#linearGradient1792);fill-opacity:1;stroke:none;stroke-width:52.0935;stroke-linecap:round;stroke-linejoin:round"
         d="m -18965.85,-2250.0531 v 0.3536 c -206.842,19.7817 -264.932,133.4012 -308.328,205.2388 -43.634,72.2298 -4.996,116.0396 0.339,165.5181 5.336,49.4785 4.92,81.1806 28.09,130.6449 23.168,49.4644 77.44,120.425 119.824,158.701 99.308,89.6833 110.404,92.0287 160.074,93.2368 v 0.1015 c 0.613,-0.012 1.104,-0.03 1.689,-0.041 0.613,0.012 1.096,0.03 1.689,0.041 v -0.1015 c 49.665,-1.208 60.754,-3.5585 160.059,-93.2368 42.383,-38.276 96.656,-109.2366 119.824,-158.701 23.168,-49.4643 22.766,-81.1664 28.104,-130.6449 5.336,-49.4785 43.974,-93.2883 0.34,-165.5181 -43.395,-71.837 -101.49,-185.4561 -308.328,-205.2388 v -0.3536 c -0.545,0.058 -1.125,0.097 -1.689,0.156 -0.545,-0.058 -1.117,-0.097 -1.689,-0.156 z" /><path
         id="path1776"
         style="fill:#6f917c;fill-opacity:1;stroke-width:0.79375;stroke-linecap:round;stroke-linejoin:round;filter:url(#filter7555)"
         transform="matrix(8.4358375,0,0,9.6018515,-16143.796,-0.69443286)"
         d="m -354.3417,-200.29047 18.00561,-0.21657 -1.25484,0.75115 -13.47723,0.97509 z"
         sodipodi:nodetypes="ccccc" /><path
         id="path1778"
         style="fill:#6f917c;fill-opacity:1;stroke:none;stroke-width:56.0377;stroke-linecap:round;stroke-linejoin:round"
         d="m -18965.395,-1659.1504 c -37.672,-2.4831 -100.255,-19.7756 -99.809,7.7607 l 2.185,135.0342 c 0.554,34.2764 54.322,62.9803 97.624,66.1871 v -113.4969 c -3.406,0.286 -6.785,0.7068 -10.086,1.3353 -11.67,2.2216 -21.081,16.5044 -32.266,12.9853 -22.992,-7.234 -40.485,-39.0312 -27.572,-56.2354 12.328,-16.4256 44.615,-7.5907 69.924,-5.7319 z" /><path
         id="path3400"
         style="fill:#c59e88;fill-opacity:1;stroke:none;stroke-width:56.0377;stroke-linecap:round;stroke-linejoin:round"
         d="m -18965.395,-1659.1504 v 47.8384 c 2.697,0.1981 5.339,0.3416 7.845,0.3416 26.017,-10e-5 63.25,-12.3218 77.773,5.3903 13.798,16.8272 0.664,50.1079 -22.059,58.089 -12.487,4.386 -23.291,-12.2989 -36.516,-14.8389 -8.751,-1.6806 -18.01,-2.0938 -27.043,-1.3353 v 113.4969 c 2.657,0.1968 5.285,0.321 7.849,0.3209 44.339,-3e-4 104.881,-30.1292 105.47,-66.508 l 2.184,-135.0342 c 0.478,-29.548 -71.644,-7.4622 -107.658,-7.4621 -2.451,10e-5 -5.094,-0.1173 -7.845,-0.2986 z" /><path
         id="path1780"
         style="fill:#e2b69d;fill-opacity:1;stroke-width:0.79375;stroke-linecap:round;stroke-linejoin:round;filter:url(#filter7555)"
         transform="matrix(8.4358375,0,0,9.6018515,-16040.216,331.64477)"
         d="m -354.3417,-200.29047 18.00561,-0.21657 -1.25484,0.75115 -15.99591,0.40768 z"
         sodipodi:nodetypes="ccccc" /><path
         id="path1782"
         style="fill:#6f917c;fill-opacity:1;stroke-width:18.1843;stroke-linecap:round;stroke-linejoin:round"
         d="m -18972.382,-2302.4261 c -138.653,-45.8122 -274.558,87.7978 -327.321,202.444 -48.995,106.4579 -0.137,240.5563 -53.118,345.7361 -83.235,165.2422 208.256,313.4721 108.079,333.1797 -47.551,9.3547 124.691,29.249 159.815,20.5403 21.082,-349.4831 -133.757,-482.2154 -40.34,-479.1009 50.524,-80.801 -33.383,-193.9134 108.041,-216.7237 78.974,-13.1266 95.261,-189.4174 44.844,-206.0755 z"
         sodipodi:nodetypes="sssscccs" /><path
         id="path1784"
         style="fill:#c59e88;fill-opacity:1;stroke-width:0.79375;stroke-linecap:round;stroke-linejoin:round;filter:url(#filter7555)"
         transform="matrix(-8.4358375,0,0,9.6018515,-21794.953,-0.69443286)"
         d="m -354.3417,-200.29047 18.00561,-0.21657 -1.25484,0.75115 -13.47723,0.97509 z"
         sodipodi:nodetypes="ccccc" /><path
         id="use1786"
         style="fill:#3f3f3f;fill-opacity:1;stroke-width:18.1843;stroke-linecap:round;stroke-linejoin:round"
         d="m -18937.796,-2303.5157 c 138.653,-45.8122 274.558,87.7978 327.321,202.444 48.995,106.4579 0.137,240.5563 53.118,345.7361 83.235,165.2422 -208.256,313.4721 -108.079,333.1797 47.551,9.3547 -124.691,29.249 -159.815,20.5403 -21.082,-349.4831 133.757,-482.2154 40.34,-479.1009 -50.524,-80.801 33.383,-193.9134 -108.04,-216.7237 -78.975,-13.1266 -95.262,-189.4174 -44.845,-206.0755 z"
         sodipodi:nodetypes="sssscccs" /><path
         id="path1788"
         style="fill:#6f917c;fill-opacity:1;stroke-width:0.79375;stroke-linecap:round;stroke-linejoin:round;filter:url(#filter7555)"
         transform="matrix(8.4358375,0,0,9.6018515,-16044.262,139.53468)"
         d="m -354.81395,-191.09843 6.82897,-21.09725 1.74737,22.03951 z"
         sodipodi:nodetypes="cccc" /></g></g></svg>
