<?xml version="1.0" encoding="UTF-8" standalone="no"?>
<!-- Created with Inkscape (http://www.inkscape.org/) -->

<svg
   width="15.630831mm"
   height="4.2305679mm"
   viewBox="0 0 15.63083 4.2305679"
   version="1.1"
   id="svg5"
   xml:space="preserve"
   sodipodi:docname="alchemicats.svg"
   inkscape:version="1.3 (0e150ed6c4, 2023-07-21)"
   inkscape:export-filename="../../../../../home/dekram/RepositoryDisk/Development/repository/alchemicats.pet/assets/images/campfire.svg"
   inkscape:export-xdpi="379.45383"
   inkscape:export-ydpi="379.45383"
   xmlns:inkscape="http://www.inkscape.org/namespaces/inkscape"
   xmlns:sodipodi="http://sodipodi.sourceforge.net/DTD/sodipodi-0.dtd"
   xmlns="http://www.w3.org/2000/svg"
   xmlns:svg="http://www.w3.org/2000/svg"><sodipodi:namedview
     id="namedview223"
     pagecolor="#ffffff"
     bordercolor="#666666"
     borderopacity="1.0"
     inkscape:showpageshadow="2"
     inkscape:pageopacity="0.0"
     inkscape:pagecheckerboard="0"
     inkscape:deskcolor="#d1d1d1"
     inkscape:document-units="mm"
     showgrid="false"
     inkscape:zoom="2.8284272"
     inkscape:cx="313.60185"
     inkscape:cy="102.00015"
     inkscape:window-width="1920"
     inkscape:window-height="961"
     inkscape:window-x="0"
     inkscape:window-y="27"
     inkscape:window-maximized="1"
     inkscape:current-layer="svg5"
     showguides="true"
     inkscape:export-bgcolor="#00000000"><sodipodi:guide
       position="-165.52379,-572.30897"
       orientation="0,-1"
       id="guide469"
       inkscape:locked="false" /><sodipodi:guide
       position="-176.82034,-595.67228"
       orientation="0,-1"
       id="guide471"
       inkscape:locked="false" /><sodipodi:guide
       position="-192.22472,-623.91364"
       orientation="0,-1"
       id="guide473"
       inkscape:locked="false" /><sodipodi:guide
       position="-188.24525,-639.44639"
       orientation="0,-1"
       id="guide475"
       inkscape:locked="false" /><sodipodi:guide
       position="-76.65865,-642.94474"
       orientation="0,-1"
       id="guide15194"
       inkscape:locked="false" /><sodipodi:guide
       position="-3.1830202,-205.02065"
       orientation="0,-1"
       id="guide868"
       inkscape:locked="false" /><sodipodi:guide
       position="29.1396,-57.64013"
       orientation="0,-1"
       id="guide8933"
       inkscape:locked="false" /><sodipodi:guide
       position="43.60549,-87.471689"
       orientation="0,-1"
       id="guide8935"
       inkscape:locked="false" /><sodipodi:guide
       position="33.92814,-75.597149"
       orientation="0,-1"
       id="guide8937"
       inkscape:locked="false" /><inkscape:grid
       id="grid284"
       units="mm"
       originx="-93.89216"
       originy="-134.14598"
       spacingx="0.99999999"
       spacingy="0.99999997"
       empcolor="#0099e5"
       empopacity="0.30196078"
       color="#0099e5"
       opacity="0.14901961"
       empspacing="5"
       dotted="false"
       gridanglex="30"
       gridanglez="30"
       visible="false" /></sodipodi:namedview><defs
     id="defs2" /><g
     id="g8333"
     transform="matrix(0.00619846,0,0,0.00619846,-47.234507,-11.65433)"
     style="opacity:0.6;fill:#f9f9f9;fill-opacity:1"
     inkscape:export-filename="../../../../../home/dekram/RepositoryDisk/Development/repository/alchemicats.pet/assets/images/dekram-watermark.svg"
     inkscape:export-xdpi="1.5650059"
     inkscape:export-ydpi="1.5650059"><path
       d="m 7620.3616,2007.8902 q 0,-32.2469 15.2817,-51.8023 15.2817,-19.6849 40.0173,-19.6849 24.6061,0 38.9812,16.8358 v -73.0413 h 23.9586 v 198.921 h -22.016 l -1.1655,-15.0227 q -14.3752,17.6128 -40.0173,17.6128 -24.3471,0 -39.7583,-19.9439 -15.2817,-19.9439 -15.2817,-52.0614 z m 23.9586,2.7197 q 0,23.829 9.8424,37.2977 9.8424,13.4686 27.1962,13.4686 22.7931,0 33.283,-20.462 v -64.3644 q -10.7489,-19.8144 -33.024,-19.8144 -17.6128,0 -27.4552,13.5981 -9.8424,13.5982 -9.8424,40.2764 z"
       style="font-size:265.228px;line-height:1.25;font-family:Roboto;-inkscape-font-specification:Roboto;letter-spacing:0px;word-spacing:0px;fill:#f9f9f9;fill-opacity:1;stroke-width:1.65768"
       id="path8305" /><path
       d="m 7824.3333,2081.7086 q 28.4913,0 46.3631,-18.6489 17.8718,-18.7783 17.8718,-50.1187 v -4.4032 q 0,-20.8505 -7.8999,-37.1682 -8.0294,-16.4473 -22.275,-25.6422 -14.3751,-9.3244 -31.0814,-9.3244 -27.3257,0 -42.4779,18.0013 -15.1522,18.0013 -15.1522,51.5434 v 9.9719 h 94.9278 q -0.518,20.7209 -12.0441,33.542 -11.6555,12.6916 -29.5273,12.6916 -12.6916,0 -21.498,-5.1802 -8.8064,-5.1803 -15.4112,-13.7277 l -14.6341,11.3966 q 17.6128,27.0667 52.8384,27.0667 z m 2.9786,-125.6207 q 14.5047,0 24.3471,10.6195 9.8424,10.49 12.1736,29.5273 h -70.1922 v -1.8131 q 1.036,-18.2603 9.8424,-28.2322 8.8064,-10.1015 23.8291,-10.1015 z"
       style="font-size:265.228px;line-height:1.25;font-family:Roboto;-inkscape-font-specification:Roboto;letter-spacing:0px;word-spacing:0px;fill:#f9f9f9;fill-opacity:1;stroke-width:1.65768"
       id="path8307" /><path
       d="m 7955.3932,2014.236 -15.0226,15.6702 v 49.2123 h -23.9586 v -198.921 h 23.9586 v 120.3109 l 12.821,-15.4112 43.6435,-46.1041 h 29.1388 l -54.5219,58.5367 60.8677,81.5887 h -28.1027 z"
       style="font-size:265.228px;line-height:1.25;font-family:Roboto;-inkscape-font-specification:Roboto;letter-spacing:0px;word-spacing:0px;fill:#f9f9f9;fill-opacity:1;stroke-width:1.65768"
       id="path8309" /><path
       d="m 8118.441,1960.4911 q -5.439,-0.9065 -11.785,-0.9065 -23.57,0 -31.9879,20.0734 v 99.4605 h -23.9586 v -140.1254 h 23.3111 l 0.3885,16.1883 q 11.7849,-18.7784 33.4129,-18.7784 6.993,0 10.619,1.8131 z"
       style="font-size:265.228px;line-height:1.25;font-family:Roboto;-inkscape-font-specification:Roboto;letter-spacing:0px;word-spacing:0px;fill:#f9f9f9;fill-opacity:1;stroke-width:1.65768"
       id="path8311" /><path
       d="m 8221.787,2079.1185 q -2.072,-4.1442 -3.367,-14.7637 -16.707,17.3538 -39.888,17.3538 -20.721,0 -34.06,-11.6555 -13.21,-11.7851 -13.21,-29.7864 0,-21.8865 16.577,-33.9305 16.706,-12.1736 46.881,-12.1736 h 23.311 v -11.008 q 0,-12.562 -7.511,-19.9439 -7.512,-7.5113 -22.146,-7.5113 -12.821,0 -21.498,6.4753 -8.677,6.4753 -8.677,15.6702 h -24.088 q 0,-10.49 7.382,-20.2029 7.511,-9.8425 20.203,-15.5407 12.821,-5.6983 28.103,-5.6983 24.217,0 37.945,12.1736 13.728,12.044 14.246,33.283 v 64.4939 q 0,19.2964 4.921,30.6929 v 2.0721 z m -39.759,-18.2604 q 11.267,0 21.369,-5.8277 10.101,-5.8278 14.634,-15.1522 v -28.7503 h -18.778 q -44.032,0 -44.032,25.7717 0,11.267 7.511,17.6127 7.511,6.3458 19.296,6.3458 z"
       style="font-size:265.228px;line-height:1.25;font-family:Roboto;-inkscape-font-specification:Roboto;letter-spacing:0px;word-spacing:0px;fill:#f9f9f9;fill-opacity:1;stroke-width:1.65768"
       id="path8313" /><path
       d="m 8453.214,1938.9931 -0.648,15.5407 q -15.411,-18.1308 -41.571,-18.1308 -29.398,0 -40.017,22.534 -6.994,-10.1014 -18.131,-16.3177 -11.267,-6.2163 -26.549,-6.2163 -46.104,0 -46.881,48.8237 v 93.8918 h 23.958 v -92.4672 q 0,-15.0227 6.864,-22.4045 6.864,-7.5114 23.052,-7.5114 13.339,0 22.146,8.0294 8.806,7.8998 10.231,21.3685 v 92.9852 h 24.088 v -91.8197 q 0,-30.5634 29.916,-30.5634 23.57,0 32.247,20.0734 v 102.3097 h 23.958 v -140.1254 z"
       style="font-size:265.228px;line-height:1.25;font-family:Roboto;-inkscape-font-specification:Roboto;letter-spacing:0px;word-spacing:0px;fill:#f9f9f9;fill-opacity:1;stroke-width:1.65768"
       id="path8315" /><path
       d="m 8460.74,1880.9361 0.185,4.4316 q 4.394,-5.1702 11.854,-5.1702 8.383,0 11.412,6.4258 1.994,-2.8805 5.17,-4.6532 3.213,-1.7726 7.571,-1.7726 13.147,0 13.368,13.9226 v 26.7741 h -6.832 v -26.3679 q 0,-4.2839 -1.957,-6.3889 -1.957,-2.1419 -6.574,-2.1419 -3.803,0 -6.315,2.2897 -2.511,2.2527 -2.917,6.0934 v 26.5156 h -6.869 v -26.1832 q 0,-8.7155 -8.531,-8.7155 -6.721,0 -9.195,5.7241 v 29.1746 h -6.832 v -39.9581 z"
       style="font-size:265.228px;line-height:1.25;font-family:Roboto;-inkscape-font-specification:Roboto;letter-spacing:0px;word-spacing:0px;fill:#f9f9f9;fill-opacity:1;stroke-width:0.472704"
       id="path8317" /><path
       d="m 8536.631,1916.0564 q 3.656,0 6.389,-2.2158 2.733,-2.2157 3.028,-5.5395 h 6.463 q -0.185,3.4346 -2.364,6.5367 -2.178,3.1021 -5.834,4.9486 -3.62,1.8465 -7.682,1.8465 -8.161,0 -12.999,-5.4287 -4.801,-5.4656 -4.801,-14.9197 v -1.1449 q 0,-5.8349 2.142,-10.3772 2.142,-4.5424 6.13,-7.0537 4.026,-2.5112 9.491,-2.5112 6.721,0 11.153,4.0253 4.469,4.0254 4.764,10.4513 h -6.463 q -0.295,-3.8777 -2.954,-6.352 -2.622,-2.5113 -6.5,-2.5113 -5.207,0 -8.087,3.7669 -2.844,3.7299 -2.844,10.8205 v 1.2925 q 0,6.9059 2.844,10.6358 2.843,3.7299 8.124,3.7299 z"
       style="font-size:265.228px;line-height:1.25;font-family:Roboto;-inkscape-font-specification:Roboto;letter-spacing:0px;word-spacing:0px;fill:#f9f9f9;fill-opacity:1;stroke-width:0.472704"
       id="path8319" /><path
       d="m 8573.137,2014.236 15.023,15.6702 v 49.2123 h 23.959 v -198.921 h -23.959 v 120.3109 l -12.821,-15.4112 -43.644,-46.1041 h -29.138 l 54.522,58.5367 -60.868,81.5887 h 28.102 z"
       style="font-size:265.228px;line-height:1.25;font-family:Roboto;-inkscape-font-specification:Roboto;letter-spacing:0px;word-spacing:0px;fill:#f9f9f9;fill-opacity:1;stroke-width:1.65768"
       id="path8321" /><path
       d="m 8698.24,1960.4911 q -5.439,-0.9065 -11.785,-0.9065 -23.57,0 -31.988,20.0734 v 99.4605 h -23.959 v -140.1254 h 23.311 l 0.389,16.1883 q 11.785,-18.7784 33.412,-18.7784 6.994,0 10.62,1.8131 z"
       style="font-size:265.228px;line-height:1.25;font-family:Roboto;-inkscape-font-specification:Roboto;letter-spacing:0px;word-spacing:0px;fill:#f9f9f9;fill-opacity:1;stroke-width:1.65768"
       id="path8323" /><path
       d="m 8801.586,2079.1185 q -2.073,-4.1442 -3.368,-14.7637 -16.706,17.3538 -39.887,17.3538 -20.721,0 -34.06,-11.6555 -13.21,-11.7851 -13.21,-29.7864 0,-21.8865 16.577,-33.9305 16.706,-12.1736 46.881,-12.1736 h 23.311 v -11.008 q 0,-12.562 -7.512,-19.9439 -7.511,-7.5113 -22.145,-7.5113 -12.821,0 -21.498,6.4753 -8.677,6.4753 -8.677,15.6702 h -24.088 q 0,-10.49 7.382,-20.2029 7.511,-9.8425 20.203,-15.5407 12.821,-5.6983 28.103,-5.6983 24.217,0 37.945,12.1736 13.727,12.044 14.245,33.283 v 64.4939 q 0,19.2964 4.922,30.6929 v 2.0721 z m -39.759,-18.2604 q 11.267,0 21.369,-5.8277 10.101,-5.8278 14.634,-15.1522 v -28.7503 h -18.779 q -44.032,0 -44.032,25.7717 0,11.267 7.512,17.6127 7.511,6.3458 19.296,6.3458 z"
       style="font-size:265.228px;line-height:1.25;font-family:Roboto;-inkscape-font-specification:Roboto;letter-spacing:0px;word-spacing:0px;fill:#f9f9f9;fill-opacity:1;stroke-width:1.65768"
       id="path8325" /><path
       d="m 8898.456,2014.236 -15.023,15.6702 v 49.2123 h -23.958 v -198.921 h 23.958 v 120.3109 l 12.821,-15.4112 43.644,-46.1041 h 29.139 l -54.522,58.5367 60.867,81.5887 h -28.102 z"
       style="font-size:265.228px;line-height:1.25;font-family:Roboto;-inkscape-font-specification:Roboto;letter-spacing:0px;word-spacing:0px;fill:#f9f9f9;fill-opacity:1;stroke-width:1.65768"
       id="path8327" /><path
       d="m 9039.747,2081.7086 q 28.491,0 46.363,-18.6489 17.872,-18.7783 17.872,-50.1187 v -4.4032 q 0,-20.8505 -7.9,-37.1682 -8.03,-16.4473 -22.275,-25.6422 -14.375,-9.3244 -31.082,-9.3244 -27.325,0 -42.478,18.0013 -15.152,18.0013 -15.152,51.5434 v 9.9719 h 94.928 q -0.518,20.7209 -12.044,33.542 -11.655,12.6916 -29.527,12.6916 -12.692,0 -21.498,-5.1802 -8.807,-5.1803 -15.411,-13.7277 l -14.635,11.3966 q 17.613,27.0667 52.839,27.0667 z m 2.978,-125.6207 q 14.505,0 24.347,10.6195 9.843,10.49 12.174,29.5273 h -70.192 v -1.8131 q 1.036,-18.2603 9.842,-28.2322 8.807,-10.1015 23.829,-10.1015 z"
       style="font-size:265.228px;line-height:1.25;font-family:Roboto;-inkscape-font-specification:Roboto;letter-spacing:0px;word-spacing:0px;fill:#f9f9f9;fill-opacity:1;stroke-width:1.65768"
       id="path8329" /><path
       d="m 9154.359,1938.9931 0.778,17.6128 q 16.058,-20.2029 41.959,-20.2029 44.421,0 44.81,50.1188 v 92.5967 h -23.959 v -92.7262 q -0.13,-15.1522 -6.993,-22.4045 -6.735,-7.2524 -21.11,-7.2524 -11.655,0 -20.462,6.2163 -8.806,6.2163 -13.727,16.3177 v 99.8491 h -23.959 v -140.1254 z"
       style="font-size:265.228px;line-height:1.25;font-family:Roboto;-inkscape-font-specification:Roboto;letter-spacing:0px;word-spacing:0px;fill:#f9f9f9;fill-opacity:1;stroke-width:1.65768"
       id="path8331" /></g><g
     id="g464"
     transform="translate(-26.406267,-36.025159)"
     inkscape:export-filename="../../../../../home/dekram/RepositoryDisk/Development/repository/alchemicats.pet/assets/images/dekram-watermark.svg"
     inkscape:export-xdpi="2587.7417"
     inkscape:export-ydpi="2587.7417"><path
       style="font-size:3.175px;font-family:Roboto;-inkscape-font-specification:Roboto;fill:#f9f9f9;fill-opacity:0.6;stroke-width:0.0520492"
       d="m 31.250215,38.334941 -0.0027,-0.03538 q -0.03385,0.04147 -0.09424,0.04147 -0.05795,0 -0.09363,-0.04697 -0.03569,-0.04697 -0.03629,-0.118026 v -0.0088 q 0,-0.07563 0.03568,-0.12199 0.03599,-0.04635 0.09485,-0.04635 0.05825,0 0.09149,0.03904 v -0.171397 h 0.05673 v 0.468444 z m -0.170177,-0.161333 q 0,0.0491 0.02074,0.08448 0.02074,0.03507 0.06649,0.03507 0.05246,0 0.07807,-0.04788 V 38.0934 q -0.02531,-0.04697 -0.07746,-0.04697 -0.04605,0 -0.0671,0.03598 -0.02074,0.03569 -0.02074,0.08478 z"
       id="path448" /><path
       style="font-size:3.175px;font-family:Roboto;-inkscape-font-specification:Roboto;fill:#f9f9f9;fill-opacity:0.6;stroke-width:0.0520492"
       d="m 30.815014,38.046433 q 0.02714,0 0.04788,0.01464 0.02074,0.01464 0.03263,0.03813 v 0.235747 h 0.05642 v -0.32999 h -0.05337 l -0.0018,0.04117 q -0.03751,-0.04727 -0.09851,-0.04727 -0.04849,0 -0.07685,0.02714 -0.02867,0.02714 -0.02898,0.09119 v 0.217754 h 0.05673 v -0.216839 q 0,-0.03873 0.01708,-0.0552 0.01677,-0.01647 0.0488,-0.01647 z"
       id="path447" /><path
       style="font-size:3.175px;font-family:Roboto;-inkscape-font-specification:Roboto;fill:#f9f9f9;fill-opacity:0.6;stroke-width:0.0520492"
       d="m 30.556394,38.334941 q -0.0055,-0.01189 -0.0079,-0.03477 -0.01586,0.01677 -0.03965,0.02898 -0.02379,0.01189 -0.05429,0.01189 -0.05062,0 -0.08112,-0.02836 -0.0305,-0.02836 -0.0305,-0.06954 0,-0.05306 0.04026,-0.08051 0.04026,-0.02776 0.108267,-0.02776 h 0.05581 v -0.02623 q 0,-0.02928 -0.01769,-0.04666 -0.01739,-0.01769 -0.05184,-0.01769 -0.03202,0 -0.05184,0.01586 -0.01952,0.01555 -0.01952,0.03629 h -0.05642 q 0,-0.03538 0.03569,-0.06648 0.03568,-0.03111 0.09546,-0.03111 0.05368,0 0.08814,0.02745 0.03446,0.02745 0.03446,0.08295 v 0.148219 q 0,0.04575 0.01159,0.07258 v 0.0049 z m -0.09363,-0.04331 q 0.0305,0 0.05276,-0.01525 0.02257,-0.01525 0.03172,-0.03385 v -0.06801 h -0.05246 q -0.09515,0.0018 -0.09515,0.061 0,0.02348 0.01586,0.03995 0.01586,0.01617 0.04727,0.01617 z"
       id="text447" /></g><path
     style="font-size:3.175px;font-family:Roboto;-inkscape-font-specification:Roboto;fill:#afafb7;fill-opacity:1;stroke-width:0.158614"
     d="m 15.459954,2.8252836 q 0,-0.05518 -0.04064,-0.09911 -0.03972,-0.04488 -0.184758,-0.0748 -0.167208,-0.03459 -0.266056,-0.100042 -0.09885,-0.06638 -0.09885,-0.192608 0,-0.119679 0.100693,-0.207568 0.101623,-0.08789 0.269749,-0.08789 0.179217,0 0.27991,0.09257 0.100693,0.09257 0.100693,0.22346 h -0.170904 q 0,-0.06264 -0.05451,-0.117813 -0.05451,-0.0561 -0.155198,-0.0561 -0.106236,0 -0.152427,0.04675 -0.04619,0.04675 -0.04619,0.101915 0,0.05517 0.04249,0.08975 0.04342,0.03367 0.182911,0.06545 0.183835,0.04207 0.273445,0.11033 0.09052,0.06826 0.09052,0.192609 0,0.133703 -0.106236,0.216917 -0.105307,0.08321 -0.27991,0.08321 -0.198618,0 -0.30393,-0.102847 -0.105307,-0.102846 -0.105307,-0.228138 h 0.171826 q 0.0055,0.107525 0.08129,0.148665 0.07668,0.0402 0.156121,0.0402 0.104389,0 0.159818,-0.04114 0.05542,-0.04114 0.05542,-0.103789 z"
     id="path412"
     inkscape:export-filename="alchemicats-watermark.svg"
     inkscape:export-xdpi="2587.7666"
     inkscape:export-ydpi="2587.7666" /><path
     style="font-size:3.175px;font-family:Roboto;-inkscape-font-specification:Roboto;fill:#afafb7;fill-opacity:1;stroke-width:0.158614"
     d="m 14.635908,3.0936256 q -0.0582,0.0187 -0.132103,0.0187 -0.09515,0 -0.162588,-0.0589 -0.06744,-0.0589 -0.06744,-0.211308 v -0.627379 h -0.182912 v -0.132768 h 0.182912 v -0.245903 h 0.170902 v 0.245903 h 0.186608 v 0.132768 h -0.186608 v 0.628313 q 0,0.0776 0.03326,0.09911 0.03326,0.02151 0.07668,0.02151 0.03233,0 0.08037,-0.0112 z"
     id="path411" /><path
     style="font-size:3.175px;font-family:Roboto;-inkscape-font-specification:Roboto;fill:#afafb7;fill-opacity:1;stroke-width:0.158614"
     d="m 13.713023,3.0936256 q -0.01663,-0.03646 -0.02402,-0.106594 -0.04803,0.05143 -0.120094,0.08882 -0.07206,0.03646 -0.164436,0.03646 -0.15335,0 -0.245731,-0.08695 -0.09238,-0.08695 -0.09238,-0.213177 0,-0.162689 0.121942,-0.246838 0.12194,-0.08509 0.327948,-0.08509 h 0.169054 v -0.08041 q 0,-0.08977 -0.05358,-0.143054 -0.05266,-0.05423 -0.157046,-0.05423 -0.097,0 -0.157044,0.04861 -0.05912,0.04768 -0.05912,0.111261 h -0.170903 q 0,-0.108456 0.108085,-0.203827 0.108084,-0.09538 0.28915,-0.09538 0.162587,0 0.266976,0.08414 0.104389,0.08414 0.104389,0.254318 v 0.454404 q 0,0.140249 0.0351,0.222529 v 0.01496 z m -0.283607,-0.132769 q 0.09238,0 0.159818,-0.04675 0.06836,-0.04675 0.09608,-0.103789 v -0.208499 h -0.158897 q -0.288224,0.0055 -0.288224,0.186997 0,0.07199 0.04803,0.122484 0.04803,0.04956 0.143189,0.04956 z"
     id="path410" /><path
     style="font-size:3.175px;font-family:Roboto;-inkscape-font-specification:Roboto;fill:#afafb7;fill-opacity:1;stroke-width:0.158614"
     d="m 12.468657,2.9702076 q 0.09145,0 0.159817,-0.05517 0.06929,-0.05517 0.07575,-0.141183 h 0.16259 q -0.0065,0.135573 -0.122866,0.237487 -0.116397,0.100972 -0.275291,0.100972 -0.225407,0 -0.335339,-0.150534 -0.109003,-0.150534 -0.109003,-0.354361 v -0.03927 q 0,-0.203827 0.109003,-0.354361 0.109932,-0.150533 0.335339,-0.150533 0.175521,0 0.283606,0.105651 0.108084,0.104721 0.114546,0.260863 H 12.70422 q -0.0065,-0.0935 -0.07021,-0.158947 -0.06282,-0.06545 -0.16536,-0.06545 -0.105306,0 -0.165359,0.05423 -0.05912,0.05423 -0.08407,0.137444 -0.02402,0.08321 -0.02402,0.171103 v 0.03927 q 0,0.08882 0.02402,0.172039 0.02402,0.08321 0.08314,0.137443 0.06005,0.0533 0.166283,0.0533 z"
     id="path409" /><path
     style="font-size:3.175px;font-family:Roboto;-inkscape-font-specification:Roboto;fill:#afafb7;fill-opacity:1;stroke-width:0.158614"
     d="m 11.824759,2.0819656 v 1.01166 h -0.171826 v -1.01166 z"
     id="path408" /><path
     style="font-size:3.175px;font-family:Roboto;-inkscape-font-specification:Roboto;fill:#afafb7;fill-opacity:1;stroke-width:0.158614"
     d="m 11.051531,2.2091246 q 0.168131,0 0.230025,0.143053 v 0.741448 h 0.171827 v -1.01166 h -0.162589 l -0.0046,0.11033 q -0.108084,-0.129029 -0.295614,-0.129029 -0.09608,0 -0.170904,0.03927 -0.07575,0.03832 -0.115475,0.12342 -0.04989,-0.07294 -0.129332,-0.117813 -0.08037,-0.04488 -0.188454,-0.04488 -0.160741,0 -0.247577,0.08695 -0.08776,0.08695 -0.08776,0.278627 v 0.664778 h 0.171778 v -0.666647 q 0,-0.12716 0.0582,-0.172039 0.05729,-0.04581 0.155199,-0.04581 0.103459,0 0.162588,0.06264 0.05912,0.0617 0.06836,0.150534 v 0.671322 h 0.170902 v -0.665713 q 0,-0.118744 0.0582,-0.168298 0.0582,-0.05049 0.155199,-0.05049 z"
     id="path406" /><g
     id="g226"
     transform="matrix(0.41036007,0.76010782,-0.66846958,0.46661499,37.857415,-23.158511)"><path
       id="path211"
       style="fill:#e8bbdc;fill-opacity:1;stroke-width:0.030536"
       d="m 5.5388456,42.875242 0.1380181,0.29037 C 4.6430572,42.307533 4.7990473,42.920672 4.5795254,43.529552 4.7404916,42.100483 4.5618714,42.604731 5.5388492,42.87524 Z"
       sodipodi:nodetypes="cccc" /><path
       id="path212"
       style="fill:#ccff00;fill-opacity:1;stroke-width:0.0158734"
       d="M 5.9371229,42.846918 6.146105,43.076742 5.8166712,43.180214 5.6076891,42.95039 Z" /><path
       id="path213"
       style="fill:#c7e93a;fill-opacity:1;stroke-width:0.0140957"
       d="m 5.279455,41.815242 -0.097796,-0.257926 0.3058533,0.02181 0.097796,0.257925 z" /><path
       id="path214"
       style="fill:#e8bbdc;fill-opacity:1;stroke-width:0.0140957"
       d="M 6.4748247,41.953206 6.2269373,42.074208 6.2206473,41.767642 6.4685347,41.64664 Z" /><path
       id="path215"
       style="fill:#8fb300;fill-opacity:1;stroke-width:0.0155499"
       d="M 5.3975003,42.907065 5.1918158,42.682803 5.5140987,42.58006 5.7197834,42.804321 Z" /><path
       id="path216"
       style="fill:#c97ab0;fill-opacity:1;stroke-width:0.0155499"
       d="M 4.9081587,43.124134 4.6988718,42.903231 5.0194497,42.795285 5.2287368,43.016188 Z" /><path
       id="path217"
       style="fill:#8fb300;fill-opacity:1;stroke-width:0.0128014"
       d="m 4.7821305,42.315735 -0.1397742,-0.207897 0.2749928,-0.0439 0.1397743,0.207897 z" /><path
       id="path218"
       style="fill:#e97ab0;fill-opacity:1;stroke-width:0.030536"
       d="M 5.8870023,42.507753 C 5.3476846,41.801498 5.6008029,41.50459 5.8725926,41.217326 l 0.2851096,0.534709 c -0.97517,-0.09924 0.0096,0.86028 0.01441,1.290428 z"
       sodipodi:nodetypes="ccccc" /><path
       id="path219"
       style="fill:#c97ab0;fill-opacity:1;stroke-width:0.0155499"
       d="M 6.1158847,42.919821 5.8440462,42.783062 6.1089587,42.57272 6.3807974,42.709479 Z" /><path
       id="path220"
       style="fill:#ccff00;fill-opacity:1;stroke-width:0.030536"
       d="M 5.2310603,43.534042 5.0492232,43.315686 c 1.2424289,-0.511298 0.092105,-1.26442 -0.1176826,-1.606781 0.8599465,0.901535 0.9962321,1.088759 0.2995197,1.825137 z"
       sodipodi:nodetypes="cccc" /><path
       id="path221"
       style="fill:#b4e100;fill-opacity:1;stroke-width:0.0155499"
       d="M 5.6346587,43.587109 5.3628202,43.45035 5.6277327,43.240007 5.8995714,43.376766 Z" /><path
       id="path222"
       style="fill:#e97ab0;fill-opacity:1;stroke-width:0.0171228"
       d="m 5.4529659,42.540708 -0.123076,-0.31166 0.3718647,0.02141 0.1230763,0.311661 z" /><path
       id="path223"
       style="fill:#e8bbdc;fill-opacity:1;stroke-width:0.00608134"
       d="m 6.0488602,43.307298 -0.081072,-0.08712 0.1257425,-0.0411 0.081072,0.08712 z" /><path
       id="path224"
       style="fill:#b4e100;fill-opacity:1;stroke-width:0.00608134"
       d="m 6.3601281,42.50988 0.068145,-0.09756 0.066604,0.1143 -0.068145,0.09756 z" /><path
       id="path225"
       style="fill:#e97ab0;fill-opacity:1;stroke-width:0.012678"
       d="m 5.4901163,43.905305 -0.216452,0.121251 -0.021221,-0.274972 0.2164521,-0.121252 z" /><path
       id="path226"
       style="fill:#ccff00;fill-opacity:1;stroke-width:0.012678"
       d="m 5.9053348,43.957438 -0.216452,0.121251 -0.021221,-0.274972 0.2164521,-0.121252 z" /></g><path
     style="font-size:3.175px;font-family:Roboto;-inkscape-font-specification:Roboto;fill:#afafb7;fill-opacity:1;stroke-width:0.158614"
     d="m 9.0164142,2.9169136 q 0.04896,0.0748 0.13857,0.135573 0.08961,0.05984 0.237415,0.05984 0.208779,0 0.334415,-0.137443 0.124713,-0.137446 0.124713,-0.351558 v -0.03927 q 0,-0.165494 -0.06189,-0.281432 -0.06282,-0.11687 -0.162588,-0.177648 -0.09978,-0.06171 -0.212475,-0.06171 -0.21432,0 -0.312243,0.142119 -0.09884,0.141183 -0.09884,0.353425 v 0.0776 h 0.67622 q -0.0037,0.139314 -0.08129,0.237488 -0.07852,0.09724 -0.215245,0.09724 -0.09053,0 -0.15335,-0.03739 -0.06282,-0.03739 -0.109932,-0.100053 z m 0.398156,-0.711528 q 0.101623,0 0.171828,0.0748 0.07021,0.0748 0.08776,0.215046 h -0.499775 v -0.01308 q 0.0065,-0.100973 0.0582,-0.188868 0.05081,-0.08789 0.181988,-0.08789 z"
     id="path405" /><path
     style="font-size:3.175px;font-family:Roboto;-inkscape-font-specification:Roboto;fill:#afafb7;fill-opacity:1;stroke-width:0.158614"
     d="m 7.4200762,2.9702086 q 0.09146,0 0.159817,-0.05518 0.06929,-0.05516 0.07575,-0.141183 h 0.162589 q -0.0065,0.135574 -0.122866,0.237487 -0.116399,0.100973 -0.275291,0.100973 -0.225407,0 -0.335339,-0.150535 -0.109002,-0.150533 -0.109002,-0.354362 v -0.03927 q 0,-0.203827 0.109002,-0.354361 0.109933,-0.150533 0.335339,-0.150533 0.175521,0 0.283606,0.105652 0.108084,0.10472 0.114546,0.260862 h -0.162588 q -0.0065,-0.0935 -0.07021,-0.158948 -0.06282,-0.06545 -0.16536,-0.06545 -0.105307,0 -0.16536,0.05423 -0.05912,0.05423 -0.08407,0.137443 -0.02402,0.08321 -0.02402,0.171104 v 0.03927 q 0,0.08882 0.02402,0.172039 0.02402,0.08321 0.08314,0.137443 0.06005,0.0533 0.166285,0.0533 z"
     id="path403" /><path
     style="font-size:3.175px;font-family:Roboto;-inkscape-font-specification:Roboto;fill:#afafb7;fill-opacity:1;stroke-width:0.158614"
     d="m 6.7761772,1.6574816 v 1.436145 h -0.171826 v -1.436145 z"
     id="path402" /><path
     style="font-size:3.175px;font-family:Roboto;-inkscape-font-specification:Roboto;fill:#afafb7;fill-opacity:1;stroke-width:0.158614"
     d="m 6.2265082,3.0936256 q -0.01663,-0.03646 -0.02402,-0.106594 -0.04803,0.05143 -0.120095,0.08882 -0.07206,0.03646 -0.164436,0.03646 -0.15335,0 -0.24573,-0.08695 -0.09238,-0.08695 -0.09238,-0.213177 0,-0.162689 0.121943,-0.246838 0.12194,-0.08509 0.327948,-0.08509 h 0.169053 v -0.08041 q 0,-0.08977 -0.05358,-0.143054 -0.05266,-0.05423 -0.157044,-0.05423 -0.097,0 -0.157047,0.04861 -0.05912,0.04768 -0.05912,0.111261 h -0.170896 q 0,-0.108456 0.108085,-0.203827 0.108084,-0.09538 0.289149,-0.09538 0.162588,0 0.266977,0.08414 0.104388,0.08414 0.104388,0.254318 v 0.454404 q 0,0.140249 0.0351,0.222529 v 0.01496 z m -0.283605,-0.132769 q 0.09238,0 0.159817,-0.04675 0.06836,-0.04675 0.09608,-0.103789 v -0.208502 h -0.158893 q -0.288225,0.0055 -0.288225,0.186997 0,0.07199 0.04803,0.122483 0.04804,0.04956 0.143189,0.04956 z"
     id="path426" /><path
     d="m 8.4186772,3.1549316 0.04415,-0.235995 h -0.241588 c -0.05194,0.199981 0.01711,0.379741 -0.204068,0.379741 l 0.0732,-0.379741 h -0.21963 c -0.02595,-0.184625 0.09363,-0.127821 0.244333,-0.127821 l 0.06223,-0.326946 h -0.237026 c -0.02772,-0.190856 0.10859,-0.128739 0.261721,-0.128739 l 0.07413,-0.385298 c 0.237018,-0.03904 0.08792,0.227951 0.05765,0.385298 h 0.241587 l 0.172774,-0.801559 c 0.236007,-0.03889 -0.01183,0.645206 -0.04192,0.801559 0.161178,-0.004 0.185767,-0.03172 0.185767,0.128739 h -0.210479 l -0.06315,0.326946 c 0.166423,-0.0018 0.204984,-0.04062 0.204984,0.127821 h -0.229673 c -0.05192,0.199981 0.04617,0.235995 -0.175004,0.235995 z m -0.172737,-0.363809 h 0.241588 l 0.06315,-0.326947 h -0.241589 z"
     id="text445"
     style="font-size:3.175px;font-family:Roboto;-inkscape-font-specification:Roboto;fill:#e97ab0;fill-opacity:1;stroke-width:0.157121"
     aria-label="#"
     sodipodi:nodetypes="ccccccccccccccccccccccccccc" /><g
     id="g481"
     transform="matrix(1.1188646,0,0,1.1488174,-30.17058,-40.20677)"
     style="fill:#afafb7;fill-opacity:1"><path
       style="font-size:0.742729px;font-family:Roboto;-inkscape-font-specification:Roboto;fill:#afafb7;fill-opacity:1;stroke-width:0.0618939"
       d="m 39.72802,38.179336 q -0.03228,0 -0.05694,0.01741 -0.02466,0.01741 -0.0388,0.04533 v 0.280336 h -0.06709 v -0.392399 h 0.06347 l 0.0022,0.04896 q 0.04461,-0.05621 0.117139,-0.05621 0.05766,0 0.09139,0.03228 0.03409,0.03228 0.03445,0.108436 v 0.258939 h -0.06749 v -0.257864 q 0,-0.04606 -0.02031,-0.06564 -0.01995,-0.01958 -0.05803,-0.01958 z"
       id="path464" /><path
       style="font-size:0.742729px;font-family:Roboto;-inkscape-font-specification:Roboto;fill:#afafb7;fill-opacity:1;stroke-width:0.0618939"
       d="m 39.457475,38.130016 v 0.392399 h -0.06745 v -0.392399 z"
       id="path463" /><path
       style="font-size:0.742729px;font-family:Roboto;-inkscape-font-specification:Roboto;fill:#afafb7;fill-opacity:1;stroke-width:0.0618939"
       d="m 38.943226,38.322268 q 0,-0.08523 0.04787,-0.142163 0.04787,-0.0573 0.130196,-0.0573 0.08232,0 0.130195,0.05621 0.04787,0.05585 0.04896,0.139624 v 0.01197 q 0,0.08523 -0.04823,0.142163 -0.04787,0.05694 -0.130195,0.05694 -0.08269,0 -0.130921,-0.05694 -0.04787,-0.05694 -0.04787,-0.142163 z m 0.06709,0.0083 q 0,0.05839 0.02756,0.101182 0.02793,0.04279 0.08414,0.04279 0.05476,0 0.08269,-0.04207 0.02792,-0.04243 0.02829,-0.100819 v -0.0094 q 0,-0.05766 -0.02793,-0.10082 -0.02792,-0.04352 -0.08377,-0.04352 -0.05549,0 -0.08341,0.04352 -0.02756,0.04316 -0.02756,0.10082 z"
       id="path461" /><path
       style="font-size:0.742729px;font-family:Roboto;-inkscape-font-specification:Roboto;fill:#afafb7;fill-opacity:1;stroke-width:0.0618939"
       d="m 38.785106,38.130057 h 0.06746 v 0.439183 q 0,0.111699 -0.102633,0.111699 -0.02248,0 -0.04171,-0.0062 l 3.63e-4,-0.05404 q 0.01342,0.0033 0.03083,0.0033 0.04425,0 0.0457,-0.05041 z"
       id="path460" /><path
       style="font-size:0.742729px;font-family:Roboto;-inkscape-font-specification:Roboto;fill:#afafb7;fill-opacity:1;stroke-width:0.0618939"
       d="m 38.444195,38.418373 q 0,-0.0214 -0.01596,-0.03844 -0.01559,-0.01741 -0.07253,-0.02901 -0.06564,-0.01342 -0.104446,-0.0388 -0.0388,-0.02575 -0.0388,-0.07471 0,-0.04642 0.03953,-0.08051 0.03989,-0.03409 0.105897,-0.03409 0.07036,0 0.109886,0.0359 0.03953,0.0359 0.03953,0.08668 h -0.06709 q 0,-0.0243 -0.0214,-0.0457 -0.0214,-0.02176 -0.06093,-0.02176 -0.04171,0 -0.05984,0.01813 -0.01813,0.01813 -0.01813,0.03953 0,0.0214 0.01668,0.03481 0.01705,0.01306 0.07181,0.02539 0.07217,0.01632 0.107348,0.04279 0.03554,0.02647 0.03554,0.07471 0,0.05186 -0.04171,0.08414 -0.04134,0.03228 -0.109886,0.03228 -0.07797,0 -0.119315,-0.03989 -0.04134,-0.03989 -0.04134,-0.08849 h 0.06746 q 0.0022,0.04171 0.03191,0.05766 0.0301,0.01559 0.06129,0.01559 0.04098,0 0.06274,-0.01596 0.02176,-0.01596 0.02176,-0.04026 z"
       id="path458" /><path
       style="font-size:0.742729px;font-family:Roboto;-inkscape-font-specification:Roboto;fill:#afafb7;fill-opacity:1;stroke-width:0.0618939"
       d="m 37.809541,38.453913 q 0.01922,0.02901 0.0544,0.05259 0.03518,0.02321 0.0932,0.02321 0.08196,0 0.131283,-0.05331 0.04896,-0.05331 0.04896,-0.13636 v -0.01523 q 0,-0.06419 -0.0243,-0.109161 -0.02466,-0.04533 -0.06383,-0.06891 -0.03917,-0.02394 -0.08341,-0.02394 -0.08414,0 -0.12258,0.05512 -0.0388,0.05476 -0.0388,0.137085 v 0.0301 h 0.265467 q -0.0014,0.05404 -0.03191,0.09212 -0.03083,0.03772 -0.0845,0.03772 -0.03554,0 -0.0602,-0.01451 -0.02466,-0.01451 -0.04316,-0.0388 z m 0.156307,-0.275984 q 0.03989,0 0.06745,0.02901 0.02756,0.02901 0.03445,0.08341 h -0.196199 v -0.0051 q 0.0025,-0.03917 0.02285,-0.07326 0.01995,-0.03409 0.07144,-0.03409 z"
       id="path457" /><path
       style="font-size:0.742729px;font-family:Roboto;-inkscape-font-specification:Roboto;fill:#afafb7;fill-opacity:1;stroke-width:0.0618939"
       d="m 37.655771,38.522453 -0.0015,-0.0388 q -0.03844,0.04606 -0.1146,0.04606 -0.05766,0 -0.0932,-0.03409 -0.03554,-0.03409 -0.03554,-0.112424 v -0.253138 h 0.06709 v 0.253863 q 0,0.05295 0.02212,0.07108 0.02249,0.01777 0.05005,0.01777 0.0758,0 0.10227,-0.05694 v -0.285777 h 0.06745 v 0.392399 z"
       id="path456" /><path
       style="font-size:0.742729px;font-family:Roboto;-inkscape-font-specification:Roboto;fill:#afafb7;fill-opacity:1;stroke-width:0.0618939"
       d="m 37.166179,38.179376 q -0.03228,0 -0.05694,0.01741 -0.02466,0.01741 -0.0388,0.04533 v 0.280336 h -0.06709 v -0.557046 h 0.06709 v 0.211431 q 0.04461,-0.05404 0.115689,-0.05404 0.05766,0 0.09139,0.03228 0.03409,0.03228 0.03445,0.108436 v 0.258939 h -0.06746 v -0.257898 q 0,-0.04606 -0.02031,-0.06564 -0.01995,-0.01958 -0.05803,-0.01958 z"
       id="path455" /><path
       style="font-size:0.742729px;font-family:Roboto;-inkscape-font-specification:Roboto;fill:#afafb7;fill-opacity:1;stroke-width:0.0618939"
       d="m 36.571778,38.179376 q -0.03228,0 -0.05694,0.01741 -0.02466,0.01741 -0.0388,0.04533 v 0.280336 h -0.06709 v -0.392399 h 0.06347 l 0.0022,0.04896 q 0.04461,-0.05621 0.11714,-0.05621 0.05766,0 0.09139,0.03228 0.03409,0.03228 0.03445,0.108436 v 0.258939 h -0.06746 v -0.257904 q 0,-0.04606 -0.02031,-0.06564 -0.01995,-0.01958 -0.05803,-0.01958 z"
       id="path454" /><path
       style="font-size:0.742729px;font-family:Roboto;-inkscape-font-specification:Roboto;fill:#afafb7;fill-opacity:1;stroke-width:0.0618939"
       d="m 36.002765,38.45386 q 0.01922,0.02901 0.0544,0.05259 0.03518,0.02321 0.0932,0.02321 0.08196,0 0.131283,-0.05331 0.04896,-0.05331 0.04896,-0.13636 v -0.01523 q 0,-0.06419 -0.0243,-0.109161 -0.02466,-0.04533 -0.06383,-0.06891 -0.03917,-0.02394 -0.08341,-0.02394 -0.08414,0 -0.122579,0.05512 -0.0388,0.05476 -0.0388,0.137085 v 0.0301 h 0.265468 q -0.0015,0.05404 -0.03191,0.09212 -0.03083,0.03772 -0.0845,0.03772 -0.03554,0 -0.0602,-0.01451 -0.02466,-0.01451 -0.04316,-0.0388 z m 0.156307,-0.275984 q 0.03989,0 0.06746,0.02901 0.02756,0.02901 0.03445,0.08341 h -0.1962 v -0.0051 q 0.0025,-0.03917 0.02285,-0.07326 0.01995,-0.03409 0.07144,-0.03409 z"
       id="path453" /><path
       style="font-size:0.742729px;font-family:Roboto;-inkscape-font-specification:Roboto;fill:#afafb7;fill-opacity:1;stroke-width:0.0618939"
       d="m 35.768848,38.179326 q -0.03228,0 -0.05694,0.01741 -0.02466,0.01741 -0.0388,0.04533 v 0.280336 h -0.06709 v -0.557046 h 0.06709 v 0.211431 q 0.04461,-0.05404 0.115689,-0.05404 0.05766,0 0.09139,0.03228 0.03409,0.03228 0.03445,0.108436 v 0.258939 h -0.06746 v -0.257848 q 0,-0.04606 -0.02031,-0.06564 -0.01995,-0.01958 -0.05803,-0.01958 z"
       id="path452" /><path
       style="font-size:0.742729px;font-family:Roboto;-inkscape-font-specification:Roboto;fill:#afafb7;fill-opacity:1;stroke-width:0.0618939"
       d="m 35.53747,38.130006 -0.113875,0.392399 h -0.0544 l -0.09538,-0.297019 -0.09284,0.297019 h -0.05476 L 35.01234,38.130006 h 0.06709 l 0.07725,0.29303 0.09139,-0.29303 h 0.05404 l 0.09284,0.299196 0.0758,-0.299196 z"
       id="text452" /><path
       id="path476"
       style="fill:#afafb7;fill-opacity:1;stroke-width:0.00679738"
       d="m 39.35226,37.922001 0.09797,-0.08998 0.04501,0.140849 -0.09797,0.08998 z" /></g></svg>
