<?xml version="1.0" encoding="UTF-8" standalone="no"?>
<svg
   width="1609.783203125"
   height="200.04931640625"
   viewBox="0 0 1609.7832 200.04932"
   version="1.1"
   id="svg6999"
   sodipodi:docname="dekram-watermark.svg"
   inkscape:version="1.2.2 (b0a8486541, 2022-12-01)"
   xml:space="preserve"
   inkscape:export-filename="bat-zelda.svg"
   inkscape:export-xdpi="1.5650059"
   inkscape:export-ydpi="1.5650059"
   xmlns:inkscape="http://www.inkscape.org/namespaces/inkscape"
   xmlns:sodipodi="http://sodipodi.sourceforge.net/DTD/sodipodi-0.dtd"
   xmlns="http://www.w3.org/2000/svg"
   xmlns:svg="http://www.w3.org/2000/svg"><sodipodi:namedview
     id="namedview7001"
     pagecolor="#ffffff"
     bordercolor="#666666"
     borderopacity="1.0"
     inkscape:showpageshadow="2"
     inkscape:pageopacity="0.0"
     inkscape:pagecheckerboard="0"
     inkscape:deskcolor="#d1d1d1"
     inkscape:document-units="mm"
     showgrid="false"
     inkscape:zoom="0.11313708"
     inkscape:cx="2457.1962"
     inkscape:cy="-446.36118"
     inkscape:window-width="1452"
     inkscape:window-height="640"
     inkscape:window-x="50"
     inkscape:window-y="101"
     inkscape:window-maximized="0"
     inkscape:current-layer="layer1"
     showguides="true" /><defs
     id="defs6996" /><g
     inkscape:label="Layer 1"
     inkscape:groupmode="layer"
     id="layer1"
     transform="translate(-8681.1711,4296.9169)"><g
       id="g8333"
       transform="matrix(0.99274715,0,0,0.99274715,1116.0787,-6163.4775)"
       style="fill:#ffffff;fill-opacity:1"
       inkscape:export-filename="dekram-watermark.png"
       inkscape:export-xdpi="1.5650059"
       inkscape:export-ydpi="1.5650059"><path
         d="m 7620.3616,2007.8902 q 0,-32.2469 15.2817,-51.8023 15.2817,-19.6849 40.0173,-19.6849 24.6061,0 38.9812,16.8358 v -73.0413 h 23.9586 v 198.921 h -22.016 l -1.1655,-15.0227 q -14.3752,17.6128 -40.0173,17.6128 -24.3471,0 -39.7583,-19.9439 -15.2817,-19.9439 -15.2817,-52.0614 z m 23.9586,2.7197 q 0,23.829 9.8424,37.2977 9.8424,13.4686 27.1962,13.4686 22.7931,0 33.283,-20.462 v -64.3644 q -10.7489,-19.8144 -33.024,-19.8144 -17.6128,0 -27.4552,13.5981 -9.8424,13.5982 -9.8424,40.2764 z"
         style="font-size:265.228px;line-height:1.25;font-family:Roboto;-inkscape-font-specification:Roboto;letter-spacing:0px;word-spacing:0px;fill:#ffffff;fill-opacity:1;stroke-width:1.65768"
         id="path8305" /><path
         d="m 7824.3333,2081.7086 q 28.4913,0 46.3631,-18.6489 17.8718,-18.7783 17.8718,-50.1187 v -4.4032 q 0,-20.8505 -7.8999,-37.1682 -8.0294,-16.4473 -22.275,-25.6422 -14.3751,-9.3244 -31.0814,-9.3244 -27.3257,0 -42.4779,18.0013 -15.1522,18.0013 -15.1522,51.5434 v 9.9719 h 94.9278 q -0.518,20.7209 -12.0441,33.542 -11.6555,12.6916 -29.5273,12.6916 -12.6916,0 -21.498,-5.1802 -8.8064,-5.1803 -15.4112,-13.7277 l -14.6341,11.3966 q 17.6128,27.0667 52.8384,27.0667 z m 2.9786,-125.6207 q 14.5047,0 24.3471,10.6195 9.8424,10.49 12.1736,29.5273 h -70.1922 v -1.8131 q 1.036,-18.2603 9.8424,-28.2322 8.8064,-10.1015 23.8291,-10.1015 z"
         style="font-size:265.228px;line-height:1.25;font-family:Roboto;-inkscape-font-specification:Roboto;letter-spacing:0px;word-spacing:0px;fill:#ffffff;fill-opacity:1;stroke-width:1.65768"
         id="path8307" /><path
         d="m 7955.3932,2014.236 -15.0226,15.6702 v 49.2123 h -23.9586 v -198.921 h 23.9586 v 120.3109 l 12.821,-15.4112 43.6435,-46.1041 h 29.1388 l -54.5219,58.5367 60.8677,81.5887 h -28.1027 z"
         style="font-size:265.228px;line-height:1.25;font-family:Roboto;-inkscape-font-specification:Roboto;letter-spacing:0px;word-spacing:0px;fill:#ffffff;fill-opacity:1;stroke-width:1.65768"
         id="path8309" /><path
         d="m 8118.441,1960.4911 q -5.439,-0.9065 -11.785,-0.9065 -23.57,0 -31.9879,20.0734 v 99.4605 h -23.9586 v -140.1254 h 23.3111 l 0.3885,16.1883 q 11.7849,-18.7784 33.4129,-18.7784 6.993,0 10.619,1.8131 z"
         style="font-size:265.228px;line-height:1.25;font-family:Roboto;-inkscape-font-specification:Roboto;letter-spacing:0px;word-spacing:0px;fill:#ffffff;fill-opacity:1;stroke-width:1.65768"
         id="path8311" /><path
         d="m 8221.787,2079.1185 q -2.072,-4.1442 -3.367,-14.7637 -16.707,17.3538 -39.888,17.3538 -20.721,0 -34.06,-11.6555 -13.21,-11.7851 -13.21,-29.7864 0,-21.8865 16.577,-33.9305 16.706,-12.1736 46.881,-12.1736 h 23.311 v -11.008 q 0,-12.562 -7.511,-19.9439 -7.512,-7.5113 -22.146,-7.5113 -12.821,0 -21.498,6.4753 -8.677,6.4753 -8.677,15.6702 h -24.088 q 0,-10.49 7.382,-20.2029 7.511,-9.8425 20.203,-15.5407 12.821,-5.6983 28.103,-5.6983 24.217,0 37.945,12.1736 13.728,12.044 14.246,33.283 v 64.4939 q 0,19.2964 4.921,30.6929 v 2.0721 z m -39.759,-18.2604 q 11.267,0 21.369,-5.8277 10.101,-5.8278 14.634,-15.1522 v -28.7503 h -18.778 q -44.032,0 -44.032,25.7717 0,11.267 7.511,17.6127 7.511,6.3458 19.296,6.3458 z"
         style="font-size:265.228px;line-height:1.25;font-family:Roboto;-inkscape-font-specification:Roboto;letter-spacing:0px;word-spacing:0px;fill:#ffffff;fill-opacity:1;stroke-width:1.65768"
         id="path8313" /><path
         d="m 8453.214,1938.9931 -0.648,15.5407 q -15.411,-18.1308 -41.571,-18.1308 -29.398,0 -40.017,22.534 -6.994,-10.1014 -18.131,-16.3177 -11.267,-6.2163 -26.549,-6.2163 -46.104,0 -46.881,48.8237 v 93.8918 h 23.958 v -92.4672 q 0,-15.0227 6.864,-22.4045 6.864,-7.5114 23.052,-7.5114 13.339,0 22.146,8.0294 8.806,7.8998 10.231,21.3685 v 92.9852 h 24.088 v -91.8197 q 0,-30.5634 29.916,-30.5634 23.57,0 32.247,20.0734 v 102.3097 h 23.958 v -140.1254 z"
         style="font-size:265.228px;line-height:1.25;font-family:Roboto;-inkscape-font-specification:Roboto;letter-spacing:0px;word-spacing:0px;fill:#ffffff;fill-opacity:1;stroke-width:1.65768"
         id="path8315" /><path
         d="m 8460.74,1880.9361 0.185,4.4316 q 4.394,-5.1702 11.854,-5.1702 8.383,0 11.412,6.4258 1.994,-2.8805 5.17,-4.6532 3.213,-1.7726 7.571,-1.7726 13.147,0 13.368,13.9226 v 26.7741 h -6.832 v -26.3679 q 0,-4.2839 -1.957,-6.3889 -1.957,-2.1419 -6.574,-2.1419 -3.803,0 -6.315,2.2897 -2.511,2.2527 -2.917,6.0934 v 26.5156 h -6.869 v -26.1832 q 0,-8.7155 -8.531,-8.7155 -6.721,0 -9.195,5.7241 v 29.1746 h -6.832 v -39.9581 z"
         style="font-size:265.228px;line-height:1.25;font-family:Roboto;-inkscape-font-specification:Roboto;letter-spacing:0px;word-spacing:0px;fill:#ffffff;fill-opacity:1;stroke-width:0.472704"
         id="path8317" /><path
         d="m 8536.631,1916.0564 q 3.656,0 6.389,-2.2158 2.733,-2.2157 3.028,-5.5395 h 6.463 q -0.185,3.4346 -2.364,6.5367 -2.178,3.1021 -5.834,4.9486 -3.62,1.8465 -7.682,1.8465 -8.161,0 -12.999,-5.4287 -4.801,-5.4656 -4.801,-14.9197 v -1.1449 q 0,-5.8349 2.142,-10.3772 2.142,-4.5424 6.13,-7.0537 4.026,-2.5112 9.491,-2.5112 6.721,0 11.153,4.0253 4.469,4.0254 4.764,10.4513 h -6.463 q -0.295,-3.8777 -2.954,-6.352 -2.622,-2.5113 -6.5,-2.5113 -5.207,0 -8.087,3.7669 -2.844,3.7299 -2.844,10.8205 v 1.2925 q 0,6.9059 2.844,10.6358 2.843,3.7299 8.124,3.7299 z"
         style="font-size:265.228px;line-height:1.25;font-family:Roboto;-inkscape-font-specification:Roboto;letter-spacing:0px;word-spacing:0px;fill:#ffffff;fill-opacity:1;stroke-width:0.472704"
         id="path8319" /><path
         d="m 8573.137,2014.236 15.023,15.6702 v 49.2123 h 23.959 v -198.921 h -23.959 v 120.3109 l -12.821,-15.4112 -43.644,-46.1041 h -29.138 l 54.522,58.5367 -60.868,81.5887 h 28.102 z"
         style="font-size:265.228px;line-height:1.25;font-family:Roboto;-inkscape-font-specification:Roboto;letter-spacing:0px;word-spacing:0px;fill:#ffffff;fill-opacity:1;stroke-width:1.65768"
         id="path8321" /><path
         d="m 8698.24,1960.4911 q -5.439,-0.9065 -11.785,-0.9065 -23.57,0 -31.988,20.0734 v 99.4605 h -23.959 v -140.1254 h 23.311 l 0.389,16.1883 q 11.785,-18.7784 33.412,-18.7784 6.994,0 10.62,1.8131 z"
         style="font-size:265.228px;line-height:1.25;font-family:Roboto;-inkscape-font-specification:Roboto;letter-spacing:0px;word-spacing:0px;fill:#ffffff;fill-opacity:1;stroke-width:1.65768"
         id="path8323" /><path
         d="m 8801.586,2079.1185 q -2.073,-4.1442 -3.368,-14.7637 -16.706,17.3538 -39.887,17.3538 -20.721,0 -34.06,-11.6555 -13.21,-11.7851 -13.21,-29.7864 0,-21.8865 16.577,-33.9305 16.706,-12.1736 46.881,-12.1736 h 23.311 v -11.008 q 0,-12.562 -7.512,-19.9439 -7.511,-7.5113 -22.145,-7.5113 -12.821,0 -21.498,6.4753 -8.677,6.4753 -8.677,15.6702 h -24.088 q 0,-10.49 7.382,-20.2029 7.511,-9.8425 20.203,-15.5407 12.821,-5.6983 28.103,-5.6983 24.217,0 37.945,12.1736 13.727,12.044 14.245,33.283 v 64.4939 q 0,19.2964 4.922,30.6929 v 2.0721 z m -39.759,-18.2604 q 11.267,0 21.369,-5.8277 10.101,-5.8278 14.634,-15.1522 v -28.7503 h -18.779 q -44.032,0 -44.032,25.7717 0,11.267 7.512,17.6127 7.511,6.3458 19.296,6.3458 z"
         style="font-size:265.228px;line-height:1.25;font-family:Roboto;-inkscape-font-specification:Roboto;letter-spacing:0px;word-spacing:0px;fill:#ffffff;fill-opacity:1;stroke-width:1.65768"
         id="path8325" /><path
         d="m 8898.456,2014.236 -15.023,15.6702 v 49.2123 h -23.958 v -198.921 h 23.958 v 120.3109 l 12.821,-15.4112 43.644,-46.1041 h 29.139 l -54.522,58.5367 60.867,81.5887 h -28.102 z"
         style="font-size:265.228px;line-height:1.25;font-family:Roboto;-inkscape-font-specification:Roboto;letter-spacing:0px;word-spacing:0px;fill:#ffffff;fill-opacity:1;stroke-width:1.65768"
         id="path8327" /><path
         d="m 9039.747,2081.7086 q 28.491,0 46.363,-18.6489 17.872,-18.7783 17.872,-50.1187 v -4.4032 q 0,-20.8505 -7.9,-37.1682 -8.03,-16.4473 -22.275,-25.6422 -14.375,-9.3244 -31.082,-9.3244 -27.325,0 -42.478,18.0013 -15.152,18.0013 -15.152,51.5434 v 9.9719 h 94.928 q -0.518,20.7209 -12.044,33.542 -11.655,12.6916 -29.527,12.6916 -12.692,0 -21.498,-5.1802 -8.807,-5.1803 -15.411,-13.7277 l -14.635,11.3966 q 17.613,27.0667 52.839,27.0667 z m 2.978,-125.6207 q 14.505,0 24.347,10.6195 9.843,10.49 12.174,29.5273 h -70.192 v -1.8131 q 1.036,-18.2603 9.842,-28.2322 8.807,-10.1015 23.829,-10.1015 z"
         style="font-size:265.228px;line-height:1.25;font-family:Roboto;-inkscape-font-specification:Roboto;letter-spacing:0px;word-spacing:0px;fill:#ffffff;fill-opacity:1;stroke-width:1.65768"
         id="path8329" /><path
         d="m 9154.359,1938.9931 0.778,17.6128 q 16.058,-20.2029 41.959,-20.2029 44.421,0 44.81,50.1188 v 92.5967 h -23.959 v -92.7262 q -0.13,-15.1522 -6.993,-22.4045 -6.735,-7.2524 -21.11,-7.2524 -11.655,0 -20.462,6.2163 -8.806,6.2163 -13.727,16.3177 v 99.8491 h -23.959 v -140.1254 z"
         style="font-size:265.228px;line-height:1.25;font-family:Roboto;-inkscape-font-specification:Roboto;letter-spacing:0px;word-spacing:0px;fill:#ffffff;fill-opacity:1;stroke-width:1.65768"
         id="path8331" /></g><g
       id="g334"
       transform="matrix(0.99274715,0,0,0.99274715,1292.8444,-6500.8212)"
       style="fill:#2c2c2c;fill-opacity:1"
       inkscape:export-filename="dekram-watermark.png"
       inkscape:export-xdpi="1.5650059"
       inkscape:export-ydpi="1.5650059"><g
         id="g1210"
         transform="translate(-131.43221,-394.29191)"
         style="fill:#ffffff" /></g></g></svg>
