<?xml version="1.0" encoding="UTF-8" standalone="no"?>
<!-- Created with Inkscape (http://www.inkscape.org/) -->

<svg
   width="101.15437mm"
   height="61.97443mm"
   viewBox="0 0 101.15437 61.974429"
   version="1.1"
   id="svg5"
   xml:space="preserve"
   sodipodi:docname="eye.svg"
   inkscape:version="1.3 (0e150ed6c4, 2023-07-21)"
   inkscape:export-filename="social-logo.jpg"
   inkscape:export-xdpi="96"
   inkscape:export-ydpi="96"
   xmlns:inkscape="http://www.inkscape.org/namespaces/inkscape"
   xmlns:sodipodi="http://sodipodi.sourceforge.net/DTD/sodipodi-0.dtd"
   xmlns="http://www.w3.org/2000/svg"
   xmlns:svg="http://www.w3.org/2000/svg"><sodipodi:namedview
     id="namedview223"
     pagecolor="#ffffff"
     bordercolor="#666666"
     borderopacity="1.0"
     inkscape:showpageshadow="2"
     inkscape:pageopacity="0.0"
     inkscape:pagecheckerboard="0"
     inkscape:deskcolor="#d1d1d1"
     inkscape:document-units="mm"
     showgrid="false"
     inkscape:zoom="1.4065241"
     inkscape:cx="174.54376"
     inkscape:cy="93.492888"
     inkscape:window-width="1452"
     inkscape:window-height="711"
     inkscape:window-x="50"
     inkscape:window-y="109"
     inkscape:window-maximized="0"
     inkscape:current-layer="svg5"
     showguides="true"><sodipodi:guide
       position="-140.68149,-607.80176"
       orientation="0,-1"
       id="guide469"
       inkscape:locked="false" /><sodipodi:guide
       position="-151.97804,-631.16507"
       orientation="0,-1"
       id="guide471"
       inkscape:locked="false" /><sodipodi:guide
       position="-167.38242,-659.40643"
       orientation="0,-1"
       id="guide473"
       inkscape:locked="false" /><sodipodi:guide
       position="-163.40295,-674.93918"
       orientation="0,-1"
       id="guide475"
       inkscape:locked="false" /><sodipodi:guide
       position="-51.81635,-678.43753"
       orientation="0,-1"
       id="guide15194"
       inkscape:locked="false" /><sodipodi:guide
       position="21.65928,-240.51344"
       orientation="0,-1"
       id="guide868"
       inkscape:locked="false" /><sodipodi:guide
       position="53.9819,-93.132921"
       orientation="0,-1"
       id="guide8933"
       inkscape:locked="false" /><sodipodi:guide
       position="68.44779,-122.96448"
       orientation="0,-1"
       id="guide8935"
       inkscape:locked="false" /><sodipodi:guide
       position="58.77044,-111.08994"
       orientation="0,-1"
       id="guide8937"
       inkscape:locked="false" /></sodipodi:namedview><defs
     id="defs2"><filter
   x="-0.046148642"
   width="1.0922973"
   y="-0.18507806"
   height="1.3701561"
   style="color-interpolation-filters:sRGB"
   inkscape:label="Felt Feather"
   id="filter25488"><feGaussianBlur
     stdDeviation="1.169069"
     result="blur"
     id="feGaussianBlur25472" /><feComposite
     in="SourceGraphic"
     in2="blur"
     operator="atop"
     result="composite1"
     id="feComposite25474" /><feComposite
     in2="composite1"
     operator="in"
     result="composite2"
     id="feComposite25476" /><feComposite
     in2="composite2"
     operator="in"
     result="composite3"
     id="feComposite25478" /><feTurbulence
     type="fractalNoise"
     numOctaves="2"
     seed="16"
     baseFrequency="0.05 0.05"
     result="turbulence"
     id="feTurbulence25480" /><feDisplacementMap
     in="composite3"
     in2="turbulence"
     xChannelSelector="R"
     scale="6.03175"
     yChannelSelector="G"
     result="map"
     id="feDisplacementMap25482" /><feColorMatrix
     values="1 0 0 0 0 0 1 0 0 0 0 0 1 0 0 0 0 0 0.977199 -0 "
     result="colormatrix"
     id="feColorMatrix25484" /><feComposite
     in="composite3"
     in2="colormatrix"
     operator="atop"
     result="composite4"
     id="feComposite25486" /></filter>&#10;	&#10;	&#10;	&#10;</defs><g
     id="g2"
     transform="matrix(0.10790478,0.32215313,-0.32215313,0.10790478,97.958334,-63.847726)"
     style="fill:#ccff00;fill-opacity:1">&#10;		<path
   d="m 221.02,298.521 c -42.734,0 -77.5,-34.767 -77.5,-77.5 0,-42.733 34.766,-77.5 77.5,-77.5 18.794,0 36.924,6.814 51.048,19.188 5.193,4.549 5.715,12.446 1.166,17.639 -13.07253,14.9232 -20.43953,-11.827 -52.215,-11.827 -28.949,0 -52.5,23.552 -52.5,52.5 0,28.948 23.551,52.5 52.5,52.5 28.95,0 52.5,-23.552 52.5,-52.5 0,-6.903 5.597,-12.5 12.5,-12.5 6.903,0 12.5,5.597 12.5,12.5 0.002,42.733 -34.765,77.5 -77.499,77.5 z"
   id="path2"
   style="fill:#ccff00;fill-opacity:1"
   sodipodi:nodetypes="ssscsssssscs" />&#10;	</g><g
     id="g3"
     transform="matrix(0.33974413,0,0,0.33974413,-24.485289,-43.88697)"
     style="fill:#d056b0;fill-opacity:1">&#10;		<path
   d="m 221.02,246.021 c -13.785,0 -25,-11.215 -25,-25 0,-13.785 11.215,-25 25,-25 13.786,0 25,11.215 25,25 0,13.785 -11.214,25 -25,25 z"
   id="path3"
   style="fill:#d056b0;fill-opacity:1" />&#10;	</g><g
     id="g1"
     transform="matrix(0.10388352,0,0,0.10388352,30.296584,5.3111647)"
     style="fill:#f9f9f9;fill-opacity:1">&#10;		<path
   d="m 221.02,246.021 c -13.785,0 -25,-11.215 -25,-25 0,-13.785 11.215,-25 25,-25 13.786,0 25,11.215 25,25 0,13.785 -11.214,25 -25,25 z"
   id="path1"
   style="fill:#f9f9f9;fill-opacity:1" />&#10;	</g></svg>
