<?xml version="1.0" encoding="UTF-8" standalone="no"?>
<!-- Created with Inkscape (http://www.inkscape.org/) -->

<svg
   width="30.335196mm"
   height="25.961304mm"
   viewBox="0 0 30.335196 25.961304"
   version="1.1"
   id="svg5"
   inkscape:version="1.3 (0e150ed6c4, 2023-07-21)"
   sodipodi:docname="ui.svg"
   xml:space="preserve"
   xmlns:inkscape="http://www.inkscape.org/namespaces/inkscape"
   xmlns:sodipodi="http://sodipodi.sourceforge.net/DTD/sodipodi-0.dtd"
   xmlns="http://www.w3.org/2000/svg"
   xmlns:svg="http://www.w3.org/2000/svg"><sodipodi:namedview
     id="namedview7"
     pagecolor="#ffffff"
     bordercolor="#000000"
     borderopacity="0.25"
     inkscape:showpageshadow="2"
     inkscape:pageopacity="0.0"
     inkscape:pagecheckerboard="0"
     inkscape:deskcolor="#d1d1d1"
     inkscape:document-units="mm"
     showgrid="false"
     inkscape:zoom="3.3814545"
     inkscape:cx="336.54157"
     inkscape:cy="669.53437"
     inkscape:window-width="1920"
     inkscape:window-height="956"
     inkscape:window-x="0"
     inkscape:window-y="0"
     inkscape:window-maximized="1"
     inkscape:current-layer="layer1"
     showguides="true" /><defs
     id="defs2" /><g
     inkscape:label="Layer 1"
     inkscape:groupmode="layer"
     id="layer1"
     transform="translate(-132.94928,-170.23922)"><path
       id="path12"
       style="opacity:0.198745;fill:#8080ff;fill-opacity:1;stroke:none;stroke-width:0.0510873;stroke-linecap:round;stroke-linejoin:round;stroke-dasharray:none;stroke-opacity:1;paint-order:fill markers stroke"
       d="m 159.37462,189.88502 c -0.23538,1.49141 -1.13781,3.34441 -2.80193,2.75526 -1.47022,-0.22651 -3.75345,1.80875 -6.6628,1.61511 -0.68277,-0.0455 -1.28695,-0.84498 -1.92657,-0.81813 -0.94646,0.0397 -1.89012,0.81837 -2.84344,0.88387 -1.90439,0.13086 -3.01315,0.0428 -4.1463,-1.27088 -1.16955,-1.35586 -2.07728,0.37552 -3.13506,-0.39063 -0.95604,-0.6024 -1.35476,-1.56355 -1.54548,-2.60571 a 15.167626,3.7820007 0 0 0 -3.36376,2.36438 15.167626,3.7820007 0 0 0 15.1676,3.78223 15.167626,3.7820007 0 0 0 15.1676,-3.78223 15.167626,3.7820007 0 0 0 -3.90986,-2.53327 z"
       inkscape:export-filename="facebook.svg"
       inkscape:export-xdpi="96"
       inkscape:export-ydpi="96" /><path
       id="path13"
       style="fill:none;fill-opacity:1;stroke:#8080ff;stroke-width:0.498948;stroke-linecap:round;stroke-linejoin:round;stroke-dasharray:none;stroke-opacity:1;paint-order:fill markers stroke"
       d="m 147.82289,170.49035 c -4.25916,-0.0759 -8.97435,2.48375 -10.99506,6.51692 -1.62884,3.29335 -0.77346,7.01513 -0.75089,10.52288 0.14306,1.79223 0.058,4.04337 1.78167,5.12942 1.05778,0.76614 1.96539,-0.96515 3.13494,0.3907 1.13314,1.3137 2.24198,1.40168 4.14637,1.27083 0.95332,-0.0655 1.89687,-0.84403 2.84333,-0.88377 0.63962,-0.0268 1.24399,0.77249 1.92677,0.81794 2.90935,0.19365 5.19251,-1.84149 6.66274,-1.61498 1.94534,0.68871 2.85302,-1.96132 2.86671,-3.46781 0.10561,-3.05282 0.88683,-6.17288 0.25415,-9.17125 -1.31708,-6.24186 -6.5429,-9.41597 -11.87073,-9.51088 z m -5.39529,5.58667 c 2.27482,-0.16219 3.64874,2.49414 2.99609,4.47348 -0.48825,2.35867 -3.3999,3.52013 -5.41929,2.28606 -1.96193,-0.96962 -1.62163,-3.62889 -0.48441,-5.10337 0.67021,-0.93294 1.73763,-1.62504 2.90761,-1.65617 z m 10.77267,0 c 2.65544,0.12053 4.66999,3.40842 3.4648,5.79062 -1.43479,2.18099 -5.2214,1.84318 -6.20228,-0.60527 -1.05344,-2.06606 0.061,-5.33462 2.73748,-5.18535 z"
       sodipodi:nodetypes="scsssssscssssccssssss" /><path
       id="path14"
       style="opacity:0.274059;fill:#8080ff;fill-opacity:1;stroke:none;stroke-width:0.0202496;stroke-linecap:round;paint-order:fill markers stroke"
       d="m 142.40495,176.077 c -1.95491,0 -3.61042,2.02945 -3.80839,4.04399 -0.20537,2.08971 1.40846,3.24617 3.36314,3.21234 0.82177,-0.0142 1.39276,-0.31821 1.41622,-0.33007 -1.78075,0.10004 -3.71473,-1.04082 -3.53378,-2.88227 0.17808,-1.81233 1.53594,-3.63635 3.23008,-3.98434 -0.2103,-0.0392 -0.43277,-0.0597 -0.66727,-0.0597 z"
       sodipodi:nodetypes="ssscscs" /><path
       id="path15"
       style="opacity:0.179916;fill:#8080ff;fill-opacity:1;stroke:none;stroke-width:0.0203093;stroke-linecap:round;paint-order:fill markers stroke"
       d="m 153.20027,176.07702 c 1.96651,0 3.63179,2.02943 3.83093,4.04396 0.20657,2.0897 -1.43049,3.22942 -3.39669,3.1956 -0.82665,-0.0142 -1.27947,-0.25609 -1.40144,-0.30503 1.79126,0.10004 3.72721,-1.04913 3.54517,-2.89057 -0.17912,-1.81231 -1.54501,-3.63632 -3.24915,-3.98431 0.2115,-0.0392 0.43529,-0.0597 0.67118,-0.0597 z"
       sodipodi:nodetypes="ssscscs" /><ellipse
       style="fill:#8080ff;fill-opacity:1;stroke:none;stroke-width:2.01613;stroke-linecap:round;stroke-linejoin:round;stroke-opacity:0.924933;paint-order:fill markers stroke"
       id="ellipse15"
       cx="142.80186"
       cy="179.71199"
       rx="1.218182"
       ry="1.7311007" /><ellipse
       style="fill:#8080ff;fill-opacity:1;stroke:none;stroke-width:2.01613;stroke-linecap:round;stroke-linejoin:round;stroke-opacity:0.924933;paint-order:fill markers stroke"
       id="ellipse16"
       cx="152.95714"
       cy="179.71199"
       rx="1.218182"
       ry="1.7311007" /></g></svg>
