<?xml version="1.0" encoding="UTF-8" standalone="no"?>
<!-- Created with Inkscape (http://www.inkscape.org/) -->

<svg
   width="60.798443mm"
   height="51.531811mm"
   viewBox="0 0 60.798441 51.53181"
   version="1.1"
   id="svg5"
   xml:space="preserve"
   sodipodi:docname="alchemicats.svg"
   inkscape:version="1.3 (0e150ed6c4, 2023-07-21)"
   inkscape:export-filename="../../../../../home/dekram/RepositoryDisk/Development/repository/alchemicats.pet/assets/images/campfire.svg"
   inkscape:export-xdpi="379.45383"
   inkscape:export-ydpi="379.45383"
   xmlns:inkscape="http://www.inkscape.org/namespaces/inkscape"
   xmlns:sodipodi="http://sodipodi.sourceforge.net/DTD/sodipodi-0.dtd"
   xmlns="http://www.w3.org/2000/svg"
   xmlns:svg="http://www.w3.org/2000/svg"><sodipodi:namedview
     id="namedview223"
     pagecolor="#ffffff"
     bordercolor="#666666"
     borderopacity="1.0"
     inkscape:showpageshadow="2"
     inkscape:pageopacity="0.0"
     inkscape:pagecheckerboard="0"
     inkscape:deskcolor="#d1d1d1"
     inkscape:document-units="mm"
     showgrid="false"
     inkscape:zoom="1.4142136"
     inkscape:cx="-149.19952"
     inkscape:cy="15.202795"
     inkscape:window-width="1920"
     inkscape:window-height="961"
     inkscape:window-x="0"
     inkscape:window-y="27"
     inkscape:window-maximized="1"
     inkscape:current-layer="svg5"
     showguides="true"
     inkscape:export-bgcolor="#00000000"><sodipodi:guide
       position="-28.563472,-678.88497"
       orientation="0,-1"
       id="guide469"
       inkscape:locked="false" /><sodipodi:guide
       position="-39.860022,-702.24828"
       orientation="0,-1"
       id="guide471"
       inkscape:locked="false" /><sodipodi:guide
       position="-55.264402,-730.48964"
       orientation="0,-1"
       id="guide473"
       inkscape:locked="false" /><sodipodi:guide
       position="-51.284932,-746.02239"
       orientation="0,-1"
       id="guide475"
       inkscape:locked="false" /><sodipodi:guide
       position="60.301668,-749.52074"
       orientation="0,-1"
       id="guide15194"
       inkscape:locked="false" /><sodipodi:guide
       position="133.7773,-311.59665"
       orientation="0,-1"
       id="guide868"
       inkscape:locked="false" /><sodipodi:guide
       position="166.09992,-164.21614"
       orientation="0,-1"
       id="guide8933"
       inkscape:locked="false" /><sodipodi:guide
       position="180.56581,-194.04769"
       orientation="0,-1"
       id="guide8935"
       inkscape:locked="false" /><sodipodi:guide
       position="170.88846,-182.17315"
       orientation="0,-1"
       id="guide8937"
       inkscape:locked="false" /><inkscape:grid
       id="grid284"
       units="mm"
       originx="423.75315"
       originy="268.66097"
       spacingx="0.99999999"
       spacingy="0.99999997"
       empcolor="#0099e5"
       empopacity="0.30196078"
       color="#0099e5"
       opacity="0.14901961"
       empspacing="5"
       dotted="false"
       gridanglex="30"
       gridanglez="30"
       visible="false" /></sodipodi:namedview><defs
     id="defs2" /><ellipse
     style="opacity:0.198745;fill:#000000;fill-opacity:1;stroke:none;stroke-width:0.10239;stroke-linecap:round;stroke-linejoin:round;stroke-dasharray:none;stroke-opacity:1;paint-order:fill markers stroke"
     id="ellipse47356"
     cx="30.399225"
     cy="43.951859"
     rx="30.399223"
     ry="7.5799522"
     inkscape:export-filename="../../../../../home/dekram/RepositoryDisk/Development/repository/alchemicats.pet/assets/images/facebook.svg"
     inkscape:export-xdpi="427.80042"
     inkscape:export-ydpi="427.80042" /><path
     id="path47362"
     style="fill:#3e72c9;fill-opacity:1;stroke:none;stroke-width:0.117028;stroke-linecap:round;stroke-linejoin:round;stroke-dasharray:none;stroke-opacity:1;paint-order:fill markers stroke"
     d="M 29.809891,0.00328807 C 21.273607,-0.14877693 11.823331,4.9812621 7.7733908,13.064608 c -3.26456,6.600592 -1.55018,14.059863 -1.50495,21.090145 0.28673,3.592012 0.11632,8.103798 3.57087,10.280483 2.1200102,1.535516 3.9390532,-1.934379 6.2830892,0.783055 2.271069,2.632935 4.493416,2.809268 8.310235,2.547007 1.910663,-0.131287 3.801744,-1.691623 5.698653,-1.771272 1.281935,-0.05383 2.493234,1.548252 3.861656,1.639333 5.830989,0.388108 10.406929,-3.69074 13.353584,-3.236759 3.898878,1.38032 5.71808,-3.930924 5.745511,-6.950266 0.211674,-6.118505 1.777395,-12.371777 0.50937,-18.381173 C 50.961697,6.5551111 40.488018,0.19351507 29.809891,0.00328807 Z M 18.996554,11.200203 c 4.559234,-0.325072 7.312864,4.998792 6.00482,8.965819 -0.978566,4.727275 -6.81414,7.055101 -10.861438,4.581753 -3.932135,-1.943316 -3.250105,-7.273085 -0.970873,-10.228264 1.343245,-1.869805 3.482601,-3.256932 5.827491,-3.319308 z m 21.590774,0 c 5.322084,0.241561 9.359669,6.831212 6.944221,11.605655 -2.875631,4.371182 -10.464821,3.694128 -12.430734,-1.213086 -2.111303,-4.140843 0.122311,-10.691741 5.486513,-10.392569 z"
     sodipodi:nodetypes="scsssssscssssccssssss" /><path
     id="path47364"
     style="opacity:1;fill:#5b79ac;fill-opacity:1;stroke:#5b79ac;stroke-width:0.0405846;stroke-linecap:round;stroke-opacity:1;paint-order:fill markers stroke"
     d="m 18.951173,11.200157 c -3.918071,-8e-6 -7.236092,4.067448 -7.632862,8.105033 -0.41161,4.188229 2.822868,6.506031 6.740474,6.438223 1.647002,-0.02851 2.791395,-0.637758 2.838408,-0.661528 -3.569011,0.2005 -7.445121,-2.086033 -7.082462,-5.776695 0.356909,-3.632303 3.078369,-7.288036 6.473782,-7.985489 -0.421483,-0.0785 -0.867367,-0.119544 -1.33734,-0.119544 z"
     sodipodi:nodetypes="ssscscs" /><path
     id="path47366"
     style="opacity:1;fill:#5b79ac;fill-opacity:1;stroke:#5b79ac;stroke-width:0.0407043;stroke-linecap:round;stroke-opacity:1;paint-order:fill markers stroke"
     d="m 40.587328,11.200203 c 3.941306,-7e-6 7.278905,4.067417 7.678009,8.104979 0.414024,4.188205 -2.867005,6.472453 -6.807689,6.404654 -1.656794,-0.02852 -2.564336,-0.513256 -2.808803,-0.611338 3.59007,0.200508 7.470143,-2.102677 7.105308,-5.793316 -0.359007,-3.63228 -3.096552,-7.287989 -6.512014,-7.985442 0.423893,-0.07849 0.872419,-0.119537 1.345189,-0.119537 z"
     sodipodi:nodetypes="ssscscs" /><ellipse
     style="fill:#f9f9f9;fill-opacity:1;stroke:#000000;stroke-width:2;stroke-linecap:round;stroke-linejoin:round;stroke-dasharray:none;stroke-opacity:0.924933;paint-order:fill markers stroke"
     id="path47603"
     cx="19.746668"
     cy="18.485483"
     rx="2.4415016"
     ry="3.4695024" /><ellipse
     style="fill:#f9f9f9;fill-opacity:1;stroke:#000000;stroke-width:2;stroke-linecap:round;stroke-linejoin:round;stroke-dasharray:none;stroke-opacity:0.924933;paint-order:fill markers stroke"
     id="ellipse47605"
     cx="40.100014"
     cy="18.485483"
     rx="2.4415016"
     ry="3.4695024" /><text
     xml:space="preserve"
     style="font-size:12.038px;font-family:Roboto;-inkscape-font-specification:Roboto;fill:#f9f9f9;fill-opacity:1;stroke-width:1.00317"
     x="26.290956"
     y="40.065578"
     id="text285"><tspan
       sodipodi:role="line"
       id="tspan285"
       style="font-style:normal;font-variant:normal;font-weight:bold;font-stretch:normal;font-family:Roboto;-inkscape-font-specification:'Roboto Bold';fill:#f9f9f9;fill-opacity:1;stroke-width:1.00317"
       x="26.290956"
       y="40.065578">F</tspan></text></svg>
