<?xml version="1.0" encoding="UTF-8" standalone="no"?>
<!-- Created with Inkscape (http://www.inkscape.org/) -->

<svg
   width="29.674448mm"
   height="26.092901mm"
   viewBox="0 0 29.674448 26.092901"
   version="1.1"
   id="svg5"
   inkscape:version="1.3.2 (091e20ef0f, 2023-11-25)"
   sodipodi:docname="ui.svg"
   xml:space="preserve"
   xmlns:inkscape="http://www.inkscape.org/namespaces/inkscape"
   xmlns:sodipodi="http://sodipodi.sourceforge.net/DTD/sodipodi-0.dtd"
   xmlns:xlink="http://www.w3.org/1999/xlink"
   xmlns="http://www.w3.org/2000/svg"
   xmlns:svg="http://www.w3.org/2000/svg"><sodipodi:namedview
     id="namedview7"
     pagecolor="#ffffff"
     bordercolor="#000000"
     borderopacity="0.25"
     inkscape:showpageshadow="2"
     inkscape:pageopacity="0.0"
     inkscape:pagecheckerboard="0"
     inkscape:deskcolor="#d1d1d1"
     inkscape:document-units="mm"
     showgrid="true"
     inkscape:zoom="2.3910493"
     inkscape:cx="600.57315"
     inkscape:cy="899.60505"
     inkscape:window-width="1920"
     inkscape:window-height="956"
     inkscape:window-x="0"
     inkscape:window-y="32"
     inkscape:window-maximized="1"
     inkscape:current-layer="g121"
     showguides="true"><inkscape:grid
       id="grid21"
       units="mm"
       originx="-171.68616"
       originy="-203.15869"
       spacingx="0.99999998"
       spacingy="1"
       empcolor="#0099e5"
       empopacity="0.30196078"
       color="#0099e5"
       opacity="0.14901961"
       empspacing="5"
       dotted="false"
       gridanglex="30"
       gridanglez="30"
       visible="true" /><sodipodi:guide
       position="-23.960752,303.96608"
       orientation="0,-1"
       id="guide1"
       inkscape:locked="false" /><sodipodi:guide
       position="-32.702552,431.33084"
       orientation="0,-1"
       id="guide336"
       inkscape:locked="false" /><sodipodi:guide
       position="-29.382882,421.37182"
       orientation="0,-1"
       id="guide337"
       inkscape:locked="false" /><sodipodi:guide
       position="-78.686162,283.15871"
       orientation="0,-1"
       id="guide46"
       inkscape:locked="false" /></sodipodi:namedview><defs
     id="defs2"><linearGradient
       id="linearGradient49"
       inkscape:collect="always"><stop
         style="stop-color:#000000;stop-opacity:1;"
         offset="0"
         id="stop49" /><stop
         style="stop-color:#000000;stop-opacity:0;"
         offset="1"
         id="stop50" /></linearGradient><filter
       inkscape:collect="always"
       style="color-interpolation-filters:sRGB"
       id="filter1418"
       x="-0.10891587"
       y="-0.46239597"
       width="1.2178317"
       height="1.9247919"><feGaussianBlur
         inkscape:collect="always"
         stdDeviation="1.06342"
         id="feGaussianBlur1418" /></filter><linearGradient
       inkscape:collect="always"
       xlink:href="#linearGradient49"
       id="linearGradient1437"
       gradientUnits="userSpaceOnUse"
       x1="71.079536"
       y1="225.78006"
       x2="71.063911"
       y2="203.68712"
       gradientTransform="translate(39.306913)" /></defs><g
     inkscape:label="Layer 1"
     inkscape:groupmode="layer"
     id="layer1"
     transform="translate(-171.68616,-203.1587)"><g
       id="g1432"
       transform="translate(152.83428,0.22690342)"
       style="fill:#f4d7d7;fill-opacity:1"
       inkscape:export-filename="../../../../../home/dekram/RepositoryDisk/Development/repository/alchemicats.pet/src/assets/images/facebook.svg"
       inkscape:export-xdpi="96"
       inkscape:export-ydpi="96"><ellipse
         style="fill:#f4d7d7;fill-opacity:1;stroke:none;stroke-width:6.01887;stroke-linecap:round;stroke-linejoin:round;stroke-opacity:0.924933;paint-order:fill markers stroke"
         id="ellipse1431"
         cx="28.078255"
         cy="212.54407"
         rx="3.8318079"
         ry="4.9048214" /><ellipse
         style="fill:#f4d7d7;fill-opacity:1;stroke:none;stroke-width:6.01887;stroke-linecap:round;stroke-linejoin:round;stroke-opacity:0.924933;paint-order:fill markers stroke"
         id="ellipse1432"
         cx="39.683586"
         cy="212.54407"
         rx="3.8318079"
         ry="4.9048214" /></g><path
       id="path1432"
       style="opacity:0.274059;fill:#b100b4;fill-opacity:1;stroke:none;stroke-width:0.0202496;stroke-linecap:round;paint-order:fill markers stroke"
       d="m 181.40826,209.07894 c -1.95491,0 -3.61043,2.02945 -3.8084,4.04399 -0.20537,2.08971 1.40847,3.24617 3.36315,3.21234 0.82177,-0.0142 1.39276,-0.31821 1.41622,-0.33007 -1.78075,0.10004 -3.71473,-1.04082 -3.53378,-2.88227 0.17808,-1.81233 1.53594,-3.63635 3.23008,-3.98434 -0.2103,-0.0392 -0.43277,-0.0597 -0.66727,-0.0597 z"
       sodipodi:nodetypes="ssscscs"
       inkscape:export-filename="../../../../../home/dekram/RepositoryDisk/Development/repository/alchemicats.pet/src/assets/images/facebook.svg"
       inkscape:export-xdpi="96"
       inkscape:export-ydpi="96" /><path
       id="path1433"
       style="opacity:0.179916;fill:#b100b4;fill-opacity:1;stroke:none;stroke-width:0.0203093;stroke-linecap:round;paint-order:fill markers stroke"
       d="m 192.20358,209.07896 c 1.96651,0 3.63179,2.02943 3.83093,4.04396 0.20657,2.0897 -1.43049,3.22942 -3.39669,3.1956 -0.82665,-0.0142 -1.27947,-0.25609 -1.40144,-0.30503 1.79126,0.10004 3.72721,-1.04913 3.54517,-2.89057 -0.17912,-1.81231 -1.54501,-3.63632 -3.24915,-3.98431 0.2115,-0.0392 0.43529,-0.0597 0.67118,-0.0597 z"
       sodipodi:nodetypes="ssscscs" /><ellipse
       style="fill:#000000;fill-opacity:1;stroke:none;stroke-width:2.01613;stroke-linecap:round;stroke-linejoin:round;stroke-opacity:0.924933;paint-order:fill markers stroke"
       id="ellipse1433"
       cx="181.80518"
       cy="212.71393"
       rx="1.218182"
       ry="1.7311007" /><ellipse
       style="fill:#000000;fill-opacity:1;stroke:none;stroke-width:2.01613;stroke-linecap:round;stroke-linejoin:round;stroke-opacity:0.924933;paint-order:fill markers stroke"
       id="ellipse1434"
       cx="191.96043"
       cy="212.71393"
       rx="1.218182"
       ry="1.7311007" /><ellipse
       style="opacity:1;fill:#000000;fill-opacity:1;stroke:none;stroke-width:0.1384;stroke-linejoin:round"
       id="ellipse1435"
       cx="186.52339"
       cy="223.15831"
       rx="14.837225"
       ry="3.8416777" /><path
       id="path1435"
       style="font-variation-settings:normal;opacity:1;vector-effect:none;fill:#ccff00;fill-opacity:1;stroke:url(#linearGradient1437);stroke-width:0.699;stroke-linecap:round;stroke-linejoin:round;stroke-miterlimit:4;stroke-dasharray:none;stroke-dashoffset:0;stroke-opacity:1;-inkscape-stroke:none;paint-order:fill markers stroke;stop-color:#000000;stop-opacity:1"
       d="m 186.8346,203.50985 c -4.25915,-0.0759 -8.97449,2.48376 -10.99519,6.51691 -1.62884,3.29335 -0.77343,7.01514 -0.75086,10.52287 0.0652,0.81654 0.0849,1.72777 0.24804,2.58124 h 0.0155 a 11.527297,3.2348447 0 0 0 11.48096,3.01946 11.527297,3.2348447 0 0 0 11.48044,-3.01946 h 0.0346 c 0.0664,-0.3335 0.10027,-0.65635 0.10283,-0.93896 0.10561,-3.05282 0.88693,-6.17265 0.25425,-9.17102 -1.31708,-6.24184 -6.54277,-9.41613 -11.87059,-9.51104 z m -5.18469,5.5795 c 2.14812,0.0102 3.41761,2.56339 2.78536,4.48086 -0.48825,2.35867 -3.39993,3.51972 -5.41931,2.28565 -1.96193,-0.96962 -1.62142,-3.62858 -0.48421,-5.10304 0.67021,-0.93294 1.73734,-1.6251 2.90732,-1.65623 0.0711,-0.005 0.14154,-0.008 0.21084,-0.007 z m 10.31565,0.003 c 0.0806,-0.002 0.16285,-3.9e-4 0.24649,0.004 2.65544,0.12053 4.6701,3.40866 3.46491,5.79086 -1.43479,2.18097 -5.22185,1.8428 -6.20272,-0.60565 -1.02052,-2.00149 -0.006,-5.13139 2.49132,-5.18935 z" /><path
       id="path1437"
       style="font-variation-settings:normal;opacity:0.460331;mix-blend-mode:normal;vector-effect:none;fill:#000000;fill-opacity:1;stroke:none;stroke-width:0.699;stroke-linecap:round;stroke-linejoin:round;stroke-miterlimit:4;stroke-dasharray:none;stroke-dashoffset:0;stroke-opacity:1;-inkscape-stroke:none;paint-order:fill markers stroke;filter:url(#filter1418);stop-color:#000000"
       d="m 186.60171,224.59907 c -3.83803,0.0334 -7.4602,-1.04903 -11.42306,-3.33699 0.10726,0.90689 0.007,1.89594 0.38103,2.72887 0.85851,1.15422 2.37562,1.49791 3.68567,1.88163 3.98842,0.93588 8.14822,1.00812 12.20788,0.56084 2.1111,-0.29515 4.31734,-0.62181 6.152,-1.77653 0.81689,-0.47143 0.96603,-1.37658 0.93775,-2.2401 0.17753,-0.7049 0.0391,-1.20007 -0.7611,-1.23693 -2.97608,2.97608 -7.4269,3.44201 -11.18017,3.41921 z"
       sodipodi:nodetypes="ccccccccc" /></g></svg>
