<?xml version="1.0" encoding="UTF-8" standalone="no"?>
<!-- Created with Inkscape (http://www.inkscape.org/) -->

<svg
   width="60.798443mm"
   height="51.531807mm"
   viewBox="0 0 60.798443 51.531807"
   version="1.1"
   id="svg1793"
   inkscape:version="1.2.2 (732a01da63, 2022-12-09)"
   sodipodi:docname="mky-soft-resources.svg"
   xml:space="preserve"
   xmlns:inkscape="http://www.inkscape.org/namespaces/inkscape"
   xmlns:sodipodi="http://sodipodi.sourceforge.net/DTD/sodipodi-0.dtd"
   xmlns="http://www.w3.org/2000/svg"
   xmlns:svg="http://www.w3.org/2000/svg"><sodipodi:namedview
     id="namedview1795"
     pagecolor="#ffffff"
     bordercolor="#666666"
     borderopacity="1.0"
     inkscape:showpageshadow="2"
     inkscape:pageopacity="0.0"
     inkscape:pagecheckerboard="0"
     inkscape:deskcolor="#d1d1d1"
     inkscape:document-units="mm"
     showgrid="false"
     inkscape:zoom="1.4503086"
     inkscape:cx="218.91892"
     inkscape:cy="753.28793"
     inkscape:window-width="1920"
     inkscape:window-height="1001"
     inkscape:window-x="-9"
     inkscape:window-y="-9"
     inkscape:window-maximized="1"
     inkscape:current-layer="layer1" /><defs
     id="defs1790" /><g
     inkscape:label="Layer 1"
     inkscape:groupmode="layer"
     id="layer1"
     transform="translate(-16.718886,-82.484487)"><g
       id="g7894"><g
         id="g7882"><g
           id="g53422"
           transform="matrix(0.07770714,0,0,0.07770714,957.92676,268.1045)"
           inkscape:export-filename=".\rootulu.svg"
           inkscape:export-xdpi="96"
           inkscape:export-ydpi="96"
           style="fill:#97419c;fill-opacity:1"><ellipse
             style="opacity:0.198745;fill:#97419c;fill-opacity:1;stroke:none;stroke-width:1.31764;stroke-linecap:round;stroke-linejoin:round;stroke-dasharray:none;stroke-opacity:1;paint-order:fill markers stroke"
             id="ellipse47356"
             cx="-11721.042"
             cy="-1823.1035"
             rx="391.20245"
             ry="97.54512" /><path
             id="path47362"
             style="fill:#97419c;fill-opacity:1;stroke:none;stroke-width:1.50601;stroke-linecap:round;stroke-linejoin:round;stroke-dasharray:none;stroke-opacity:1;paint-order:fill markers stroke"
             d="m -11728.626,-2388.6702 c -109.852,-1.9569 -231.466,64.0607 -283.584,168.0839 -42.011,84.9419 -19.949,180.934 -19.367,271.4055 3.69,46.225 1.497,104.2864 45.953,132.2978 27.282,19.7603 50.691,-24.8932 80.856,10.077 29.226,33.8828 57.825,36.152 106.943,32.777 24.588,-1.6895 48.924,-21.7692 73.335,-22.7942 16.497,-0.6927 32.085,19.9242 49.695,21.0963 75.038,4.9945 133.925,-47.4955 171.845,-41.6533 50.174,17.7631 73.585,-50.5864 73.938,-89.4418 2.724,-78.738 22.873,-159.2103 6.555,-236.5442 -33.97,-160.9897 -168.754,-242.856 -306.169,-245.304 z m -139.155,144.0912 c 58.672,-4.1833 94.108,64.3286 77.275,115.3796 -12.593,60.8345 -87.69,90.7909 -139.774,58.9618 -50.602,-25.0082 -41.825,-93.5961 -12.494,-131.6258 17.286,-24.0622 44.817,-41.9129 74.993,-42.7156 z m 277.848,0 c 68.489,3.1086 120.448,87.9097 89.364,149.3512 -37.006,56.252 -134.67,47.5391 -159.969,-15.611 -27.17,-53.2878 1.574,-137.5902 70.605,-133.7402 z"
             sodipodi:nodetypes="scsssssscssssccssssss" /><path
             id="path47364"
             style="opacity:0.274059;fill:#97419c;fill-opacity:1;stroke:none;stroke-width:0.522276;stroke-linecap:round;paint-order:fill markers stroke"
             d="m -11868.365,-2244.5796 c -50.421,-10e-5 -93.12,52.3433 -98.226,104.3023 -5.297,53.8976 36.327,83.725 86.742,82.8524 21.195,-0.3669 35.922,-8.2072 36.527,-8.5131 -45.929,2.5802 -95.81,-26.8448 -91.143,-74.3393 4.593,-46.7435 39.615,-93.7885 83.31,-102.7639 -5.424,-1.0102 -11.162,-1.5384 -17.21,-1.5384 z"
             sodipodi:nodetypes="ssscscs" /><path
             id="path47366"
             style="opacity:0.179916;fill:#97419c;fill-opacity:1;stroke:none;stroke-width:0.523817;stroke-linecap:round;paint-order:fill markers stroke"
             d="m -11589.933,-2244.579 c 50.72,-10e-5 93.671,52.3429 98.807,104.3016 5.328,53.8973 -36.895,83.2929 -87.607,82.4204 -21.321,-0.367 -33,-6.605 -36.146,-7.8672 46.2,2.5803 96.132,-27.059 91.437,-74.5532 -4.62,-46.7432 -39.849,-93.7879 -83.802,-102.7633 5.455,-1.0101 11.227,-1.5383 17.311,-1.5383 z"
             sodipodi:nodetypes="ssscscs" /><ellipse
             style="opacity:1;fill:#97419c;fill-opacity:1;stroke:none;stroke-width:51.9999;stroke-linecap:round;stroke-linejoin:round;stroke-opacity:0.924933;paint-order:fill markers stroke"
             id="path47603"
             cx="-11858.128"
             cy="-2150.8259"
             rx="31.41927"
             ry="44.648438" /><ellipse
             style="opacity:1;fill:#97419c;fill-opacity:1;stroke:none;stroke-width:51.9999;stroke-linecap:round;stroke-linejoin:round;stroke-opacity:0.924933;paint-order:fill markers stroke"
             id="ellipse47605"
             cx="-11596.204"
             cy="-2150.8259"
             rx="31.41927"
             ry="44.648438" /></g><g
           id="g2212"
           transform="translate(-95.983803,5.1745062)"
           style="fill:#000000;fill-opacity:1"><path
             id="path2218"
             style="fill:#000000;fill-opacity:1;stroke-width:0.00464836"
             d="m 142.21951,105.24515 -1.5e-4,1.6e-4 c -2.4948,10e-4 -3.22252,0.10703 -3.97788,0.44453 -0.3087,0.13793 -0.56165,0.28687 -0.76782,0.45215 -0.24258,0.19448 -0.552,0.51556 -0.74524,0.77357 -0.21027,0.28076 -0.35788,0.57649 -0.49838,0.99786 -0.21579,0.64717 -0.28414,1.3479 -0.30709,3.15248 -0.006,0.48885 -0.003,2.6569 0.004,3.00431 0.0274,1.27458 0.0664,1.87783 0.14693,2.27323 0.016,0.0786 0.11308,0.44286 0.14257,0.53215 0.173,0.52379 0.4128,0.95305 0.74742,1.33795 0.0358,0.0412 0.0555,0.0605 0.0604,0.059 1.9e-4,-6e-5 6.1e-4,-9e-5 7.2e-4,-1.5e-4 -0.014,0.005 0.17106,0.18781 0.30757,0.30366 0.3379,0.28678 0.75742,0.53245 1.15599,0.67707 0.60272,0.21871 1.38386,0.31125 2.8029,0.332 l 1.5e-4,-1.6e-4 c 0.13166,0.002 0.40941,0.004 0.6173,0.004 l 0.37807,7.2e-4 -0.004,-0.0104 c -3e-4,-10e-4 -0.001,-0.004 -0.002,-0.005 l 0.006,0.0149 h 0.62274 c 0.86088,0 2.44388,-0.018 2.45363,-0.0279 0.001,-10e-4 -0.001,-0.0268 -0.006,-0.0605 0.004,0.0221 0.006,0.0459 0.008,0.0507 l 0.002,0.0112 0.14273,-0.003 c 0.6759,-0.0149 0.99543,-0.0378 1.3465,-0.0965 0.48076,-0.0803 0.8692,-0.20613 1.32503,-0.42912 0.36195,-0.17706 0.4641,-0.25241 0.82197,-0.60686 0.36199,-0.35854 0.50162,-0.5248 0.63302,-0.75349 0.0432,-0.0752 0.16131,-0.31053 0.21449,-0.42726 0.20489,-0.44975 0.28991,-0.82441 0.34273,-1.51102 0.0332,-0.43212 0.0595,-1.09661 0.0822,-2.08443 0.008,-0.33469 0.0108,-1.86167 0.005,-2.29891 -0.0177,-1.26229 -0.0571,-2.18795 -0.11238,-2.63994 -0.0191,-0.15631 -0.0846,-0.4446 -0.1502,-0.66088 -0.28446,-0.93798 -0.81735,-1.64852 -1.58573,-2.11494 -0.19245,-0.11681 -0.45972,-0.24883 -0.70135,-0.34631 -0.62366,-0.2516 -1.18493,-0.30497 -3.48215,-0.33154 -0.78597,-0.009 -1.45578,-0.0144 -2.0315,-0.014 z m 0.92501,1.27288 c 1.75122,2e-5 2.73844,0.0152 3.1005,0.0478 0.86387,0.0777 1.42841,0.29782 1.89812,0.74025 0.52065,0.49041 0.73476,1.03778 0.82322,2.1042 0.0469,0.56607 0.0637,1.48639 0.0593,3.27233 -0.002,0.98468 -0.005,1.28338 -0.0171,1.77579 -0.0224,0.9387 -0.0749,1.50087 -0.17479,1.87088 -0.0599,0.222 -0.17329,0.49589 -0.28795,0.69543 -0.35631,0.62011 -0.944,1.00164 -1.81734,1.18011 -0.1251,0.0256 -0.27116,0.0495 -0.33915,0.0554 -0.16399,0.0143 -0.57589,0.0277 -1.17872,0.0383 l -0.32827,0.006 -0.002,-0.003 -0.036,0.003 c -0.15875,0.0115 -3.13368,0.02 -3.81508,0.0109 l -0.25557,-0.004 0.0906,0.0365 c 0.004,0.001 0.006,0.003 0.0101,0.004 -0.005,-0.002 -0.0105,-0.004 -0.0158,-0.006 l -0.0889,-0.0353 -0.1351,-0.004 c -0.3921,-0.0121 -0.84169,-0.0517 -1.13171,-0.0996 -0.2496,-0.0413 -0.46678,-0.099 -0.65155,-0.17324 l -0.0671,-0.0269 -0.055,0.002 c 0.0132,-6e-4 0.0414,-0.001 0.0428,-0.002 0.004,-10e-4 -0.0396,-0.0248 -0.0954,-0.0526 -0.44388,-0.22146 -0.7838,-0.52531 -1.00175,-0.89528 -0.11877,-0.20161 -0.30631,-0.78945 -0.30631,-0.78945 -0.0645,-0.25603 -0.12475,-0.6846 -0.14351,-1.02104 -0.0236,-0.42415 -0.0346,-1.47451 -0.0279,-2.69146 0.009,-1.67228 0.0408,-3.06197 0.0811,-3.56059 0.01,-0.11898 0.0138,-0.14678 0.0377,-0.25573 0.12746,-0.58004 0.25959,-0.87405 0.54212,-1.20627 0.0615,-0.0723 0.27871,-0.2895 0.34741,-0.34741 0.30257,-0.25503 0.58862,-0.39996 0.98322,-0.49807 0.22017,-0.0547 0.52159,-0.10033 0.82961,-0.1256 0.36835,-0.0302 1.41463,-0.0454 3.12602,-0.0454 z m 3.78878,1.19585 c -0.0456,-3e-5 -0.0913,0.002 -0.12297,0.006 -0.32721,0.0465 -0.59823,0.27084 -0.70632,0.5843 -0.0375,0.1087 -0.0497,0.19361 -0.0459,0.32141 0.004,0.12713 0.024,0.21731 0.0739,0.33075 0.12796,0.29062 0.40772,0.49002 0.72703,0.51815 0.0903,0.008 0.20563,-0.002 0.29666,-0.0262 0.2424,-0.0636 0.44396,-0.22723 0.55753,-0.45278 0.12519,-0.24864 0.12879,-0.5335 0.01,-0.78399 -0.12568,-0.2649 -0.37599,-0.44912 -0.66773,-0.49154 -0.0313,-0.004 -0.0766,-0.007 -0.12218,-0.007 z m -3.89088,1.04299 c -0.58076,0.0108 -1.15789,0.15908 -1.67819,0.44095 -0.19467,0.10547 -0.40901,0.24927 -0.57636,0.38663 -0.74763,0.61364 -1.22384,1.48079 -1.33126,2.42421 -0.0183,0.16029 -0.0215,0.22232 -0.0215,0.42071 0,0.19839 0.003,0.26043 0.0215,0.42072 0.0797,0.70006 0.36978,1.37716 0.82244,1.91975 0.66942,0.80242 1.62113,1.27782 2.66096,1.32923 0.10812,0.005 0.32543,0.002 0.44514,-0.007 0.55907,-0.0419 1.0878,-0.20725 1.5792,-0.49372 0.0923,-0.0538 0.25405,-0.16142 0.34258,-0.22802 0.82175,-0.61823 1.34352,-1.52653 1.4564,-2.5355 0.0161,-0.14361 0.0205,-0.23061 0.0206,-0.40531 3e-5,-0.17413 -0.004,-0.26058 -0.0206,-0.40546 -0.0844,-0.7544 -0.39507,-1.45098 -0.90416,-2.02793 -0.077,-0.0873 -0.23728,-0.24693 -0.32297,-0.32157 -0.35449,-0.30873 -0.73072,-0.53353 -1.15693,-0.69138 -0.4312,-0.1597 -0.88515,-0.23453 -1.33685,-0.22616 z m 0.0168,1.27273 c 0.0337,-6e-4 0.0676,-6e-4 0.10148,1.6e-4 0.17708,0.004 0.31624,0.0207 0.48126,0.0575 0.57418,0.12782 1.08426,0.46644 1.42713,0.94759 0.61938,0.86918 0.58691,2.05948 -0.0791,2.8938 -0.21368,0.26768 -0.47205,0.47876 -0.777,0.63519 -0.27315,0.14013 -0.55056,0.22244 -0.85932,0.25495 -0.0836,0.009 -0.3378,0.0127 -0.41838,0.006 -0.58843,-0.0459 -1.11647,-0.28637 -1.52489,-0.69435 -0.0949,-0.0948 -0.15322,-0.16137 -0.22397,-0.25572 -0.27976,-0.37311 -0.44019,-0.80355 -0.47534,-1.27599 -0.002,-0.0345 -0.005,-0.11087 -0.005,-0.16966 0,-0.1187 0.005,-0.19481 0.019,-0.30912 0.0574,-0.46043 0.25136,-0.89878 0.5555,-1.25514 0.10133,-0.11873 0.25618,-0.2633 0.38538,-0.35986 0.40353,-0.30156 0.88724,-0.46632 1.39289,-0.47566 z m -6.05126,6.3652 c -0.0618,0.0132 -0.12451,0.0264 -0.18569,0.0401 0.0138,-0.003 0.0287,-0.007 0.0423,-0.0101 0.0365,-0.008 0.0931,-0.0196 0.14335,-0.03 z m 1.53686,1.62169 c -0.0153,7.2e-4 -0.0307,0.002 -0.0461,0.003 0.0155,-7.2e-4 0.0308,-0.002 0.0461,-0.003 z m -0.15689,0.0102 c -0.0171,0.001 -0.0342,0.003 -0.0512,0.004 0.0171,-0.001 0.0343,-0.003 0.0512,-0.004 z m -0.13821,0.0126 c -0.0137,0.001 -0.0274,0.003 -0.0411,0.004 0.0138,-0.001 0.0274,-0.003 0.0411,-0.004 z m -0.47768,0.0643 c -0.0135,0.002 -0.0271,0.005 -0.0406,0.007 0.0135,-0.002 0.027,-0.005 0.0406,-0.007 z m -0.13355,0.0241 c -0.0156,0.003 -0.0312,0.006 -0.0469,0.009 0.0155,-0.003 0.0312,-0.006 0.0469,-0.009 z m -0.17044,0.0344 c -0.008,0.002 -0.0168,0.004 -0.0252,0.006 0.003,-6e-4 0.007,-0.002 0.0102,-0.002 0.005,-10e-4 0.01,-0.002 0.0149,-0.003 z m 3.68044,0.31378 c 0.004,0.002 0.009,0.004 0.013,0.006 -0.004,-0.002 -0.009,-0.004 -0.013,-0.006 z m 0.1267,0.0668 c 0.007,0.004 0.014,0.008 0.021,0.0117 -0.007,-0.004 -0.014,-0.008 -0.021,-0.0117 z m 0.12856,0.075 c 0.009,0.006 0.0176,0.0112 0.0264,0.0168 -0.009,-0.006 -0.0175,-0.0113 -0.0264,-0.0168 z m 0.11658,0.0761 c 0.006,0.004 0.0123,0.008 0.0183,0.0125 -0.006,-0.004 -0.0123,-0.008 -0.0183,-0.0125 z m 0.11845,0.0859 c 0.005,0.004 0.0105,0.008 0.0157,0.0123 -0.005,-0.004 -0.0105,-0.008 -0.0157,-0.0123 z m 0.106,0.0861 c 0.006,0.004 0.0108,0.009 0.0162,0.014 -0.005,-0.005 -0.0108,-0.009 -0.0162,-0.014 z m 0.10195,0.0925 c 0.002,0.002 0.004,0.004 0.006,0.006 0.002,0.002 0.005,0.005 0.007,0.008 -0.005,-0.004 -0.009,-0.009 -0.0142,-0.0138 z m 0.0607,0.0608 c 0.008,0.008 0.0148,0.0158 0.0223,0.0239 -0.007,-0.008 -0.0147,-0.0159 -0.0223,-0.0239 z m 0.0682,0.0746 c 0.003,0.004 0.006,0.007 0.009,0.0104 -0.003,-0.004 -0.006,-0.007 -0.009,-0.0104 z m 0.25059,0.3625 c 0.004,0.008 0.008,0.0153 0.0115,0.0231 -0.004,-0.008 -0.008,-0.0157 -0.0115,-0.0231 z" /></g></g></g></g></svg>
