<?xml version="1.0" encoding="UTF-8" standalone="no"?>
<!-- Created with Inkscape (http://www.inkscape.org/) -->

<svg
   width="30.335203mm"
   height="25.711821mm"
   viewBox="0 0 30.335203 25.711821"
   version="1.1"
   id="svg5"
   xml:space="preserve"
   xmlns="http://www.w3.org/2000/svg"
   xmlns:svg="http://www.w3.org/2000/svg"><defs
     id="defs2" /><g
     id="layer1"
     transform="translate(-56.06624,-170.4887)"><path
       id="ellipse5"
       style="opacity:0.3;fill:#000000;fill-opacity:1;stroke:none;stroke-width:0.0510873;stroke-linecap:round;stroke-linejoin:round;stroke-dasharray:none;stroke-opacity:1;paint-order:fill markers stroke"
       d="m 82.491584,189.88502 c -0.235388,1.49141 -1.137815,3.34441 -2.801931,2.75526 -1.470225,-0.22651 -3.75345,1.80875 -6.6628,1.61511 -0.682775,-0.0455 -1.286956,-0.84498 -1.926572,-0.81813 -0.946459,0.0397 -1.890124,0.81837 -2.843439,0.88387 -1.904394,0.13086 -3.013156,0.0428 -4.146301,-1.27088 -1.169549,-1.35586 -2.077284,0.37552 -3.135059,-0.39063 -0.956049,-0.6024 -1.354763,-1.56355 -1.545481,-2.60571 a 15.167626,3.7820007 0 0 0 -3.363761,2.36438 15.167626,3.7820007 0 0 0 15.167604,3.78223 15.167626,3.7820007 0 0 0 15.167598,-3.78223 15.167626,3.7820007 0 0 0 -3.909858,-2.53327 z" /><path
       id="path5"
       style="fill:#b100b4;fill-opacity:1;stroke:none;stroke-width:0.498948;stroke-linecap:round;stroke-linejoin:round;stroke-dasharray:none;stroke-opacity:1;paint-order:fill markers stroke"
       d="m 70.939849,170.49035 c -4.259158,-0.0759 -8.974355,2.48375 -10.995063,6.51692 -1.62884,3.29335 -0.773459,7.01513 -0.750892,10.52288 0.143068,1.79223 0.05804,4.04337 1.781678,5.12942 1.057774,0.76614 1.965385,-0.96515 3.134934,0.3907 1.133146,1.3137 2.241982,1.40168 4.146376,1.27083 0.95332,-0.0655 1.89687,-0.84403 2.843329,-0.88377 0.639616,-0.0268 1.243992,0.77249 1.926767,0.81794 2.909355,0.19365 5.19251,-1.84149 6.66274,-1.61498 1.945338,0.68871 2.853023,-1.96132 2.86671,-3.46781 0.105612,-3.05282 0.886829,-6.17288 0.254149,-9.17125 -1.317078,-6.24186 -6.542898,-9.41597 -11.870728,-9.51088 z m -5.395287,5.58667 c 2.274818,-0.16219 3.648736,2.49414 2.996092,4.47348 -0.488256,2.35867 -3.399901,3.52013 -5.419292,2.28606 -1.961933,-0.96962 -1.62163,-3.62889 -0.484419,-5.10337 0.670212,-0.93294 1.737641,-1.62504 2.907619,-1.65617 z m 10.772668,0 c 2.65544,0.12053 4.669987,3.40842 3.464803,5.79062 -1.434789,2.18099 -5.221399,1.84318 -6.202286,-0.60527 -1.053433,-2.06606 0.06103,-5.33462 2.737483,-5.18535 z" /><path
       id="path6"
       style="opacity:0.274059;fill:#b100b4;fill-opacity:1;stroke:none;stroke-width:0.0202496;stroke-linecap:round;paint-order:fill markers stroke"
       d="m 65.521915,176.077 c -1.954913,0 -3.610427,2.02945 -3.808399,4.04399 -0.205372,2.08971 1.408465,3.24617 3.363148,3.21234 0.821767,-0.0142 1.392758,-0.31821 1.416213,-0.33007 -1.78075,0.10004 -3.714726,-1.04082 -3.533778,-2.88227 0.17808,-1.81233 1.535946,-3.63635 3.230079,-3.98434 -0.210297,-0.0392 -0.432768,-0.0597 -0.667263,-0.0597 z" /><path
       id="path7"
       style="opacity:0.179916;fill:#b100b4;fill-opacity:1;stroke:none;stroke-width:0.0203093;stroke-linecap:round;paint-order:fill markers stroke"
       d="m 76.31723,176.07702 c 1.966508,0 3.631791,2.02943 3.830926,4.04396 0.206575,2.0897 -1.430488,3.22942 -3.396682,3.1956 -0.826652,-0.0142 -1.279472,-0.25609 -1.401445,-0.30503 1.791258,0.10004 3.72721,-1.04913 3.545174,-2.89057 -0.179122,-1.81231 -1.545017,-3.63632 -3.249153,-3.98431 0.211499,-0.0392 0.435292,-0.0597 0.67118,-0.0597 z" /><ellipse
       style="fill:#b100b4;fill-opacity:1;stroke:none;stroke-width:2.01613;stroke-linecap:round;stroke-linejoin:round;stroke-opacity:0.924933;paint-order:fill markers stroke"
       id="ellipse7"
       cx="65.918823"
       cy="179.71199"
       rx="1.218182"
       ry="1.7311007" /><ellipse
       style="fill:#b100b4;fill-opacity:1;stroke:none;stroke-width:2.01613;stroke-linecap:round;stroke-linejoin:round;stroke-opacity:0.924933;paint-order:fill markers stroke"
       id="ellipse8"
       cx="76.074089"
       cy="179.71199"
       rx="1.218182"
       ry="1.7311007" /></g></svg>
