<?xml version="1.0" encoding="UTF-8" standalone="no"?>
<!-- Created with Inkscape (http://www.inkscape.org/) -->

<svg
   width="60.798355mm"
   height="52.032097mm"
   viewBox="0 0 60.798355 52.032097"
   version="1.1"
   id="svg5"
   inkscape:version="1.3 (0e150ed6c4, 2023-07-21)"
   sodipodi:docname="ui.svg"
   xml:space="preserve"
   xmlns:inkscape="http://www.inkscape.org/namespaces/inkscape"
   xmlns:sodipodi="http://sodipodi.sourceforge.net/DTD/sodipodi-0.dtd"
   xmlns="http://www.w3.org/2000/svg"
   xmlns:svg="http://www.w3.org/2000/svg"><sodipodi:namedview
     id="namedview7"
     pagecolor="#ffffff"
     bordercolor="#000000"
     borderopacity="0.25"
     inkscape:showpageshadow="2"
     inkscape:pageopacity="0.0"
     inkscape:pagecheckerboard="0"
     inkscape:deskcolor="#d1d1d1"
     inkscape:document-units="mm"
     showgrid="false"
     inkscape:zoom="1.6907272"
     inkscape:cx="427.62663"
     inkscape:cy="279.16981"
     inkscape:window-width="1920"
     inkscape:window-height="956"
     inkscape:window-x="0"
     inkscape:window-y="0"
     inkscape:window-maximized="1"
     inkscape:current-layer="layer1"
     showguides="true" /><defs
     id="defs2" /><g
     inkscape:label="Layer 1"
     inkscape:groupmode="layer"
     id="layer1"
     transform="translate(-117.37786,-29.330381)"><path
       id="ellipse5"
       style="opacity:0.198745;fill:#97419c;fill-opacity:1;stroke:none;stroke-width:0.10239;stroke-linecap:round;stroke-linejoin:round;stroke-dasharray:none;stroke-opacity:1;paint-order:fill markers stroke"
       d="m 170.33999,68.70485 c -0.47177,2.98911 -2.28043,6.702921 -5.61568,5.522144 -2.94665,-0.45398 -7.52273,3.625119 -13.3537,3.237012 -1.36843,-0.09108 -2.57934,-1.693524 -3.86127,-1.639694 -1.89691,0.07965 -3.78822,1.640183 -5.69887,1.771468 -3.81682,0.262262 -6.03902,0.0858 -8.31009,-2.547131 -2.34403,-2.717431 -4.16333,0.752618 -6.28334,-0.782898 -1.91613,-1.207338 -2.71524,-3.133699 -3.09748,-5.22242 a 30.399223,7.5799522 0 0 0 -6.74171,4.738729 30.399223,7.5799522 0 0 0 30.39918,7.580416 30.399223,7.5799522 0 0 0 30.39917,-7.580416 30.399223,7.5799522 0 0 0 -7.83621,-5.07721 z" /><path
       id="path5"
       style="fill:none;fill-opacity:1;stroke:#97419c;stroke-width:1;stroke-linecap:round;stroke-linejoin:round;stroke-dasharray:none;stroke-opacity:1;paint-order:fill markers stroke"
       d="m 147.1878,29.8337 c -8.53628,-0.152065 -17.98656,4.977974 -22.0365,13.06132 -3.26455,6.600592 -1.55018,14.059863 -1.50495,21.090145 0.28674,3.592012 0.11632,8.103798 3.57087,10.280483 2.12001,1.535517 3.93906,-1.934379 6.28309,0.783055 2.27107,2.632936 4.49342,2.809269 8.31024,2.547007 1.91066,-0.131286 3.80174,-1.691622 5.69865,-1.771272 1.28193,-0.05383 2.49323,1.548253 3.86166,1.639333 5.83098,0.388108 10.40692,-3.690739 13.35358,-3.236759 3.89888,1.38032 5.71808,-3.930924 5.74551,-6.950266 0.21167,-6.118505 1.7774,-12.371777 0.50937,-18.381173 C 168.33961,36.385523 157.86593,30.023927 147.1878,29.8337 Z m -10.81333,11.196915 c 4.55923,-0.325072 7.31286,4.998792 6.00482,8.965819 -0.97857,4.727275 -6.81414,7.055101 -10.86144,4.581753 -3.93214,-1.943316 -3.2501,-7.273085 -0.97088,-10.228264 1.34325,-1.869805 3.48261,-3.256932 5.8275,-3.319308 z m 21.59077,0 c 5.32208,0.241561 9.35967,6.831212 6.94422,11.605655 -2.87563,4.371182 -10.46482,3.694128 -12.43073,-1.213086 -2.11131,-4.140843 0.12231,-10.691741 5.48651,-10.392569 z"
       sodipodi:nodetypes="scsssssscssssccssssss" /><path
       id="path6"
       style="opacity:0.274059;fill:#97419c;fill-opacity:1;stroke:none;stroke-width:0.0405846;stroke-linecap:round;paint-order:fill markers stroke"
       d="m 136.32908,41.030569 c -3.91807,-8e-6 -7.23608,4.067448 -7.63286,8.105033 -0.41161,4.188229 2.82287,6.506031 6.74048,6.438223 1.647,-0.02851 2.79139,-0.637758 2.8384,-0.661528 -3.56901,0.2005 -7.44512,-2.086033 -7.08246,-5.776695 0.35691,-3.632303 3.07837,-7.288036 6.47378,-7.985489 -0.42148,-0.0785 -0.86736,-0.119544 -1.33734,-0.119544 z"
       sodipodi:nodetypes="ssscscs" /><path
       id="path7"
       style="opacity:0.179916;fill:#97419c;fill-opacity:1;stroke:none;stroke-width:0.0407043;stroke-linecap:round;paint-order:fill markers stroke"
       d="m 157.96524,41.030615 c 3.94131,-7e-6 7.2789,4.067417 7.67801,8.104979 0.41402,4.188205 -2.86701,6.472453 -6.80769,6.404654 -1.65679,-0.02852 -2.56434,-0.513256 -2.8088,-0.611338 3.59007,0.200508 7.47014,-2.102677 7.1053,-5.793316 -0.359,-3.63228 -3.09655,-7.287989 -6.51201,-7.985442 0.42389,-0.07849 0.87242,-0.119537 1.34519,-0.119537 z"
       sodipodi:nodetypes="ssscscs" /><ellipse
       style="fill:#97419c;fill-opacity:1;stroke:none;stroke-width:4.04076;stroke-linecap:round;stroke-linejoin:round;stroke-opacity:0.924933;paint-order:fill markers stroke"
       id="ellipse7"
       cx="137.12457"
       cy="48.315899"
       rx="2.4415016"
       ry="3.4695024" /><ellipse
       style="fill:#97419c;fill-opacity:1;stroke:none;stroke-width:4.04076;stroke-linecap:round;stroke-linejoin:round;stroke-opacity:0.924933;paint-order:fill markers stroke"
       id="ellipse8"
       cx="157.47794"
       cy="48.315899"
       rx="2.4415016"
       ry="3.4695024" /></g></svg>
