<?xml version="1.0" encoding="UTF-8" standalone="no"?>
<!-- Created with Inkscape (http://www.inkscape.org/) -->

<svg
   width="60.798443mm"
   height="51.531811mm"
   viewBox="0 0 60.798441 51.53181"
   version="1.1"
   id="svg5"
   xml:space="preserve"
   sodipodi:docname="alchemicats.svg"
   inkscape:version="1.3 (0e150ed6c4, 2023-07-21)"
   inkscape:export-filename="../../../../../home/dekram/RepositoryDisk/Development/repository/alchemicats.pet/assets/images/campfire.svg"
   inkscape:export-xdpi="379.45383"
   inkscape:export-ydpi="379.45383"
   xmlns:inkscape="http://www.inkscape.org/namespaces/inkscape"
   xmlns:sodipodi="http://sodipodi.sourceforge.net/DTD/sodipodi-0.dtd"
   xmlns="http://www.w3.org/2000/svg"
   xmlns:svg="http://www.w3.org/2000/svg"><sodipodi:namedview
     id="namedview223"
     pagecolor="#ffffff"
     bordercolor="#666666"
     borderopacity="1.0"
     inkscape:showpageshadow="2"
     inkscape:pageopacity="0.0"
     inkscape:pagecheckerboard="0"
     inkscape:deskcolor="#d1d1d1"
     inkscape:document-units="mm"
     showgrid="false"
     inkscape:zoom="1.4142136"
     inkscape:cx="-239.70919"
     inkscape:cy="-60.457627"
     inkscape:window-width="1920"
     inkscape:window-height="961"
     inkscape:window-x="0"
     inkscape:window-y="27"
     inkscape:window-maximized="1"
     inkscape:current-layer="svg5"
     showguides="true"
     inkscape:export-bgcolor="#00000000"><sodipodi:guide
       position="-116.08147,-679.25407"
       orientation="0,-1"
       id="guide469"
       inkscape:locked="false" /><sodipodi:guide
       position="-127.37802,-702.61738"
       orientation="0,-1"
       id="guide471"
       inkscape:locked="false" /><sodipodi:guide
       position="-142.7824,-730.85874"
       orientation="0,-1"
       id="guide473"
       inkscape:locked="false" /><sodipodi:guide
       position="-138.80293,-746.39149"
       orientation="0,-1"
       id="guide475"
       inkscape:locked="false" /><sodipodi:guide
       position="-27.216327,-749.88984"
       orientation="0,-1"
       id="guide15194"
       inkscape:locked="false" /><sodipodi:guide
       position="46.259303,-311.96575"
       orientation="0,-1"
       id="guide868"
       inkscape:locked="false" /><sodipodi:guide
       position="78.581923,-164.58523"
       orientation="0,-1"
       id="guide8933"
       inkscape:locked="false" /><sodipodi:guide
       position="93.047813,-194.41679"
       orientation="0,-1"
       id="guide8935"
       inkscape:locked="false" /><sodipodi:guide
       position="83.370463,-182.54225"
       orientation="0,-1"
       id="guide8937"
       inkscape:locked="false" /><inkscape:grid
       id="grid284"
       units="mm"
       originx="92.976467"
       originy="270.05598"
       spacingx="0.99999999"
       spacingy="0.99999997"
       empcolor="#0099e5"
       empopacity="0.30196078"
       color="#0099e5"
       opacity="0.14901961"
       empspacing="5"
       dotted="false"
       gridanglex="30"
       gridanglez="30"
       visible="false" /></sodipodi:namedview><defs
     id="defs2" /><ellipse
     style="opacity:0.198745;fill:#000000;fill-opacity:1;stroke:none;stroke-width:0.10239;stroke-linecap:round;stroke-linejoin:round;stroke-dasharray:none;stroke-opacity:1;paint-order:fill markers stroke"
     id="ellipse1"
     cx="30.399221"
     cy="43.951862"
     rx="30.399223"
     ry="7.5799522"
     inkscape:export-filename="../../../../../home/dekram/RepositoryDisk/Development/repository/alchemicats.pet/assets/images/instagram.svg"
     inkscape:export-xdpi="427.80042"
     inkscape:export-ydpi="427.80042" /><path
     id="path276"
     style="fill:#c23d68;fill-opacity:1;stroke:none;stroke-width:0.117028;stroke-linecap:round;stroke-linejoin:round;stroke-dasharray:none;stroke-opacity:1;paint-order:fill markers stroke"
     d="M 29.809888,0.00329193 C 21.273604,-0.14877307 11.823329,4.9812659 7.7733886,13.064612 c -3.26456,6.600592 -1.55018,14.059863 -1.50495,21.090145 0.28673,3.592012 0.11632,8.103798 3.57087,10.280483 2.1200104,1.535516 3.9390534,-1.934379 6.2830884,0.783055 2.271069,2.632935 4.493416,2.809268 8.310235,2.547007 1.910663,-0.131287 3.801744,-1.691623 5.698653,-1.771272 1.281935,-0.05383 2.493234,1.548252 3.861656,1.639333 5.83099,0.388108 10.40693,-3.69074 13.353585,-3.236759 3.898878,1.38032 5.71808,-3.930924 5.745511,-6.950266 0.211674,-6.118505 1.777395,-12.371777 0.50937,-18.381173 C 50.961695,6.5551149 40.488016,0.19351893 29.809888,0.00329193 Z M 18.996551,11.200207 c 4.559234,-0.325072 7.312864,4.998792 6.00482,8.965819 -0.978566,4.727275 -6.81414,7.055101 -10.861437,4.581753 -3.932135,-1.943316 -3.250105,-7.273085 -0.970873,-10.228264 1.343245,-1.869805 3.4826,-3.256932 5.82749,-3.319308 z m 21.590775,0 c 5.322084,0.241561 9.359669,6.831212 6.944221,11.605655 -2.875631,4.371182 -10.464821,3.694128 -12.430734,-1.213086 -2.111304,-4.140843 0.122311,-10.691741 5.486513,-10.392569 z"
     sodipodi:nodetypes="scsssssscssssccssssss" /><path
     id="path277"
     style="opacity:1;fill:#b73dae;fill-opacity:1;stroke:none;stroke-width:0.0405846;stroke-linecap:round;paint-order:fill markers stroke"
     d="m 18.95117,11.200161 c -3.918071,-8e-6 -7.236091,4.067448 -7.632861,8.105033 -0.41161,4.188229 2.822868,6.506031 6.740473,6.438223 1.647002,-0.02851 2.791395,-0.637758 2.838408,-0.661528 -3.569011,0.2005 -7.44512,-2.086033 -7.082461,-5.776695 0.356909,-3.632303 3.078368,-7.288036 6.473781,-7.985489 -0.421483,-0.0785 -0.867367,-0.119544 -1.33734,-0.119544 z"
     sodipodi:nodetypes="ssscscs" /><path
     id="path278"
     style="opacity:1;fill:#b73dae;fill-opacity:1;stroke:none;stroke-width:0.0407043;stroke-linecap:round;paint-order:fill markers stroke"
     d="m 40.587326,11.200207 c 3.941306,-7e-6 7.278905,4.067417 7.678009,8.104979 0.414024,4.188205 -2.867005,6.472453 -6.807689,6.404654 -1.656794,-0.02852 -2.564336,-0.513256 -2.808803,-0.611338 3.59007,0.200508 7.470143,-2.102677 7.105308,-5.793316 -0.359007,-3.63228 -3.096552,-7.287989 -6.512014,-7.985442 0.423893,-0.07849 0.872419,-0.119537 1.345189,-0.119537 z"
     sodipodi:nodetypes="ssscscs" /><ellipse
     style="fill:#ffc500;fill-opacity:1;stroke:none;stroke-width:4.04076;stroke-linecap:round;stroke-linejoin:round;stroke-opacity:0.924933;paint-order:fill markers stroke"
     id="ellipse278"
     cx="19.746664"
     cy="18.485487"
     rx="2.4415016"
     ry="3.4695024" /><ellipse
     style="fill:#ffc500;fill-opacity:1;stroke:none;stroke-width:4.04076;stroke-linecap:round;stroke-linejoin:round;stroke-opacity:0.924933;paint-order:fill markers stroke"
     id="ellipse279"
     cx="40.100014"
     cy="18.485487"
     rx="2.4415016"
     ry="3.4695024" /><text
     xml:space="preserve"
     style="font-size:12.038px;font-family:Roboto;-inkscape-font-specification:Roboto;fill:#ffffff;fill-opacity:1;stroke-width:1.00317"
     x="-33.591347"
     y="40.434673"
     id="text480"
     transform="scale(-1,1)"><tspan
       sodipodi:role="line"
       id="tspan480"
       style="font-style:normal;font-variant:normal;font-weight:bold;font-stretch:normal;font-family:Roboto;-inkscape-font-specification:'Roboto Bold';fill:#ffffff;fill-opacity:1;stroke-width:1.00317"
       x="-33.591347"
       y="40.434673">#</tspan></text></svg>
