<?xml version="1.0" encoding="UTF-8" standalone="no"?>
<!-- Created with Inkscape (http://www.inkscape.org/) -->

<svg
   width="28.440477mm"
   height="15.333491mm"
   viewBox="0 0 28.440476 15.333491"
   version="1.1"
   id="svg5"
   xml:space="preserve"
   xmlns:xlink="http://www.w3.org/1999/xlink"
   xmlns="http://www.w3.org/2000/svg"
   xmlns:svg="http://www.w3.org/2000/svg"><defs
     id="defs2"><linearGradient
       id="linearGradient118"><stop
         style="stop-color:#ccff00;stop-opacity:1;"
         offset="0"
         id="stop117" /><stop
         style="stop-color:#b3e100;stop-opacity:0.50196081;"
         offset="1"
         id="stop118" /></linearGradient><linearGradient
       id="linearGradient9"><stop
         style="stop-color:#c9f125;stop-opacity:1;"
         offset="0"
         id="stop9" /><stop
         style="stop-color:#b4dc18;stop-opacity:0.76078433;"
         offset="1"
         id="stop10" /></linearGradient><linearGradient
       id="linearGradient16"><stop
         style="stop-color:#f4d4ed;stop-opacity:1;"
         offset="0"
         id="stop16" /><stop
         style="stop-color:#f0b1d5;stop-opacity:1;"
         offset="1"
         id="stop17" /></linearGradient><linearGradient
       id="linearGradient14"><stop
         style="stop-color:#c8eb34;stop-opacity:1;"
         offset="0"
         id="stop14" /><stop
         style="stop-color:#f4d4ed;stop-opacity:1;"
         offset="1"
         id="stop15" /></linearGradient><linearGradient
       id="linearGradient7"><stop
         style="stop-color:#b4e100;stop-opacity:0.89411765;"
         offset="0"
         id="stop7" /><stop
         style="stop-color:#ccff00;stop-opacity:1;"
         offset="1"
         id="stop8" /></linearGradient><linearGradient
       id="linearGradient5"><stop
         style="stop-color:#f4d4ed;stop-opacity:1;"
         offset="0"
         id="stop5" /><stop
         style="stop-color:#e97ab0;stop-opacity:1;"
         offset="1"
         id="stop6" /></linearGradient><linearGradient
       id="linearGradient3"><stop
         style="stop-color:#b4e100;stop-opacity:0.90980393;"
         offset="0"
         id="stop3" /><stop
         style="stop-color:#ccff00;stop-opacity:1;"
         offset="1"
         id="stop4" /></linearGradient><linearGradient
       id="linearGradient1"><stop
         style="stop-color:#f4d4ed;stop-opacity:1;"
         offset="0"
         id="stop1" /><stop
         style="stop-color:#e97ab0;stop-opacity:1;"
         offset="1"
         id="stop2" /></linearGradient><linearGradient
       id="linearGradient59"><stop
         style="stop-color:#8fb300;stop-opacity:1;"
         offset="0.69999999"
         id="stop59" /><stop
         style="stop-color:#919191;stop-opacity:0.77507013;"
         offset="1"
         id="stop60" /></linearGradient><linearGradient
       id="linearGradient57"><stop
         style="stop-color:#e97ab0;stop-opacity:1;"
         offset="0.69999999"
         id="stop57" /><stop
         style="stop-color:#f4d4ed;stop-opacity:1;"
         offset="1"
         id="stop58" /></linearGradient><linearGradient
       id="linearGradient34"><stop
         style="stop-color:#e8bbdc;stop-opacity:1;"
         offset="0"
         id="stop33" /><stop
         style="stop-color:#c97ab0;stop-opacity:1;"
         offset="1"
         id="stop34" /></linearGradient><linearGradient
       id="linearGradient28"><stop
         style="stop-color:#d056b0;stop-opacity:1;"
         offset="0"
         id="stop28" /><stop
         style="stop-color:#e8bbdc;stop-opacity:1;"
         offset="1"
         id="stop29" /></linearGradient><linearGradient
       id="linearGradient26"><stop
         style="stop-color:#c7e93a;stop-opacity:1;"
         offset="0"
         id="stop26" /><stop
         style="stop-color:#ccff00;stop-opacity:1;"
         offset="1"
         id="stop27" /></linearGradient><linearGradient
       id="linearGradient24"><stop
         style="stop-color:#b4e100;stop-opacity:1;"
         offset="0"
         id="stop24" /><stop
         style="stop-color:#b4e100;stop-opacity:0;"
         offset="1"
         id="stop25" /></linearGradient><linearGradient
       xlink:href="#linearGradient24"
       id="linearGradient25"
       x1="8.3362083"
       y1="4.086412"
       x2="9.5377789"
       y2="3.5113485"
       gradientUnits="userSpaceOnUse"
       gradientTransform="matrix(7.1579179,0,0,7.1579179,-38.10344,-20.789059)" /><linearGradient
       xlink:href="#linearGradient26"
       id="linearGradient27"
       x1="8.1929235"
       y1="4.5169106"
       x2="7.8933315"
       y2="4.0109262"
       gradientUnits="userSpaceOnUse"
       gradientTransform="matrix(7.1579179,0,0,7.1579179,-38.10344,-20.789059)" /><linearGradient
       xlink:href="#linearGradient28"
       id="linearGradient29"
       x1="6.8164282"
       y1="4.5268359"
       x2="7.0935769"
       y2="3.8687615"
       gradientUnits="userSpaceOnUse"
       gradientTransform="matrix(7.1579179,0,0,7.1579179,-38.10344,-20.789059)" /><linearGradient
       xlink:href="#linearGradient28"
       id="linearGradient30"
       x1="6.2305522"
       y1="4.0847931"
       x2="5.8003078"
       y2="3.6933255"
       gradientUnits="userSpaceOnUse"
       gradientTransform="matrix(7.1579179,0,0,7.1579179,-38.10344,-20.789059)" /><linearGradient
       xlink:href="#linearGradient118"
       id="linearGradient32"
       x1="6.9843769"
       y1="3.2590051"
       x2="6.7427301"
       y2="2.9263408"
       gradientUnits="userSpaceOnUse"
       gradientTransform="matrix(7.1579179,0,0,7.1579179,-38.10344,-20.789059)" /><linearGradient
       xlink:href="#linearGradient34"
       id="linearGradient33"
       x1="7.8800507"
       y1="3.2976129"
       x2="7.8065286"
       y2="2.9190054"
       gradientUnits="userSpaceOnUse"
       gradientTransform="matrix(7.1579179,0,0,7.1579179,-38.10344,-20.789059)" /><linearGradient
       xlink:href="#linearGradient57"
       id="linearGradient58"
       x1="7.7413535"
       y1="3.8663363"
       x2="8.1189957"
       y2="3.8663363"
       gradientUnits="userSpaceOnUse"
       gradientTransform="matrix(7.1579179,0,0,7.1579179,-38.10344,-20.789059)" /><linearGradient
       xlink:href="#linearGradient59"
       id="linearGradient60"
       x1="6.6652274"
       y1="3.868228"
       x2="7.0428696"
       y2="3.868228"
       gradientUnits="userSpaceOnUse"
       gradientTransform="matrix(7.1579179,0,0,7.1579179,-38.10344,-20.789059)" /><linearGradient
       xlink:href="#linearGradient1"
       id="linearGradient2"
       x1="7.4417038"
       y1="4.4692302"
       x2="7.6387911"
       y2="4.4692302"
       gradientUnits="userSpaceOnUse"
       gradientTransform="matrix(7.1579179,0,0,7.1579179,-38.10344,-20.789059)" /><linearGradient
       xlink:href="#linearGradient3"
       id="linearGradient4"
       x1="7.2252421"
       y1="4.2902436"
       x2="7.422318"
       y2="4.2902436"
       gradientUnits="userSpaceOnUse"
       gradientTransform="matrix(7.1579179,0,0,7.1579179,-38.10344,-20.789059)" /><linearGradient
       xlink:href="#linearGradient5"
       id="linearGradient6"
       x1="7.4223204"
       y1="4.2668338"
       x2="7.613287"
       y2="4.2668338"
       gradientUnits="userSpaceOnUse"
       gradientTransform="matrix(7.1579179,0,0,7.1579179,-38.10344,-20.789059)" /><linearGradient
       xlink:href="#linearGradient7"
       id="linearGradient8"
       x1="7.2507348"
       y1="4.4926543"
       x2="7.4417062"
       y2="4.4926543"
       gradientUnits="userSpaceOnUse"
       gradientTransform="matrix(7.1579179,0,0,7.1579179,-38.10344,-20.789059)" /><linearGradient
       xlink:href="#linearGradient14"
       id="linearGradient15"
       x1="-1.4873432"
       y1="-8.6524916"
       x2="-1.3598969"
       y2="-8.4964838"
       gradientUnits="userSpaceOnUse"
       gradientTransform="matrix(7.1579176,1.0133286e-8,-3.2568466e-8,7.1579178,8.6052028,42.900928)" /><linearGradient
       xlink:href="#linearGradient16"
       id="linearGradient17"
       x1="7.4900393"
       y1="3.8687615"
       x2="8.2426844"
       y2="3.8687615"
       gradientUnits="userSpaceOnUse"
       gradientTransform="matrix(7.1579179,0,0,7.1579179,-38.10344,-20.789059)" /><linearGradient
       xlink:href="#linearGradient9"
       id="linearGradient10"
       x1="6.5740199"
       y1="3.8687615"
       x2="7.3266654"
       y2="3.8687615"
       gradientUnits="userSpaceOnUse"
       gradientTransform="matrix(7.1579179,0,0,7.1579179,-38.10344,-20.789059)" /></defs><path
     id="path22"
     style="fill:url(#linearGradient32);fill-opacity:1;stroke:none;stroke-width:0.0572636;stroke-linecap:round;stroke-dasharray:none;stroke-opacity:1"
     d="M 10.610388,-1.0150579e-7 C 11.677454,0.3240317 12.538017,0.9712147 13.31248,1.7531128 l -3.129665,1.550571 C 10.19929,2.1696222 10.212025,1.0344623 10.610388,-1.0150579e-7 Z" /><path
     style="fill:url(#linearGradient25);fill-opacity:1;stroke:none;stroke-width:0.0572636;stroke-dasharray:none;stroke-opacity:1"
     d="m 22.151256,1.3029272 -0.02062,0.044021 C 24.176024,3.0497247 23.02522,7.1733831 20.637362,6.8893699 20.322085,6.8518559 20.011921,6.7350144 19.739024,6.5229947 19.313924,6.1927478 19.043336,5.709901 18.794555,5.1672379 c -0.331792,1.196737 -0.798002,2.0854305 -1.464341,3.0098419 1.133666,-0.051753 2.134851,0.015902 2.87191,1.316662 0.235014,0.414651 0.320745,0.9167692 0.536185,1.3329112 0.528211,-1.1008016 1.737816,-1.5308378 2.626762,-0.9306169 0.427544,0.2886009 0.628601,0.7230309 0.940702,1.1660579 0.350444,-1.3828042 1.926481,-1.9182099 2.866212,-1.3400936 0.641501,0.3945666 0.930321,1.0319216 1.237688,1.8206146 C 28.504423,10.68076 28.364383,9.7388953 28.209569,8.9031442 27.724777,6.2866346 26.406297,3.884831 24.601519,2.5262812 23.820006,1.9379796 22.996673,1.6691936 22.151266,1.3029272"
     id="path23" /><ellipse
     style="fill:url(#linearGradient17);fill-opacity:1;stroke-width:0.066235;stroke-linecap:round"
     id="ellipse23"
     cx="18.203331"
     cy="6.9032187"
     rx="2.6936865"
     ry="2.8100076" /><ellipse
     style="fill:url(#linearGradient10);fill-opacity:1;stroke-width:0.066235;stroke-linecap:round"
     id="ellipse24"
     cx="11.646541"
     cy="6.9032187"
     rx="2.6936865"
     ry="2.8100076" /><path
     id="path24"
     style="fill:url(#linearGradient30);fill-opacity:1;stroke:none;stroke-width:0.0572636;stroke-linecap:square;stroke-linejoin:bevel;stroke-dasharray:none;stroke-opacity:1;paint-order:fill markers stroke"
     d="m 9.4195526,5.3025554 c -0.012668,0.027492 -0.024763,0.055045 -0.036791,0.082638 -8.447e-4,-5.856e-4 -0.00197,-2.908e-4 -0.0029,-5.856e-4 C 8.3492009,4.9039466 6.5385599,4.3878788 5.8810144,4.3877032 5.7102192,4.387654 5.637502,4.4363772 5.3476636,4.7440745 3.6945626,6.4991038 1.3848099,10.221804 0.28112683,12.910467 c -0.4027144,0.981059 -0.4078325,0.972213 0.2151311,0.334032 1.30068487,-1.332433 2.39646527,-2.01614 3.23092967,-2.01614 0.6531171,0 1.2373821,0.44815 1.6144705,1.238469 l 0.2056827,0.432216 0.1269728,-0.279504 c 0.1686799,-0.371052 0.7344595,-1.528893 1.5756305,-1.96056 0.5572371,-0.285952 1.2112264,-0.494111 1.7857798,-0.08151 0.0029,0.106088 0.3912375,0.212017 0.3912375,0.317411 z" /><path
     id="path25"
     style="fill:url(#linearGradient29);fill-opacity:1;stroke:none;stroke-width:0.0572636;stroke-linecap:round;stroke-linejoin:round;stroke-dasharray:none;stroke-opacity:1;paint-order:fill markers stroke"
     d="M 14.814656,1.4824677 C 12.414615,1.4378748 9.757627,2.9424762 8.6189531,5.3133168 7.701097,7.2492612 8.1831507,9.4370776 8.1958631,11.499051 c 0.080613,1.05354 0.032714,2.376847 1.0039686,3.015267 0.5960543,0.450362 1.1203763,0.159842 1.7664673,0.22961 0.996241,0.107577 1.295915,0.657842 2.369044,0.580923 0.518699,-0.03715 0.999761,-0.297826 1.514626,-0.348269 1.584335,-4.554382 -1.404987,-8.6895464 0,-13.4927643 -0.01173,-2.776e-4 -0.02348,-0.00117 -0.03529,-0.00147 z m -2.921538,3.2799019 c 1.210468,0.00596 1.925865,1.5066101 1.569595,2.6337744 C 13.187584,8.7826499 11.546885,9.4653649 10.408956,8.7399329 9.3034062,8.1699608 9.4951282,6.6067266 10.135952,5.739975 c 0.377663,-0.5484096 0.979177,-0.9552199 1.638463,-0.9735133 0.04008,-0.00299 0.07966,-0.00431 0.118692,-0.00398 z" /><path
     id="path26"
     style="opacity:0.274059;fill:url(#linearGradient60);fill-opacity:1;stroke:none;stroke-width:0.0116545;stroke-linecap:round;paint-order:fill markers stroke"
     d="m 11.761702,4.7664287 c -1.101599,-3.4e-6 -2.0344869,1.1929788 -2.1460418,2.3771981 -0.1157148,1.2284053 0.7936738,1.9082131 1.8951368,1.8883284 0.463067,-0.0083 0.784827,-0.1870365 0.798044,-0.1940227 -1.003455,0.058838 -2.093255,-0.61183 -1.991293,-1.6943013 0.100333,-1.0653493 0.86551,-2.1375723 1.820158,-2.3421385 -0.118506,-0.02318 -0.243862,-0.035073 -0.376005,-0.035073 z" /><ellipse
     style="fill:#8fb300;fill-opacity:1;stroke:none;stroke-width:1.16036;stroke-linecap:round;stroke-linejoin:round;stroke-opacity:0.924933;paint-order:fill markers stroke"
     id="ellipse26"
     cx="11.985352"
     cy="6.9032187"
     rx="0.68644774"
     ry="1.0176027" /><path
     id="path27"
     style="fill:url(#linearGradient33);fill-opacity:1;stroke:none;stroke-width:0.0572636;stroke-linecap:round;stroke-dasharray:none;stroke-opacity:1"
     d="M 19.037799,-1.0150579e-7 C 17.970737,0.324028 17.110174,0.9712147 16.335711,1.7531128 l 3.129664,1.550571 C 19.448915,2.1696222 19.436175,1.0344623 19.037799,-1.0150579e-7 Z" /><path
     id="path28"
     style="fill:url(#linearGradient27);fill-opacity:1;stroke:none;stroke-width:0.0572636;stroke-linecap:round;stroke-linejoin:bevel;stroke-dasharray:none;stroke-opacity:1;paint-order:fill markers stroke"
     d="m 14.811317,1.4824677 c 2.400045,-0.044594 5.057033,1.4600085 6.195706,3.8308491 0.917856,1.9359444 0.43581,4.1237608 0.42309,6.1857342 -0.08061,1.05354 -0.03271,2.376847 -1.003972,3.015267 -0.596054,0.450362 -1.120689,0.09723 -1.766464,0.229612 -0.981615,0.201266 -1.267143,0.657841 -2.340275,0.580922 -0.518699,-0.03715 -1.028529,-0.297827 -1.543395,-0.348269 1.404391,-4.530534 -1.380265,-9.2720756 0,-13.4927639 0.01173,-2.776e-4 0.02348,-0.00117 0.03529,-0.00147 z m 2.921542,3.2799019 c -1.210469,0.00595 -1.925868,1.5066101 -1.569596,2.6337744 0.27513,1.3865059 1.915829,2.0692209 3.053757,1.3437889 1.105547,-0.5699721 0.913826,-2.1332063 0.273005,-2.9999579 -0.377666,-0.5484096 -0.97918,-0.9552199 -1.638463,-0.9735133 -0.04008,-0.00299 -0.07966,-0.00431 -0.118702,-0.00398 z" /><path
     id="path29"
     style="opacity:0.274059;fill:url(#linearGradient58);fill-opacity:1;stroke:none;stroke-width:0.0116545;stroke-linecap:round;paint-order:fill markers stroke"
     d="m 17.855671,4.7528817 c 1.101596,-3e-6 2.034484,1.1929829 2.146039,2.3772019 0.115747,1.2284059 -0.793671,1.9082127 -1.895137,1.888328 -0.463065,-0.00827 -0.784823,-0.1870399 -0.79804,-0.1940197 1.003455,0.058817 2.093255,-0.611836 1.991289,-1.6943013 -0.100336,-1.065353 -0.865507,-2.1375767 -1.820155,-2.3421395 0.118506,-0.02318 0.243862,-0.035073 0.376004,-0.035069 z" /><ellipse
     style="fill:#c97ab0;fill-opacity:1;stroke:none;stroke-width:1.16036;stroke-linecap:round;stroke-linejoin:round;stroke-opacity:0.924933;paint-order:fill markers stroke"
     id="ellipse29"
     cx="-17.709932"
     cy="6.9032187"
     rx="0.68644774"
     ry="1.0176027"
     transform="scale(-1,1)" /><path
     style="fill:url(#linearGradient6);fill-opacity:1;stroke-width:0.0412942;stroke-linecap:round"
     d="m 15.024919,9.8887079 0.713616,0.5996611 0.596934,-0.7729795 c 0.08814,-0.1142038 0.07115,-0.2801912 -0.03851,-0.3722116 L 15.978654,9.0756506 c -0.10948,-0.092028 -0.268588,-0.074212 -0.356808,0.040157 z"
     id="path30" /><path
     style="fill:url(#linearGradient4);fill-opacity:1;stroke-width:0.0412942;stroke-linecap:round"
     d="M 14.450061,10.633145 15.024902,9.8887163 14.28392,9.2660017 c -0.109481,-0.092028 -0.268588,-0.074212 -0.356808,0.040157 L 13.67066,9.6382918 c -0.08822,0.1142037 -0.07115,0.2801878 0.03851,0.3722112 z"
     id="path31" /><path
     style="fill:url(#linearGradient8);fill-opacity:1;stroke-width:0.0412942;stroke-linecap:round"
     d="m 15.163682,11.232827 -0.713612,-0.599664 -0.596937,0.77298 c -0.08822,0.114204 -0.07115,0.280276 0.03851,0.372305 l 0.31839,0.267527 c 0.10948,0.09203 0.268672,0.07421 0.356894,-0.04016 z"
     id="path32" /><path
     style="fill:url(#linearGradient2);fill-opacity:1;stroke-width:0.0412942;stroke-linecap:round"
     d="m 16.51799,11.483345 c 0.08822,-0.114204 0.07115,-0.280275 -0.03851,-0.372305 l -0.740974,-0.622711 -0.574841,0.744428 0.740982,0.622715 c 0.10948,0.09203 0.268672,0.07421 0.356808,-0.04016 z"
     id="path33" /><rect
     style="fill:url(#linearGradient15);fill-opacity:1;stroke-width:0.0567276;stroke-linecap:round"
     id="rect33"
     width="0.95857656"
     height="0.94999111"
     x="-2.1063299"
     y="-18.892193"
     ry="0"
     transform="matrix(-0.61118677,0.79148641,-0.7655791,-0.64334178,0,0)" /></svg>
