<?xml version="1.0" encoding="UTF-8" standalone="no"?>
<!-- Created with Inkscape (http://www.inkscape.org/) -->

<svg
   width="29.674448mm"
   height="26.092901mm"
   viewBox="0 0 29.674448 26.092901"
   version="1.1"
   id="svg5"
   inkscape:version="1.3.2 (091e20ef0f, 2023-11-25)"
   sodipodi:docname="ui.svg"
   xml:space="preserve"
   xmlns:inkscape="http://www.inkscape.org/namespaces/inkscape"
   xmlns:sodipodi="http://sodipodi.sourceforge.net/DTD/sodipodi-0.dtd"
   xmlns:xlink="http://www.w3.org/1999/xlink"
   xmlns="http://www.w3.org/2000/svg"
   xmlns:svg="http://www.w3.org/2000/svg"><sodipodi:namedview
     id="namedview7"
     pagecolor="#ffffff"
     bordercolor="#000000"
     borderopacity="0.25"
     inkscape:showpageshadow="2"
     inkscape:pageopacity="0.0"
     inkscape:pagecheckerboard="0"
     inkscape:deskcolor="#d1d1d1"
     inkscape:document-units="mm"
     showgrid="true"
     inkscape:zoom="1.6907272"
     inkscape:cx="354.87689"
     inkscape:cy="836.32655"
     inkscape:window-width="1920"
     inkscape:window-height="956"
     inkscape:window-x="0"
     inkscape:window-y="32"
     inkscape:window-maximized="1"
     inkscape:current-layer="layer1"
     showguides="true"><inkscape:grid
       id="grid21"
       units="mm"
       originx="-18.875281"
       originy="-203.15869"
       spacingx="0.99999998"
       spacingy="1"
       empcolor="#0099e5"
       empopacity="0.30196078"
       color="#0099e5"
       opacity="0.14901961"
       empspacing="5"
       dotted="false"
       gridanglex="30"
       gridanglez="30"
       visible="true" /><sodipodi:guide
       position="128.85013,303.96608"
       orientation="0,-1"
       id="guide1"
       inkscape:locked="false" /><sodipodi:guide
       position="120.10833,431.33084"
       orientation="0,-1"
       id="guide336"
       inkscape:locked="false" /><sodipodi:guide
       position="123.428,421.37182"
       orientation="0,-1"
       id="guide337"
       inkscape:locked="false" /><sodipodi:guide
       position="74.124719,283.15871"
       orientation="0,-1"
       id="guide46"
       inkscape:locked="false" /></sodipodi:namedview><defs
     id="defs2"><linearGradient
       id="linearGradient49"
       inkscape:collect="always"><stop
         style="stop-color:#000000;stop-opacity:1;"
         offset="0"
         id="stop49" /><stop
         style="stop-color:#000000;stop-opacity:0;"
         offset="1"
         id="stop50" /></linearGradient><filter
       inkscape:collect="always"
       style="color-interpolation-filters:sRGB"
       id="filter1418"
       x="-0.10891587"
       y="-0.46239597"
       width="1.2178317"
       height="1.9247919"><feGaussianBlur
         inkscape:collect="always"
         stdDeviation="1.06342"
         id="feGaussianBlur1418" /></filter><linearGradient
       inkscape:collect="always"
       xlink:href="#linearGradient49"
       id="linearGradient3"
       gradientUnits="userSpaceOnUse"
       x1="71.079536"
       y1="225.78006"
       x2="71.063911"
       y2="203.68712" /></defs><g
     inkscape:label="Layer 1"
     inkscape:groupmode="layer"
     id="layer1"
     transform="translate(-18.875281,-203.1587)"><g
       id="g1422"
       style="fill:#f4d7d7"><ellipse
         style="fill:#f4d7d7;fill-opacity:1;stroke:none;stroke-width:6.01887;stroke-linecap:round;stroke-linejoin:round;stroke-opacity:0.924933;paint-order:fill markers stroke"
         id="ellipse1421"
         cx="28.078255"
         cy="212.54407"
         rx="3.8318079"
         ry="4.9048214" /><ellipse
         style="fill:#f4d7d7;fill-opacity:1;stroke:none;stroke-width:6.01887;stroke-linecap:round;stroke-linejoin:round;stroke-opacity:0.924933;paint-order:fill markers stroke"
         id="ellipse1422"
         cx="39.683586"
         cy="212.54407"
         rx="3.8318079"
         ry="4.9048214" /></g><path
       id="path2"
       style="opacity:0.274059;fill:#000000;fill-opacity:1;stroke:none;stroke-width:0.0202496;stroke-linecap:round;paint-order:fill markers stroke"
       d="m 28.597377,209.07894 c -1.954913,0 -3.610427,2.02945 -3.808399,4.04399 -0.205372,2.08971 1.408465,3.24617 3.363148,3.21234 0.821767,-0.0142 1.392758,-0.31821 1.416213,-0.33007 -1.78075,0.10004 -3.714726,-1.04082 -3.533778,-2.88227 0.17808,-1.81233 1.535946,-3.63635 3.230079,-3.98434 -0.210297,-0.0392 -0.432768,-0.0597 -0.667263,-0.0597 z"
       sodipodi:nodetypes="ssscscs"
       inkscape:export-filename="../../../../../home/dekram/RepositoryDisk/Development/repository/alchemicats.pet/src/assets/images/threads.svg"
       inkscape:export-xdpi="96"
       inkscape:export-ydpi="96" /><path
       id="path3"
       style="opacity:0.179916;fill:#000000;fill-opacity:1;stroke:none;stroke-width:0.0203093;stroke-linecap:round;paint-order:fill markers stroke"
       d="m 39.392692,209.07896 c 1.966508,0 3.631791,2.02943 3.830926,4.04396 0.206575,2.0897 -1.430488,3.22942 -3.396682,3.1956 -0.826652,-0.0142 -1.279472,-0.25609 -1.401445,-0.30503 1.791258,0.10004 3.72721,-1.04913 3.545174,-2.89057 -0.179122,-1.81231 -1.545017,-3.63632 -3.249153,-3.98431 0.211499,-0.0392 0.435292,-0.0597 0.67118,-0.0597 z"
       sodipodi:nodetypes="ssscscs" /><ellipse
       style="fill:#000000;fill-opacity:1;stroke:none;stroke-width:2.01613;stroke-linecap:round;stroke-linejoin:round;stroke-opacity:0.924933;paint-order:fill markers stroke"
       id="ellipse3"
       cx="28.994284"
       cy="212.71393"
       rx="1.218182"
       ry="1.7311007" /><ellipse
       style="fill:#000000;fill-opacity:1;stroke:none;stroke-width:2.01613;stroke-linecap:round;stroke-linejoin:round;stroke-opacity:0.924933;paint-order:fill markers stroke"
       id="ellipse4"
       cx="39.149548"
       cy="212.71393"
       rx="1.218182"
       ry="1.7311007" /><ellipse
       style="opacity:1;fill:#000000;fill-opacity:1;stroke:none;stroke-width:0.1384;stroke-linejoin:round"
       id="ellipse6"
       cx="33.712505"
       cy="223.15831"
       rx="14.837225"
       ry="3.8416777" /><path
       id="path21"
       style="font-variation-settings:normal;opacity:1;vector-effect:none;fill:#3a3a3a;fill-opacity:1;stroke:url(#linearGradient3);stroke-width:0.699;stroke-linecap:round;stroke-linejoin:round;stroke-miterlimit:4;stroke-dasharray:none;stroke-dashoffset:0;stroke-opacity:1;-inkscape-stroke:none;paint-order:fill markers stroke;stop-color:#000000;stop-opacity:1"
       d="m 34.023716,203.50985 c -4.259151,-0.0759 -8.97449,2.48376 -10.995194,6.51691 -1.628837,3.29335 -0.773426,7.01514 -0.750859,10.52287 0.06518,0.81654 0.08494,1.72777 0.248047,2.58124 h 0.0155 a 11.527297,3.2348447 0 0 0 11.480953,3.01946 11.527297,3.2348447 0 0 0 11.480436,-3.01946 h 0.03462 c 0.06644,-0.3335 0.100269,-0.65635 0.102837,-0.93896 0.105609,-3.05282 0.886926,-6.17265 0.254248,-9.17102 -1.317078,-6.24184 -6.542775,-9.41613 -11.870594,-9.51104 z m -5.184696,5.5795 c 2.148123,0.0102 3.417613,2.56339 2.78536,4.48086 -0.48825,2.35867 -3.399924,3.51972 -5.419308,2.28565 -1.96193,-0.96962 -1.621417,-3.62858 -0.484208,-5.10304 0.670211,-0.93294 1.737339,-1.6251 2.907316,-1.65623 0.07109,-0.005 0.141546,-0.008 0.21084,-0.007 z m 10.315649,0.003 c 0.08057,-0.002 0.162857,-3.9e-4 0.246497,0.004 2.655435,0.12053 4.670092,3.40866 3.464905,5.79086 -1.434788,2.18097 -5.221844,1.8428 -6.202722,-0.60565 -1.020518,-2.00149 -0.0064,-5.13139 2.49132,-5.18935 z" /><path
       class="x19hqcy"
       d="m 35.167816,219.2431 c -0.01947,-0.009 -0.03925,-0.0183 -0.05928,-0.0269 -0.03489,-0.64285 -0.38615,-1.01087 -0.975957,-1.01464 -0.0026,-2e-5 -0.0053,-2e-5 -0.008,-2e-5 -0.352782,0 -0.646185,0.15059 -0.826774,0.42461 l 0.324377,0.22252 c 0.134906,-0.20469 0.346629,-0.24832 0.502553,-0.24832 0.0017,0 0.0036,0 0.0053,1e-5 0.194202,6.5e-4 0.340748,0.0577 0.435596,0.16782 0.06902,0.0802 0.115188,0.19094 0.138046,0.33075 -0.172181,-0.0293 -0.358393,-0.0382 -0.55746,-0.0269 -0.560763,0.0323 -0.921267,0.35935 -0.897054,0.8138 0.01229,0.23052 0.127126,0.42883 0.323351,0.55838 0.165905,0.10952 0.379581,0.16307 0.601655,0.15095 0.293271,-0.0161 0.523341,-0.12798 0.683847,-0.33258 0.121897,-0.15537 0.198994,-0.35672 0.233035,-0.61042 0.139765,0.0844 0.243347,0.19534 0.300553,0.32878 0.09727,0.22682 0.102947,0.59954 -0.201185,0.90343 -0.266465,0.2662 -0.586769,0.38136 -1.070839,0.38492 -0.536963,-0.004 -0.943061,-0.17619 -1.207094,-0.51184 -0.247246,-0.3143 -0.375024,-0.76828 -0.379791,-1.34933 0.0048,-0.58104 0.132545,-1.03502 0.379791,-1.34932 0.264033,-0.33565 0.670124,-0.50786 1.207087,-0.51184 0.540859,0.004 0.954034,0.17705 1.228173,0.51432 0.134421,0.16539 0.235768,0.37338 0.302578,0.6159 l 0.380123,-0.10143 c -0.08098,-0.2985 -0.208412,-0.55572 -0.381818,-0.76905 -0.351449,-0.4324 -0.865452,-0.65396 -1.527731,-0.65855 h -0.0026 c -0.660932,0.005 -1.169179,0.22699 -1.510619,0.66103 -0.303835,0.38624 -0.460561,0.92368 -0.465827,1.59736 l -1.7e-5,0.001 1.7e-5,10e-4 c 0.0053,0.67367 0.161992,1.21113 0.465827,1.59736 0.34144,0.43404 0.849687,0.65646 1.510619,0.66103 h 0.0026 c 0.587605,-0.005 1.001792,-0.15793 1.343001,-0.49883 0.446416,-0.44598 0.432974,-1.00502 0.285841,-1.34821 -0.105561,-0.2461 -0.306815,-0.44599 -0.582014,-0.578 z m -1.014552,0.95387 c -0.245773,0.0138 -0.501104,-0.0965 -0.513694,-0.33276 -0.0093,-0.17519 0.12468,-0.37068 0.528777,-0.39397 0.04628,-0.003 0.09169,-0.004 0.1363,-0.004 0.146781,0 0.284098,0.0143 0.408938,0.0416 -0.04657,0.58153 -0.319692,0.67594 -0.560321,0.68915 z"
       id="path1-6"
       style="fill:#ffffff;stroke-width:0.0235413" /><path
       id="path1421"
       style="font-variation-settings:normal;opacity:0.460331;vector-effect:none;fill:#000000;fill-opacity:1;stroke:none;stroke-width:0.699;stroke-linecap:round;stroke-linejoin:round;stroke-miterlimit:4;stroke-dasharray:none;stroke-dashoffset:0;stroke-opacity:1;-inkscape-stroke:none;paint-order:fill markers stroke;filter:url(#filter1418);stop-color:#000000"
       d="m 33.790831,224.59907 c -3.83803,0.0334 -7.4602,-1.04903 -11.423061,-3.33699 0.107259,0.90689 0.007,1.89594 0.381029,2.72887 0.858516,1.15422 2.375618,1.49791 3.685672,1.88163 3.98842,0.93588 8.14822,1.00812 12.20788,0.56084 2.1111,-0.29515 4.31734,-0.62181 6.152,-1.77653 0.81689,-0.47143 0.96603,-1.37658 0.93775,-2.2401 0.17753,-0.7049 0.0391,-1.20007 -0.7611,-1.23693 -2.97608,2.97608 -7.4269,3.44201 -11.18017,3.41921 z"
       sodipodi:nodetypes="ccccccccc" /></g></svg>
