<?xml version="1.0" encoding="UTF-8" standalone="no"?>
<!-- Created with Inkscape (http://www.inkscape.org/) -->

<svg
   width="30.335197mm"
   height="25.711821mm"
   viewBox="0 0 30.335197 25.711821"
   version="1.1"
   id="svg5"
   xml:space="preserve"
   xmlns="http://www.w3.org/2000/svg"
   xmlns:svg="http://www.w3.org/2000/svg"><defs
     id="defs2" /><g
     id="layer1"
     transform="translate(-22.314793,-170.4887)"><path
       id="path16"
       style="opacity:0.3;fill:#000000;fill-opacity:1;stroke:none;stroke-width:0.0510873;stroke-linecap:round;stroke-linejoin:round;stroke-dasharray:none;stroke-opacity:1;paint-order:fill markers stroke"
       d="m 48.740133,189.88502 c -0.23538,1.49141 -1.13781,3.34441 -2.80193,2.75526 -1.47022,-0.22651 -3.75345,1.80875 -6.6628,1.61511 -0.68277,-0.0455 -1.28695,-0.84498 -1.92657,-0.81813 -0.94646,0.0397 -1.89012,0.81837 -2.84344,0.88387 -1.90439,0.13086 -3.01315,0.0428 -4.1463,-1.27088 -1.169548,-1.35586 -2.077283,0.37552 -3.135058,-0.39063 -0.956049,-0.6024 -1.354763,-1.56355 -1.545481,-2.60571 a 15.167626,3.7820007 0 0 0 -3.363761,2.36438 15.167626,3.7820007 0 0 0 15.1676,3.78223 15.167626,3.7820007 0 0 0 15.1676,-3.78223 15.167626,3.7820007 0 0 0 -3.90986,-2.53327 z" /><path
       id="path17"
       style="fill:#000000;fill-opacity:1;stroke:none;stroke-width:0.498948;stroke-linecap:round;stroke-linejoin:round;stroke-dasharray:none;stroke-opacity:1;paint-order:fill markers stroke"
       d="m 37.188403,170.49035 c -4.25916,-0.0759 -8.974356,2.48375 -10.995064,6.51692 -1.62884,3.29335 -0.773459,7.01513 -0.750892,10.52288 0.143068,1.79223 0.05804,4.04337 1.781678,5.12942 1.057774,0.76614 1.965385,-0.96515 3.134938,0.3907 1.13314,1.3137 2.24198,1.40168 4.14637,1.27083 0.95332,-0.0655 1.89687,-0.84403 2.84333,-0.88377 0.63962,-0.0268 1.24399,0.77249 1.92677,0.81794 2.90935,0.19365 5.19251,-1.84149 6.66274,-1.61498 1.94534,0.68871 2.85302,-1.96132 2.86671,-3.46781 0.10561,-3.05282 0.88683,-6.17288 0.25415,-9.17125 -1.31708,-6.24186 -6.5429,-9.41597 -11.87073,-9.51088 z m -5.39529,5.58667 c 2.27482,-0.16219 3.64874,2.49414 2.99609,4.47348 -0.48825,2.35867 -3.3999,3.52013 -5.419288,2.28606 -1.961933,-0.96962 -1.62163,-3.62889 -0.484419,-5.10337 0.670212,-0.93294 1.737637,-1.62504 2.907617,-1.65617 z m 10.77267,0 c 2.65544,0.12053 4.66999,3.40842 3.4648,5.79062 -1.43479,2.18099 -5.2214,1.84318 -6.20228,-0.60527 -1.05344,-2.06606 0.061,-5.33462 2.73748,-5.18535 z" /><path
       id="path18"
       style="opacity:0.274059;fill:#000000;fill-opacity:1;stroke:none;stroke-width:0.0202496;stroke-linecap:round;paint-order:fill markers stroke"
       d="m 31.770463,176.077 c -1.954908,0 -3.610422,2.02945 -3.808394,4.04399 -0.205372,2.08971 1.408465,3.24617 3.363144,3.21234 0.82177,-0.0142 1.39276,-0.31821 1.41622,-0.33007 -1.78075,0.10004 -3.714729,-1.04082 -3.533781,-2.88227 0.17808,-1.81233 1.535941,-3.63635 3.230081,-3.98434 -0.2103,-0.0392 -0.43277,-0.0597 -0.66727,-0.0597 z" /><path
       id="path19"
       style="opacity:0.179916;fill:#000000;fill-opacity:1;stroke:none;stroke-width:0.0203093;stroke-linecap:round;paint-order:fill markers stroke"
       d="m 42.565783,176.07702 c 1.96651,0 3.63179,2.02943 3.83093,4.04396 0.20657,2.0897 -1.43049,3.22942 -3.39669,3.1956 -0.82665,-0.0142 -1.27947,-0.25609 -1.40144,-0.30503 1.79126,0.10004 3.72721,-1.04913 3.54517,-2.89057 -0.17912,-1.81231 -1.54501,-3.63632 -3.24915,-3.98431 0.2115,-0.0392 0.43529,-0.0597 0.67118,-0.0597 z" /><ellipse
       style="fill:#000000;fill-opacity:1;stroke:none;stroke-width:2.01613;stroke-linecap:round;stroke-linejoin:round;stroke-opacity:0.924933;paint-order:fill markers stroke"
       id="ellipse19"
       cx="32.167374"
       cy="179.71199"
       rx="1.218182"
       ry="1.7311007" /><ellipse
       style="fill:#000000;fill-opacity:1;stroke:none;stroke-width:2.01613;stroke-linecap:round;stroke-linejoin:round;stroke-opacity:0.924933;paint-order:fill markers stroke"
       id="ellipse20"
       cx="42.322639"
       cy="179.71199"
       rx="1.218182"
       ry="1.7311007" /><g
       id="g40"
       style="stroke:#aa8800"><path
         id="path1"
         style="opacity:1;fill:#00ffff;fill-opacity:0.307399;stroke:#aa8800;stroke-width:0.47141;stroke-linejoin:round;stroke-dasharray:none;stroke-opacity:1"
         d="m 31.478865,174.85614 a 4.9919083,4.5421655 0 0 0 -4.991932,4.54219 4.9919083,4.5421655 0 0 0 4.991932,4.54219 4.9919083,4.5421655 0 0 0 4.991385,-4.54219 4.9919083,4.5421655 0 0 0 -4.991385,-4.54219 z m 10.885308,0 a 4.9919083,4.5421655 0 0 0 -4.99193,4.54219 4.9919083,4.5421655 0 0 0 4.99193,4.54219 4.9919083,4.5421655 0 0 0 4.991932,-4.54219 4.9919083,4.5421655 0 0 0 -4.991932,-4.54219 z" /><path
         id="circle2"
         style="opacity:1;fill:none;fill-opacity:1;stroke:#aa8800;stroke-width:0.470001;stroke-linejoin:round;stroke-dasharray:none"
         d="m 38.494209,176.32811 c 0.0025,-0.0254 0.0044,-0.051 0.0057,-0.0765 -5.7e-5,-0.89871 -0.728585,-1.04127 -1.627291,-1.04133 -0.702294,0 -1.627771,-0.032 -1.627839,1.04133 0.0013,0.0255 0.0032,0.0511 0.0057,0.0765" /></g></g></svg>
