<?xml version="1.0" encoding="UTF-8" standalone="no"?>
<!-- Created with Inkscape (http://www.inkscape.org/) -->

<svg
   width="29.674448mm"
   height="26.092901mm"
   viewBox="0 0 29.674448 26.092901"
   version="1.1"
   id="svg5"
   inkscape:version="1.3.2 (091e20ef0f, 2023-11-25)"
   sodipodi:docname="ui.svg"
   xml:space="preserve"
   xmlns:inkscape="http://www.inkscape.org/namespaces/inkscape"
   xmlns:sodipodi="http://sodipodi.sourceforge.net/DTD/sodipodi-0.dtd"
   xmlns:xlink="http://www.w3.org/1999/xlink"
   xmlns="http://www.w3.org/2000/svg"
   xmlns:svg="http://www.w3.org/2000/svg"><sodipodi:namedview
     id="namedview7"
     pagecolor="#ffffff"
     bordercolor="#000000"
     borderopacity="0.25"
     inkscape:showpageshadow="2"
     inkscape:pageopacity="0.0"
     inkscape:pagecheckerboard="0"
     inkscape:deskcolor="#d1d1d1"
     inkscape:document-units="mm"
     showgrid="true"
     inkscape:zoom="1.6907272"
     inkscape:cx="354.87689"
     inkscape:cy="836.32655"
     inkscape:window-width="1920"
     inkscape:window-height="956"
     inkscape:window-x="0"
     inkscape:window-y="32"
     inkscape:window-maximized="1"
     inkscape:current-layer="layer1"
     showguides="true"><inkscape:grid
       id="grid21"
       units="mm"
       originx="-92.874185"
       originy="-203.15869"
       spacingx="0.99999998"
       spacingy="1"
       empcolor="#0099e5"
       empopacity="0.30196078"
       color="#0099e5"
       opacity="0.14901961"
       empspacing="5"
       dotted="false"
       gridanglex="30"
       gridanglez="30"
       visible="true" /><sodipodi:guide
       position="54.851224,303.96608"
       orientation="0,-1"
       id="guide1"
       inkscape:locked="false" /><sodipodi:guide
       position="46.109424,431.33084"
       orientation="0,-1"
       id="guide336"
       inkscape:locked="false" /><sodipodi:guide
       position="49.429094,421.37182"
       orientation="0,-1"
       id="guide337"
       inkscape:locked="false" /><sodipodi:guide
       position="0.12581396,283.15871"
       orientation="0,-1"
       id="guide46"
       inkscape:locked="false" /></sodipodi:namedview><defs
     id="defs2"><linearGradient
       id="linearGradient49"
       inkscape:collect="always"><stop
         style="stop-color:#000000;stop-opacity:1;"
         offset="0"
         id="stop49" /><stop
         style="stop-color:#000000;stop-opacity:0;"
         offset="1"
         id="stop50" /></linearGradient><filter
       inkscape:collect="always"
       style="color-interpolation-filters:sRGB"
       id="filter1418"
       x="-0.10891587"
       y="-0.46239597"
       width="1.2178317"
       height="1.9247919"><feGaussianBlur
         inkscape:collect="always"
         stdDeviation="1.06342"
         id="feGaussianBlur1418" /></filter><linearGradient
       inkscape:collect="always"
       xlink:href="#linearGradient49"
       id="linearGradient4"
       gradientUnits="userSpaceOnUse"
       x1="71.079536"
       y1="225.78006"
       x2="71.063911"
       y2="203.68712" /></defs><g
     inkscape:label="Layer 1"
     inkscape:groupmode="layer"
     id="layer1"
     transform="translate(-92.874186,-203.1587)"><g
       id="g1430"
       transform="translate(74.139558,0.22690342)"
       style="fill:#f4d7d7;fill-opacity:1"><ellipse
         style="fill:#f4d7d7;fill-opacity:1;stroke:none;stroke-width:6.01887;stroke-linecap:round;stroke-linejoin:round;stroke-opacity:0.924933;paint-order:fill markers stroke"
         id="ellipse1429"
         cx="28.078255"
         cy="212.54407"
         rx="3.8318079"
         ry="4.9048214" /><ellipse
         style="fill:#f4d7d7;fill-opacity:1;stroke:none;stroke-width:6.01887;stroke-linecap:round;stroke-linejoin:round;stroke-opacity:0.924933;paint-order:fill markers stroke"
         id="ellipse1430"
         cx="39.683586"
         cy="212.54407"
         rx="3.8318079"
         ry="4.9048214" /></g><path
       id="path32"
       style="opacity:0.274059;fill:#b100b4;fill-opacity:1;stroke:none;stroke-width:0.0202496;stroke-linecap:round;paint-order:fill markers stroke"
       d="m 102.59628,209.07894 c -1.95491,0 -3.610423,2.02945 -3.808395,4.04399 -0.205372,2.08971 1.408465,3.24617 3.363145,3.21234 0.82177,-0.0142 1.39276,-0.31821 1.41622,-0.33007 -1.78075,0.10004 -3.71473,-1.04082 -3.53378,-2.88227 0.17808,-1.81233 1.53594,-3.63635 3.23008,-3.98434 -0.2103,-0.0392 -0.43277,-0.0597 -0.66727,-0.0597 z"
       sodipodi:nodetypes="ssscscs"
       inkscape:export-filename="../../../../../home/dekram/RepositoryDisk/Development/repository/alchemicats.pet/src/assets/images/tiktok.svg"
       inkscape:export-xdpi="96"
       inkscape:export-ydpi="96" /><path
       id="path33"
       style="opacity:0.179916;fill:#b100b4;fill-opacity:1;stroke:none;stroke-width:0.0203093;stroke-linecap:round;paint-order:fill markers stroke"
       d="m 113.3916,209.07896 c 1.96651,0 3.63179,2.02943 3.83093,4.04396 0.20657,2.0897 -1.43049,3.22942 -3.39669,3.1956 -0.82665,-0.0142 -1.27947,-0.25609 -1.40144,-0.30503 1.79126,0.10004 3.72721,-1.04913 3.54517,-2.89057 -0.17912,-1.81231 -1.54501,-3.63632 -3.24915,-3.98431 0.2115,-0.0392 0.43529,-0.0597 0.67118,-0.0597 z"
       sodipodi:nodetypes="ssscscs" /><ellipse
       style="fill:#000000;fill-opacity:1;stroke:none;stroke-width:2.01613;stroke-linecap:round;stroke-linejoin:round;stroke-opacity:0.924933;paint-order:fill markers stroke"
       id="ellipse33"
       cx="102.99319"
       cy="212.71393"
       rx="1.218182"
       ry="1.7311007" /><ellipse
       style="fill:#000000;fill-opacity:1;stroke:none;stroke-width:2.01613;stroke-linecap:round;stroke-linejoin:round;stroke-opacity:0.924933;paint-order:fill markers stroke"
       id="ellipse34"
       cx="113.14845"
       cy="212.71393"
       rx="1.218182"
       ry="1.7311007" /><ellipse
       style="opacity:1;fill:#000000;fill-opacity:1;stroke:none;stroke-width:0.1384;stroke-linejoin:round"
       id="ellipse35"
       cx="107.71141"
       cy="223.15831"
       rx="14.837225"
       ry="3.8416777" /><path
       id="path35"
       style="font-variation-settings:normal;opacity:1;vector-effect:none;fill:#ffffff;fill-opacity:1;stroke:url(#linearGradient4);stroke-width:0.699;stroke-linecap:round;stroke-linejoin:round;stroke-miterlimit:4;stroke-dasharray:none;stroke-dashoffset:0;stroke-opacity:1;-inkscape-stroke:none;paint-order:fill markers stroke;stop-color:#000000;stop-opacity:1"
       d="m 108.02262,203.50985 c -4.25915,-0.0759 -8.974487,2.48376 -10.995191,6.51691 -1.628837,3.29335 -0.773426,7.01514 -0.750859,10.52287 0.06518,0.81654 0.08494,1.72777 0.248047,2.58124 h 0.0155 a 11.527297,3.2348447 0 0 0 11.480953,3.01946 11.527297,3.2348447 0 0 0 11.48044,-3.01946 h 0.0346 c 0.0664,-0.3335 0.10027,-0.65635 0.10283,-0.93896 0.10561,-3.05282 0.88693,-6.17265 0.25425,-9.17102 -1.31708,-6.24184 -6.54277,-9.41613 -11.87059,-9.51104 z m -5.18469,5.5795 c 2.14812,0.0102 3.41761,2.56339 2.78536,4.48086 -0.48825,2.35867 -3.39993,3.51972 -5.41931,2.28565 -1.961931,-0.96962 -1.621418,-3.62858 -0.484209,-5.10304 0.670209,-0.93294 1.737339,-1.6251 2.907319,-1.65623 0.0711,-0.005 0.14154,-0.008 0.21084,-0.007 z m 10.31565,0.003 c 0.0806,-0.002 0.16285,-3.9e-4 0.24649,0.004 2.65544,0.12053 4.6701,3.40866 3.46491,5.79086 -1.43479,2.18097 -5.22185,1.8428 -6.20272,-0.60565 -1.02052,-2.00149 -0.006,-5.13139 2.49132,-5.18935 z" /><g
       id="g44"
       transform="matrix(0.0075428,0,0,0.00768266,107.39161,217.66673)"
       style="opacity:1;fill:none;stroke:none;stroke-width:1.58551;stroke-dasharray:none"><rect
         style="opacity:1;fill:none;stroke:none;stroke-width:1.58551;stroke-linejoin:round;stroke-dasharray:none"
         id="rect44"
         width="20"
         height="18"
         x="63.360443"
         y="209.66318"
         ry="4.0000095" /><circle
         style="opacity:1;fill:none;stroke:none;stroke-width:1.58551;stroke-linejoin:round;stroke-dasharray:none"
         id="path44"
         cx="73.360443"
         cy="218.66318"
         r="3.7114065" /><circle
         style="opacity:1;fill:#ffffff;stroke:none;stroke-width:1.58551;stroke-linejoin:round;stroke-dasharray:none"
         id="circle44"
         cx="78.120979"
         cy="213.12097"
         r="1.3718358" /><g
         style="fill:#000000;stroke:none"
         id="g45"
         transform="matrix(1.2205093,0,0,1.1982911,-220.6771,-119.20865)"><path
           d="m 412.19,118.66 a 109.27,109.27 0 0 1 -9.45,-5.5 132.87,132.87 0 0 1 -24.27,-20.62 C 360.37,71.83 353.61,50.82 351.12,36.11 h 0.1 C 349.14,23.9 350,16 350.13,16 h -82.44 v 318.78 c 0,4.28 0,8.51 -0.18,12.69 0,0.52 -0.05,1 -0.08,1.56 0,0.23 0,0.47 -0.05,0.71 0,0.06 0,0.12 0,0.18 a 70,70 0 0 1 -35.22,55.56 68.8,68.8 0 0 1 -34.11,9 c -38.41,0 -69.54,-31.32 -69.54,-70 0,-38.68 31.13,-70 69.54,-70 a 68.9,68.9 0 0 1 21.41,3.39 l 0.1,-83.94 a 153.14,153.14 0 0 0 -118,34.52 161.79,161.79 0 0 0 -35.3,43.53 c -3.48,6 -16.61,30.11 -18.2,69.24 -1,22.21 5.67,45.22 8.85,54.73 v 0.2 c 2,5.6 9.75,24.71 22.38,40.82 A 167.53,167.53 0 0 0 115,470.66 v -0.2 l 0.2,0.2 c 39.91,27.12 84.16,25.34 84.16,25.34 7.66,-0.31 33.32,0 62.46,-13.81 32.32,-15.31 50.72,-38.12 50.72,-38.12 a 158.46,158.46 0 0 0 27.64,-45.93 c 7.46,-19.61 9.95,-43.13 9.95,-52.53 V 176.49 c 1,0.6 14.32,9.41 14.32,9.41 0,0 19.19,12.3 49.13,20.31 21.48,5.7 50.42,6.9 50.42,6.9 v -81.84 c -10.14,1.1 -30.73,-2.1 -51.81,-12.61 z"
           id="path1-3"
           style="stroke:none" /></g></g><path
       id="path1418"
       style="font-variation-settings:normal;opacity:0.460331;mix-blend-mode:normal;vector-effect:none;fill:#000000;fill-opacity:1;stroke:none;stroke-width:0.699;stroke-linecap:round;stroke-linejoin:round;stroke-miterlimit:4;stroke-dasharray:none;stroke-dashoffset:0;stroke-opacity:1;-inkscape-stroke:none;paint-order:fill markers stroke;filter:url(#filter1418);stop-color:#000000"
       d="m 107.78973,224.59907 c -3.83803,0.0334 -7.4602,-1.04903 -11.423063,-3.33699 0.107259,0.90689 0.007,1.89594 0.381029,2.72887 0.858516,1.15422 2.375618,1.49791 3.685674,1.88163 3.98842,0.93588 8.14822,1.00812 12.20788,0.56084 2.1111,-0.29515 4.31734,-0.62181 6.152,-1.77653 0.81689,-0.47143 0.96603,-1.37658 0.93775,-2.2401 0.17753,-0.7049 0.0391,-1.20007 -0.7611,-1.23693 -2.97608,2.97608 -7.4269,3.44201 -11.18017,3.41921 z"
       sodipodi:nodetypes="ccccccccc" /></g></svg>
